<svg xmlns="http://www.w3.org/2000/svg" viewBox="0 0 32 32" version="1.1"><path d="m 6.40015,18.1333 h 2.1333 v 2.1333 h -2.1333 c -3.19995,0 -6.3999,-3.605277 -6.3999,-7.46655 0,-3.861273 3.306615,-7.46655 6.3999,-7.46655 h 8.5332 c 3.093285,0 6.3999,3.605277 6.3999,7.46655 0,3.007953 -1.941303,5.802576 -4.2666,6.933225 v -2.474628 c 1.237314,-0.959985 2.1333,-2.709291 2.1333,-4.458597 0,-2.730624 -2.175966,-5.33325 -4.2666,-5.33325 h -8.5332 c -2.090634,0 -4.2666,2.602626 -4.2666,5.33325 0,2.730624 2.1333,5.33325 4.2666,5.33325 z m 19.1997,-6.3999 h -2.1333 v 2.1333 h 2.1333 c 2.1333,0 4.2666,2.602626 4.2666,5.33325 0,2.730624 -2.175966,5.33325 -4.2666,5.33325 h -8.5332 c -2.090634,0 -4.2666,-2.602626 -4.2666,-5.33325 0,-1.770639 0.895986,-3.498612 2.1333,-4.458597 v -2.474628 c -2.325297,1.130649 -4.2666,3.925272 -4.2666,6.933225 0,3.861273 3.306615,7.46655 6.3999,7.46655 h 8.5332 c 3.093285,0 6.3999,-3.605277 6.3999,-7.46655 0,-3.861273 -3.19995,-7.46655 -6.3999,-7.46655 z"/></svg>