<svg xmlns="http://www.w3.org/2000/svg" id="atom" viewBox="0 0 32 32" version="1.1"><path style="fill:#ff7f00" d="m 9.1486394,27.42555 c 0,2.526354 -2.0479998,4.57435 -4.5743597,4.57435 C 2.0479299,31.9999 0,29.951904 0,27.42555 c 0,-2.526344 2.0479999,-4.57434 4.5743497,-4.57434 2.5263599,0 4.5742897,2.048066 4.5742897,4.57434 z M 21.695769,30.800553 C 21.099049,19.757717 12.253989,10.901536 1.1993599,10.304177 0.54685997,10.268878 0,10.793176 0,11.446605 v 3.433482 c 0,0.601069 0.46356997,1.105148 1.0633599,1.144148 7.9879895,0.520279 14.3909091,6.907255 14.9122691,14.912237 0.0391,0.599789 0.54314,1.063358 1.14414,1.063358 h 3.4335 c 0.6535,0 1.17778,-0.546779 1.1425,-1.199277 z m 10.303489,0.0206 C 31.399688,14.119769 17.961769,0.60323824 1.1787899,7.3956361e-4 0.53378997,-0.02236039 0,0.49866847 0,1.1440171 V 4.5774396 C 0,5.1934982 0.48820997,5.6949271 1.1037899,5.7202171 14.759419,6.2801359 25.719978,17.242752 26.279828,30.896222 26.305028,31.511791 26.806478,32 27.422618,32 h 3.43342 c 0.64529,0 1.16636,-0.533849 1.14322,-1.178847 z"/></svg>