<svg xmlns="http://www.w3.org/2000/svg" id="clock" viewBox="0 0 32 32" version="1.1"><path d="M 16,0 C 7.16129,0 0,7.16129 0,16 0,24.83871 7.16129,32 16,32 24.83871,32 32,24.83871 32,16 32,7.16129 24.83871,0 16,0 Z m 0,28.90323 C 8.87097,28.90323 3.09677,23.12903 3.09677,16 3.09677,8.87097 8.87097,3.09677 16,3.09677 c 7.12903,0 12.90323,5.7742 12.90323,12.90323 0,7.12903 -5.7742,12.90323 -12.90323,12.90323 z m 3.9871,-6.73549 -5.47742,-3.98064 c -0.2,-0.14839 -0.31613,-0.38065 -0.31613,-0.62581 V 6.96774 c 0,-0.4258 0.34839,-0.77419 0.77419,-0.77419 h 2.06452 c 0.4258,0 0.77419,0.34839 0.77419,0.77419 v 9.14194 l 4.30968,3.13548 c 0.34839,0.25161 0.41935,0.73549 0.16774,1.08387 L 21.07097,22 c -0.25162,0.34194 -0.73549,0.41935 -1.08387,0.16774 z"/></svg>