<svg xmlns="http://www.w3.org/2000/svg" id="envelope" viewBox="0 0 32 32" version="1.1"><path d="M 31.39375,11.925 C 31.6375,11.73125 32,11.9125 32,12.21875 V 25 c 0,1.65625 -1.34375,3 -3,3 H 3 C 1.34375,28 0,26.65625 0,25 V 12.225 c 0,-0.3125 0.35625,-0.4875 0.60625,-0.29375 1.4,1.0875 3.25625,2.46875 9.63125,7.1 1.31875,0.9625 3.54375,2.9875 5.7625,2.975 2.23125,0.0188 4.5,-2.05 5.76875,-2.975 6.375,-4.63125 8.225,-6.01875 9.625,-7.10625 z M 16,20 c 1.45,0.025 3.5375,-1.825 4.5875,-2.5875 8.29375,-6.01875 8.925,-6.54375 10.8375,-8.04375 C 31.7875,9.0875 32,8.65 32,8.1875 V 7 C 32,5.34375 30.65625,4 29,4 H 3 C 1.34375,4 0,5.34375 0,7 V 8.1875 C 0,8.65 0.2125,9.08125 0.575,9.36875 2.4875,10.8625 3.11875,11.39375 11.4125,17.4125 12.4625,18.175 14.55,20.025 16,20 Z"/></svg>