<svg xmlns="http://www.w3.org/2000/svg" id="github" viewBox="0 0 32 32" version="1.1"><path d="M 15.79355,0.40000254 C 6.84516,0.40000254 0,7.1934426 0,16.141693 c 0,7.15473 4.50323,13.27721 10.93549,15.43202 0.8258,0.14838 1.11612,-0.36128 1.11612,-0.78063 0,-0.4 -0.0193,-2.60641 -0.0193,-3.96123 0,0 -4.51613,0.96772 -5.46452,-1.92255 0,0 -0.73548,-1.87739 -1.79354,-2.36126 0,0 -1.47742,-1.01289 0.10322,-0.99353 0,0 1.60645,0.12903 2.49032,1.66449 1.41291,2.49028 3.78065,1.77417 4.70323,1.34837 0.14839,-1.03225 0.56774,-1.74836 1.03226,-2.17416 -3.60645,-0.4 -7.24516,-0.92257 -7.24516,-7.12893 0,-1.77416 0.49032,-2.66447 1.52258,-3.79994 -0.16774,-0.41935 -0.71613,-2.1483504 0.16774,-4.3805804 1.34839,-0.41934 4.45161,1.74191 4.45161,1.74191 1.29032,-0.36128 2.67742,-0.54838 4.05161,-0.54838 1.3742,0 2.7613,0.1871 4.05162,0.54838 0,0 3.10322,-2.16771 4.45161,-1.74191 0.88387,2.23868 0.33548,3.9612304 0.16774,4.3805804 1.03226,1.14192 1.66452,2.03223 1.66452,3.79994 0,6.22571 -3.8,6.72248 -7.40645,7.12893 0.59355,0.50967 1.09677,1.47739 1.09677,2.9935 0,2.17416 -0.0194,4.86444 -0.0194,5.39346 0,0.41935 0.29677,0.92902 1.11613,0.78064 C 27.62581,29.418903 32,23.296423 32,16.141693 32,7.1934426 24.74194,0.40000254 15.79355,0.40000254 Z"/></svg>