<svg xmlns="http://www.w3.org/2000/svg" viewBox="0 0 32 32" version="1.1"><path d="m 6.5771776,1.5598603 c -0.19373,-0.5562 -0.98116,-0.5562 -1.18114,0 L 1.8650976,12.4839 h 8.2492704 c -0.006,0 -3.5371904,-10.9240397 -3.5371904,-10.9240397 z M 0.05900765,17.98342 c -0.16249,0.49996 0.0187,1.05616 0.44371,1.37488 L 15.995108,30.85729 1.8588476,12.4839 Z M 10.108118,12.4839 l 5.89324,18.37339 5.89323,-18.37339 z m 21.83559,5.49952 -1.79985,-5.49952 -14.1425,18.37339 15.49238,-11.49899 c 0.43122,-0.31872 0.6062,-0.87492 0.44997,-1.37488 z M 26.606668,1.5598603 c -0.19373,-0.5562 -0.98116,-0.5562 -1.18114,0 L 21.888338,12.4839 h 8.24927 z"/></svg>