<svg xmlns="http://www.w3.org/2000/svg" id="gitlab" viewBox="0 0 32 32" version="1.1"><path id="m" style="fill:#e24329" d="m 16.000223,30.731375 v 0 L 21.892552,12.599384 H 10.110739 Z"/><path id="l1" style="fill:#fc6d26" d="M 16.000223,30.731375 10.105999,12.599384 H 1.8590142 Z"/><path id="l2" style="fill:#fca326" d="m 1.8523787,12.605071 v 0 l -1.79253432,5.509365 a 1.2209329,1.2209329 0 0 0 0.44173505,1.36407 L 16.000223,30.739907 Z"/><path id="lu" style="fill:#e24329" d="M 1.8552225,12.605071 H 10.112635 L 6.5588477,1.6849256 a 0.61331026,0.61331026 0 0 0 -1.1631093,0 z"/><path id="r1" style="fill:#fc6d26" d="m 16.000223,30.731375 5.892329,-18.131991 h 8.260256 z"/><path id="r2" style="fill:#fca326" d="m 30.14712,12.605071 v 0 l 1.792535,5.509365 a 1.2180892,1.2180892 0 0 1 -0.441735,1.36407 L 16.000223,30.731375 30.143329,12.605071 Z"/><path id="ru" style="fill:#e24329" d="M 30.150912,12.605071 H 21.894448 L 25.441599,1.6849256 a 0.61236233,0.61236233 0 0 1 1.162162,0 z"/></svg>