<svg xmlns="http://www.w3.org/2000/svg" id="linkedin-in" viewBox="0 0 32 32" version="1.1"><path style="fill:#0077b5" d="M 7.16286,32.000001 H 0.52857 V 10.635241 H 7.16286 Z M 3.84214,7.7208907 C 1.72071,7.7208907 0,5.9637007 0,3.8422307 a 3.842145,3.8422307 0 0 1 7.68429,0 c 0,2.12147 -1.72143,3.87866 -3.84215,3.87866 z M 31.99286,32.000001 h -6.62 v -10.40023 c 0,-2.47863 -0.05,-5.65727 -3.44929,-5.65727 -3.44928,0 -3.97786,2.69292 -3.97786,5.47869 v 10.57881 h -6.62714 v -21.36476 h 6.36286 v 2.91435 h 0.0929 c 0.88571,-1.67861 3.04928,-3.45008 6.27714,-3.45008 6.71428,0 7.94857,4.42153 7.94857,10.16451 v 11.73598 z"/></svg>