<svg xmlns="http://www.w3.org/2000/svg" id="linkedin" viewBox="0 0 32 32" version="1.1"><path style="fill:#0077b5" d="M 29.71429,0 H 2.27857 C 1.02143,0 0,1.03571 0,2.30714 V 29.69286 C 0,30.96429 1.02143,32 2.27857,32 H 29.71429 C 30.97143,32 32,30.96429 32,29.69286 V 2.30714 C 32,1.03571 30.97143,0 29.71429,0 Z M 9.67143,27.42857 H 4.92857 V 12.15714 h 4.75 V 27.42857 Z M 7.3,10.07143 c -1.52143,0 -2.75,-1.23572 -2.75,-2.75 0,-1.51429 1.22857,-2.75 2.75,-2.75 1.51429,0 2.75,1.23571 2.75,2.75 0,1.52143 -1.22857,2.75 -2.75,2.75 z M 27.45,27.42857 H 22.70714 V 20 c 0,-1.77143 -0.0357,-4.05 -2.46428,-4.05 -2.47143,0 -2.85,1.92857 -2.85,3.92143 v 7.55714 H 12.65 V 12.15714 h 4.55 v 2.08572 h 0.0643 c 0.63571,-1.2 2.18571,-2.46429 4.49285,-2.46429 4.8,0 5.69286,3.16429 5.69286,7.27857 z"/></svg>