<svg viewBox="0 0 576 512"><path d="M 288 0 C 267.05611 0 246.24122 8.6220744 231.43164 23.431641 C 216.62209 38.241206 208 59.056112 208 80 C 208 100.94389 216.62209 121.75878 231.43164 136.56836 C 240.48809 145.62479 251.79587 152.35079 264 156.22266 L 264 184 L 216 184 C 202.60887 184 192 194.60887 192 208 C 192 221.39113 202.60887 232 216 232 L 264 232 L 264 456 A 8.0008 8.0008 0 0 1 256 464 L 208 464 C 150.67311 464 104 417.32689 104 360 L 104 345.875 L 119 360.90039 C 128.39998 370.30037 143.60041 370.30037 152.90039 360.90039 C 162.20037 351.50041 162.30037 336.29998 152.90039 327 L 97 271 C 87.600018 261.60002 72.399591 261.60002 63.099609 271 L 7 327 C -2.3999812 336.39998 -2.3999812 351.60041 7 360.90039 C 16.399982 370.20037 31.600409 370.30037 40.900391 360.90039 L 55.900391 345.92773 L 55.900391 360 C 55.900391 444.07998 123.82041 512 207.90039 512 L 287.90039 512 L 367.90039 512 C 451.98037 512 519.90039 444.07998 519.90039 360 L 519.90039 345.875 L 534.90039 360.90039 C 544.30037 370.30037 559.5008 370.30037 568.80078 360.90039 C 578.10076 351.50041 578.20076 336.29998 568.80078 327 L 512.90039 271 C 503.50041 261.60002 488.29998 261.60002 479 271 L 422.90039 327 C 413.50041 336.39998 413.50041 351.60041 422.90039 360.90039 C 432.30037 370.20037 447.5008 370.30037 456.80078 360.90039 L 471.80078 345.92773 L 471.80078 360 C 471.80078 417.32689 425.12767 464 367.80078 464 L 320 464 A 8.0008 8.0008 0 0 1 312 456 L 312 232 L 360 232 C 373.39113 232 384 221.39113 384 208 C 384 194.60887 373.39113 184 360 184 L 312 184 L 312 156.22266 C 324.20413 152.35079 335.51191 145.62479 344.56836 136.56836 C 359.37791 121.75878 368 100.94389 368 80 C 368 59.056112 359.37791 38.241206 344.56836 23.431641 C 329.75878 8.6220744 308.94389 0 288 0 z M 288 47.691406 A 32.309132 32.309132 0 0 1 320.30859 80 A 32.309132 32.309132 0 0 1 288 112.30859 A 32.309132 32.309132 0 0 1 255.69141 80 A 32.309132 32.309132 0 0 1 288 47.691406 z"/></svg>