<svg viewBox="0 0 512 512"><path d="M 256,0 A 256,256 0 0 0 0,256 256,256 0 0 0 256,512 256,256 0 0 0 512,256 256,256 0 0 0 256,0 Z m 10.28711,48.277344 A 208,208 0 0 1 437.49219,154.54297 L 412,164.80078 c -15.69998,6.29999 -23.79999,23.79885 -18.5,39.79883 l 16.90039,50.70117 c 3.5,10.39999 11.99962,18.29844 22.59961,20.89844 l 28.8418,7.23633 A 208,208 0 0 1 256,464 208,208 0 0 1 48,256 208,208 0 0 1 57.822266,193.21289 l 9.277343,16.1875 c 8.299992,14.49999 21.900016,25.19883 38.000001,29.79883 l 57.90039,16.5 c 17.19998,4.89999 29,20.60002 29,38.5 v 39.90039 C 192,345.0996 198.20001,355.1 208,360 c 9.79999,4.9 16,14.9004 16,25.90039 v 39 c 0,15.59999 14.90041,26.89961 29.90039,22.59961 16.09998,-4.6 28.59922,-17.5008 32.69922,-33.80078 L 289.40039,402.5 c 4.2,-16.89998 15.19884,-31.40001 30.29883,-40 l 8.10156,-4.59961 C 342.80077,349.4004 352,333.3992 352,316.19922 v -8.29883 C 352,295.2004 346.90038,282.99999 337.90039,274 L 334,270.09961 C 325.00001,261.09962 312.7996,256 300.09961,256 H 257 c -11.09999,0 -22.10079,-2.9004 -31.80078,-8.40039 l -34.5,-19.69922 c -4.3,-2.5 -7.59922,-6.50118 -9.19922,-11.20117 -3.2,-9.59999 1.09923,-20.00001 10.19922,-24.5 l 5.90039,-3 c 6.59999,-3.3 14.30079,-3.9 21.30078,-1.5 l 23.19922,7.70117 c 8.19999,2.7 17.20039,-0.40001 21.90039,-7.5 4.7,-6.99999 4.20078,-16.30079 -1.19922,-22.80078 L 249.19922,148.80078 C 239.19923,136.80079 239.30001,119.29999 249.5,107.5 l 15.69922,-18.300781 c 8.79999,-10.29999 10.19999,-24.999231 3.5,-36.699219 z"/></svg>