<svg viewBox="0 0 512 512"><path d="M 64 32 C 28.700035 32 0 60.700035 0 96 L 0 416 C 0 451.29996 28.700035 480 64 480 L 448 480 C 483.29996 480 512 451.29996 512 416 L 512 160 C 512 124.70004 483.29996 96 448 96 L 288 96 C 277.90001 96 268.40038 91.299211 262.40039 83.199219 L 243.19922 57.599609 C 231.09923 41.499625 212.09998 32 192 32 L 64 32 z M 64 80 L 192 80 C 196.97623 80 201.77833 82.37951 204.82812 86.4375 L 223.83008 111.76953 C 238.967 132.20437 263.00649 144 288 144 L 448 144 C 457.28298 144 464 150.71702 464 160 L 464 416 C 464 425.28298 457.28298 432 448 432 L 64 432 C 54.717016 432 48 425.28298 48 416 L 48 96 C 48 86.717016 54.717016 80 64 80 z"/></svg>