<svg viewBox="0 0 640 512"><path d="m 162.61508,7.984375 c -6.74973,0 -13.43824,0.3987363 -20.04883,1.1972656 C 124.63518,11.289865 111.6027,25.243845 108.27328,41.365234 l -3.09766,14.767578 c -5.989934,2.88625 -11.717979,6.205651 -17.154297,9.91211 l -14.466797,-4.703125 0.148438,0.05078 C 58.080475,56.185081 39.383329,60.612378 28.648276,74.925781 a 21.0032,21.0032 0 0 0 -0.04492,0.05859 c -3.461228,4.647935 -6.675419,9.42526 -9.667968,14.251953 a 21.0032,21.0032 0 0 0 -0.427735,0.722656 l -2.625,4.638672 a 21.0032,21.0032 0 0 0 -0.04492,0.08203 c -2.87941,5.141805 -5.390777,10.381042 -7.6484369,15.681642 a 21.0032,21.0032 0 0 0 -0.00586,0.0117 c -6.9761901,16.40347 -1.4825011,34.71969 10.6914063,45.69336 a 21.0032,21.0032 0 0 0 0.08203,0.0742 l 11.318359,10.09571 c -0.23722,3.21971 -0.402344,6.46698 -0.402343,9.75781 0,3.3181 0.165531,6.59269 0.40625,9.8418 l -11.283204,10.0625 C 6.6630099,206.84173 1.2664932,225.24627 8.1521827,241.62305 a 21.0032,21.0032 0 0 0 0.09375,0.2207 c 2.2270503,5.1319 4.6941863,10.27718 7.5058593,15.39844 a 21.0032,21.0032 0 0 0 0.21875,0.38867 l 2.625,4.55078 a 21.0032,21.0032 0 0 0 0.08789,0.15039 c 3.089318,5.25185 6.453694,10.12975 9.996094,14.76367 10.73957,14.28362 29.41461,18.70294 45.023438,13.5 l 14.271484,-4.70508 c 5.420564,3.69974 11.139147,7.01992 17.119142,9.89844 l 3.10352,14.8086 -0.0195,-0.10547 c 3.30672,16.18554 16.52019,30.13372 34.30273,32.22461 6.69386,0.79809 13.46856,1.19922 20.31055,1.19922 6.84199,0 13.61865,-0.40113 20.3125,-1.19922 17.92823,-2.10789 30.96538,-16.05968 34.29492,-32.18164 l 3.09765,-14.76758 c 5.97155,-2.87739 11.68011,-6.18816 17.10157,-9.88086 l 14.2832,4.70898 c 15.62249,5.2075 34.31963,0.78021 45.05469,-13.5332 a 21.0032,21.0032 0 0 0 0.0449,-0.0586 c 3.37556,-4.53289 6.71315,-9.36978 9.83203,-14.67188 a 21.0032,21.0032 0 0 0 0.11328,-0.19336 l 2.71094,-4.72461 a 21.0032,21.0032 0 0 0 0.10937,-0.19336 c 2.87965,-5.14221 5.36415,-10.3296 7.5918,-15.46289 a 21.0032,21.0032 0 0 0 0.0625,-0.14258 c 6.97619,-16.40347 1.48251,-34.7197 -10.69141,-45.69335 a 21.0032,21.0032 0 0 0 -0.082,-0.0762 l -11.32421,-10.09765 c 0.24103,-3.24825 0.4082,-6.52305 0.4082,-9.8418 0,-3.3026 -0.16751,-6.56014 -0.40625,-9.79297 l 11.19726,-9.91797 c 12.55568,-10.89902 17.99078,-29.45615 11.10547,-45.83203 a 21.0032,21.0032 0 0 0 -0.0957,-0.2207 c -2.22766,-5.13328 -4.71021,-10.320681 -7.58984,-15.462892 a 21.0032,21.0032 0 0 0 -0.10938,-0.19336 l -2.71289,-4.724609 a 21.0032,21.0032 0 0 0 -0.20508,-0.351563 c -3.00755,-5.012591 -6.27945,-9.866335 -9.74023,-14.513672 a 21.0032,21.0032 0 0 0 -0.0449,-0.05859 C 286.3752,60.525867 267.67961,56.094374 252.05453,61.302734 l -14.27344,4.707032 c -5.42293,-3.701265 -11.14219,-7.024985 -17.125,-9.904297 L 217.58187,41.494141 C 214.28106,25.337556 201.10531,11.418543 183.37093,9.2890625 176.63264,8.384679 169.90994,7.984375 163.22836,7.984375 Z m 0,42.001953 h 0.61328 c 4.6418,0 9.08547,0.285871 13.39062,0.810547 l 5.17188,24.601563 A 21.0032,21.0032 0 0 0 195.035,90.763672 c 9.24859,3.43319 18.04168,8.567849 25.64648,14.822268 a 21.0032,21.0032 0 0 0 19.91797,3.72265 l 23.8457,-7.86523 c 2.26374,3.12194 4.46512,6.3061 6.4043,9.53516 l 2.43359,4.24023 c 1.72685,3.085 3.31898,6.48597 4.87891,9.96875 l -18.86328,16.70898 a 21.0032,21.0032 0 0 0 -6.80859,19.07422 c 0.79233,4.89808 1.21874,9.90822 1.21874,14.93555 0,5.02734 -0.42641,10.03747 -1.21874,14.93555 a 21.0032,21.0032 0 0 0 6.7539,19.02734 l 18.78711,16.75586 c -1.57232,3.51634 -3.17992,6.94466 -4.92187,10.05664 l -2.51172,4.37695 c -1.84215,3.12976 -4.02131,6.23559 -6.32422,9.39844 l -23.85156,-7.86523 a 21.0032,21.0032 0 0 0 -19.91602,3.72265 c -7.59507,6.24641 -16.2591,11.29433 -25.72656,14.85352 a 21.0032,21.0032 0 0 0 -13.16602,15.34765 l -5.16601,24.64649 c -4.47782,0.47334 -9.01825,0.75195 -13.65625,0.75195 -4.638,0 -9.17649,-0.27861 -13.6543,-0.75195 l -5.16602,-24.64649 a 21.0032,21.0032 0 0 0 -13.24804,-15.3789 c -9.2486,-3.43319 -18.04169,-8.56786 -25.64649,-14.82227 A 21.0032,21.0032 0 0 0 85.159995,242.5918 l -23.871094,7.87109 c -2.336985,-3.12715 -4.51179,-6.21106 -6.396484,-9.41406 -0.002,-0.003 -0.0038,-0.008 -0.0059,-0.0117 l -2.345703,-4.06445 c -1.798075,-3.27902 -3.416651,-6.72994 -4.992187,-10.25782 l 18.789062,-16.75781 a 21.0032,21.0032 0 0 0 6.753907,-19.02734 c -0.791711,-4.89421 -1.216797,-9.90436 -1.216797,-14.93555 0,-5.03119 0.427802,-10.04073 1.208984,-14.79883 A 21.0032,21.0032 0 0 0 66.337729,142.11914 L 47.54476,125.35547 c 1.566206,-3.56218 3.172119,-6.99765 4.9375,-10.15039 5.98e-4,-0.001 -5.97e-4,-0.003 0,-0.004 l 2.261719,-3.99414 c 2.087379,-3.35852 4.301167,-6.56946 6.560547,-9.68164 l 24.029297,7.81055 a 21.0032,21.0032 0 0 0 19.832037,-3.75 c 7.59506,-6.24641 16.25911,-11.294324 25.72656,-14.853518 a 21.0032,21.0032 0 0 0 13.16406,-15.347656 l 5.16602,-24.650391 c 4.38717,-0.47063 8.83824,-0.748047 13.39258,-0.748047 z m 0.26367,84.005862 c -23.19716,0 -42.00196,18.80477 -42.00196,42.00195 0,23.19717 18.8048,42.00195 42.00196,42.00195 23.19714,0 42.00195,-18.80478 42.00195,-42.00195 0,-23.19718 -18.80481,-42.00195 -42.00195,-42.00195 z m 354.05664,60.34765 c -11.47728,0.17296 -22.49123,5.38487 -30.03516,13.75391 a 21.001904,21.001904 0 0 0 -0.0742,0.082 l -10.09961,11.32227 c -3.24804,-0.24101 -6.52131,-0.40821 -9.83984,-0.40821 -3.31854,0 -6.5918,0.1672 -9.83984,0.40821 l -10.06446,-11.28321 c -7.18079,-8.09264 -17.30353,-13.25222 -28.29297,-13.85937 -1.56991,-0.0867 -3.15667,-0.0784 -4.75586,0.0254 a 21.001904,21.001904 0 0 0 -0.002,0 c -4.27152,0.27711 -8.58238,1.27161 -12.66992,2.99023 a 21.001904,21.001904 0 0 0 -0.2207,0.0937 c -5.13159,2.22692 -10.2775,4.69436 -15.39844,7.50586 a 21.001904,21.001904 0 0 0 -0.38867,0.21875 l -4.54883,2.625 a 21.001904,21.001904 0 0 0 -0.15234,0.0879 c -5.25152,3.08913 -10.12809,6.45196 -14.76172,9.99414 -14.28274,10.73891 -18.70067,29.41363 -13.49805,45.02149 l 4.70312,14.27344 c -3.69041,5.40668 -7.00143,11.11041 -9.875,17.07421 l -14.72461,3.03711 c -16.18454,3.30653 -30.1319,16.51934 -32.22265,34.30079 -0.79805,6.69344 -1.19727,13.46898 -1.19727,20.31054 0,6.84157 0.39922,13.61907 1.19727,20.3125 2.10776,17.92713 16.05871,30.96169 32.17969,34.29102 l 14.76757,3.09765 c 2.87721,5.97119 6.18645,11.68045 9.87891,17.10157 l -4.70703,14.28125 c -5.20717,15.62152 -0.77932,34.31638 13.5332,45.05078 a 21.001904,21.001904 0 0 0 0.0566,0.0449 c 4.53261,3.37535 9.36815,6.71334 14.66993,9.83203 a 21.001904,21.001904 0 0 0 0.19335,0.11328 l 4.72657,2.71094 a 21.001904,21.001904 0 0 0 0.1914,0.10938 c 5.1419,2.87945 10.32993,5.36427 15.46289,7.59179 a 21.001904,21.001904 0 0 0 0.14258,0.0625 c 16.40247,6.97576 34.71842,1.4837 45.69141,-10.68945 a 21.001904,21.001904 0 0 0 0.0742,-0.082 l 10.09961,-11.32422 c 3.24804,0.24101 6.52131,0.4082 9.83984,0.4082 3.3024,0 6.56033,-0.16752 9.79297,-0.40625 l 9.91601,11.19727 c 10.89836,12.5549 29.45521,17.98645 45.83008,11.10156 a 21.001904,21.001904 0 0 0 0.22071,-0.0937 c 5.13296,-2.22752 10.32098,-4.71038 15.46289,-7.58984 a 21.001904,21.001904 0 0 0 0.1914,-0.10938 l 4.72657,-2.71289 a 21.001904,21.001904 0 0 0 0.3496,-0.20508 c 5.01229,-3.00737 9.86663,-6.27967 14.51368,-9.74023 a 21.001904,21.001904 0 0 0 0.0566,-0.043 c 14.31114,-10.73336 18.74319,-29.42862 13.53515,-45.05273 l 0.0234,0.0645 -4.72851,-14.33789 c 3.69918,-5.41988 7.01835,-11.13605 9.89648,-17.11524 l 14.70312,-3.08203 c 16.18399,-3.3064 30.13353,-16.51649 32.22461,-34.30078 0.79851,-6.69742 1.19532,-13.47487 1.19532,-20.3125 0,-6.83762 -0.39681,-13.61314 -1.19532,-20.31055 -2.10809,-17.92997 -16.06124,-30.9618 -32.18164,-34.29101 l -14.74609,-3.14258 c -2.88191,-5.9865 -6.19928,-11.70865 -9.90039,-17.14258 l 4.73242,-14.3457 -0.0234,0.0625 c 5.20804,-15.62411 0.77599,-34.31743 -13.53515,-45.05078 a 21.001904,21.001904 0 0 0 -0.0566,-0.0449 c -4.64766,-3.46102 -9.42556,-6.67561 -14.25196,-9.66797 a 21.001904,21.001904 0 0 0 -0.71875,-0.42578 l -4.63672,-2.625 a 21.001904,21.001904 0 0 0 -0.0859,-0.0469 c -5.14352,-2.88037 -10.38501,-5.39163 -15.6836,-7.64844 a 21.001904,21.001904 0 0 0 -0.01,-0.006 c -5.12578,-2.17992 -10.4393,-3.14111 -15.65625,-3.0625 z m 0.67383,42.42188 c 3.5623,1.56615 6.99854,3.17191 10.14843,4.93555 l 0.006,0.002 3.99414,2.26367 c 3.35762,2.08684 6.56635,4.29983 9.67774,6.55859 L 533.5682,274.375 a 21.001904,21.001904 0 0 0 3.72266,19.91602 c 6.24602,7.59458 11.29258,16.25968 14.85156,25.72656 a 21.001904,21.001904 0 0 0 15.28125,13.14844 l 24.71094,5.26562 c 0.47295,4.47568 0.75195,9.01407 0.75195,13.65625 0,4.64097 -0.2773,9.1817 -0.75,13.65625 l -24.64648,5.16602 a 21.001904,21.001904 0 0 0 -15.37891,13.24609 c -3.43298,9.24802 -8.56628,18.04019 -14.82031,25.64453 a 21.001904,21.001904 0 0 0 -3.72266,19.91602 l 7.86328,23.8457 c -3.12175,2.2636 -6.30435,4.46329 -9.5332,6.40234 l -4.24024,2.4336 c -3.0848,1.72673 -6.48619,3.32102 -9.96875,4.88086 l -16.70703,-18.86524 a 21.001904,21.001904 0 0 0 -19.07422,-6.80664 c -4.89776,0.79229 -9.90656,1.21875 -14.93359,1.21875 -5.02703,0 -10.03778,-0.42646 -14.93555,-1.21875 a 21.001904,21.001904 0 0 0 -19.02539,6.75196 l -16.7539,18.7871 c -3.51613,-1.57222 -6.94486,-3.18003 -10.05664,-4.92187 l -4.37696,-2.51172 c -3.12957,-1.84203 -6.23383,-4.0195 -9.39648,-6.32227 l 7.86328,-23.85156 A 21.001904,21.001904 0 0 0 396.57015,409.625 c -6.24601,-7.59459 -11.29259,-16.25774 -14.85156,-25.72461 a 21.001904,21.001904 0 0 0 -15.34766,-13.16406 l -24.64453,-5.16797 c -0.47331,-4.47754 -0.75195,-9.01658 -0.75195,-13.6543 0,-4.63713 0.27877,-9.17534 0.75195,-13.65234 l 24.57618,-5.06641 a 21.001904,21.001904 0 0 0 15.44726,-13.25976 c 3.43274,-9.2474 8.56549,-18.03924 14.82031,-25.64453 a 21.001904,21.001904 0 0 0 3.72266,-19.91407 l -7.87109,-23.87304 c 3.12695,-2.33684 6.21124,-4.50996 9.41406,-6.39453 0.003,-0.002 0.008,-0.004 0.0117,-0.006 l 4.06445,-2.34571 c 3.27882,-1.79796 6.73015,-3.41675 10.25781,-4.99219 l 16.75586,18.79102 a 21.001904,21.001904 0 0 0 19.02735,6.75195 c 4.89776,-0.79228 9.90656,-1.21875 14.93359,-1.21875 5.02703,0 10.03778,0.42647 14.93555,1.21875 a 21.001904,21.001904 0 0 0 19.02539,-6.75195 z m -50.72266,73.24023 c -23.19575,0 -42,18.80429 -42,42 0,23.19573 18.80425,42 42,42 23.19574,0 42,-18.80427 42,-42 0,-23.19571 -18.80426,-42 -42,-42 z"/></svg>