<svg viewBox="0 0 512 512"><path d="m 363.0872,18.750727 -48.45108,48.4511 130.14234,130.141773 48.45107,-48.4511 c 25.02713,-25.02722 25.02713,-65.57201 0,-90.599222 L 453.7882,18.750727 c -24.97142,-24.9715153 -65.72488,-24.976188 -90.701,0 z M 292.00922,89.827705 58.656139,323.28208 c -10.411288,10.41134 -18.018053,23.32556 -22.222614,37.4409 L 0.99413873,481.15345 c -2.50271013,8.50925 -0.20088487,17.62034 6.00584797,23.82709 6.2067323,6.20674 15.3173973,8.50832 23.7265173,6.10571 L 151.15791,475.64737 c 14.11533,-4.20457 27.03006,-11.81221 37.44134,-22.22352 L 422.15154,219.96948 Z m 0.008,67.965525 62.1698,62.16843 -165.51922,165.44197 -62.09363,-62.09616 z m -199.380677,199.46673 61.988167,62.1821 c -4.6417,4.64172 -10.58095,8.18599 -17.18356,10.15273 l -77.933451,22.93255 22.978472,-78.08703 c 1.966336,-6.60121 5.510379,-12.53918 10.150372,-17.18035 z"/></svg>