<svg viewBox="0 0 512 512"><path d="m 408,0.55078125 c -16.39998,0 -32.80079,6.25001255 -45.30078,18.74999975 l -48.39844,48.398438 130,130.000001 48.39844,-48.39844 c 24.99997,-24.99997 24.99997,-65.500024 0,-90.499999 l -39.39844,-39.5 C 440.80079,6.8007938 424.39998,0.55078125 408,0.55078125 Z M 291.69922,90.300781 58.599609,323.5 C 48.19962,333.89999 40.600386,346.8004 36.400391,360.90039 L 1,481.19922 C -1.4999975,489.69921 0.8000062,498.80001 7,505 c 6.199994,6.19999 15.299227,8.49961 23.699219,6.09961 L 151,475.69922 c 14.09999,-4.2 27.0004,-11.79923 37.40039,-22.19922 L 421.69922,220.30078 Z m 0.008,67.890629 62.10156,62.10156 -199.34179,199.25781 -0.008,0.008 c -4.63265,4.63267 -10.56571,8.17405 -17.16015,10.13868 h -0.002 l -77.847661,22.9082 22.953125,-78.00195 v -0.002 c 1.964621,-6.59444 5.50601,-12.5275 10.138672,-17.16015 l 0.0078,-0.008 z"/></svg>