<svg viewBox="0 0 512 512"><path d="M 363.08454,18.749931 58.664469,323.26765 c -10.410927,10.41092 -18.019104,23.3261 -22.223522,37.44091 L 1.0040194,481.13318 c -2.5026254,8.50895 -0.20042202,17.62059 6.0060933,23.8271 6.2065083,6.2065 15.3147593,8.50822 23.7235813,6.10571 L 151.16222,475.62711 c 14.11481,-4.20443 27.02804,-11.81065 37.43896,-22.22158 L 493.22047,148.88781 c 25.02621,-25.02623 25.02622,-65.571037 0,-90.597275 l -39.441,-39.540604 c -24.99944,-24.9994316 -65.69456,-25.0003806 -90.69493,0 z m 96.13852,73.495051 c 6.69959,6.699583 6.69958,15.986858 0.0215,22.664948 l -48.44916,48.44916 -62.1821,-62.18407 48.4472,-48.447203 c 6.32502,-6.325032 16.41805,-6.325016 22.74307,10e-7 z M 59.516065,452.51097 82.493523,374.4259 c 1.966688,-6.60136 5.511301,-12.54089 10.152733,-17.1824 L 314.64319,135.16072 376.80968,197.3272 154.62905,419.42384 c -4.64153,4.64154 -10.58103,8.18809 -17.18341,10.15479 z"/></svg>