<svg viewBox="0 0 512 512"><path d="m 363.09475,19.320501 -48.45122,48.449395 130.14176,130.136874 48.45122,-48.44939 c 25.02723,-25.0263 25.02723,-65.568994 0,-90.59529 L 453.7951,19.320501 c -25.00028,-24.9993345 -65.70033,-24.9990764 -90.70035,0 z M 292.01732,90.395254 58.663505,323.84 c -10.41133,10.41095 -18.018851,23.32493 -22.223427,37.43977 L 1.001083,481.70526 c -2.5027238,8.50894 -0.20021194,17.61932 6.0065431,23.82584 6.2067559,6.20652 15.3159109,8.50856 23.7250629,6.10603 L 151.16466,476.19946 c 14.11537,-4.20441 27.02985,-11.81165 37.44117,-22.22258 L 422.15908,220.53213 Z M 92.645791,357.81329 292.02532,158.35736 354.1946,220.52431 154.63143,419.99592 c -4.64171,4.64154 -10.58124,8.18666 -17.18388,10.15335 l -77.933549,22.93232 22.978156,-78.08507 c 1.966764,-6.60239 5.512015,-12.54169 10.153634,-17.18323 z"/></svg>