<svg viewBox="0 0 512 512"><path d="M 363.08787,18.768988 58.65675,323.27641 c -10.411328,10.41053 -18.018847,23.324 -22.223423,37.43828 L 0.99411781,481.13518 c -2.50273531,8.50858 -0.19999933,17.61883 6.00675349,23.8251 6.2067467,6.20626 15.3156827,8.50799 23.7248247,6.10556 l 120.432174,-35.436 c 14.11537,-4.20426 27.02984,-11.81119 37.44117,-22.22171 L 493.22958,148.90069 c 25.02723,-25.02528 25.02722,-65.566373 0,-90.591674 L 453.78818,18.769005 C 441.27456,6.2563488 424.85587,4.9000031e-6 408.43802,0 392.02017,-6.9999994e-7 375.60147,6.2563428 363.08787,18.768988 Z M 154.6206,419.43246 c -4.63771,4.63737 -10.57723,8.18234 -17.17986,10.14909 l -77.933523,22.93157 22.978281,-78.08198 c 1.966906,-6.60213 5.512149,-12.54122 10.153765,-17.18255 L 325.99676,123.8246 l 62.16929,62.16451 z"/></svg>