<svg viewBox="0 0 512 512"><path d="M 363.08787,18.76974 58.65675,323.28938 C 48.245422,333.70032 40.637903,346.61431 36.433327,360.72916 L 0.99411781,481.15448 c -2.50273531,8.50892 -0.19999933,17.61953 6.00675349,23.82605 6.2067467,6.20651 15.3156827,8.50833 23.7248247,6.10581 L 151.15787,475.64892 c 14.11537,-4.20443 27.02984,-11.81167 37.44117,-22.22261 L 493.22958,148.90666 c 25.02723,-25.02628 25.02722,-65.569001 0,-90.595306 L 453.78818,18.769757 C 428.78791,-6.2295855 388.08786,-6.2293448 363.08787,18.76974 Z M 154.6206,419.44928 c -4.63771,4.63756 -10.57723,8.18267 -17.17986,10.1495 l -77.933523,22.93249 22.978281,-78.08511 c 1.966906,-6.6024 5.512149,-12.54173 10.153765,-17.18324 l 233.357497,-233.43335 62.16929,62.167 z"/></svg>