<svg viewBox="0 0 448 512"><path style="fill:#ff7f00" d="M 24.888672,32 C 11.001625,32 0,43.001625 0,56.888672 0,70.775719 11.001625,81.777344 24.888672,81.777344 230.97173,81.777344 398.22266,249.02825 398.22266,455.11133 398.22266,468.99835 409.22428,480 423.11133,480 436.99836,480 448,468.99835 448,455.11133 448,221.28264 258.71735,32 24.888672,32 Z m 0,132.74023 C 11.001626,164.74023 0,175.74186 0,189.62891 c 0,13.88704 11.001626,24.88867 24.888672,24.88867 132.765578,0 240.593748,107.82817 240.593748,240.59375 0,13.88702 11.00164,24.88867 24.88867,24.88867 13.88705,0 24.88868,-11.00165 24.88868,-24.88867 0,-160.51093 -129.86018,-290.3711 -290.371098,-290.3711 z M 59.216797,352.17969 A 64,64 0 0 0 0,416 64,64 0 0 0 128,416 64,64 0 0 0 59.216797,352.17969 Z M 64,400 a 15.999826,15.999824 0 0 1 16,16 15.999826,15.999824 0 0 1 -16,16 15.999826,15.999824 0 0 1 -16,-16 15.999826,15.999824 0 0 1 16,-16 z"/></svg>