<svg viewBox="0 0 512 512"><path d="M 48 32 C 21.500053 32 0 53.500053 0 80 L 0 229.5 C 0 246.49996 6.7008056 262.69924 18.800781 274.69922 L 186.80078 442.69922 C 211.80074 467.69916 252.30084 467.69916 277.30078 442.69922 L 410.80078 309.19922 C 435.80074 284.19926 435.80074 243.69916 410.80078 218.69922 L 242.80078 50.699219 C 230.8008 38.699243 214.49996 32 197.5 32 L 48 32 z M 328.08789 32.087891 C 321.9504 32.050391 315.7996 34.350005 311.09961 39 C 301.69962 48.299991 301.6004 63.5004 310.90039 72.900391 L 438.59961 202.19922 C 472.49958 236.49918 472.49958 291.60042 438.59961 325.90039 L 326.69922 439.19922 C 317.39923 448.59921 317.5004 463.79962 326.90039 473.09961 C 336.30038 482.3996 351.50079 482.30038 360.80078 472.90039 L 472.80078 359.59961 C 525.20073 306.59966 525.20073 221.40034 472.80078 168.40039 L 345 39.099609 L 345 39.199219 C 340.35 34.499223 334.22538 32.125391 328.08789 32.087891 z M 48 80 L 197.5 80 C 201.8897 80 205.91183 81.693072 208.85938 84.640625 L 376.85938 252.64062 C 383.53115 259.31241 383.53115 268.58605 376.85938 275.25781 L 243.35938 408.75781 C 236.6876 415.4296 227.41395 415.4296 220.74219 408.75781 L 52.742188 240.75781 A 48.0048 48.0048 0 0 0 52.601562 240.61719 C 49.545985 237.58685 48 233.88676 48 229.5 L 48 80 z M 109.60938 112.08984 A 32 32 0 0 0 80 144 A 32 32 0 0 0 144 144 A 32 32 0 0 0 109.60938 112.08984 z"/></svg>