<svg viewBox="0 0 512 503.46826"><path id="github" style="fill:#24292f" d="M 256.21183,0 C 114.53331,0 0,115.37766 0,258.11556 c 0,114.09802 73.385435,210.67961 175.19049,244.86285 12.72825,2.56979 17.39056,-5.55386 17.39056,-12.38737 0,-5.9839 -0.41955,-26.49489 -0.41955,-47.86599 -71.27193,15.38719 -86.11369,-30.76911 -86.11369,-30.76911 -11.453858,-29.91429 -28.424863,-37.60263 -28.424863,-37.60263 -23.32727,-15.81199 1.699193,-15.81199 1.699193,-15.81199 25.87606,1.70969 39.45392,26.49491 39.45392,26.49491 22.90246,39.31231 59.80758,28.20459 74.65459,21.36583 2.11875,-16.66681 8.9103,-28.20458 16.1214,-34.61328 -56.84447,-5.98391 -116.652057,-28.2046 -116.652057,-127.35072 0,-28.20459 10.174217,-51.28012 26.295617,-69.22659 -2.54355,-6.40871 -11.45385,-32.90886 2.5488,-68.377 0,0 21.63331,-6.838751 70.41184,26.49491 a 246.3313,246.3313 0 0 1 64.05558,-8.54844 c 21.63331,0 43.68617,2.99457 64.05033,8.54844 48.78377,-33.333661 70.41709,-26.49491 70.41709,-26.49491 14.00265,35.46814 5.0871,61.96829 2.54354,68.377 16.5462,17.94647 26.30087,41.022 26.30087,69.22659 0,99.14612 -59.80758,120.93677 -117.07686,127.35072 9.3351,8.11839 17.39056,23.50033 17.39056,47.86075 0,34.6133 -0.41956,62.39308 -0.41956,70.93628 0,6.83874 4.66755,14.96239 17.39056,12.39784 C 438.61341,468.78992 511.99886,372.21358 511.99886,258.11556 512.41841,115.37766 397.46555,0 256.21183,0 Z"/></svg>