<svg viewBox="0 0 512 493.15695"><path class="head" style="fill:#e24329" d="m 503.47765,195.17955 -0.7198,-1.83949 -69.68724,-181.869297 a 18.154939,18.154939 0 0 0 -7.17133,-8.6375907 18.661464,18.661464 0 0 0 -21.32739,1.14634 18.661464,18.661464 0 0 0 -6.18494,9.3840607 L 351.3334,157.32343 H 160.79985 L 113.7463,13.363573 a 18.288235,18.288235 0 0 0 -6.18494,-9.4107107 18.661464,18.661464 0 0 0 -21.327386,-1.14635 18.314894,18.314894 0 0 0 -7.17133,8.6375907 L 9.2421043,193.23342 l -0.69314,1.83949 A 129.40393,129.40393 0 0 0 51.470334,344.63122 l 0.23993,0.18661 0.63982,0.45321 106.157066,79.49784 52.5187,39.74892 31.99108,24.15326 a 21.514002,21.514002 0 0 0 26.01941,0 l 31.99108,-24.15326 52.5187,-39.74892 106.79689,-79.97771 0.26659,-0.21327 a 129.45724,129.45724 0 0 0 42.86805,-149.39835 z"/><path class="cheek" style="fill:#fc6d26" d="m 503.47765,195.17955 -0.7198,-1.83949 a 235.40104,235.40104 0 0 0 -93.70721,42.12159 L 255.99998,351.18939 c 52.1188,39.42901 97.49282,73.68612 97.49282,73.68612 l 106.79689,-79.9777 0.26659,-0.21327 a 129.45724,129.45724 0 0 0 42.92137,-149.50499 z"/><path class="chin" style="fill:#fca326" d="m 158.50715,424.87551 52.5187,39.74892 31.99108,24.15327 a 21.514002,21.514002 0 0 0 26.01941,0 l 31.99108,-24.15327 52.5187,-39.74892 c 0,0 -45.42734,-34.36375 -97.54614,-73.68612 -52.11881,39.32237 -97.49283,73.68612 -97.49283,73.68612 z"/><path class="cheek" style="fill:#fc6d26" d="M 102.92265,235.46165 A 235.10779,235.10779 0 0 0 9.2421043,193.23342 l -0.69314,1.83949 A 129.40393,129.40393 0 0 0 51.470334,344.63122 l 0.23993,0.18661 0.63982,0.45321 106.157066,79.49784 c 0,0 45.3207,-34.25712 97.49283,-73.68613 z"/></svg>