<svg viewBox="0 0 512 512"><path style="fill:#007ebb" d="M 56.888672 0 C 25.469836 0 0 25.469836 0 56.888672 L 0 455.11133 C 0 486.53018 25.469836 512 56.888672 512 L 455.11133 512 C 486.53018 512 512 486.53018 512 455.11133 L 512 56.888672 C 512 25.469836 486.53018 0 455.11133 0 L 56.888672 0 z M 116.26172 71.111328 C 141.20243 71.111328 161.40039 91.48052 161.40039 116.60156 C 161.40039 141.7226 141.20243 162.08984 116.26172 162.08984 C 91.320997 162.08984 71.111328 141.7226 71.111328 116.60156 C 71.111328 91.48052 91.320997 71.111328 116.26172 71.111328 z M 351.16406 186.83789 C 403.45291 186.83789 440.88867 218.76962 440.88867 284.80859 L 440.88867 440.88867 L 364.91016 440.88867 L 364.91016 311.48242 C 364.91016 276.00256 351.43003 256.17383 323.34766 256.17383 C 292.79768 256.17383 276.83594 276.80865 276.83594 311.48242 L 276.83594 440.88867 L 203.61523 440.88867 L 203.61523 194.37109 L 276.83594 194.37109 L 276.83594 227.57617 C 276.83594 227.57617 298.85116 186.83789 351.16406 186.83789 z M 78.453125 194.37109 L 154.80469 194.37109 L 154.80469 440.88867 L 78.453125 440.88867 L 78.453125 194.37109 z"/></svg>