<?xml version="1.0" encoding="UTF-8" standalone="no"?>
<svg
   id="nx"
   version="1.1"
   viewBox="0 0 256 256"
   sodipodi:docname="icon.svg"
   inkscape:version="1.2.2 (1:1.2.2+202305151914+b0a8486541)"
   width="256"
   height="256"
   inkscape:export-filename="icon.png"
   inkscape:export-xdpi="192"
   inkscape:export-ydpi="192"
   xmlns:inkscape="http://www.inkscape.org/namespaces/inkscape"
   xmlns:sodipodi="http://sodipodi.sourceforge.net/DTD/sodipodi-0.dtd"
   xmlns:xlink="http://www.w3.org/1999/xlink"
   xmlns="http://www.w3.org/2000/svg"
   xmlns:svg="http://www.w3.org/2000/svg"
   xmlns:rdf="http://www.w3.org/1999/02/22-rdf-syntax-ns#"
   xmlns:cc="http://creativecommons.org/ns#"
   xmlns:dc="http://purl.org/dc/elements/1.1/">
  <metadata
     id="metadata112">
    <rdf:RDF>
      <cc:Work
         rdf:about="">
        <dc:format>image/svg+xml</dc:format>
        <dc:type
           rdf:resource="http://purl.org/dc/dcmitype/StillImage" />
      </cc:Work>
    </rdf:RDF>
  </metadata>
  <sodipodi:namedview
     pagecolor="#ffffff"
     bordercolor="#666666"
     borderopacity="1"
     objecttolerance="10"
     gridtolerance="10"
     guidetolerance="10"
     inkscape:pageopacity="0"
     inkscape:pageshadow="2"
     inkscape:window-width="1920"
     inkscape:window-height="999"
     id="namedview110"
     showgrid="false"
     inkscape:zoom="3.109375"
     inkscape:cx="91.015075"
     inkscape:cy="128"
     inkscape:window-x="0"
     inkscape:window-y="0"
     inkscape:window-maximized="1"
     inkscape:current-layer="nx"
     inkscape:snap-page="false"
     inkscape:snap-grids="true"
     inkscape:snap-text-baseline="false"
     inkscape:snap-center="false"
     inkscape:snap-object-midpoints="false"
     inkscape:showpageshadow="false"
     inkscape:pagecheckerboard="true"
     inkscape:deskcolor="#ffffff" />
  <defs
     id="defs71">
    <radialGradient
       id="gradient0-3"
       cx="0"
       cy="0"
       r="819.20001"
       fx="6.4000001"
       gradientTransform="matrix(0.0477,0.0824,-0.0842,0.0487,15.55,45.45)"
       gradientUnits="userSpaceOnUse">
      <stop
         stop-color="#0a0101"
         offset=".3019608"
         id="stop7" />
      <stop
         stop-color="#4d0101"
         offset=".5490196"
         id="stop9" />
      <stop
         stop-color="#c10000"
         offset=".7490196"
         id="stop11" />
      <stop
         stop-color="#fca921"
         offset="1"
         id="stop13" />
    </radialGradient>
    <radialGradient
       id="gradient0-164"
       cx="0"
       cy="0"
       r="819.20001"
       gradientTransform="matrix(0.0456,0,0,0.0456,-29.6,1.95)"
       gradientUnits="userSpaceOnUse">
      <stop
         stop-color="#facd1b"
         offset="0"
         id="stop29" />
      <stop
         stop-color="#cf4104"
         offset=".3058824"
         id="stop31" />
      <stop
         offset=".8509804"
         id="stop33" />
    </radialGradient>
    <radialGradient
       id="gradient0-08"
       cx="0"
       cy="0"
       r="819.20001"
       gradientTransform="matrix(0.0377,0,0,0.0377,-15.45,-15.55)"
       gradientUnits="userSpaceOnUse">
      <stop
         stop-color="#facd1b"
         offset="0"
         id="stop50" />
      <stop
         stop-color="#cf4104"
         offset=".5764706"
         id="stop52" />
      <stop
         offset="1"
         id="stop54" />
    </radialGradient>
    <radialGradient
       id="gradient1-28"
       cx="0"
       cy="0"
       r="819.20001"
       gradientTransform="matrix(0.0456,0,0,0.0456,-16.55,-26.35)"
       gradientUnits="userSpaceOnUse">
      <stop
         stop-color="#facd1b"
         offset="0"
         id="stop57" />
      <stop
         stop-color="#cf4104"
         offset=".3058824"
         id="stop59" />
      <stop
         offset=".8509804"
         id="stop61" />
    </radialGradient>
    <radialGradient
       inkscape:collect="always"
       xlink:href="#gradient0-3"
       id="radialGradient715"
       gradientUnits="userSpaceOnUse"
       gradientTransform="matrix(0.09767199,0.16872476,-0.1724105,0.09971961,168.21343,192.67809)"
       cx="0"
       cy="0"
       fx="6.4000001"
       r="819.20001" />
  </defs>
  <path
     id="path709"
     style="display:inline;fill:url(#radialGradient715);fill-rule:evenodd;stroke:#ff9900;stroke-width:2.04734;stroke-linecap:butt;stroke-miterlimit:6;stroke-dasharray:none;stroke-opacity:1"
     d="m 72.180596,27.126107 c 0.887307,2.047629 2.114178,5.835807 3.684027,11.364405 2.115882,7.439716 3.175314,13.277415 3.175314,17.50918 0,7.371464 -0.786793,13.445945 -2.356642,18.223745 -2.320645,7.1667 -6.209289,10.749217 -11.669631,10.749217 -2.52541,0 -4.588404,-1.442211 -7.271044,-3.788135 1.023815,3.276206 2.697865,6.552597 5.018511,9.828802 2.388899,3.276207 4.46954,6.858723 6.244153,10.749219 1.77461,3.89049 2.661867,9.82865 2.661867,17.81441 0,12.42227 -2.116495,18.63308 -6.34826,18.63308 -1.91112,0 -3.546949,-1.19339 -4.912036,-3.58229 -1.160323,-1.97938 -1.844284,-3.85672 -2.049047,-5.63133 -1.638102,1.5016 -2.967805,3.7544 -3.99162,6.7576 -1.092067,3.00319 -1.63971,6.04043 -1.63971,9.11187 0,10.64768 3.75469,19.48675 11.262661,26.51694 4.777801,4.16351 8.53249,7.57623 11.262663,10.23815 7.355302,7.11022 11.787651,12.78039 15.457766,21.80603 1.023815,2.66191 6.246893,9.21469 15.665982,19.6576 9.41909,10.37465 23.95719,16.24583 43.61443,17.61092 19.65722,1.36508 35.45804,-4.91505 47.40255,-18.83893 11.87625,-13.99214 17.57527,-28.5972 17.09747,-43.81792 -0.4726,-15.12383 -3.39224,-28.40654 -8.74038,-39.85704 -1.9247,-5.5467 -4.07659,-11.49226 -6.10461,-17.17087 -3.34447,-10.03338 -6.1784,-17.43993 -8.49906,-22.217733 -7.50796,-15.698485 -17.57393,-25.149823 -30.20096,-28.357773 2.65812,2.020653 4.09568,3.309927 6.75759,7.268676 3.00319,4.504782 4.5027,8.429281 4.5027,11.77374 0,1.911119 -0.68161,3.343653 -2.04669,4.299214 -1.16031,0.819051 -2.66219,1.228009 -4.50506,1.228009 -1.63811,0 -4.02724,-1.329703 -7.16693,-3.99162 -2.04763,-1.774611 -3.44667,-3.173657 -4.19747,-4.197472 l -0.40934,-0.511079 C 138.24963,65.28245 124.49595,52.722165 112.61971,48.626908 100.60695,44.53165 93.6787,41.836391 91.835835,40.539559 L 81.701805,33.166775 Z M 116.81717,77.08879 c 5.05082,0 10.78569,4.539117 17.20159,13.616938 6.14288,8.600039 9.21362,15.631122 9.21362,21.091462 0,4.43653 -1.36556,7.47377 -4.09573,9.11187 -1.97937,1.16033 -5.11944,1.73909 -9.41947,1.73909 -6.75717,0 -13.85522,-3.24053 -21.29495,-9.72469 -8.531781,-7.43972 -12.79826,-16.006165 -12.79826,-25.698274 0,-2.184137 0.683962,-4.197802 2.049047,-6.040667 1.365086,-1.842866 2.866963,-2.763611 4.505063,-2.763611 3.64982,0.0962 7.26965,1.320792 9.62295,2.865353 1.42035,0.932224 4.26103,2.796671 4.26103,2.796671 0,0 -0.62185,-1.306705 -0.88223,-1.977998 -0.38959,-1.004437 -0.61519,-2.202767 -0.61519,-3.172947 0,-1.228577 0.75094,-1.843197 2.25253,-1.843197 z m -35.730552,24.36852 c 1.501594,0 3.276108,1.02358 5.323737,3.07121 l 0.307593,0.51107 c 2.115884,2.86668 4.09606,6.62137 5.938925,11.26267 1.842866,4.64129 2.763611,8.15446 2.763611,10.54336 0,2.11588 -0.169807,3.55078 -0.511078,4.30158 -0.409526,0.81906 -1.263295,1.228 -2.560126,1.22802 -3.822241,0 -7.234951,-3.82168 -10.238139,-11.46616 -2.3889,-6.21114 -3.58465,-11.43422 -3.58465,-15.66598 0,-2.52541 0.853769,-3.78577 2.560127,-3.78577 z"
     sodipodi:nodetypes="ccscsccssscccsccccscccccccscscccccccscscscsscscssssccsscccss" />
  <path
     d="m 215.48719,163.04892 -4.45276,6.46499 q 1.02074,3.62742 1.23269,7.00627 0.52365,8.34773 -1.40498,13.956 -2.26756,6.52745 -8.84944,13.82438 l 2.4326,0.84509 -0.74644,0.74521 -2.15404,0.43442 q -1.58016,0.0991 -6.4027,-2.49166 l -5.68741,-3.73375 -0.93249,-0.6399 -0.0987,0.006 -0.99385,-0.0374 -0.20999,-0.18636 -0.30875,-0.18018 -0.25361,-0.88201 q -0.18703,-2.98133 12.79066,-18.96028 12.05866,-14.82383 15.18685,-17.11521 l 0.60503,0.16158 0.24739,0.78264 m -40.4827,37.45855 -0.46264,0.52786 0.46362,1.06837 q 0.13714,2.18631 -13.03772,8.69959 -13.94626,6.86097 -22.63718,7.40614 l -5.64281,-1.44187 13.43669,-2.3394 q -14.01251,-0.51777 -21.01989,-12.64909 -4.44915,-7.70242 -4.98526,-16.2489 -0.4426,-7.05583 1.97983,-12.69507 2.40373,-5.93738 8.64042,-12.4145 l -2.63109,-2.42895 3.19249,1.89488 0.27758,-0.31672 0.53744,0.66467 -0.0863,0.20496 q 13.10364,8.15722 25.01164,19.3825 12.01301,11.31847 21.03301,23.92214 l -0.26511,0.51547 -3.80473,-3.75208"
     id="path697"
     inkscape:connector-curvature="0"
     style="display:inline;fill:#ffffff;fill-rule:evenodd;stroke-width:1.98527" />
</svg>
