<?xml version="1.0" encoding="UTF-8" standalone="no"?>
<svg
   id="nx"
   version="1.1"
   viewBox="0 0 512 512"
   sodipodi:docname="favicon-mono.svg"
   inkscape:version="1.3 (1:1.3+202307231459+0e150ed6c4)"
   width="512"
   height="512"
   inkscape:export-filename="favicon-mono.png"
   inkscape:export-xdpi="192"
   inkscape:export-ydpi="192"
   xmlns:inkscape="http://www.inkscape.org/namespaces/inkscape"
   xmlns:sodipodi="http://sodipodi.sourceforge.net/DTD/sodipodi-0.dtd"
   xmlns="http://www.w3.org/2000/svg"
   xmlns:svg="http://www.w3.org/2000/svg"
   xmlns:rdf="http://www.w3.org/1999/02/22-rdf-syntax-ns#"
   xmlns:cc="http://creativecommons.org/ns#"
   xmlns:dc="http://purl.org/dc/elements/1.1/">
  <metadata
     id="metadata112">
    <rdf:RDF>
      <cc:Work
         rdf:about="">
        <dc:format>image/svg+xml</dc:format>
        <dc:type
           rdf:resource="http://purl.org/dc/dcmitype/StillImage" />
      </cc:Work>
    </rdf:RDF>
  </metadata>
  <sodipodi:namedview
     pagecolor="#ffffff"
     bordercolor="#666666"
     borderopacity="1"
     objecttolerance="10"
     gridtolerance="10"
     guidetolerance="10"
     inkscape:pageopacity="0"
     inkscape:pageshadow="2"
     inkscape:window-width="1920"
     inkscape:window-height="999"
     id="namedview110"
     showgrid="false"
     inkscape:zoom="1.5058594"
     inkscape:cx="255.66796"
     inkscape:cy="256"
     inkscape:window-x="0"
     inkscape:window-y="0"
     inkscape:window-maximized="1"
     inkscape:current-layer="nx"
     inkscape:snap-page="false"
     inkscape:snap-grids="true"
     inkscape:snap-text-baseline="false"
     inkscape:snap-center="false"
     inkscape:snap-object-midpoints="false"
     inkscape:showpageshadow="false"
     inkscape:pagecheckerboard="true"
     inkscape:deskcolor="#ffffff" />
  <defs
     id="defs71">
    <radialGradient
       id="gradient0-3"
       cx="0"
       cy="0"
       r="819.20001"
       fx="6.4000001"
       gradientTransform="matrix(0.0477,0.0824,-0.0842,0.0487,15.55,45.45)"
       gradientUnits="userSpaceOnUse">
      <stop
         stop-color="#0a0101"
         offset=".3019608"
         id="stop7" />
      <stop
         stop-color="#4d0101"
         offset=".5490196"
         id="stop9" />
      <stop
         stop-color="#c10000"
         offset=".7490196"
         id="stop11" />
      <stop
         stop-color="#fca921"
         offset="1"
         id="stop13" />
    </radialGradient>
    <radialGradient
       id="gradient0-164"
       cx="0"
       cy="0"
       r="819.20001"
       gradientTransform="matrix(0.0456,0,0,0.0456,-29.6,1.95)"
       gradientUnits="userSpaceOnUse">
      <stop
         stop-color="#facd1b"
         offset="0"
         id="stop29" />
      <stop
         stop-color="#cf4104"
         offset=".3058824"
         id="stop31" />
      <stop
         offset=".8509804"
         id="stop33" />
    </radialGradient>
    <radialGradient
       id="gradient0-08"
       cx="0"
       cy="0"
       r="819.20001"
       gradientTransform="matrix(0.0377,0,0,0.0377,-15.45,-15.55)"
       gradientUnits="userSpaceOnUse">
      <stop
         stop-color="#facd1b"
         offset="0"
         id="stop50" />
      <stop
         stop-color="#cf4104"
         offset=".5764706"
         id="stop52" />
      <stop
         offset="1"
         id="stop54" />
    </radialGradient>
    <radialGradient
       id="gradient1-28"
       cx="0"
       cy="0"
       r="819.20001"
       gradientTransform="matrix(0.0456,0,0,0.0456,-16.55,-26.35)"
       gradientUnits="userSpaceOnUse">
      <stop
         stop-color="#facd1b"
         offset="0"
         id="stop57" />
      <stop
         stop-color="#cf4104"
         offset=".3058824"
         id="stop59" />
      <stop
         offset=".8509804"
         id="stop61" />
    </radialGradient>
  </defs>
  <path
     id="path709"
     style="display:inline;fill-opacity:1;fill-rule:evenodd;stroke-width:2.39531;paint-order:normal"
     d="M 108.8261,2.9319366e-8 C 110.95148,4.904698 113.89386,13.975879 117.65413,27.218562 c 5.06818,17.820397 7.6023,31.804916 7.60229,41.941288 0,17.656917 -1.8818,32.20459 -5.64207,43.64888 -5.55865,17.16644 -14.87388,25.74957 -27.953064,25.74957 -6.049131,0 -10.991703,-3.45677 -17.417446,-9.07597 2.452348,7.84751 6.464666,15.69855 12.023324,23.54606 5.722143,7.84752 10.7059,16.42596 14.956636,25.74489 4.25074,9.3189 6.37658,23.54277 6.37658,42.6711 0,29.75515 -5.0729,44.63602 -15.209275,44.63602 -4.577716,0 -8.496213,-2.86261 -11.766015,-8.58476 -2.779329,-4.7412 -4.417105,-9.2369 -4.907575,-13.48764 -3.923755,3.59679 -7.110171,8.99347 -9.562521,16.18706 -2.615835,7.19354 -3.925125,14.4674 -3.925125,21.82442 0,25.50445 8.991403,46.67833 26.975289,63.51778 11.444292,9.97289 20.440372,18.14774 26.979972,24.52384 17.6182,17.03117 28.23331,30.61446 37.02435,52.23363 2.45235,6.37609 14.96334,22.06881 37.52494,47.08277 22.5616,24.85047 57.38682,38.91476 104.47193,42.18457 47.08505,3.26979 84.93248,-11.77059 113.54324,-45.12255 28.44726,-33.51545 42.09862,-68.50019 40.95415,-104.95849 -0.31369,-10.03878 -1.09344,-19.72795 -2.30642,-29.08989 l -5.96954,8.66895 c 1.62998,5.79253 2.61357,11.38562 2.95202,16.7812 0.83621,13.33025 -0.28863,24.47572 -3.3684,33.43139 -3.62101,10.4235 -10.68245,21.46103 -21.19287,33.11327 l 5.82453,2.02571 -1.78712,1.78245 -5.16021,1.04327 c -2.52332,0.15833 -7.63462,-1.83243 -15.33558,-5.96956 l -13.62332,-8.94497 -2.23626,-1.52981 -0.23378,0.0144 -2.38127,-0.0937 -0.50527,-0.44443 -0.73917,-0.43041 -0.60352,-2.11461 c -0.29865,-4.76079 9.91006,-19.89629 30.63377,-45.41262 15.95553,-19.6143 26.72888,-31.95485 32.89338,-37.82903 -3.36335,-22.09366 -9.28843,-42.25638 -17.7964,-60.47218 -4.61025,-13.28603 -9.76675,-27.52525 -14.62448,-41.12725 -8.01104,-24.03301 -14.79676,-41.77645 -20.35545,-53.22076 -17.98386,-37.60267 -42.09551,-60.24074 -72.34112,-67.92477 6.36702,4.84009 9.81097,7.92568 16.18704,17.40809 7.19357,10.79033 10.78358,20.19469 10.78358,28.2057 0,4.57771 -1.63312,8.00815 -4.90291,10.29701 -2.7793,1.96188 -6.37398,2.94268 -10.78823,2.94268 -3.92377,0 -9.64899,-3.18642 -17.16949,-9.56252 -4.90471,-4.25074 -8.25536,-7.6014 -10.05376,-10.05375 l -0.98243,-1.22572 C 267.08191,91.394147 234.1383,61.308523 205.69106,51.499129 176.91682,41.689733 160.32311,35.232447 155.90889,32.126137 L 131.633,14.465418 Z M 215.74482,119.67185 c 12.09825,0 25.83874,10.87321 41.20678,32.61737 14.71409,20.59972 22.06771,37.44217 22.06771,50.52137 0,10.62683 -3.27087,17.90066 -9.81047,21.82442 -4.7412,2.77934 -12.26373,4.16841 -22.56361,4.16841 -16.1855,0 -33.18747,-7.7619 -51.0079,-23.29344 -20.43623,-17.8204 -30.65715,-38.34199 -30.65715,-61.55756 0,-5.23167 1.64246,-10.05587 4.91225,-14.47009 3.2698,-4.41423 6.86451,-6.61517 10.78824,-6.61517 8.74244,0.23043 17.41329,3.16342 23.05017,6.86312 3.40218,2.23296 10.20813,6.6947 10.20813,6.6947 0,0 -1.49091,-3.12653 -2.1146,-4.73448 -0.93319,-2.40593 -1.47369,-5.27842 -1.47369,-7.6023 0,-2.94281 1.79737,-4.41635 5.39414,-4.41635 z m -85.5855,58.37161 c 3.59678,0 7.84845,2.45433 12.75315,7.35903 l 0.73917,1.22103 c 5.06819,6.86659 9.80792,15.86265 14.22215,26.97997 4.41422,11.11732 6.61984,19.53153 6.61984,25.25366 0,5.06818 -0.40359,8.50332 -1.22104,10.30169 -0.98094,1.96191 -3.027,2.94264 -6.1333,2.94269 -9.15544,0 -17.33029,-9.15564 -24.52384,-27.46652 -5.72215,-14.87758 -8.58475,-27.38858 -8.58475,-37.52493 0,-6.04913 2.04137,-9.06662 6.12862,-9.06662 z m 115.03095,135.41914 7.64439,4.53798 0.66432,-0.7579 1.28654,1.59065 -0.20576,0.49121 c 20.92482,13.02602 40.89525,28.50249 59.91078,46.42783 19.18321,18.07411 35.97722,37.17382 50.381,57.30025 l -0.63626,1.2351 -9.11338,-8.9871 -1.10877,1.26316 1.11344,2.55905 c 0.21893,3.49124 -10.18936,10.43643 -31.2279,20.83729 -22.27038,10.9561 -40.34832,16.86971 -54.2266,17.74026 l -13.51572,-3.4526 32.18696,-5.60466 c -22.37616,-0.82682 -39.15838,-10.92474 -50.34826,-30.29689 -7.10472,-12.29977 -11.08769,-25.27616 -11.94379,-38.92376 -0.70679,-11.26727 0.87553,-21.40407 4.74383,-30.40921 3.83844,-9.48123 10.73779,-19.39237 20.69695,-29.7355 z" />
</svg>
