<?xml version="1.0" encoding="UTF-8" standalone="no"?>
<svg
   width="1200"
   height="235"
   version="1.1"
   viewBox="0 0 1200 235"
   id="svg127"
   sodipodi:docname="github.svg"
   inkscape:version="1.2.2 (1:1.2.2+202305151914+b0a8486541)"
   xmlns:inkscape="http://www.inkscape.org/namespaces/inkscape"
   xmlns:sodipodi="http://sodipodi.sourceforge.net/DTD/sodipodi-0.dtd"
   xmlns:xlink="http://www.w3.org/1999/xlink"
   xmlns="http://www.w3.org/2000/svg"
   xmlns:svg="http://www.w3.org/2000/svg">
  <sodipodi:namedview
     id="namedview129"
     pagecolor="#ffffff"
     bordercolor="#666666"
     borderopacity="1.0"
     inkscape:showpageshadow="2"
     inkscape:pageopacity="0.0"
     inkscape:pagecheckerboard="true"
     inkscape:deskcolor="#d1d1d1"
     showgrid="false"
     inkscape:zoom="1"
     inkscape:cx="600"
     inkscape:cy="117"
     inkscape:window-width="1920"
     inkscape:window-height="999"
     inkscape:window-x="0"
     inkscape:window-y="0"
     inkscape:window-maximized="1"
     inkscape:current-layer="svg127" />
  <defs
     id="defs33">
    <g
       id="shape0-9-1"
       transform="translate(24.7,-13.75)">
      <path
         d="m33.8 18.65q4 8.45 4.35 19.65 0.35 11.15-8.35 21.4-8.75 10.2-23.15 9.2t-21.3-8.6q-6.9-7.65-7.65-9.6-0.8-2-1.9-3.3l1.1 0.9-0.05-0.35v-1.95q0-6.4 3.2-11.05 2.95-4.35 11.95-11.6 4.5-3.6 6.85-5 4.45-2.65 9.3-3.35 17.5-2.65 23.4 0.25l1.35 1.8 0.05 0.05 0.5 0.85q0.25 0.6 0 0.85l0.35-0.15"
         fill="url(#gradient0-3-7)"
         fill-rule="evenodd"
         id="path2" />
      <path
         d="m33.45 17.95 0.35 0.7q4 8.45 4.35 19.65 0.35 11.15-8.35 21.4-8.75 10.2-23.15 9.2t-21.3-8.6q-6.9-7.65-7.65-9.6-0.8-2-1.9-3.3m57.15-30.3 0.5 0.85z"
         fill="none"
         stroke="#f90"
         stroke-linecap="round"
         stroke-linejoin="round"
         id="path4" />
    </g>
    <radialGradient
       id="gradient0-3-7"
       cx="0"
       cy="0"
       r="819.2"
       fx="6.4"
       gradientTransform="matrix(.0477 .0824 -.0842 .0487 15.55 45.45)"
       gradientUnits="userSpaceOnUse">
      <stop
         stop-color="#0a0101"
         offset=".30196"
         id="stop7" />
      <stop
         stop-color="#4d0101"
         offset=".54902"
         id="stop9" />
      <stop
         stop-color="#c10000"
         offset=".74902"
         id="stop11" />
      <stop
         stop-color="#fca921"
         offset="1"
         id="stop13" />
    </radialGradient>
    <g
       id="shape1-8-0"
       transform="translate(41.35,35.9)">
      <path
         d="m-23 48.9-0.6-1.3q-2.65-4.1-6.25-7.55-2-1.95-5.5-5-5.5-5.15-5.5-12.95 0-2.25 0.8-4.45 0.75-2.2 1.95-3.3 0.15 1.3 1 2.75 1 1.75 2.4 1.75 3.1 0 3.1-9.1 0-5.85-1.3-8.7t-3.05-5.25q-1.7-2.4-2.45-4.8 1.7 1.85 3.55 1.85 4 0 5.7-5.25 1.15-3.5 1.15-8.9 0-3.1-1.55-8.55-1.15-4.05-1.8-5.55l4.65 2.95 4.95 3.6q1.35 0.95 10.15 3.95 8.7 3 20.15 18.4l0.2 0.25q0.55 0.75 2.05 2.05 2.3 1.95 3.5 1.95 1.35 0 2.2-0.6 1-0.7 1-2.1 0-2.45-2.2-5.75-1.95-2.9-3.3-3.55 9.25 2.35 14.75 13.85 1.7 3.5 4.15 10.85l3 8.4q-2.85-2.2-6-2-20.2-0.7-36.1 11.25-6.3 4.75-10.1 10.25-3.45 5-3.55 8.6l-1.15 1.95m-1.4-46.5q-1.5-1.5-2.6-1.5-1.25 0-1.25 1.85 0 3.1 1.75 7.65 2.2 5.6 5 5.6 0.95 0 1.25-0.6 0.25-0.55 0.25-2.1 0-1.75-1.35-5.15t-2.9-5.5l-0.15-0.25m8.85-12.65-1.15-0.1q-1.2 0-2.2 1.35t-1 2.95q0 7.1 6.25 12.55 5.45 4.75 10.4 4.75 3.15 0 4.6-0.85 2-1.2 2-4.45 0-4-4.5-10.3-4.7-6.65-8.4-6.65-1.1 0-1.1 0.9l0.3 1.55 0.55 0.9-2.2-1.3q-2.3-1.3-3.55-1.3"
         fill="url(#gradient0-3-7)"
         fill-rule="evenodd"
         id="path16" />
      <path
         d="m-23 48.9-0.6-1.3q-2.65-4.1-6.25-7.55-2-1.95-5.5-5-5.5-5.15-5.5-12.95 0-2.25 0.8-4.45 0.75-2.2 1.95-3.3 0.15 1.3 1 2.75 1 1.75 2.4 1.75 3.1 0 3.1-9.1 0-5.85-1.3-8.7t-3.05-5.25q-1.7-2.4-2.45-4.8 1.7 1.85 3.55 1.85 4 0 5.7-5.25 1.15-3.5 1.15-8.9 0-3.1-1.55-8.55-1.15-4.05-1.8-5.55l4.65 2.95 4.95 3.6q1.35 0.95 10.15 3.95 8.7 3 20.15 18.4l0.2 0.25q0.55 0.75 2.05 2.05 2.3 1.95 3.5 1.95 1.35 0 2.2-0.6 1-0.7 1-2.1 0-2.45-2.2-5.75-1.95-2.9-3.3-3.55 9.25 2.35 14.75 13.85 1.7 3.5 4.15 10.85l3 8.4m-49.45-29.1q1.25 0 3.55 1.3l2.2 1.3-0.55-0.9-0.3-1.55q0-0.9 1.1-0.9 3.7 0 8.4 6.65 4.5 6.3 4.5 10.3 0 3.25-2 4.45-1.45 0.85-4.6 0.85-4.95 0-10.4-4.75-6.25-5.45-6.25-12.55 0-1.6 1-2.95t2.2-1.35l1.15 0.1m-8.7 12.9q1.55 2.1 2.9 5.5t1.35 5.15q0 1.55-0.25 2.1-0.3 0.6-1.25 0.6-2.8 0-5-5.6-1.75-4.55-1.75-7.65 0-1.85 1.25-1.85 1.1 0 2.6 1.5"
         fill="none"
         stroke="#f90"
         stroke-linecap="round"
         stroke-linejoin="round"
         id="path18" />
    </g>
    <g
       id="shape0-87-5"
       transform="translate(22.35,15.15)">
      <path
         d="m25.95-9.9-2.45 3.1q0.4 1.85 0.4 3.55 0 4.2-1.15 6.95-1.35 3.2-4.9 6.65l1.2 0.5-0.4 0.35-1.1 0.15q-0.8 0-3.15-1.45l-2.75-2.05-0.45-0.35h-0.05l-0.5-0.05-0.1-0.1-0.15-0.1-0.1-0.45q0-1.5 7.05-9.1 6.55-7.05 8.2-8.1l0.3 0.1 0.1 0.4m-21.6 17.5-0.25 0.25 0.2 0.55q0 1.1-6.85 3.95-7.25 3-11.65 3l-2.8-0.9 6.85-0.75q-7.05-0.7-10.2-7-2-4-2-8.3 0-3.55 1.4-6.3 1.4-2.9 4.75-5.95l-1.25-1.3 1.55 1.05 0.15-0.15 0.25 0.35-0.05 0.1q6.35 4.5 12 10.5 5.7 6.05 9.85 12.65l-0.15 0.25-1.8-2"
         fill="#fff"
         fill-rule="evenodd"
         id="path21" />
    </g>
    <filter
       id="filter7671-9"
       x="-0.34855836"
       y="-0.22422473"
       width="1.69827"
       height="1.4487352"
       color-interpolation-filters="sRGB">
      <feGaussianBlur
         stdDeviation="2.4423068"
         id="feGaussianBlur24" />
    </filter>
    <filter
       id="filter7675-8"
       x="-0.17084233"
       y="-0.16949909"
       width="1.3422215"
       height="1.3396886"
       color-interpolation-filters="sRGB">
      <feGaussianBlur
         stdDeviation="2.4423068"
         id="feGaussianBlur27" />
    </filter>
    <filter
       id="filter7687-5"
       x="-0.060203738"
       y="-0.04559004"
       width="1.1202233"
       height="1.0913429"
       color-interpolation-filters="sRGB">
      <feGaussianBlur
         stdDeviation="2.4423068"
         id="feGaussianBlur30" />
    </filter>
    <radialGradient
       id="a"
       cx="6.3930101"
       cy="-0.0039582099"
       r="819.20001"
       gradientTransform="matrix(0.104897,0.181206,-0.185164,0.107096,169.225,196.291)"
       gradientUnits="userSpaceOnUse">
      <stop
         stop-color="#0a0101"
         offset=".30196"
         id="stop7145" />
      <stop
         stop-color="#4d0101"
         offset=".54902"
         id="stop7147" />
      <stop
         stop-color="#c10000"
         offset=".74902"
         id="stop7149" />
      <stop
         stop-color="#fca921"
         offset="1"
         id="stop7151" />
    </radialGradient>
    <filter
       inkscape:collect="always"
       style="color-interpolation-filters:sRGB"
       id="filter2351"
       x="-0.056717254"
       y="-0.065415036"
       width="1.1134326"
       height="1.1083225">
      <feGaussianBlur
         inkscape:collect="always"
         stdDeviation="2.1144635"
         id="feGaussianBlur2353" />
    </filter>
    <radialGradient
       inkscape:collect="always"
       xlink:href="#gradient0-3"
       id="radialGradient715"
       gradientUnits="userSpaceOnUse"
       gradientTransform="matrix(0.0806243,0.13927551,-0.14231794,0.08231453,144.10328,156.07448)"
       cx="0"
       cy="0"
       fx="6.4000001"
       r="819.20001" />
    <radialGradient
       id="gradient0-3"
       cx="0"
       cy="0"
       r="819.20001"
       fx="6.4000001"
       gradientTransform="matrix(0.0477,0.0824,-0.0842,0.0487,15.55,45.45)"
       gradientUnits="userSpaceOnUse">
      <stop
         stop-color="#0a0101"
         offset=".3019608"
         id="stop7-3" />
      <stop
         stop-color="#4d0101"
         offset=".5490196"
         id="stop9-6" />
      <stop
         stop-color="#c10000"
         offset=".7490196"
         id="stop11-7" />
      <stop
         stop-color="#fca921"
         offset="1"
         id="stop13-5" />
    </radialGradient>
    <filter
       inkscape:collect="always"
       style="color-interpolation-filters:sRGB"
       id="filter2359"
       x="-0.0971635"
       y="-0.15236259"
       width="1.1943333"
       height="1.3047487">
      <feGaussianBlur
         inkscape:collect="always"
         stdDeviation="2.1144635"
         id="feGaussianBlur2361" />
    </filter>
  </defs>
  <g
     transform="matrix(1.0971 0 0 1.0971 -199.3 -148.77)"
     fill="#0366d6"
     style="font-variant-caps:small-caps;shape-inside:url(#rect766-0);white-space:pre"
     aria-label="Ven覺 V覺d覺 Cod覺"
     id="g59">
    <path
       d="m534.84 159.71-18.864 51.408h-4.176l-18.864-51.408h4.392l13.608 37.08q0.936 2.592 1.656 4.968 0.792 2.376 1.296 4.464 0.504-2.088 1.224-4.392t1.728-5.112l13.536-37.008z"
       id="path35" />
    <path
       d="m540.53 170.36h22.824v3.456h-18.72v14.256h17.712v3.456h-17.712v16.128h18.72v3.456h-22.824z"
       id="path37" />
    <path
       d="m604.25 170.36v40.752h-4.752l-23.328-34.992h-0.216q0.072 1.944 0.144 4.176 0.144 2.16 0.144 4.032v26.784h-3.816v-40.752h4.752l23.256 34.992h0.216q-0.144-1.872-0.216-4.104 0-2.232 0-4.536v-26.352z"
       id="path39" />
    <path
       d="m619.8 211.11h-4.032v-38.304h4.032z"
       id="path41" />
    <path
       d="m686.76 159.71-18.864 51.408h-4.176l-18.864-51.408h4.392l13.608 37.08q0.936 2.592 1.656 4.968 0.792 2.376 1.296 4.464 0.504-2.088 1.224-4.392t1.728-5.112l13.536-37.008z"
       id="path43" />
    <path
       d="m697.13 211.11h-4.032v-38.304h4.032z"
       id="path45" />
    <path
       d="m741.48 190.31q0 10.296-5.544 15.552t-16.344 5.256h-10.368v-40.752h11.664q10.224 0 15.408 5.184 5.184 5.112 5.184 14.76zm-4.176 0.144q0-16.488-16.848-16.488h-7.2v33.624h6.408q17.64 0 17.64-17.136z"
       id="path47" />
    <path
       d="m755.37 211.11h-4.032v-38.304h4.032z"
       id="path49" />
    <path
       d="m809.52 162.73q-6.336 0-10.872 2.88-4.536 2.808-6.984 7.92-2.376 5.04-2.376 11.808 0 6.912 2.16 12.024 2.232 5.112 6.552 7.92t10.8 2.808q3.744 0 6.84-0.576 3.168-0.576 5.976-1.44v3.6q-2.664 1.008-5.904 1.584-3.168 0.576-7.344 0.576-7.776 0-13.032-3.312-5.184-3.312-7.848-9.288-2.592-5.976-2.592-13.968 0-7.632 2.88-13.536 2.952-5.976 8.424-9.36 5.544-3.384 13.32-3.384 7.56 0 13.536 2.88l-1.656 3.6q-5.616-2.736-11.88-2.736z"
       id="path51" />
    <path
       d="m864.74 190.67q0 6.192-2.088 10.944-2.016 4.752-6.192 7.416-4.104 2.664-10.296 2.664t-10.368-2.664-6.264-7.416-2.088-11.016q0-6.12 2.088-10.8 2.088-4.752 6.264-7.344 4.176-2.664 10.368-2.664 9.288 0 13.896 5.688 4.68 5.688 4.68 15.192zm-33.12 0q0 7.776 3.6 12.6t10.944 4.824q7.272 0 10.8-4.752 3.6-4.752 3.6-12.672 0-8.208-3.672-12.744t-10.728-4.536q-7.344 0-10.944 4.752-3.6 4.68-3.6 12.528z"
       id="path53" />
    <path
       d="m906.36 190.31q0 10.296-5.544 15.552t-16.344 5.256h-10.368v-40.752h11.664q10.224 0 15.408 5.184 5.184 5.112 5.184 14.76zm-4.176 0.144q0-16.488-16.848-16.488h-7.2v33.624h6.408q17.64 0 17.64-17.136z"
       id="path55" />
    <path
       d="m920.25 211.11h-4.032v-38.304h4.032z"
       id="path57" />
  </g>
  <g
     transform="matrix(1.069 0 0 1.069 -162.12 -216.13)"
     fill="#808080"
     style="shape-inside:url(#rect778);shape-padding:0.9409;white-space:pre"
     aria-label="Ahmet Sait's Software Blog"
     id="g107">
    <path
       d="m504.2 381.59-5.125-13.938h-19.438l-5.125 13.938h-3.4062l16.906-44.812h2.9375l16.719 44.812zm-13.75-37.5q-0.34375-0.9375-0.5625-1.8438-0.21875-0.78125-0.46875-1.5625h-0.125q-0.53125 2.0625-1.0312 3.3438l-7.5312 20.781h17.281z"
       id="path61" />
    <path
       d="m536.39 381.59v-19.188q0-5.6875-2.0625-8.3125-2.0625-2.6562-6.4375-2.6562-4.125 0-7.25 3.2188t-3.125 9.2188v17.719h-2.875v-47.375h2.875v21.125h0.125q3.7812-6.5312 11-6.5312 5.1875 0 7.9062 3.3438t2.7188 9.5938v19.844z"
       id="path63" />
    <path
       d="m589.01 381.59v-19.25q0-6.0312-1.9062-8.4688-1.875-2.4375-5.9688-2.4375-3.7812 0-6.5312 3.25t-2.75 8.1562v18.75h-2.875v-19.469q0-10.688-8.125-10.688-3.9062 0-6.5 3.2812-2.5938 3.25-2.5938 8.4375v18.438h-2.875v-32h2.875v5.3125h0.125q3.3438-6.0938 9.7812-6.0938 3.5 0 5.9688 2.0312 2.5 2 3.375 5.2812 1.5-3.4688 4.2812-5.375 2.8125-1.9375 6.0938-1.9375 10.5 0 10.5 13v19.781z"
       id="path65" />
    <path
       d="m602.17 365.71q0 6.5938 3.0312 10.312 3.0625 3.7188 8.375 3.7188 5.375 0 10.5-3.9688v3.0625q-4.9688 3.5312-11.094 3.5312-6.1875 0-10-4.4375t-3.8125-12.531q0-7 3.9688-11.781 4-4.8125 10.375-4.8125 5.9688 0 9.1562 4.1875t3.1875 11.438v1.2812zm20.688-2.625q-0.1875-5.5312-2.6562-8.5938t-6.8125-3.0625q-4.5 0-7.4688 3.0312-2.9375 3-3.625 8.625z"
       id="path67" />
    <path
       d="m646.45 381.15q-2.25 1.0625-4.2188 1.0625-7.0938 0-7.0938-8.5v-21.5h-5.75v-2.625h5.75v-8.3125q0.6875-0.25 1.4375-0.5 0.75-0.21875 1.4375-0.46875v9.2812h8.4375v2.625h-8.4375v21.125q0 3.3125 1.0312 4.8125 1.0625 1.4688 3.5625 1.4688 1.7812 0 3.8438-1.1562z"
       id="path69" />
    <path
       d="m669.54 380v-3.5312q4.8125 3.0625 9.75 3.0625 5.25 0 7.9688-2.1562 2.7188-2.1875 2.7188-6.0938 0-3.4375-1.8438-5.4688-1.8125-2.0625-7.9062-5.5938-6.8125-3.9688-8.625-6.625-1.8125-2.6875-1.8125-6.1875 0-4.75 3.6875-8.0625t9.8438-3.3125q4 0 8 1.3438v3.25q-3.9375-1.7812-8.4062-1.7812-4.5625 0-7.25 2.3125-2.6562 2.3125-2.6562 5.875 0 3.4375 1.8125 5.4688 1.8438 2.0312 7.9062 5.5312 6.2812 3.5625 8.3438 6.3438 2.0938 2.75 2.0938 6.3438 0 5.1562-3.5938 8.4062-3.5625 3.25-10.094 3.25-2.3125 0-5.3438-0.71875-3-0.71875-4.5938-1.6562z"
       id="path71" />
    <path
       d="m721.26 381.59v-6.4062h-0.125q-1.5312 3.2812-4.4688 5.25-2.9062 1.9375-6.4688 1.9375-4.5625 0-7.2188-2.5625t-2.6562-6.4688q0-8.375 11.094-10.125l9.8438-1.4688q0-10.312-7.75-10.312-5.2812 0-10.281 4.25v-3.4688q1.7812-1.4062 4.8125-2.4062 3.0625-1 5.75-1 4.9375 0 7.625 3.0625 2.7188 3.0625 2.7188 8.9062v20.812zm-8.8125-15.938q-5.0312 0.71875-7.0625 2.3438-2.0312 1.5938-2.0312 5.2188 0 2.8438 1.875 4.6875 1.9062 1.8438 5.2812 1.8438 4.625 0 7.6875-3.4062 3.0625-3.4375 3.0625-8.8438v-3.125z"
       id="path73" />
    <path
       d="m735.17 341.53q-0.9375 0-1.6562-0.6875t-0.71875-1.75q0-1.0312 0.71875-1.6562 0.75-0.65625 1.6562-0.65625 0.96875 0 1.6875 0.625 0.75 0.625 0.75 1.6875 0 1-0.71875 1.7188t-1.7188 0.71875zm-1.4062 40.062v-32h2.875v32z"
       id="path75" />
    <path
       d="m759.54 381.15q-2.25 1.0625-4.2188 1.0625-7.0938 0-7.0938-8.5v-21.5h-5.75v-2.625h5.75v-8.3125q0.6875-0.25 1.4375-0.5 0.75-0.21875 1.4375-0.46875v9.2812h8.4375v2.625h-8.4375v21.125q0 3.3125 1.0312 4.8125 1.0625 1.4688 3.5625 1.4688 1.7812 0 3.8438-1.1562z"
       id="path77" />
    <path
       d="m768.98 350.81h-2.6875v-14.031h2.6875z"
       id="path79" />
    <path
       d="m774.79 380.18v-3.4688q1.625 1.4062 3.9375 2.2188t4 0.8125q7.5312 0 7.5312-6.1562 0-2.125-1.6562-3.625t-5.375-3.0938q-4.5938-2-6.4688-4.125-1.8438-2.1562-1.8438-5.2188 0-3.9062 2.9688-6.3125 3-2.4062 7.375-2.4062 4.125 0 7.0625 1.6875v3.25q-3.5625-2.3125-7.375-2.3125-3.1562 0-5.0938 1.6562-1.9375 1.625-1.9375 4.25 0 2.2812 1.2188 3.7188 1.2188 1.4062 5.375 3.25 5 2.25 6.875 4.1875 1.875 1.9062 1.875 5.0938 0 3.8125-2.875 6.3125-2.8438 2.4688-7.875 2.4688-4.625 0-7.7188-2.1875z"
       id="path81" />
    <path
       d="m818.04 380v-3.5312q4.8125 3.0625 9.75 3.0625 5.25 0 7.9688-2.1562 2.7188-2.1875 2.7188-6.0938 0-3.4375-1.8438-5.4688-1.8125-2.0625-7.9062-5.5938-6.8125-3.9688-8.625-6.625-1.8125-2.6875-1.8125-6.1875 0-4.75 3.6875-8.0625t9.8438-3.3125q4 0 8 1.3438v3.25q-3.9375-1.7812-8.4062-1.7812-4.5625 0-7.25 2.3125-2.6562 2.3125-2.6562 5.875 0 3.4375 1.8125 5.4688 1.8438 2.0312 7.9062 5.5312 6.2812 3.5625 8.3438 6.3438 2.0938 2.75 2.0938 6.3438 0 5.1562-3.5938 8.4062-3.5625 3.25-10.094 3.25-2.3125 0-5.3438-0.71875-3-0.71875-4.5938-1.6562z"
       id="path83" />
    <path
       d="m863.48 382.37q-7 0-11.094-4.5938-4.0625-4.625-4.0625-12 0-7.9688 4.25-12.469 4.2812-4.5 11.25-4.5 6.8438 0 10.812 4.4688t3.9688 12.375q0 7.4688-4.0625 12.094-4.0312 4.625-11.062 4.625zm0.21875-30.938q-5.6562 0-9.0312 3.8125-3.3438 3.8125-3.3438 10.594 0 6.2812 3.2812 10.094t8.9688 3.8125q5.7812 0 8.9062-3.75t3.125-10.406q0-6.8438-3.125-10.5-3.0938-3.6562-8.7812-3.6562z"
       id="path85" />
    <path
       d="m898.82 337.25q-1.1562-0.90625-3.5-0.90625-5.9062 0-5.9062 7.9375v5.3125h8.4688v2.625h-8.4688v29.375h-2.875v-29.375h-5.75v-2.625h5.75v-5.5625q0-5.0625 2.5312-7.6875 2.5625-2.625 6.375-2.625 2.0312 0 3.375 0.59375z"
       id="path87" />
    <path
       d="m916.86 381.15q-2.25 1.0625-4.2188 1.0625-7.0938 0-7.0938-8.5v-21.5h-5.75v-2.625h5.75v-8.3125q0.6875-0.25 1.4375-0.5 0.75-0.21875 1.4375-0.46875v9.2812h8.4375v2.625h-8.4375v21.125q0 3.3125 1.0312 4.8125 1.0625 1.4688 3.5625 1.4688 1.7812 0 3.8438-1.1562z"
       id="path89" />
    <path
       d="m950.32 381.59h-2.6875l-6.9688-24.125q-0.28125-1-0.5-2.6875h-0.15625q-0.0625 0.71875-0.625 2.625l-7.8125 24.188h-2.6875l-9.6562-32h3.1875l7.4375 25.531q0.28125 1 0.4375 2.6875h0.25q0.0625-0.90625 0.59375-2.6875l8.125-25.531h1.9688l7.25 25.531q0.25 0.90625 0.4375 2.6875h0.25q0-0.90625 0.53125-2.6875l7.5938-25.531h2.9688z"
       id="path91" />
    <path
       d="m985.64 381.59v-6.4062h-0.125q-1.5312 3.2812-4.4688 5.25-2.9062 1.9375-6.4688 1.9375-4.5625 0-7.2188-2.5625t-2.6562-6.4688q0-8.375 11.094-10.125l9.8438-1.4688q0-10.312-7.75-10.312-5.2812 0-10.281 4.25v-3.4688q1.7812-1.4062 4.8125-2.4062 3.0625-1 5.75-1 4.9375 0 7.625 3.0625 2.7188 3.0625 2.7188 8.9062v20.812zm-8.8125-15.938q-5.0312 0.71875-7.0625 2.3438-2.0312 1.5938-2.0312 5.2188 0 2.8438 1.875 4.6875 1.9062 1.8438 5.2812 1.8438 4.625 0 7.6875-3.4062 3.0625-3.4375 3.0625-8.8438v-3.125z"
       id="path93" />
    <path
       d="m1013.2 352.59q-1.4375-1.0312-3.375-1.0312-3.7813 0-6.3438 3.9062t-2.5625 11.094v15.031h-2.8125v-32h2.8125v7.0938h0.125q1.0938-3.6562 3.4688-5.6875t5.5-2.0312q1.7812 0 3.1875 0.5625z"
       id="path95" />
    <path
       d="m1018.7 365.71q0 6.5938 3.0312 10.312 3.0625 3.7188 8.375 3.7188 5.375 0 10.5-3.9688v3.0625q-4.9687 3.5312-11.094 3.5312-6.1875 0-10-4.4375t-3.8125-12.531q0-7 3.9687-11.781 4-4.8125 10.375-4.8125 5.9688 0 9.1563 4.1875t3.1875 11.438v1.2812zm20.688-2.625q-0.1875-5.5312-2.6563-8.5938-2.4687-3.0625-6.8125-3.0625-4.5 0-7.4687 3.0312-2.9375 3-3.625 8.625z"
       id="path97" />
    <path
       d="m1068.4 381.59v-44.812h11.781q5.2812 0 8.4062 2.8438t3.125 7.5312q0 3.9062-2.0937 6.7812-2.0625 2.8438-5.7813 4.0312v0.125q4.6563 0.4375 7.3438 3.3438 2.6875 2.875 2.6875 7.3438 0 5.6562-3.6563 9.25-3.6562 3.5625-9.7812 3.5625zm3.0938-41.969v17.344h6.25q4.875 0 7.8125-2.5t2.9375-6.7812q0-8.0625-9.5313-8.0625zm0 20.156v19h8.3125q5.2812 0 8.0625-2.5312 2.8125-2.5312 2.8125-7.1875 0-9.2812-12.594-9.2812z"
       id="path99" />
    <path
       d="m1102.6 381.59v-47.375h2.875v47.375z"
       id="path101" />
    <path
       d="m1128.6 382.37q-7 0-11.094-4.5938-4.0625-4.625-4.0625-12 0-7.9688 4.25-12.469 4.2813-4.5 11.25-4.5 6.8438 0 10.812 4.4688 3.9688 4.4688 3.9688 12.375 0 7.4688-4.0625 12.094-4.0313 4.625-11.062 4.625zm0.2187-30.938q-5.6562 0-9.0312 3.8125-3.3438 3.8125-3.3438 10.594 0 6.2812 3.2813 10.094 3.2812 3.8125 8.9687 3.8125 5.7813 0 8.9063-3.75t3.125-10.406q0-6.8438-3.125-10.5-3.0938-3.6562-8.7813-3.6562z"
       id="path103" />
    <path
       d="m1177.3 379.21q0 9.0312-3.9375 13.219t-12.25 4.1875q-4.625 0-9.5312-2.4375v-3q5.0625 2.8125 9.5937 2.8125 13.25 0 13.25-14v-4.1562h-0.125q-3.7812 6.5312-11.531 6.5312-5.9063 0-9.6563-4.2812-3.7187-4.2812-3.7187-11.938t4.0312-12.5q4.0313-4.8438 10.625-4.8438 7.0625 0 10.25 5.8438h0.125v-5.0625h2.875zm-2.875-17.344q0-4.25-2.875-7.3438-2.8437-3.0938-7.4375-3.0938-5.2812 0-8.5 3.9688-3.2187 3.9688-3.2187 10.5 0 6.5625 2.9375 10.219 2.9687 3.625 7.8125 3.625 5.1562 0 8.2187-3.3438t3.0625-8.1875z"
       id="path105" />
  </g>
  <g
     id="g3381"
     transform="matrix(1.2545056,0,0,1.2545056,48.142182,-18.524607)">
    <g
       id="g2389"
       transform="matrix(0.95790517,0,0,0.95790517,5.3263954,7.2221077)">
      <path
         id="path2139"
         style="display:inline;fill:#800000;fill-opacity:1;fill-rule:evenodd;stroke:#ff0000;stroke-width:5;stroke-linecap:round;stroke-linejoin:miter;stroke-miterlimit:6;stroke-dasharray:none;stroke-opacity:1;filter:url(#filter2351)"
         d="m 64.832031,19.417969 c 0.732436,1.690235 1.745169,4.817224 3.041016,9.380859 1.746576,6.141187 2.621094,10.959973 2.621094,14.453125 0,6.084847 -0.649466,11.099087 -1.945313,15.042969 -1.915599,5.915823 -5.125519,8.873047 -9.632812,8.873047 -2.084624,0 -3.787543,-1.190487 -6.001954,-3.126953 0.845118,2.704376 2.226979,5.408905 4.142579,8.113281 1.97194,2.704377 3.689426,5.6616 5.154297,8.873047 1.46487,3.211447 2.197265,8.113161 2.197265,14.705078 0,10.254088 -1.747082,15.380858 -5.240234,15.380858 -1.577553,0 -2.927864,-0.98509 -4.054688,-2.95703 -0.9578,-1.6339 -1.522383,-3.18357 -1.691406,-4.64844 -1.352188,1.23951 -2.449804,3.09911 -3.294922,5.57813 -0.901458,2.47901 -1.353515,4.98613 -1.353515,7.52148 0,8.78923 3.099346,16.08553 9.296874,21.88867 3.943883,3.43681 7.043228,6.25387 9.296876,8.45118 6.071506,5.8692 9.730232,10.5497 12.759765,18 0.845118,2.1973 5.156559,7.60636 12.931641,16.22656 7.775076,8.56386 19.775696,13.41028 36.001956,14.53711 16.22625,1.12682 29.26919,-4.05718 39.1289,-15.55078 9.80337,-11.54995 14.50768,-23.60584 14.11328,-36.16993 -0.39012,-12.48412 -2.80016,-23.44846 -7.21484,-32.90039 -1.58876,-4.57858 -3.36506,-9.4864 -5.03911,-14.173864 -2.76072,-8.282153 -5.10002,-14.395962 -7.01563,-18.339844 -6.19752,-12.958469 -14.50657,-20.760169 -24.92968,-23.408203 2.19417,1.667968 3.38082,2.732212 5.57812,6 2.47901,3.718517 3.7168,6.958033 3.7168,9.71875 0,1.577552 -0.56264,2.760051 -1.68946,3.548828 -0.95779,0.676094 -2.19753,1.013672 -3.71875,1.013672 -1.35219,0 -3.32432,-1.097616 -5.91601,-3.294922 -1.69024,-1.46487 -2.84509,-2.619726 -3.46484,-3.464844 l -0.3379,-0.421875 C 119.36936,50.914497 108.01625,40.546486 98.212891,37.166016 88.296845,33.785545 82.577852,31.560717 81.056641,30.490234 l -8.365235,-6.085937 z m 36.845699,41.242187 c 4.16925,0 8.90315,3.746859 14.19922,11.240235 5.0707,7.098987 7.60547,12.902862 7.60547,17.410156 0,3.662176 -1.12721,6.169296 -3.38086,7.521484 -1.63389,0.9578 -4.22589,1.435547 -7.77539,1.435547 -5.57777,0 -11.43693,-2.674932 -17.578123,-8.027344 -7.042646,-6.141187 -10.564453,-13.212444 -10.564453,-21.21289 0,-1.802918 0.564583,-3.465117 1.691406,-4.986328 1.126824,-1.521212 2.366562,-2.28125 3.71875,-2.28125 3.012777,0.07941 6.000799,1.090261 7.943359,2.365234 1.172437,0.769513 3.517311,2.308539 3.517311,2.308539 0,0 -0.51332,-1.078632 -0.72825,-1.632758 -0.32159,-0.829122 -0.507811,-1.818295 -0.507811,-2.61914 0,-1.014141 0.619871,-1.521485 1.859371,-1.521485 z M 72.183594,80.775391 c 1.239506,0 2.704296,0.844921 4.394531,2.535156 l 0.253906,0.421875 c 1.746577,2.366329 3.381133,5.465675 4.902344,9.296875 1.521212,3.831199 2.28125,6.731181 2.28125,8.703123 0,1.74657 -0.140169,2.93103 -0.421875,3.55078 -0.338047,0.6761 -1.042799,1.01367 -2.113281,1.01368 -3.155106,0 -5.972161,-3.15464 -8.451172,-9.464849 -1.971941,-5.127047 -2.958985,-9.438488 -2.958985,-12.93164 0,-2.084624 0.704752,-3.125 2.113282,-3.125 z"
         sodipodi:nodetypes="ccscsccssscccsccccscccccccscscccccccscscscsscscssssccsscccss" />
      <path
         id="path709"
         style="display:inline;fill:url(#radialGradient715);fill-rule:evenodd;stroke:#ff9900;stroke-width:1.69;stroke-linecap:butt;stroke-miterlimit:6;stroke-dasharray:none;stroke-opacity:1"
         d="m 64.832031,19.417969 c 0.732436,1.690235 1.745169,4.817224 3.041016,9.380859 1.746576,6.141187 2.621094,10.959973 2.621094,14.453125 0,6.084847 -0.649466,11.099087 -1.945313,15.042969 -1.915599,5.915823 -5.125519,8.873047 -9.632812,8.873047 -2.084624,0 -3.787543,-1.190487 -6.001954,-3.126953 0.845118,2.704376 2.226979,5.408905 4.142579,8.113281 1.97194,2.704377 3.689426,5.6616 5.154297,8.873047 1.46487,3.211447 2.197265,8.113161 2.197265,14.705078 0,10.254088 -1.747082,15.380858 -5.240234,15.380858 -1.577553,0 -2.927864,-0.98509 -4.054688,-2.95703 -0.9578,-1.6339 -1.522383,-3.18357 -1.691406,-4.64844 -1.352188,1.23951 -2.449804,3.09911 -3.294922,5.57813 -0.901458,2.47901 -1.353515,4.98613 -1.353515,7.52148 0,8.78923 3.099346,16.08553 9.296874,21.88867 3.943883,3.43681 7.043228,6.25387 9.296876,8.45118 6.071506,5.8692 9.730232,10.5497 12.759765,18 0.845118,2.1973 5.156559,7.60636 12.931641,16.22656 7.775076,8.56386 19.775696,13.41028 36.001956,14.53711 16.22625,1.12682 29.26919,-4.05718 39.1289,-15.55078 9.80337,-11.54995 14.50768,-23.60584 14.11328,-36.16993 -0.39012,-12.48412 -2.80016,-23.44846 -7.21484,-32.90039 -1.58876,-4.57858 -3.36506,-9.4864 -5.03911,-14.173864 -2.76072,-8.282153 -5.10002,-14.395962 -7.01563,-18.339844 -6.19752,-12.958469 -14.50657,-20.760169 -24.92968,-23.408203 2.19417,1.667968 3.38082,2.732212 5.57812,6 2.47901,3.718517 3.7168,6.958033 3.7168,9.71875 0,1.577552 -0.56264,2.760051 -1.68946,3.548828 -0.95779,0.676094 -2.19753,1.013672 -3.71875,1.013672 -1.35219,0 -3.32432,-1.097616 -5.91601,-3.294922 -1.69024,-1.46487 -2.84509,-2.619726 -3.46484,-3.464844 l -0.3379,-0.421875 C 119.36936,50.914497 108.01625,40.546486 98.212891,37.166016 88.296845,33.785545 82.577852,31.560717 81.056641,30.490234 l -8.365235,-6.085937 z m 36.845699,41.242187 c 4.16925,0 8.90315,3.746859 14.19922,11.240235 5.0707,7.098987 7.60547,12.902862 7.60547,17.410156 0,3.662176 -1.12721,6.169296 -3.38086,7.521484 -1.63389,0.9578 -4.22589,1.435547 -7.77539,1.435547 -5.57777,0 -11.43693,-2.674932 -17.578123,-8.027344 -7.042646,-6.141187 -10.564453,-13.212444 -10.564453,-21.21289 0,-1.802918 0.564583,-3.465117 1.691406,-4.986328 1.126824,-1.521212 2.366562,-2.28125 3.71875,-2.28125 3.012777,0.07941 6.000799,1.090261 7.943359,2.365234 1.172437,0.769513 3.517311,2.308539 3.517311,2.308539 0,0 -0.51332,-1.078632 -0.72825,-1.632758 -0.32159,-0.829122 -0.507811,-1.818295 -0.507811,-2.61914 0,-1.014141 0.619871,-1.521485 1.859371,-1.521485 z M 72.183594,80.775391 c 1.239506,0 2.704296,0.844921 4.394531,2.535156 l 0.253906,0.421875 c 1.746577,2.366329 3.381133,5.465675 4.902344,9.296875 1.521212,3.831199 2.28125,6.731181 2.28125,8.703123 0,1.74657 -0.140169,2.93103 -0.421875,3.55078 -0.338047,0.6761 -1.042799,1.01367 -2.113281,1.01368 -3.155106,0 -5.972161,-3.15464 -8.451172,-9.464849 -1.971941,-5.127047 -2.958985,-9.438488 -2.958985,-12.93164 0,-2.084624 0.704752,-3.125 2.113282,-3.125 z"
         sodipodi:nodetypes="ccscsccssscccsccccscccccccscscccccccscscscsscscssssccsscccss" />
    </g>
    <g
       id="g2393"
       transform="matrix(0.95790517,0,0,0.95790517,5.3263954,7.2221077)">
      <path
         d="m 183.12587,131.61679 -3.67558,5.33659 q 0.84258,2.99429 1.01754,5.78339 0.43225,6.89072 -1.15976,11.52012 -1.87178,5.38815 -7.30485,11.41147 l 2.00801,0.69759 -0.61616,0.61514 -1.77807,0.3586 q -1.30436,0.0818 -5.28517,-2.05677 l -4.69473,-3.08206 -0.76973,-0.52821 -0.0815,0.005 -0.82038,-0.0309 -0.17334,-0.15383 -0.25486,-0.14873 -0.20935,-0.72806 q -0.15438,-2.46097 10.55818,-15.65095 9.95394,-12.23648 12.53613,-14.12792 l 0.49943,0.13338 0.20421,0.64603 m -33.41684,30.92053 -0.38189,0.43573 0.3827,0.8819 q 0.1132,1.80471 -10.76212,7.18116 -11.51207,5.66345 -18.68608,6.11347 l -4.65791,-1.19021 11.09145,-1.93108 q -11.56677,-0.4274 -17.35108,-10.44131 -3.67259,-6.35804 -4.11513,-13.41282 -0.36535,-5.8243 1.63427,-10.47927 1.98418,-4.90107 7.13232,-10.24767 l -2.17186,-2.005 2.63527,1.56415 0.22913,-0.26144 0.44364,0.54866 -0.0712,0.16918 q 10.81653,6.73346 20.64611,15.99948 9.91625,9.34294 17.3619,19.74676 l -0.21884,0.4255 -3.14065,-3.09719"
         id="path2137"
         inkscape:connector-curvature="0"
         style="display:inline;fill:#800000;fill-opacity:1;fill-rule:evenodd;stroke:#ff0200;stroke-width:5;stroke-linecap:round;stroke-linejoin:round;stroke-dasharray:none;stroke-opacity:1;filter:url(#filter2359)" />
      <path
         d="m 183.12587,131.61679 -3.67558,5.33659 q 0.84258,2.99429 1.01754,5.78339 0.43225,6.89072 -1.15976,11.52012 -1.87178,5.38815 -7.30485,11.41147 l 2.00801,0.69759 -0.61616,0.61514 -1.77807,0.3586 q -1.30436,0.0818 -5.28517,-2.05677 l -4.69473,-3.08206 -0.76973,-0.52821 -0.0815,0.005 -0.82038,-0.0309 -0.17334,-0.15383 -0.25486,-0.14873 -0.20935,-0.72806 q -0.15438,-2.46097 10.55818,-15.65095 9.95394,-12.23648 12.53613,-14.12792 l 0.49943,0.13338 0.20421,0.64603 m -33.41684,30.92053 -0.38189,0.43573 0.3827,0.8819 q 0.1132,1.80471 -10.76212,7.18116 -11.51207,5.66345 -18.68608,6.11347 l -4.65791,-1.19021 11.09145,-1.93108 q -11.56677,-0.4274 -17.35108,-10.44131 -3.67259,-6.35804 -4.11513,-13.41282 -0.36535,-5.8243 1.63427,-10.47927 1.98418,-4.90107 7.13232,-10.24767 l -2.17186,-2.005 2.63527,1.56415 0.22913,-0.26144 0.44364,0.54866 -0.0712,0.16918 q 10.81653,6.73346 20.64611,15.99948 9.91625,9.34294 17.3619,19.74676 l -0.21884,0.4255 -3.14065,-3.09719"
         id="path697"
         inkscape:connector-curvature="0"
         style="display:inline;fill:#ffffff;fill-rule:evenodd;stroke-width:1.63876" />
    </g>
  </g>
</svg>
