<svg id="SVGRoot" version="1.1" viewBox="0 0 256 256" xmlns="http://www.w3.org/2000/svg" xmlns:xlink="http://www.w3.org/1999/xlink"><defs><g id="shape0-9" transform="translate(24.7,-13.75)"><path d="m33.8 18.65q4 8.45 4.35 19.65.35 11.15-8.35 21.4-8.75 10.2-23.15 9.2t-21.3-8.6q-6.9-7.65-7.65-9.6-.8-2-1.9-3.3l1.1.9-.05-.35v-1.95q0-6.4 3.2-11.05 2.95-4.35 11.95-11.6 4.5-3.6 6.85-5 4.45-2.65 9.3-3.35 17.5-2.65 23.4.25l1.35 1.8.05.05.5.85q.25.6 0 .85l.35-.15" fill="url(#gradient0-3)" fill-rule="evenodd"/><path d="m33.45 17.95.35.7q4 8.45 4.35 19.65.35 11.15-8.35 21.4-8.75 10.2-23.15 9.2t-21.3-8.6q-6.9-7.65-7.65-9.6-.8-2-1.9-3.3m57.15-30.3.5.85z" fill="none" stroke="#f90" stroke-linecap="round" stroke-linejoin="round"/></g><radialGradient id="gradient0-3" cx="0" cy="0" r="819.2" fx="6.4" gradientTransform="matrix(.0477 .0824 -.0842 .0487 15.55 45.45)" gradientUnits="userSpaceOnUse"><stop stop-color="#0a0101" offset=".3019608"/><stop stop-color="#4d0101" offset=".5490196"/><stop stop-color="#c10000" offset=".7490196"/><stop stop-color="#fca921" offset="1"/></radialGradient><g id="shape1-8" transform="translate(41.35,35.9)"><path d="m-23 48.9-.6-1.3q-2.65-4.1-6.25-7.55-2-1.95-5.5-5-5.5-5.15-5.5-12.95 0-2.25.8-4.45.75-2.2 1.95-3.3.15 1.3 1 2.75 1 1.75 2.4 1.75 3.1 0 3.1-9.1 0-5.85-1.3-8.7t-3.05-5.25q-1.7-2.4-2.45-4.8 1.7 1.85 3.55 1.85 4 0 5.7-5.25 1.15-3.5 1.15-8.9 0-3.1-1.55-8.55-1.15-4.05-1.8-5.55l4.65 2.95 4.95 3.6q1.35.95 10.15 3.95 8.7 3 20.15 18.4l.2.25q.55.75 2.05 2.05 2.3 1.95 3.5 1.95 1.35 0 2.2-.6 1-.7 1-2.1 0-2.45-2.2-5.75-1.95-2.9-3.3-3.55 9.25 2.35 14.75 13.85 1.7 3.5 4.15 10.85l3 8.4q-2.85-2.2-6-2-20.2-.7-36.1 11.25-6.3 4.75-10.1 10.25-3.45 5-3.55 8.6l-1.15 1.95m-1.4-46.5q-1.5-1.5-2.6-1.5-1.25 0-1.25 1.85 0 3.1 1.75 7.65 2.2 5.6 5 5.6.95 0 1.25-.6.25-.55.25-2.1 0-1.75-1.35-5.15t-2.9-5.5l-.15-.25m8.85-12.65-1.15-.1q-1.2 0-2.2 1.35t-1 2.95q0 7.1 6.25 12.55 5.45 4.75 10.4 4.75 3.15 0 4.6-.85 2-1.2 2-4.45 0-4-4.5-10.3-4.7-6.65-8.4-6.65-1.1 0-1.1.9l.3 1.55.55.9-2.2-1.3q-2.3-1.3-3.55-1.3" fill="url(#gradient0-3)" fill-rule="evenodd"/><path d="m-23 48.9-.6-1.3q-2.65-4.1-6.25-7.55-2-1.95-5.5-5-5.5-5.15-5.5-12.95 0-2.25.8-4.45.75-2.2 1.95-3.3.15 1.3 1 2.75 1 1.75 2.4 1.75 3.1 0 3.1-9.1 0-5.85-1.3-8.7t-3.05-5.25q-1.7-2.4-2.45-4.8 1.7 1.85 3.55 1.85 4 0 5.7-5.25 1.15-3.5 1.15-8.9 0-3.1-1.55-8.55-1.15-4.05-1.8-5.55l4.65 2.95 4.95 3.6q1.35.95 10.15 3.95 8.7 3 20.15 18.4l.2.25q.55.75 2.05 2.05 2.3 1.95 3.5 1.95 1.35 0 2.2-.6 1-.7 1-2.1 0-2.45-2.2-5.75-1.95-2.9-3.3-3.55 9.25 2.35 14.75 13.85 1.7 3.5 4.15 10.85l3 8.4m-49.45-29.1q1.25 0 3.55 1.3l2.2 1.3-.55-.9-.3-1.55q0-.9 1.1-.9 3.7 0 8.4 6.65 4.5 6.3 4.5 10.3 0 3.25-2 4.45-1.45.85-4.6.85-4.95 0-10.4-4.75-6.25-5.45-6.25-12.55 0-1.6 1-2.95t2.2-1.35l1.15.1m-8.7 12.9q1.55 2.1 2.9 5.5t1.35 5.15q0 1.55-.25 2.1-.3.6-1.25.6-2.8 0-5-5.6-1.75-4.55-1.75-7.65 0-1.85 1.25-1.85 1.1 0 2.6 1.5" fill="none" stroke="#f90" stroke-linecap="round" stroke-linejoin="round"/></g><g id="shape0-87" transform="translate(22.35,15.15)"><path d="m25.95-9.9-2.45 3.1q.4 1.85.4 3.55 0 4.2-1.15 6.95-1.35 3.2-4.9 6.65l1.2.5-.4.35-1.1.15q-.8 0-3.15-1.45l-2.75-2.05-.45-.35h-.05l-.5-.05-.1-.1-.15-.1-.1-.45q0-1.5 7.05-9.1 6.55-7.05 8.2-8.1l.3.1.1.4m-21.6 17.5-.25.25.2.55q0 1.1-6.85 3.95-7.25 3-11.65 3l-2.8-.9 6.85-.75q-7.05-.7-10.2-7-2-4-2-8.3 0-3.55 1.4-6.3 1.4-2.9 4.75-5.95l-1.25-1.3 1.55 1.05.15-.15.25.35-.05.1q6.35 4.5 12 10.5 5.7 6.05 9.85 12.65l-.15.25-1.8-2" fill="#fff" fill-rule="evenodd"/></g><filter id="filter7671" x="-.24431" y="-.1575791" width="1.48862" height="1.315158" color-interpolation-filters="sRGB"><feGaussianBlur stdDeviation="2.4423068"/></filter><filter id="filter7675" x="-.1196023" y="-.1188233" width="1.239205" height="1.237647" color-interpolation-filters="sRGB"><feGaussianBlur stdDeviation="2.4423068"/></filter><filter id="filter7687" x="-.04207444" y="-.0319288" width="1.084149" height="1.063858" color-interpolation-filters="sRGB"><feGaussianBlur stdDeviation="2.4423068"/></filter></defs><path transform="matrix(1.310775 0 0 1.310775 -.0002297376 -79.5581)" d="m107.0805 249.7369c-12.65702-1.58176-22.38607-5.34669-29.71256-11.49813-2.27103-1.90679-9.42993-9.90979-13.25316-14.81582-1.38087-1.77197-3.17701-4.5567-3.99141-6.1883-.81441-1.63159-1.83139-3.43309-2.25997-4.00333-.42858-.57023-.77924-1.33068-.77924-1.68987 0-1.74173-8.18225-10.70348-17.85532-19.55634-2.02806-1.8561-4.42224-4.34372-5.32042-5.52805-5.5046-7.25835-7.39232-17.81238-4.70063-26.28065.45998-1.44713 1.40642-3.51319 2.10322-4.59126 1.75478-2.715 2.66477-2.96093 3.07898-.83213.32604 1.67569 1.88988 4.61085 2.91724 5.47531.99067.8336 2.44804 1.02084 3.51229.45127.85207-.45601 1.82544-2.45081 2.49441-5.11193.81321-3.23496.81046-15.7265-.004-19.63035-.72765-3.48634-3.03371-8.34268-6.33664-13.34436-1.36377-2.06518-2.96612-4.80786-3.56078-6.09485-1.77775-3.84746-1.37751-4.77543 1.18578-2.74927 2.06901 1.63547 3.55483 2.12924 5.65772 1.88018 6.46232-.76537 10.26121-9.83966 9.90556-23.66116-.11152-4.334172-.30897-6.114047-1.02039-9.198354-.92887-4.027039-3.03799-11.30215-4.10022-14.14307-.51378-1.374124-.55082-1.747305-.20215-2.036681.50549-.419521 6.47185 3.219921 12.7342 7.76778 2.14962 1.561102 4.37126 3.157866 4.93699 3.548364 1.28934.889986 6.4925 2.98405 13.46504 5.419148 5.94118 2.074904 9.400315 3.674651 12.65822 5.854048 7.37233 4.931786 15.51049 13.17137 24.70399 25.01191 3.94667 5.08301 5.58802 6.73797 8.69338 8.76544 2.3564 1.53849 4.31732 1.70322 6.08962.51158 2.19951-1.47887 2.21245-4.6349.0375-9.14466-1.58929-3.29542-4.86548-7.74293-6.57439-8.92491-1.34899-.93304-1.64105-1.60003-.83591-1.90899.72348-.27762 5.23329 1.34178 8.0615 2.89476 8.24907 4.52962 15.17743 13.0967 20.21254 24.9933 1.55413 3.672 1.98781 4.84944 7.19969 19.54729 1.87492 5.28739 4.06817 11.22325 4.8739 13.19081 4.21228 10.28634 6.23196 20.97673 6.21382 32.89038-.008 5.45973-.1256 7.04891-.72471 9.81912-2.40412 11.11624-8.74797 22.27732-17.37437 30.56765-6.76285 6.49938-13.96189 10.21359-23.40273 12.07422-3.88031.76474-13.64088.90541-18.72628.26988zm-43.16812-94.23619c.56371-1.0533.38399-4.86117-.35358-7.49172-1.64511-5.8673-5.57459-13.44863-7.94829-15.33501-2.65107-2.1068-3.85413-1.70889-3.99896 1.32264-.32794 6.86426 4.87225 19.65733 8.77119 21.57814 1.52443.75101 3.10584.71784 3.52964-.074zm35.99498-8.20136c3.04513-.80908 4.49519-2.55052 5.07132-6.0904.78477-4.82182-1.74431-11.1643-7.91096-19.83926-2.62375-3.69097-7.40382-8.48114-9.64675-9.66715-1.1976-.63326-2.26986-.93574-3.41985-.96472l-1.675235-.0422.10222 1.27512c.0562.70132.397875 1.85464.759215 2.56293 1.00381 1.96763.38768 2.26743-1.928175.93822-4.64458-2.66582-6.66011-3.46048-9.09378-3.58542-2.87268-.14748-3.86098.42136-5.11934 2.94657-1.46985 2.94959-1.06546 8.47983.97772 13.37081 3.59999 8.61769 14.7506 17.90885 23.33462 19.44342 1.97143.35243 6.62607.16302 8.54899-.34789z" fill="#800000" fill-rule="evenodd" filter="url(#filter7687)" stroke="#ff2000" stroke-width="5"/><g transform="matrix(1.310775 0 0 1.310775 -22.95889 61.14975)"><use transform="matrix(1.747602,0,0,1.747602,74.33653,45.69536)" width="63.349998" height="55.75" xlink:href="#shape0-9"/><use transform="matrix(1.747602,0,0,1.747602,45.23896,-41.07308)" width="75.75" height="85.300003" xlink:href="#shape1-8"/></g><g transform="matrix(1.310775 0 0 1.310775 -202.5326 -2.046295)" fill="#800000" fill-rule="evenodd" stroke="#ff2000" stroke-width="5"><path d="m255.0291 169.7818c-.74886-.21655-1.44198-.47616-1.54026-.57691-.0983-.10074 1.9068-.52768 4.45572-.94876 5.09491-.84166 6.65523-1.25574 4.86155-1.29016-2.00871-.0386-5.75577-1.05309-8.09756-2.19245-10.28678-5.00486-15.95549-21.14974-11.47378-32.67807 1.18589-3.05048 2.50783-5.17847 5.37353-8.65004 2.09696-2.5403 2.84947-3.13916 3.11401-2.47818.0597.14921.98795.82664 2.06276 1.50542 11.56676 7.30481 25.8788 20.67162 34.9929 32.68183 1.12808 1.48653 1.98794 2.7659 1.9108 2.84304-.0771.0771-.78453-.51622-1.57198-1.31857-1.6644-1.6959-2.0781-1.81783-1.79504-.52905.17176.78202.023 1.08887-.9362 1.93105-1.43494 1.2599-4.45024 3.01767-9.55817 5.57193-9.83132 4.91624-18.02505 7.22003-21.79828 6.12892z" filter="url(#filter7675)"/><path d="m307.6114 159.3369c-1.02761-.43092-3.38972-1.75332-5.24913-2.93868-1.8594-1.18535-3.61028-2.15519-3.89083-2.15519-.90825 0-.96291-1.22627-.13441-3.01521 1.42241-3.07132 7.24661-10.75435 15.61455-20.59802 5.34526-6.28793 7.28653-8.23964 7.74225-7.78392.22114.22114-.29873 1.2482-1.58865 3.13853l-1.91736 2.80981.50938 2.05774c.64227 2.59457.69915 10.37385.096 13.13153-.84994 3.88608-3.12425 8.23165-6.41016 12.24801-.96982 1.18541-1.76331 2.23726-1.76331 2.33743 0 .10018.45418.2819 1.00929.40382 1.25675.27603.87051.71442-.84644.96074-.95905.13758-1.79579-.0198-3.17119-.59659z" filter="url(#filter7671)"/></g><g transform="matrix(1.310775 0 0 1.310775 -22.95889 61.14975)"><use transform="matrix(1.685794 -.1057484 .1064093 1.69633 103.042 72.00849)" width="48.299999" height="30.5" xlink:href="#shape0-87"/></g></svg>
