<?xml version="1.0" encoding="UTF-8" standalone="no"?>
<svg
   id="nx"
   width="256"
   height="256"
   version="1.1"
   viewBox="0 0 256 256"
   sodipodi:docname="icon-glow.svg"
   inkscape:version="1.2 (dc2aedaf03, 2022-05-15)"
   xmlns:inkscape="http://www.inkscape.org/namespaces/inkscape"
   xmlns:sodipodi="http://sodipodi.sourceforge.net/DTD/sodipodi-0.dtd"
   xmlns="http://www.w3.org/2000/svg"
   xmlns:svg="http://www.w3.org/2000/svg">
  <sodipodi:namedview
     id="namedview7161"
     pagecolor="#ffffff"
     bordercolor="#111111"
     borderopacity="1"
     inkscape:showpageshadow="0"
     inkscape:pageopacity="0"
     inkscape:pagecheckerboard="1"
     inkscape:deskcolor="#d1d1d1"
     showgrid="false"
     inkscape:zoom="2.1682767"
     inkscape:cx="77.25029"
     inkscape:cy="102.61606"
     inkscape:window-width="1920"
     inkscape:window-height="1001"
     inkscape:window-x="-9"
     inkscape:window-y="-9"
     inkscape:window-maximized="1"
     inkscape:current-layer="nx" />
  <defs
     id="defs7154">
    <radialGradient
       id="a"
       cx="6.39301"
       cy="-.00395821"
       r="819.2"
       gradientTransform="matrix(.104897 .181206 -.185164 .107096 169.225 196.291)"
       gradientUnits="userSpaceOnUse">
      <stop
         stop-color="#0a0101"
         offset=".30196"
         id="stop7145" />
      <stop
         stop-color="#4d0101"
         offset=".54902"
         id="stop7147" />
      <stop
         stop-color="#c10000"
         offset=".74902"
         id="stop7149" />
      <stop
         stop-color="#fca921"
         offset="1"
         id="stop7151" />
    </radialGradient>
    <filter
       inkscape:collect="always"
       style="color-interpolation-filters:sRGB"
       id="filter26846"
       x="-0.10209523"
       y="-0.16009477"
       width="1.2041962"
       height="1.3202107">
      <feGaussianBlur
         inkscape:collect="always"
         stdDeviation="3.0958985"
         id="feGaussianBlur26848" />
    </filter>
    <filter
       inkscape:collect="always"
       style="color-interpolation-filters:sRGB"
       id="filter26850"
       x="-0.059595177"
       y="-0.045105616"
       width="1.1191886"
       height="1.0901931">
      <feGaussianBlur
         inkscape:collect="always"
         stdDeviation="3.0958985"
         id="feGaussianBlur26852" />
    </filter>
  </defs>
  <g
     id="g3051">
    <g
       id="g3043">
      <path
         d="m66.0879 18.4922c0.952942 2.1991 2.27106 6.26751 3.95703 12.2051 2.2724 7.99006 3.4082 14.2579 3.4082 18.8027 0 7.91675-0.841368 14.441-2.52734 19.5723-2.49231 7.69684-6.6709 11.5449-12.5352 11.5449-2.71222-1e-6 -5.31433-1.35614-7.80664-4.06836 1.09955 3.51856 2.89441 7.03613 5.38672 10.5547 2.56562 3.51856 4.80115 7.36859 6.70703 11.5469 1.90588 4.17829 2.85938 10.5544 2.85938 19.1309 0 13.3412-2.2716 20.0117-6.81641 20.0117-2.05249 0-3.81323-1.28205-5.2793-3.84766-1.24616-2.1258-1.97931-4.14099-2.19922-6.04687-1.75928 1.61267-3.18756 4.03051-4.28711 7.25586-1.17285 3.22534-1.75977 6.48846-1.75977 9.78711 0 11.4353 4.03234 20.9283 12.0957 28.4785 5.13123 4.4715 9.16162 8.13532 12.0938 10.9941 5.27783 5.05793 9.85223 10.565 13.7461 16.6035 1.38307 2.14483 2.93585 5.92842 3.35742 6.88086 1.23973 2.80088 6.20837 9.83343 16.3242 21.0488 10.1158 11.1421 25.7285 17.448 46.8398 18.9141 21.1113 1.46607 38.0821-5.27856 50.9102-20.2324 12.7548-15.0272 18.8744-30.7139 18.3613-47.0606-0.5074-16.2364-3.64129-30.4947-9.38086-42.7891 7e-3 6e-3 0.0143 0.0101 0.0215 0.0156l-6.59765-18.4726c-3.59187-10.7756-6.61902-18.7301-9.11133-23.8613-8.06336-16.8598-18.8764-27.0118-32.4375-30.457 1.97919 0.952942 4.39898 3.55505 7.25781 7.80664 3.22535 4.83802 4.83789 9.05267 4.83789 12.6445 0 2.05249-0.73315 3.5929-2.19922 4.61914-1.24616 0.879639-2.8587 1.31836-4.83789 1.31836-1.75928 0-4.32532-1.43024-7.69726-4.28906-2.1991-1.90588-3.70148-3.40826-4.50782-4.50781l-0.43945-0.548828c-16.7865-22.5774-31.5578-36.0647-44.3125-40.4629-12.9014-4.3982-20.3411-7.29474-22.3203-8.6875l-10.8867-7.91602zm47.9394 53.6582c5.42445 0 11.5822 4.87567 18.4727 14.625 6.59729 9.23621 9.89648 16.7861 9.89648 22.6504 0 4.76472-1.46631 8.02588-4.39843 9.78516-2.12579 1.24615-5.49909 1.86914-10.1172 1.86914-7.25702 0-14.8791-3.48151-22.8691-10.4453-9.16291-7.99006-13.7441-17.1886-13.7441-27.5977 0-2.3457 0.7312-4.50909 2.19727-6.48828 1.46606-1.97919 3.08056-2.96875 4.83984-2.96875l2.52734 0.220703c1.83258 0 4.4347 0.951537 7.80664 2.85742l4.83985 2.85938-1.21094-1.97852-0.66016-3.41016c0-1.31946 0.80726-1.97852 2.41992-1.97852zm-38.375 26.1699c1.61267 0 3.51965 1.09973 5.71875 3.29883l0.330078 0.54883c2.2724 3.07874 4.39776 7.11108 6.37695 12.0957 1.97919 4.98463 2.96875 8.75861 2.96875 11.3242 0 2.2724-0.184265 3.8128-0.550781 4.61914-0.43982 0.87964-1.35529 1.31836-2.74805 1.31836-4.10498 0-7.77075-4.10449-10.9961-12.3144-2.56561-6.67061-3.84766-12.2775-3.84766-16.8223 0-2.71222 0.915466-4.06836 2.74805-4.06836z"
         fill="url(#a)"
         stroke="#f90"
         stroke-linejoin="round"
         stroke-width="2.199"
         id="path1482"
         style="fill:#ff0000;fill-opacity:1;stroke:#ff0000;stroke-opacity:1;stroke-width:5.85;stroke-dasharray:none;stroke-linecap:round;stroke-linejoin:round;filter:url(#filter26850)" />
      <path
         d="m66.0879 18.4922c0.952942 2.1991 2.27106 6.26751 3.95703 12.2051 2.2724 7.99006 3.4082 14.2579 3.4082 18.8027 0 7.91675-0.841368 14.441-2.52734 19.5723-2.49231 7.69684-6.6709 11.5449-12.5352 11.5449-2.71222-1e-6 -5.31433-1.35614-7.80664-4.06836 1.09955 3.51856 2.89441 7.03613 5.38672 10.5547 2.56562 3.51856 4.80115 7.36859 6.70703 11.5469 1.90588 4.17829 2.85938 10.5544 2.85938 19.1309 0 13.3412-2.2716 20.0117-6.81641 20.0117-2.05249 0-3.81323-1.28205-5.2793-3.84766-1.24616-2.1258-1.97931-4.14099-2.19922-6.04687-1.75928 1.61267-3.18756 4.03051-4.28711 7.25586-1.17285 3.22534-1.75977 6.48846-1.75977 9.78711 0 11.4353 4.03234 20.9283 12.0957 28.4785 5.13123 4.4715 9.16162 8.13532 12.0938 10.9941 5.27783 5.05793 9.85223 10.565 13.7461 16.6035 1.38307 2.14483 2.93585 5.92842 3.35742 6.88086 1.23973 2.80088 6.20837 9.83343 16.3242 21.0488 10.1158 11.1421 25.7285 17.448 46.8398 18.9141 21.1113 1.46607 38.0821-5.27856 50.9102-20.2324 12.7548-15.0272 18.8744-30.7139 18.3613-47.0606-0.5074-16.2364-3.64129-30.4947-9.38086-42.7891 7e-3 6e-3 0.0143 0.0101 0.0215 0.0156l-6.59765-18.4726c-3.59187-10.7756-6.61902-18.7301-9.11133-23.8613-8.06336-16.8598-18.8764-27.0118-32.4375-30.457 1.97919 0.952942 4.39898 3.55505 7.25781 7.80664 3.22535 4.83802 4.83789 9.05267 4.83789 12.6445 0 2.05249-0.73315 3.5929-2.19922 4.61914-1.24616 0.879639-2.8587 1.31836-4.83789 1.31836-1.75928 0-4.32532-1.43024-7.69726-4.28906-2.1991-1.90588-3.70148-3.40826-4.50782-4.50781l-0.43945-0.548828c-16.7865-22.5774-31.5578-36.0647-44.3125-40.4629-12.9014-4.3982-20.3411-7.29474-22.3203-8.6875l-10.8867-7.91602zm47.9394 53.6582c5.42445 0 11.5822 4.87567 18.4727 14.625 6.59729 9.23621 9.89648 16.7861 9.89648 22.6504 0 4.76472-1.46631 8.02588-4.39843 9.78516-2.12579 1.24615-5.49909 1.86914-10.1172 1.86914-7.25702 0-14.8791-3.48151-22.8691-10.4453-9.16291-7.99006-13.7441-17.1886-13.7441-27.5977 0-2.3457 0.7312-4.50909 2.19727-6.48828 1.46606-1.97919 3.08056-2.96875 4.83984-2.96875l2.52734 0.220703c1.83258 0 4.4347 0.951537 7.80664 2.85742l4.83985 2.85938-1.21094-1.97852-0.66016-3.41016c0-1.31946 0.80726-1.97852 2.41992-1.97852zm-38.375 26.1699c1.61267 0 3.51965 1.09973 5.71875 3.29883l0.330078 0.54883c2.2724 3.07874 4.39776 7.11108 6.37695 12.0957 1.97919 4.98463 2.96875 8.75861 2.96875 11.3242 0 2.2724-0.184265 3.8128-0.550781 4.61914-0.43982 0.87964-1.35529 1.31836-2.74805 1.31836-4.10498 0-7.77075-4.10449-10.9961-12.3144-2.56561-6.67061-3.84766-12.2775-3.84766-16.8223 0-2.71222 0.915466-4.06836 2.74805-4.06836z"
         fill="url(#a)"
         stroke="#f90"
         stroke-linejoin="round"
         stroke-width="2.199"
         id="head" />
    </g>
    <g
       id="g3039">
      <path
         d="m219.992 164.469-4.7821 6.94328q1.09623 3.89579 1.32386 7.52461 0.56238 8.96532-1.50888 14.9885-2.43528 7.01036-9.50394 14.8471l2.61251 0.90762-0.80166 0.80033-2.31334 0.46657q-1.69704 0.10646-6.87625-2.676l-6.10807-4.00999-1.00145-0.68722-0.10607 7e-3 -1.06734-0.0402-0.22552-0.20015-0.33158-0.1935-0.27239-0.94726q-0.20085-3.2019 13.7367-20.363 12.9505-15.9205 16.3101-18.3814l0.64977 0.17354 0.2657 0.84053m-43.4768 40.2298-0.49684 0.56691 0.4979 1.14742q0.14729 2.34806-14.002 9.3432-14.9777 7.36856-24.3114 7.95406l-6.06015-1.54854 14.4305-2.51248q-15.0489-0.55608-22.5746-13.5849-4.77819-8.27226-5.35396-17.451-0.47535-7.57783 2.12625-13.6343 2.5815-6.37664 9.27947-13.333l-2.8257-2.60864 3.42861 2.03507 0.29811-0.34015 0.57719 0.71385-0.0927 0.22011q14.0728 8.7607 26.8616 20.8165 12.9015 12.1558 22.5886 25.692l-0.28472 0.55361-4.08614-4.02967"
         fill="#fff"
         fill-rule="evenodd"
         id="path3302"
         style="fill:#ff0000;fill-opacity:1;stroke:#ff0000;stroke-opacity:1;stroke-width:5.85;stroke-dasharray:none;stroke-linecap:round;stroke-linejoin:round;filter:url(#filter26846)" />
      <path
         d="m219.992 164.469-4.7821 6.94328q1.09623 3.89579 1.32386 7.52461 0.56238 8.96532-1.50888 14.9885-2.43528 7.01036-9.50394 14.8471l2.61251 0.90762-0.80166 0.80033-2.31334 0.46657q-1.69704 0.10646-6.87625-2.676l-6.10807-4.00999-1.00145-0.68722-0.10607 7e-3 -1.06734-0.0402-0.22552-0.20015-0.33158-0.1935-0.27239-0.94726q-0.20085-3.2019 13.7367-20.363 12.9505-15.9205 16.3101-18.3814l0.64977 0.17354 0.2657 0.84053m-43.4768 40.2298-0.49684 0.56691 0.4979 1.14742q0.14729 2.34806-14.002 9.3432-14.9777 7.36856-24.3114 7.95406l-6.06015-1.54854 14.4305-2.51248q-15.0489-0.55608-22.5746-13.5849-4.77819-8.27226-5.35396-17.451-0.47535-7.57783 2.12625-13.6343 2.5815-6.37664 9.27947-13.333l-2.8257-2.60864 3.42861 2.03507 0.29811-0.34015 0.57719 0.71385-0.0927 0.22011q14.0728 8.7607 26.8616 20.8165 12.9015 12.1558 22.5886 25.692l-0.28472 0.55361-4.08614-4.02967"
         fill="#fff"
         fill-rule="evenodd"
         id="eyes" />
    </g>
  </g>
</svg>
