<svg id="nx" width="256" height="256" version="1.1" viewBox="0 0 256 256" xmlns="http://www.w3.org/2000/svg">
	<defs></defs>
	<path d="m66.088 18.492c0.95294 2.1991 2.2711 6.2675 3.957 12.205 2.2724 7.9901 3.4082 14.258 3.4082 18.803 0 7.9168-0.84137 14.441-2.5273 19.572-2.4923 7.6968-6.6709 11.545-12.535 11.545-2.7122-1e-6 -5.3143-1.3561-7.8066-4.0684 1.0995 3.5186 2.8944 7.0361 5.3867 10.555 2.5656 3.5186 4.8011 7.3686 6.707 11.547 1.9059 4.1783 2.8594 10.554 2.8594 19.131 0 13.341-2.2716 20.012-6.8164 20.012-2.0525 0-3.8132-1.282-5.2793-3.8477-1.2462-2.1258-1.9793-4.141-2.1992-6.0469-1.7593 1.6127-3.1876 4.0305-4.2871 7.2559-1.1729 3.2253-1.7598 6.4885-1.7598 9.7871 0 11.435 4.0323 20.928 12.096 28.479 5.1312 4.4715 9.1616 8.1353 12.094 10.994 5.2778 5.0579 9.861 10.593 13.746 16.604l0.47461 1.0312-1.7949-1.4688c1.6127 1.9059 3.0049 4.3237 4.1777 7.2559 1.0995 2.8588 6.7084 9.8959 16.824 21.111 10.116 11.142 25.729 17.448 46.84 18.914 21.111 1.4661 38.082-5.2786 50.91-20.232 12.755-15.027 18.874-30.714 18.361-47.061-0.14065-4.5006-0.50227-8.8355-1.0449-13.033l-2.6699 3.877c0.73082 2.5972 1.1725 5.1062 1.3242 7.5254 0.37492 5.9769-0.12697 10.973-1.5078 14.988-1.6235 4.6736-4.7915 9.6232-9.5039 14.848l2.6113 0.90625-0.80078 0.80078-2.3144 0.4668c-1.1314 0.07097-3.4222-0.82081-6.875-2.6758l-6.1094-4.0098-1-0.6875-0.10742 0.00781-1.0664-0.04101-0.22657-0.19922-0.33008-0.19532-0.27343-0.94726c-0.1339-2.1346 4.4447-8.9206 13.736-20.361 7.0589-8.6778 11.944-14.305 14.729-16.984-1.5057-9.8908-4.1434-18.93-7.9512-27.086 0.01169 0.00899 0.02347 0.01637 0.03515 0.02539l-6.5976-18.471c-3.5919-10.776-6.6327-18.73-9.125-23.861-8.0634-16.86-18.876-27.012-32.438-30.457 1.9792 0.95294 4.399 3.5551 7.2578 7.8066 3.2253 4.838 4.8379 9.0527 4.8379 12.645 0 2.0525-0.73315 3.5929-2.1992 4.6191-1.2462 0.87964-2.8587 1.3184-4.8379 1.3184-1.7593 0-4.3253-1.4302-7.6973-4.2891-2.1991-1.9059-3.7015-3.4083-4.5078-4.5078l-0.43945-0.54883c-16.786-22.577-31.558-36.065-44.312-40.463-12.901-4.3982-20.341-7.2947-22.32-8.6875l-10.887-7.916-10.225-6.4883zm47.939 53.658c5.4244 0 11.582 4.8757 18.473 14.625 6.5973 9.2362 9.8965 16.786 9.8965 22.65 0 4.7647-1.4663 8.0259-4.3984 9.7852-2.1258 1.2462-5.4991 1.8691-10.117 1.8691-7.257 0-14.879-3.4815-22.869-10.445-9.1629-7.9901-13.744-17.189-13.744-27.598 0-2.3457 0.7312-4.5091 2.1973-6.4883s3.0806-2.9688 4.8398-2.9688l2.5273 0.2207c1.8326 0 4.4347 0.95154 7.8066 2.8574l4.8398 2.8594-1.2109-1.9785-0.66016-3.4102c0-1.3195 0.80725-1.9785 2.4199-1.9785zm-38.375 26.17c1.6127 0 3.5197 1.0997 5.7188 3.2988l0.33008 0.54883c2.2724 3.0787 4.3978 7.1111 6.377 12.096 1.9792 4.9846 2.9688 8.7586 2.9688 11.324 0 2.2724-0.18426 3.8128-0.55078 4.6191-0.43982 0.87964-1.3553 1.3184-2.748 1.3184-4.105 0-7.7708-4.1045-10.996-12.314-2.5656-6.6706-3.8477-12.277-3.8477-16.822 0-2.7122 0.91546-4.0684 2.748-4.0684zm133.16 38.926c0.09984 0.07152 0.19924 0.14135 0.29883 0.21485l-0.52539 0.22461c0.11722-0.11722 0.18432-0.26977 0.22656-0.43946zm-81.59 21.793 3.4277 2.0352 0.29883-0.3418 0.57617 0.71485-0.09179 0.2207c9.3818 5.8404 18.336 12.779 26.861 20.816 8.601 8.1039 16.132 16.667 22.59 25.691l-0.28516 0.55274-4.0859-4.0293-0.49804 0.5664 0.49804 1.1484c0.0982 1.5654-4.5691 4.6803-14.002 9.3438-9.9851 4.9124-18.088 7.5628-24.311 7.9531l-6.0605-1.5488 14.43-2.5117c-10.033-0.37072-17.557-4.9001-22.574-13.586-3.1855-5.5148-4.9697-11.332-5.3535-17.451-0.3169-5.0519 0.39257-9.5952 2.127-13.633 1.721-4.2511 4.814-8.6964 9.2793-13.334l-2.8262-2.6074z"/>
</svg>
