<?xml version="1.0" encoding="UTF-8" standalone="no"?>
<svg
   id="nx"
   width="256"
   height="256"
   version="1.1"
   viewBox="0 0 256 256"
   sodipodi:docname="icon-mono.svg"
   inkscape:version="1.2 (dc2aedaf03, 2022-05-15)"
   xmlns:inkscape="http://www.inkscape.org/namespaces/inkscape"
   xmlns:sodipodi="http://sodipodi.sourceforge.net/DTD/sodipodi-0.dtd"
   xmlns="http://www.w3.org/2000/svg"
   xmlns:svg="http://www.w3.org/2000/svg">
  <defs
     id="defs6" />
  <sodipodi:namedview
     id="namedview4"
     pagecolor="#cccccc"
     bordercolor="#111111"
     borderopacity="1"
     inkscape:showpageshadow="false"
     inkscape:pageopacity="0"
     inkscape:pagecheckerboard="true"
     inkscape:deskcolor="#d1d1d1"
     showgrid="false"
     showborder="true"
     shape-rendering="auto"
     inkscape:zoom="3.0664062"
     inkscape:cx="128"
     inkscape:cy="128"
     inkscape:window-width="1920"
     inkscape:window-height="1001"
     inkscape:window-x="-9"
     inkscape:window-y="-9"
     inkscape:window-maximized="1"
     inkscape:current-layer="nx" />
  <path
     id="head"
     d="m66.0879 18.4922c0.952941 2.1991 2.27106 6.26749 3.95703 12.2051 2.2724 7.99005 3.4082 14.2579 3.4082 18.8027 0 7.91674-0.841373 14.441-2.52734 19.5723-2.49231 7.69683-6.67086 11.5449-12.5352 11.5449-2.71222-1e-6 -5.31433-1.35614-7.80664-4.06836 1.09955 3.51856 2.89441 7.03612 5.38672 10.5547 2.56562 3.51856 4.80115 7.36857 6.70703 11.5469 1.90588 4.17829 2.85938 10.5544 2.85938 19.1309 0 13.3412-2.2716 20.0117-6.81641 20.0117-2.05249 0-3.81323-1.28205-5.2793-3.84766-1.24616-2.1258-1.97931-4.14099-2.19922-6.04687-1.75928 1.61267-3.18756 4.03051-4.28711 7.25586-1.17285 3.22533-1.75977 6.48846-1.75977 9.78711 0 11.4353 4.03235 20.9283 12.0957 28.4785 5.13122 4.4715 9.16157 8.13537 12.0938 10.9941 5.27782 5.05793 9.85223 10.565 13.7461 16.6035 1.38307 2.14483 2.93585 5.92842 3.35742 6.88086 1.23973 2.80087 6.2084 9.83347 16.3242 21.0488 10.1158 11.1421 25.7286 17.448 46.8398 18.9141 21.1113 1.46607 38.0821-5.2786 50.9102-20.2324 12.7548-15.0272 18.8744-30.7139 18.3613-47.0606-0.14061-4.4995-0.50329-8.83137-1.04688-13.0273l-2.66797 3.87109c0.73082 2.59719 1.17247 5.10618 1.32422 7.52539 0.37492 5.97687-0.12697 10.9728-1.50781 14.9883-1.62352 4.67357-4.79147 9.62317-9.50391 14.8477l2.61133 0.90625-0.80078 0.80078-2.31445 0.4668c-1.13136 0.07097-3.4222-0.82081-6.875-2.67579l-6.10938-4.00976-1-0.6875-0.10742 0.00586-1.0664-0.03906-0.22657-0.20118-0.33008-0.19336-0.27343-0.94726c-0.1339-2.1346 4.44463-8.92256 13.7363-20.3633 7.05726-8.67573 11.9415-14.3002 14.7266-16.9805-1.50828-9.88527-4.14277-18.9226-7.94922-27.0762 7e-3 6e-3 0.01428 0.01012 0.02148 0.01562l-6.59765-18.4726c-3.59187-10.7756-6.61902-18.7301-9.11133-23.8613-8.06335-16.8598-18.8764-27.0118-32.4375-30.457 1.97919 0.952941 4.39898 3.55506 7.25781 7.80664 3.22535 4.83802 4.83789 9.0527 4.83789 12.6445 0 2.05249-0.73315 3.5929-2.19922 4.61914-1.24616 0.879638-2.8587 1.31836-4.83789 1.31836-1.75928 0-4.32533-1.43024-7.69726-4.28906-2.1991-1.90588-3.70148-3.40826-4.50782-4.50781l-0.43945-0.548828c-16.7865-22.5774-31.5578-36.0647-44.3125-40.4629-12.9014-4.3982-20.3411-7.29474-22.3203-8.6875l-10.8867-7.91602-10.2246-6.48828zm47.9394 53.6582c5.42445 0 11.5822 4.87568 18.4727 14.625 6.59728 9.2362 9.89648 16.7861 9.89648 22.6504 0 4.76472-1.46632 8.02588-4.39843 9.78516-2.12579 1.24615-5.49909 1.86914-10.1172 1.86914-7.25701 0-14.8792-3.48153-22.8691-10.4453-9.1629-7.99006-13.7441-17.1886-13.7441-27.5977 0-2.3457 0.731197-4.50909 2.19727-6.48828 1.46606-1.97919 3.08056-2.96875 4.83984-2.96875l2.52734 0.220703c1.83258 0 4.43471 0.951541 7.80664 2.85742l4.83985 2.85938-1.21094-1.97852-0.66016-3.41016c0-1.31946 0.80727-1.97852 2.41992-1.97852zm-38.375 26.1699c1.61267 0 3.51965 1.09973 5.71875 3.29883l0.330078 0.54883c2.2724 3.07874 4.39776 7.11109 6.37695 12.0957 1.97919 4.98463 2.96875 8.75863 2.96875 11.3242 0 2.2724-0.184266 3.8128-0.550781 4.61914-0.43982 0.87964-1.35529 1.31836-2.74805 1.31836-4.10498 0-7.77075-4.10455-10.9961-12.3144-2.56561-6.67061-3.84766-12.2775-3.84766-16.8223 0-2.71222 0.915465-4.06836 2.74805-4.06836zm51.5723 60.7168 3.42969 2.03516 0.29687-0.33985 0.57813 0.71485-0.09375 0.21875c9.38185 5.84046 18.3355 12.7792 26.8613 20.8164 8.60099 8.10386 16.1318 16.6692 22.5898 25.6934l-0.28516 0.55274-4.08594-4.0293-0.49804 0.5664 0.49804 1.14844c0.0982 1.56537-4.5691 4.67838-14.002 9.3418-9.98512 4.91237-18.0881 7.56474-24.3106 7.95508l-6.06054-1.54883 14.4316-2.51172c-10.0326-0.37072-17.559-4.90007-22.5762-13.5859-3.18546-5.51483-4.96967-11.332-5.35352-17.4512-0.3169-5.05188 0.39256-9.59517 2.12695-13.6328 1.721-4.25109 4.81399-8.69642 9.2793-13.334l-2.82617-2.60937z"
     style="fill-opacity:1" />
</svg>
