<svg id="nx" width="256" height="256" version="1.1" viewBox="0 0 256 256" xmlns="http://www.w3.org/2000/svg" xmlns:xlink="http://www.w3.org/1999/xlink">
	<defs>
		<g id="shape0-9" transform="translate(24.7,-13.75)">
			<path d="m33.8 18.65q4 8.45 4.35 19.65 0.35 11.15-8.35 21.4-8.75 10.2-23.15 9.2t-21.3-8.6q-6.9-7.65-7.65-9.6-0.8-2-1.9-3.3l1.1 0.9-0.05-0.35v-1.95q0-6.4 3.2-11.05 2.95-4.35 11.95-11.6 4.5-3.6 6.85-5 4.45-2.65 9.3-3.35 17.5-2.65 23.4 0.25l1.35 1.8 0.05 0.05 0.5 0.85q0.25 0.6 0 0.85l0.35-0.15" fill="url(#gradient0-3)" fill-rule="evenodd"/>
			<path d="m33.45 17.95 0.35 0.7q4 8.45 4.35 19.65 0.35 11.15-8.35 21.4-8.75 10.2-23.15 9.2t-21.3-8.6q-6.9-7.65-7.65-9.6-0.8-2-1.9-3.3m57.15-30.3 0.5 0.85z" fill="none" stroke="#f90" stroke-linecap="round" stroke-linejoin="round"/>
		</g>
		<radialGradient id="gradient0-3" cx="0" cy="0" r="819.2" fx="6.4" gradientTransform="matrix(.0477 .0824 -.0842 .0487 15.55 45.45)" gradientUnits="userSpaceOnUse">
			<stop stop-color="#0a0101" offset=".30196"/>
			<stop stop-color="#4d0101" offset=".54902"/>
			<stop stop-color="#c10000" offset=".74902"/>
			<stop stop-color="#fca921" offset="1"/>
		</radialGradient>
		<g id="shape1-8" transform="translate(41.35,35.9)">
			<path d="m-23 48.9-0.6-1.3q-2.65-4.1-6.25-7.55-2-1.95-5.5-5-5.5-5.15-5.5-12.95 0-2.25 0.8-4.45 0.75-2.2 1.95-3.3 0.15 1.3 1 2.75 1 1.75 2.4 1.75 3.1 0 3.1-9.1 0-5.85-1.3-8.7t-3.05-5.25q-1.7-2.4-2.45-4.8 1.7 1.85 3.55 1.85 4 0 5.7-5.25 1.15-3.5 1.15-8.9 0-3.1-1.55-8.55-1.15-4.05-1.8-5.55l4.65 2.95 4.95 3.6q1.35 0.95 10.15 3.95 8.7 3 20.15 18.4l0.2 0.25q0.55 0.75 2.05 2.05 2.3 1.95 3.5 1.95 1.35 0 2.2-0.6 1-0.7 1-2.1 0-2.45-2.2-5.75-1.95-2.9-3.3-3.55 9.25 2.35 14.75 13.85 1.7 3.5 4.15 10.85l3 8.4q-2.85-2.2-6-2-20.2-0.7-36.1 11.25-6.3 4.75-10.1 10.25-3.45 5-3.55 8.6l-1.15 1.95m-1.4-46.5q-1.5-1.5-2.6-1.5-1.25 0-1.25 1.85 0 3.1 1.75 7.65 2.2 5.6 5 5.6 0.95 0 1.25-0.6 0.25-0.55 0.25-2.1 0-1.75-1.35-5.15t-2.9-5.5l-0.15-0.25m8.85-12.65-1.15-0.1q-1.2 0-2.2 1.35t-1 2.95q0 7.1 6.25 12.55 5.45 4.75 10.4 4.75 3.15 0 4.6-0.85 2-1.2 2-4.45 0-4-4.5-10.3-4.7-6.65-8.4-6.65-1.1 0-1.1 0.9l0.3 1.55 0.55 0.9-2.2-1.3q-2.3-1.3-3.55-1.3" fill="url(#gradient0-3)" fill-rule="evenodd"/>
			<path d="m-23 48.9-0.6-1.3q-2.65-4.1-6.25-7.55-2-1.95-5.5-5-5.5-5.15-5.5-12.95 0-2.25 0.8-4.45 0.75-2.2 1.95-3.3 0.15 1.3 1 2.75 1 1.75 2.4 1.75 3.1 0 3.1-9.1 0-5.85-1.3-8.7t-3.05-5.25q-1.7-2.4-2.45-4.8 1.7 1.85 3.55 1.85 4 0 5.7-5.25 1.15-3.5 1.15-8.9 0-3.1-1.55-8.55-1.15-4.05-1.8-5.55l4.65 2.95 4.95 3.6q1.35 0.95 10.15 3.95 8.7 3 20.15 18.4l0.2 0.25q0.55 0.75 2.05 2.05 2.3 1.95 3.5 1.95 1.35 0 2.2-0.6 1-0.7 1-2.1 0-2.45-2.2-5.75-1.95-2.9-3.3-3.55 9.25 2.35 14.75 13.85 1.7 3.5 4.15 10.85l3 8.4m-49.45-29.1q1.25 0 3.55 1.3l2.2 1.3-0.55-0.9-0.3-1.55q0-0.9 1.1-0.9 3.7 0 8.4 6.65 4.5 6.3 4.5 10.3 0 3.25-2 4.45-1.45 0.85-4.6 0.85-4.95 0-10.4-4.75-6.25-5.45-6.25-12.55 0-1.6 1-2.95t2.2-1.35l1.15 0.1m-8.7 12.9q1.55 2.1 2.9 5.5t1.35 5.15q0 1.55-0.25 2.1-0.3 0.6-1.25 0.6-2.8 0-5-5.6-1.75-4.55-1.75-7.65 0-1.85 1.25-1.85 1.1 0 2.6 1.5" fill="none" stroke="#f90" stroke-linecap="round" stroke-linejoin="round"/>
		</g>
		<g id="shape0-87" transform="translate(22.35,15.15)">
			<path d="m25.95-9.9-2.45 3.1q0.4 1.85 0.4 3.55 0 4.2-1.15 6.95-1.35 3.2-4.9 6.65l1.2 0.5-0.4 0.35-1.1 0.15q-0.8 0-3.15-1.45l-2.75-2.05-0.45-0.35h-0.05l-0.5-0.05-0.1-0.1-0.15-0.1-0.1-0.45q0-1.5 7.05-9.1 6.55-7.05 8.2-8.1l0.3 0.1 0.1 0.4m-21.6 17.5-0.25 0.25 0.2 0.55q0 1.1-6.85 3.95-7.25 3-11.65 3l-2.8-0.9 6.85-0.75q-7.05-0.7-10.2-7-2-4-2-8.3 0-3.55 1.4-6.3 1.4-2.9 4.75-5.95l-1.25-1.3 1.55 1.05 0.15-0.15 0.25 0.35-0.05 0.1q6.35 4.5 12 10.5 5.7 6.05 9.85 12.65l-0.15 0.25-1.8-2" fill="#fff" fill-rule="evenodd"/>
		</g>
	</defs>
	<use id="face" transform="matrix(2.1991 0 0 2.1991 80.711 126.58)" width="63.349998" height="55.75" xlink:href="#shape0-9"/>
	<use id="hair" transform="matrix(2.1991 0 0 2.1991 44.096 17.393)" width="75.75" height="85.300003" xlink:href="#shape1-8"/>
	<use id="eyes" transform="matrix(2.1213 -.13307 .1339 2.1346 116.83 159.69)" width="48.299999" height="30.5" xlink:href="#shape0-87"/>
</svg>
