<?xml version="1.0" encoding="UTF-8" standalone="no"?>
<svg
   id="nx"
   version="1.1"
   viewBox="0 0 256 256"
   sodipodi:docname="icon-mono.svg"
   inkscape:version="1.2.2 (1:1.2.2+202305151914+b0a8486541)"
   width="256"
   height="256"
   inkscape:export-filename="icon-mono.png"
   inkscape:export-xdpi="192"
   inkscape:export-ydpi="192"
   xmlns:inkscape="http://www.inkscape.org/namespaces/inkscape"
   xmlns:sodipodi="http://sodipodi.sourceforge.net/DTD/sodipodi-0.dtd"
   xmlns="http://www.w3.org/2000/svg"
   xmlns:svg="http://www.w3.org/2000/svg"
   xmlns:rdf="http://www.w3.org/1999/02/22-rdf-syntax-ns#"
   xmlns:cc="http://creativecommons.org/ns#"
   xmlns:dc="http://purl.org/dc/elements/1.1/">
  <metadata
     id="metadata112">
    <rdf:RDF>
      <cc:Work
         rdf:about="">
        <dc:format>image/svg+xml</dc:format>
        <dc:type
           rdf:resource="http://purl.org/dc/dcmitype/StillImage" />
      </cc:Work>
    </rdf:RDF>
  </metadata>
  <sodipodi:namedview
     pagecolor="#ffffff"
     bordercolor="#666666"
     borderopacity="1"
     objecttolerance="10"
     gridtolerance="10"
     guidetolerance="10"
     inkscape:pageopacity="0"
     inkscape:pageshadow="2"
     inkscape:window-width="1920"
     inkscape:window-height="999"
     id="namedview110"
     showgrid="false"
     inkscape:zoom="3.109375"
     inkscape:cx="113.36683"
     inkscape:cy="128"
     inkscape:window-x="0"
     inkscape:window-y="0"
     inkscape:window-maximized="1"
     inkscape:current-layer="nx"
     inkscape:snap-page="false"
     inkscape:snap-grids="true"
     inkscape:snap-text-baseline="false"
     inkscape:snap-center="false"
     inkscape:snap-object-midpoints="false"
     inkscape:showpageshadow="false"
     inkscape:pagecheckerboard="true"
     inkscape:deskcolor="#ffffff" />
  <defs
     id="defs71">
    <radialGradient
       id="gradient0-3"
       cx="0"
       cy="0"
       r="819.20001"
       fx="6.4000001"
       gradientTransform="matrix(0.0477,0.0824,-0.0842,0.0487,15.55,45.45)"
       gradientUnits="userSpaceOnUse">
      <stop
         stop-color="#0a0101"
         offset=".3019608"
         id="stop7" />
      <stop
         stop-color="#4d0101"
         offset=".5490196"
         id="stop9" />
      <stop
         stop-color="#c10000"
         offset=".7490196"
         id="stop11" />
      <stop
         stop-color="#fca921"
         offset="1"
         id="stop13" />
    </radialGradient>
    <radialGradient
       id="gradient0-164"
       cx="0"
       cy="0"
       r="819.20001"
       gradientTransform="matrix(0.0456,0,0,0.0456,-29.6,1.95)"
       gradientUnits="userSpaceOnUse">
      <stop
         stop-color="#facd1b"
         offset="0"
         id="stop29" />
      <stop
         stop-color="#cf4104"
         offset=".3058824"
         id="stop31" />
      <stop
         offset=".8509804"
         id="stop33" />
    </radialGradient>
    <radialGradient
       id="gradient0-08"
       cx="0"
       cy="0"
       r="819.20001"
       gradientTransform="matrix(0.0377,0,0,0.0377,-15.45,-15.55)"
       gradientUnits="userSpaceOnUse">
      <stop
         stop-color="#facd1b"
         offset="0"
         id="stop50" />
      <stop
         stop-color="#cf4104"
         offset=".5764706"
         id="stop52" />
      <stop
         offset="1"
         id="stop54" />
    </radialGradient>
    <radialGradient
       id="gradient1-28"
       cx="0"
       cy="0"
       r="819.20001"
       gradientTransform="matrix(0.0456,0,0,0.0456,-16.55,-26.35)"
       gradientUnits="userSpaceOnUse">
      <stop
         stop-color="#facd1b"
         offset="0"
         id="stop57" />
      <stop
         stop-color="#cf4104"
         offset=".3058824"
         id="stop59" />
      <stop
         offset=".8509804"
         id="stop61" />
    </radialGradient>
  </defs>
  <path
     id="path709"
     style="display:inline;fill-rule:evenodd;fill-opacity:1;paint-order:normal"
     d="M 72.179688 27.126953 C 73.066994 29.17458 74.295387 32.961642 75.865234 38.490234 C 77.981114 45.929943 79.039063 51.768239 79.039062 56 C 79.039062 63.371457 78.253441 69.444861 76.683594 74.222656 C 74.362951 81.389349 70.474008 84.972656 65.013672 84.972656 C 62.488264 84.972656 60.424825 83.529515 57.742188 81.183594 C 58.766001 84.459796 60.441075 87.73747 62.761719 91.013672 C 65.150615 94.289876 67.231248 97.871227 69.005859 101.76172 C 70.780468 105.6522 71.667969 111.59042 71.667969 119.57617 C 71.667969 131.99843 69.55012 138.21094 65.318359 138.21094 C 63.407241 138.21094 61.771336 137.01585 60.40625 134.62695 C 59.245928 132.64758 58.562185 130.7707 58.357422 128.99609 C 56.719322 130.49769 55.389048 132.75071 54.365234 135.75391 C 53.273168 138.75709 52.726562 141.7938 52.726562 144.86523 C 52.726562 155.5129 56.480318 164.35263 63.988281 171.38281 C 68.766077 175.54632 72.521783 178.95918 75.251953 181.62109 C 82.607248 188.73131 87.038873 194.4021 90.708984 203.42773 C 91.732798 206.08964 96.95592 212.64108 106.375 223.08398 C 115.79408 233.45862 130.33301 239.33022 149.99023 240.69531 C 169.64743 242.06039 185.44808 235.78129 197.39258 221.85742 C 209.26882 207.8653 214.96803 193.25977 214.49023 178.03906 C 214.35927 173.84804 214.03374 169.80298 213.52734 165.89453 L 211.03516 169.51367 C 211.71565 171.93195 212.12628 174.26697 212.26758 176.51953 C 212.61668 182.08468 212.14708 186.73772 210.86133 190.47656 C 209.34962 194.82819 206.40159 199.43617 202.01367 204.30078 L 204.44531 205.14648 L 203.69922 205.89062 L 201.54492 206.32617 C 200.49148 206.39224 198.3576 205.56116 195.14258 203.83398 L 189.45508 200.09961 L 188.52148 199.46094 L 188.42383 199.4668 L 187.42969 199.42773 L 187.21875 199.24219 L 186.91016 199.0625 L 186.6582 198.17969 C 186.53352 196.19214 190.79548 189.87333 199.44727 179.2207 C 206.10843 171.03207 210.60612 165.8801 213.17969 163.42773 C 211.77555 154.20401 209.30193 145.78642 205.75 138.18164 C 203.8253 132.63495 201.67255 126.69032 199.64453 121.01172 C 196.30006 110.97835 193.46714 103.57077 191.14648 98.792969 C 183.63853 83.094499 173.57233 73.643494 160.94531 70.435547 C 163.60343 72.456198 165.04122 73.74438 167.70312 77.703125 C 170.70631 82.207902 172.20508 86.13406 172.20508 89.478516 C 172.20508 91.389633 171.52328 92.821784 170.1582 93.777344 C 168.99789 94.596394 167.49717 95.005859 165.6543 95.005859 C 164.01619 95.005859 161.62601 93.675586 158.48633 91.013672 C 156.4387 89.239063 155.03986 87.84022 154.28906 86.816406 L 153.87891 86.304688 C 138.24876 65.282437 124.49537 52.722206 112.61914 48.626953 C 100.60639 44.531699 93.678801 41.835893 91.835938 40.539062 L 81.701172 33.166016 L 72.179688 27.126953 z M 116.81641 77.087891 C 121.86722 77.087891 127.60364 81.627266 134.01953 90.705078 C 140.16241 99.305109 143.23242 106.33654 143.23242 111.79688 C 143.23242 116.2334 141.86689 119.2701 139.13672 120.9082 C 137.15735 122.06853 134.01682 122.64844 129.7168 122.64844 C 122.95963 122.64844 115.8616 119.40798 108.42188 112.92383 C 99.890103 105.48412 95.623047 96.916709 95.623047 87.224609 C 95.623047 85.040475 96.308744 83.026457 97.673828 81.183594 C 99.038913 79.34073 100.53964 78.421875 102.17773 78.421875 C 105.82755 78.518075 109.44748 79.74255 111.80078 81.287109 C 113.22113 82.219332 116.0625 84.082031 116.0625 84.082031 C 116.0625 84.082031 115.44007 82.776761 115.17969 82.105469 C 114.7901 81.101033 114.56445 79.90182 114.56445 78.931641 C 114.56445 77.703065 115.31482 77.087891 116.81641 77.087891 z M 81.085938 101.45703 C 82.58753 101.45703 84.362529 102.48167 86.410156 104.5293 L 86.71875 105.03906 C 88.834632 107.90574 90.813387 111.66144 92.65625 116.30273 C 94.499114 120.94402 95.419922 124.45681 95.419922 126.8457 C 95.419922 128.96158 95.251427 130.39569 94.910156 131.14648 C 94.500631 131.96554 93.646439 132.37498 92.349609 132.375 C 88.527372 132.375 85.114513 128.55268 82.111328 120.9082 C 79.722431 114.69707 78.527344 109.47394 78.527344 105.24219 C 78.527344 102.71678 79.379581 101.45703 81.085938 101.45703 z M 129.10938 157.99219 L 132.30078 159.88672 L 132.57812 159.57031 L 133.11523 160.23438 L 133.0293 160.43945 C 141.76505 165.87759 150.10236 172.33875 158.04102 179.82227 C 166.04968 187.3679 173.06089 195.3417 179.07422 203.74414 L 178.80859 204.25977 L 175.00391 200.50781 L 174.54102 201.03516 L 175.00586 202.10352 C 175.09729 203.56105 170.75198 206.46055 161.96875 210.80273 C 152.67125 215.37671 145.12402 217.84554 139.33008 218.20898 L 133.6875 216.76758 L 147.125 214.42773 C 137.78334 214.08255 130.77705 209.86684 126.10547 201.7793 C 123.13937 196.64436 121.47655 191.22694 121.11914 185.5293 C 120.82407 180.82541 121.48466 176.59347 123.09961 172.83398 C 124.70209 168.87573 127.58245 164.738 131.74023 160.41992 L 129.10938 157.99219 z " />
</svg>
