<?xml version="1.0" encoding="UTF-8" standalone="no"?>
<!-- Created with Inkscape (http://www.inkscape.org/) -->

<svg
   width="1200"
   height="630"
   viewBox="0 0 1200 630"
   version="1.1"
   id="svg5"
   xml:space="preserve"
   inkscape:version="1.2.1 (1:1.2.1+202210291243+9c6d41e410)"
   sodipodi:docname="opengraph-en.svg"
   inkscape:export-filename="opengraph-en.png"
   inkscape:export-xdpi="96"
   inkscape:export-ydpi="96"
   xmlns:inkscape="http://www.inkscape.org/namespaces/inkscape"
   xmlns:sodipodi="http://sodipodi.sourceforge.net/DTD/sodipodi-0.dtd"
   xmlns:xlink="http://www.w3.org/1999/xlink"
   xmlns="http://www.w3.org/2000/svg"
   xmlns:svg="http://www.w3.org/2000/svg"><sodipodi:namedview
     id="namedview7"
     pagecolor="#ffffff"
     bordercolor="#666666"
     borderopacity="1.0"
     inkscape:showpageshadow="2"
     inkscape:pageopacity="1"
     inkscape:pagecheckerboard="true"
     inkscape:deskcolor="#d1d1d1"
     inkscape:document-units="px"
     showgrid="false"
     showguides="false"
     inkscape:zoom="0.97583333"
     inkscape:cx="600"
     inkscape:cy="315.11529"
     inkscape:window-width="1920"
     inkscape:window-height="999"
     inkscape:window-x="0"
     inkscape:window-y="0"
     inkscape:window-maximized="1"
     inkscape:current-layer="layer1"
     shape-rendering="auto" /><defs
     id="defs2"><rect
       x="468.32037"
       y="315"
       width="871.37665"
       height="192.52325"
       id="rect778" /><rect
       x="512.88647"
       y="355.49515"
       width="587.15466"
       height="129.19341"
       id="rect772" /><rect
       x="492.93478"
       y="136.60303"
       width="593.39471"
       height="164.44576"
       id="rect766" /><g
       id="shape0-9"
       transform="translate(24.7,-13.75)"><path
         d="m 33.8,18.65 q 4,8.45 4.35,19.65 0.35,11.15 -8.35,21.4 -8.75,10.2 -23.15,9.2 -14.4,-1 -21.3,-8.6 -6.9,-7.65 -7.65,-9.6 -0.8,-2 -1.9,-3.3 l 1.1,0.9 -0.05,-0.35 V 46 q 0,-6.4 3.2,-11.05 Q -17,30.6 -8,23.35 q 4.5,-3.6 6.85,-5 4.45,-2.65 9.3,-3.35 17.5,-2.65 23.4,0.25 l 1.35,1.8 0.05,0.05 0.5,0.85 q 0.25,0.6 0,0.85 l 0.35,-0.15"
         id="path2"
         inkscape:connector-curvature="0"
         style="fill:url(#gradient0-3);fill-rule:evenodd" /><path
         d="m 33.45,17.95 0.35,0.7 q 4,8.45 4.35,19.65 0.35,11.15 -8.35,21.4 -8.75,10.2 -23.15,9.2 -14.4,-1 -21.3,-8.6 -6.9,-7.65 -7.65,-9.6 -0.8,-2 -1.9,-3.3 m 57.15,-30.3 0.5,0.85 z"
         id="path4"
         inkscape:connector-curvature="0"
         style="fill:none;stroke:#ff9900;stroke-linecap:round;stroke-linejoin:round" /></g><radialGradient
       id="gradient0-3"
       cx="0"
       cy="0"
       r="819.20001"
       fx="6.4000001"
       gradientTransform="matrix(0.0477,0.0824,-0.0842,0.0487,15.55,45.45)"
       gradientUnits="userSpaceOnUse"><stop
         stop-color="#0a0101"
         offset=".3019608"
         id="stop7" /><stop
         stop-color="#4d0101"
         offset=".5490196"
         id="stop9" /><stop
         stop-color="#c10000"
         offset=".7490196"
         id="stop11" /><stop
         stop-color="#fca921"
         offset="1"
         id="stop13" /></radialGradient><g
       id="shape1-8"
       transform="translate(41.35,35.9)"><path
         d="m -23,48.9 -0.6,-1.3 q -2.65,-4.1 -6.25,-7.55 -2,-1.95 -5.5,-5 -5.5,-5.15 -5.5,-12.95 0,-2.25 0.8,-4.45 0.75,-2.2 1.95,-3.3 0.15,1.3 1,2.75 1,1.75 2.4,1.75 3.1,0 3.1,-9.1 0,-5.85 -1.3,-8.7 -1.3,-2.85 -3.05,-5.25 -1.7,-2.4 -2.45,-4.8 1.7,1.85 3.55,1.85 4,0 5.7,-5.25 1.15,-3.5 1.15,-8.9 0,-3.1 -1.55,-8.55 -1.15,-4.05 -1.8,-5.55 l 4.65,2.95 4.95,3.6 q 1.35,0.95 10.15,3.95 8.7,3 20.15,18.4 l 0.2,0.25 q 0.55,0.75 2.05,2.05 2.3,1.95 3.5,1.95 1.35,0 2.2,-0.6 1,-0.7 1,-2.1 0,-2.45 -2.2,-5.75 -1.95,-2.9 -3.3,-3.55 9.25,2.35 14.75,13.85 1.7,3.5 4.15,10.85 l 3,8.4 q -2.85,-2.2 -6,-2 -20.2,-0.7 -36.1,11.25 -6.3,4.75 -10.1,10.25 -3.45,5 -3.55,8.6 L -23,48.9 M -24.4,2.4 q -1.5,-1.5 -2.6,-1.5 -1.25,0 -1.25,1.85 0,3.1 1.75,7.65 2.2,5.6 5,5.6 0.95,0 1.25,-0.6 0.25,-0.55 0.25,-2.1 0,-1.75 -1.35,-5.15 -1.35,-3.4 -2.9,-5.5 L -24.4,2.4 m 8.85,-12.65 -1.15,-0.1 q -1.2,0 -2.2,1.35 -1,1.35 -1,2.95 0,7.1 6.25,12.55 5.45,4.75 10.4,4.75 3.15,0 4.6,-0.85 2,-1.2 2,-4.45 0,-4 -4.5,-10.3 -4.7,-6.65 -8.4,-6.65 -1.1,0 -1.1,0.9 l 0.3,1.55 0.55,0.9 -2.2,-1.3 q -2.3,-1.3 -3.55,-1.3"
         id="path16"
         inkscape:connector-curvature="0"
         style="fill:url(#gradient0-3);fill-rule:evenodd" /><path
         d="m -23,48.9 -0.6,-1.3 q -2.65,-4.1 -6.25,-7.55 -2,-1.95 -5.5,-5 -5.5,-5.15 -5.5,-12.95 0,-2.25 0.8,-4.45 0.75,-2.2 1.95,-3.3 0.15,1.3 1,2.75 1,1.75 2.4,1.75 3.1,0 3.1,-9.1 0,-5.85 -1.3,-8.7 -1.3,-2.85 -3.05,-5.25 -1.7,-2.4 -2.45,-4.8 1.7,1.85 3.55,1.85 4,0 5.7,-5.25 1.15,-3.5 1.15,-8.9 0,-3.1 -1.55,-8.55 -1.15,-4.05 -1.8,-5.55 l 4.65,2.95 4.95,3.6 q 1.35,0.95 10.15,3.95 8.7,3 20.15,18.4 l 0.2,0.25 q 0.55,0.75 2.05,2.05 2.3,1.95 3.5,1.95 1.35,0 2.2,-0.6 1,-0.7 1,-2.1 0,-2.45 -2.2,-5.75 -1.95,-2.9 -3.3,-3.55 9.25,2.35 14.75,13.85 1.7,3.5 4.15,10.85 l 3,8.4 m -49.45,-29.1 q 1.25,0 3.55,1.3 l 2.2,1.3 -0.55,-0.9 -0.3,-1.55 q 0,-0.9 1.1,-0.9 3.7,0 8.4,6.65 4.5,6.3 4.5,10.3 0,3.25 -2,4.45 -1.45,0.85 -4.6,0.85 -4.95,0 -10.4,-4.75 -6.25,-5.45 -6.25,-12.55 0,-1.6 1,-2.95 1,-1.35 2.2,-1.35 l 1.15,0.1 m -8.7,12.9 q 1.55,2.1 2.9,5.5 1.35,3.4 1.35,5.15 0,1.55 -0.25,2.1 -0.3,0.6 -1.25,0.6 -2.8,0 -5,-5.6 -1.75,-4.55 -1.75,-7.65 0,-1.85 1.25,-1.85 1.1,0 2.6,1.5"
         id="path18"
         inkscape:connector-curvature="0"
         style="fill:none;stroke:#ff9900;stroke-linecap:round;stroke-linejoin:round" /></g><g
       id="shape0-87"
       transform="translate(22.35,15.15)"><path
         d="m 25.95,-9.9 -2.45,3.1 q 0.4,1.85 0.4,3.55 0,4.2 -1.15,6.95 -1.35,3.2 -4.9,6.65 l 1.2,0.5 -0.4,0.35 -1.1,0.15 q -0.8,0 -3.15,-1.45 L 11.65,7.85 11.2,7.5 H 11.15 L 10.65,7.45 10.55,7.35 10.4,7.25 10.3,6.8 q 0,-1.5 7.05,-9.1 6.55,-7.05 8.2,-8.1 l 0.3,0.1 0.1,0.4 M 4.35,7.6 4.1,7.85 4.3,8.4 q 0,1.1 -6.85,3.95 -7.25,3 -11.65,3 l -2.8,-0.9 6.85,-0.75 q -7.05,-0.7 -10.2,-7 -2,-4 -2,-8.3 0,-3.55 1.4,-6.3 1.4,-2.9 4.75,-5.95 l -1.25,-1.3 1.55,1.05 0.15,-0.15 0.25,0.35 -0.05,0.1 q 6.35,4.5 12,10.5 5.7,6.05 9.85,12.65 L 6.15,9.6 4.35,7.6"
         id="path21"
         inkscape:connector-curvature="0"
         style="fill:#ffffff;fill-rule:evenodd" /></g><g
       id="shape0-76"
       transform="translate(11.05,17.3)"><path
         d="M -7.2,-12.5 -4.95,-14 -4,-14.55 h 0.05 l 0.25,-0.15 0.05,-0.05 0.15,-0.05 q 3.3,-1.95 5.95,-2 v 0.05 q 0.3,1.2 1.35,2.45 l 1.3,1.35 3.8,-1.5 2.7,1.75 q 2.7,1.95 3.55,3.35 0,1.15 -1.35,3 l -2,2.55 2.45,2.25 1.85,2.05 0.15,0.55 q -0.2,1.65 -1.7,3.5 -1.4,1.65 -2.95,2.4 l -0.25,-0.1 v 0.2 L 11.55,7 q 0.25,0.65 1.2,1.15 l 1.15,0.9 V 9.6 q -5.25,7.3 -13.25,7.25 0.2,-1.1 -1.15,-2.1 -6.15,-2.8 -9,-4.75 L -9.75,9.8 q 0.7,-0.2 -0.6,-2.85 -1.3,-2.7 -0.1,-8.65 0.4,-1.95 0.85,-6.05 0.6,-3.4 2.4,-4.75 M 4.25,-2.95 Q 3.3,-4.05 2.8,-5.3 2.45,-6.1 2.45,-6.45 q 0,0.35 0.35,1.15 0.5,1.25 1.45,2.35 m -2,-4 q 0,-0.5 0.5,-1.8 l 0.6,-1.4 -0.6,1.4 q -0.5,1.3 -0.5,1.8 m 3.3,-5.5 -0.45,-0.45 v -0.05 0.05 l 0.45,0.45 M 4.1,13.2 4.45,12.4 4.65,11.6 4.45,12.4 4.1,13.2 M 4.45,6.9 2.8,4 3.4,2.05 3.9,0.35 3.4,2.05 2.8,4 4.45,6.9"
         id="path24"
         inkscape:connector-curvature="0"
         style="fill:url(#gradient0-164);fill-rule:evenodd" /><path
         d="M -7.2,-12.5 -4.95,-14 -4,-14.55 h 0.05 l 0.25,-0.15 0.05,-0.05 0.15,-0.05 q 3.3,-1.95 5.95,-2 v 0.05 q 0.3,1.2 1.35,2.45 l 1.3,1.35 3.8,-1.5 2.7,1.75 q 2.7,1.95 3.55,3.35 0,1.15 -1.35,3 l -2,2.55 2.45,2.25 1.85,2.05 0.15,0.55 q -0.2,1.65 -1.7,3.5 -1.4,1.65 -2.95,2.4 L 11.55,7 q 0.25,0.65 1.2,1.15 l 1.15,0.9 V 9.6 q -5.25,7.3 -13.25,7.25 0.2,-1.1 -1.15,-2.1 -6.15,-2.8 -9,-4.75 L -9.75,9.8 M 5.1,-12.95 v 0.05 l 0.45,0.45 m -2.2,2.3 -0.6,1.4 q -0.5,1.3 -0.5,1.8 m 0.2,0.5 q 0,0.35 0.35,1.15 0.5,1.25 1.45,2.35 m 7.3,9.95 -0.2,0.05 v -0.2 l 0.25,0.1 M 3.9,0.35 3.4,2.05 2.8,4 4.45,6.9 m 0.2,4.7 -0.2,0.8 -0.35,0.8"
         id="path26"
         inkscape:connector-curvature="0"
         style="fill:none;stroke:#ff9900;stroke-linecap:round;stroke-linejoin:round" /></g><radialGradient
       id="gradient0-164"
       cx="0"
       cy="0"
       r="819.20001"
       gradientTransform="matrix(0.0456,0,0,0.0456,-29.6,1.95)"
       gradientUnits="userSpaceOnUse"><stop
         stop-color="#facd1b"
         offset="0"
         id="stop29" /><stop
         stop-color="#cf4104"
         offset=".3058824"
         id="stop31" /><stop
         offset=".8509804"
         id="stop33" /></radialGradient><g
       id="shape1-56"
       transform="translate(26.05,12.2)"><path
         d="M -7.65,-11.65 H -7.7 l 0.05,-0.05 v 0.05"
         id="path36"
         inkscape:connector-curvature="0"
         style="fill-rule:evenodd" /><path
         d="m -7.7,-11.65 h 0.05 l -1.2,22.2 -8.05,-2.7 q -6.05,-2.4 -8.65,-4.4 8.5,1.2 12.05,-3.3 3.5,-4.5 1.95,-7.1 -1.55,-2.65 -4.45,-4.65 5.15,1.2 8.1,-0.1 l 0.2,0.05"
         id="path38"
         inkscape:connector-curvature="0"
         style="fill:url(#gradient0-164);fill-rule:evenodd" /><path
         d="m -7.7,-11.65 -0.2,-0.05 q -2.95,1.3 -8.1,0.1 2.9,2 4.45,4.65 1.55,2.6 -1.95,7.1 -3.55,4.5 -12.05,3.3 2.6,2 8.65,4.4 l 8.05,2.7"
         id="path40"
         inkscape:connector-curvature="0"
         style="fill:none;stroke:#ff9900;stroke-linecap:round;stroke-linejoin:round" /></g><g
       id="shape0-73"
       transform="translate(26.1,15.45)"><path
         d="m 10.9,-7.5 0.2,0.1 -0.25,-0.05 -0.1,-0.05 q -0.6,-0.35 0.15,0"
         id="path43"
         inkscape:connector-curvature="0"
         style="fill:url(#gradient0-08);fill-rule:evenodd" /><path
         d="m 12.2,-3.4 q -0.55,1.35 -1.15,1.15 l 1.4,2.75 Q 11.6,-0.2 8.15,-1.65 l -0.5,-0.2 0.5,0.2 q 3.45,1.45 4.3,2.15 l -1.4,-2.75 q 0.6,0.2 1.15,-1.15 m -1.1,-4 3.15,1.55 2.05,0.75 q 2.15,1.05 3.55,2.55 1.45,1.5 2.1,3.25 L 23,2.95 q 0.65,1.6 2.15,3.1 1.45,1.45 -1.9,0.55 l -6.5,-0.3 q 0.45,2.15 2.25,4 1.85,1.85 -3.2,1.05 L 9.35,10.8 Q 7.9,11.05 5,9.7 5.55,12.2 6.9,14 8.25,15.75 2.35,14.4 l -8.3,-1.75 q -2.4,-0.45 -3.7,-1.6 l -2,-2 0.2,-0.95 -0.15,-0.05 -0.45,-0.25 -0.7,-0.25 -0.2,-0.35 q -2.45,0.5 -7.65,-1.75 -5,-2.15 -5,-3 0,-3.7 3.35,-7.9 L -18.9,-9 q 6.35,-5.95 10.25,-5.95 4.6,0 13.15,4.3 l 6.25,3.15 0.1,0.05 0.25,0.05 M -5.25,0.95 -6.15,1.8 q -1.1,1.45 -1.7,3 0.6,-1.55 1.7,-3 l 0.9,-0.85 M 4.6,8.05 Q 4.35,7.85 5,9.7 4.35,7.85 4.6,8.05 M 4,6 Q 3.7,4.95 3.2,4.45 L 0.3,1.55 3.2,4.45 Q 3.15,3.8 3.45,2.9 4.2,0.5 4.6,0.45 4.2,0.5 3.45,2.9 3.15,3.8 3.2,4.45 3.7,4.95 4,6 M 16.75,6.3 16.7,6.1 16.2,5.2 15.65,4.25 14.55,2.7 l -2.1,-2.2 2.1,2.2 1.1,1.55 0.55,0.95 0.5,0.9 0.05,0.2 M 14,-5.3 l 0.25,-0.05 1.8,0.25 H 16.3 16.05 L 14.25,-5.35 14,-5.3"
         id="path45"
         inkscape:connector-curvature="0"
         style="fill:url(#gradient1-28);fill-rule:evenodd" /><path
         d="m 7.65,-1.85 0.5,0.2 q 3.45,1.45 4.3,2.15 l -1.4,-2.75 q 0.6,0.2 1.15,-1.15 m -1.3,-4.1 0.2,0.1 3.15,1.55 2.05,0.75 q 2.15,1.05 3.55,2.55 1.45,1.5 2.1,3.25 L 23,2.95 q 0.65,1.6 2.15,3.1 1.45,1.45 -1.9,0.55 l -6.5,-0.3 q 0.45,2.15 2.25,4 1.85,1.85 -3.2,1.05 L 9.35,10.8 Q 7.9,11.05 5,9.7 5.55,12.2 6.9,14 8.25,15.75 2.35,14.4 l -8.3,-1.75 q -2.4,-0.45 -3.7,-1.6 l -2,-2 L -12,8.6 -12.75,7.55 -12.95,7.2 q -2.45,0.5 -7.65,-1.75 -5,-2.15 -5,-3 0,-3.7 3.35,-7.9 L -18.9,-9 q 6.35,-5.95 10.25,-5.95 4.6,0 13.15,4.3 l 6.25,3.15 m 0.35,0.1 -0.25,-0.05 -0.1,-0.05 m 5.55,2.4 H 16.05 L 14.25,-5.35 14,-5.3 m -1.55,5.8 2.1,2.2 1.1,1.55 0.55,0.95 0.5,0.9 0.05,0.2 M 0.3,1.55 3.2,4.45 Q 3.15,3.8 3.45,2.9 4.2,0.5 4.6,0.45 m -1.4,4 Q 3.7,4.95 4,6 M 5,9.7 Q 4.35,7.85 4.6,8.05 M -7.85,4.8 q 0.6,-1.55 1.7,-3 l 0.9,-0.85"
         id="path47"
         inkscape:connector-curvature="0"
         style="fill:none;stroke:#ff9900;stroke-linecap:round;stroke-linejoin:round" /></g><radialGradient
       id="gradient0-08"
       cx="0"
       cy="0"
       r="819.20001"
       gradientTransform="matrix(0.0377,0,0,0.0377,-15.45,-15.55)"
       gradientUnits="userSpaceOnUse"><stop
         stop-color="#facd1b"
         offset="0"
         id="stop50" /><stop
         stop-color="#cf4104"
         offset=".5764706"
         id="stop52" /><stop
         offset="1"
         id="stop54" /></radialGradient><radialGradient
       id="gradient1-28"
       cx="0"
       cy="0"
       r="819.20001"
       gradientTransform="matrix(0.0456,0,0,0.0456,-16.55,-26.35)"
       gradientUnits="userSpaceOnUse"><stop
         stop-color="#facd1b"
         offset="0"
         id="stop57" /><stop
         stop-color="#cf4104"
         offset=".3058824"
         id="stop59" /><stop
         offset=".8509804"
         id="stop61" /></radialGradient><g
       id="shape1-90"
       transform="translate(30.8,27)"><path
         d="m -26.6,-17.55 q 0.35,1.2 -0.1,1.8 l -0.2,0.15 -0.05,0.1 q -0.15,-1.3 -1.3,-2.4 l -2.05,-1.95 0.15,-0.2 q 1.65,0.25 2.6,0.95 0.65,0.5 0.95,1.55"
         id="path64"
         inkscape:connector-curvature="0"
         style="fill:url(#gradient0-08);fill-rule:evenodd" /><path
         d="m -16.95,-26.4 0.1,-0.1 4,0.8 q 2.6,1 4.2,2.45 2.05,1.8 2.8,4.8 0.75,3.1 2.65,4.8 l 0.85,0.65 0.85,0.35 0.05,0.75 -23.15,11.75 q 0.7,-2.55 -1.85,-4.9 -0.8,-0.9 -0.75,-2.55 l 0.25,-3.1 q 0.6,1.4 4.05,1.15 3.4,-0.25 7.75,-3 4.3,-2.75 2.5,-7.2 -1.85,-4.5 -4.3,-6.65"
         id="path66"
         inkscape:connector-curvature="0"
         style="fill:url(#gradient1-28);fill-rule:evenodd" /><path
         d="m -16.95,-26.4 q 2.45,2.15 4.3,6.65 1.8,4.45 -2.5,7.2 -4.35,2.75 -7.75,3 -3.45,0.25 -4.05,-1.15 l -0.25,3.1 q -0.05,1.65 0.75,2.55 2.55,2.35 1.85,4.9 M -1.5,-12.65 -2.35,-13 -3.2,-13.65 q -1.9,-1.7 -2.65,-4.8 -0.75,-3 -2.8,-4.8 -1.6,-1.45 -4.2,-2.45 l -4,-0.8 h -0.35 l 0.25,0.1 m -9.65,8.85 q 0.35,1.2 -0.1,1.8 l -0.2,0.15 -0.05,0.1 q -0.15,-1.3 -1.3,-2.4 l -2.05,-1.95 0.15,-0.2 q 1.65,0.25 2.6,0.95 0.65,0.5 0.95,1.55"
         id="path68"
         inkscape:connector-curvature="0"
         style="fill:none;stroke:#ff9900;stroke-linecap:round;stroke-linejoin:round" /></g><rect
       x="492.93478"
       y="136.60303"
       width="593.39471"
       height="164.44576"
       id="rect766-0" /><g
       id="shape0-9-1"
       transform="translate(24.7,-13.75)"><path
         d="m 33.8,18.65 q 4,8.45 4.35,19.65 0.35,11.15 -8.35,21.4 -8.75,10.2 -23.15,9.2 -14.4,-1 -21.3,-8.6 -6.9,-7.65 -7.65,-9.6 -0.8,-2 -1.9,-3.3 l 1.1,0.9 -0.05,-0.35 V 46 q 0,-6.4 3.2,-11.05 Q -17,30.6 -8,23.35 q 4.5,-3.6 6.85,-5 4.45,-2.65 9.3,-3.35 17.5,-2.65 23.4,0.25 l 1.35,1.8 0.05,0.05 0.5,0.85 q 0.25,0.6 0,0.85 l 0.35,-0.15"
         id="path2-7"
         inkscape:connector-curvature="0"
         style="fill:url(#gradient0-3-7);fill-rule:evenodd" /><path
         d="m 33.45,17.95 0.35,0.7 q 4,8.45 4.35,19.65 0.35,11.15 -8.35,21.4 -8.75,10.2 -23.15,9.2 -14.4,-1 -21.3,-8.6 -6.9,-7.65 -7.65,-9.6 -0.8,-2 -1.9,-3.3 m 57.15,-30.3 0.5,0.85 z"
         id="path4-2"
         inkscape:connector-curvature="0"
         style="fill:none;stroke:#ff9900;stroke-linecap:round;stroke-linejoin:round" /></g><radialGradient
       id="gradient0-3-7"
       cx="0"
       cy="0"
       r="819.20001"
       fx="6.4000001"
       gradientTransform="matrix(0.0477,0.0824,-0.0842,0.0487,15.55,45.45)"
       gradientUnits="userSpaceOnUse"><stop
         stop-color="#0a0101"
         offset=".3019608"
         id="stop7-2" /><stop
         stop-color="#4d0101"
         offset=".5490196"
         id="stop9-2" /><stop
         stop-color="#c10000"
         offset=".7490196"
         id="stop11-6" /><stop
         stop-color="#fca921"
         offset="1"
         id="stop13-1" /></radialGradient><g
       id="shape1-8-0"
       transform="translate(41.35,35.9)"><path
         d="m -23,48.9 -0.6,-1.3 q -2.65,-4.1 -6.25,-7.55 -2,-1.95 -5.5,-5 -5.5,-5.15 -5.5,-12.95 0,-2.25 0.8,-4.45 0.75,-2.2 1.95,-3.3 0.15,1.3 1,2.75 1,1.75 2.4,1.75 3.1,0 3.1,-9.1 0,-5.85 -1.3,-8.7 -1.3,-2.85 -3.05,-5.25 -1.7,-2.4 -2.45,-4.8 1.7,1.85 3.55,1.85 4,0 5.7,-5.25 1.15,-3.5 1.15,-8.9 0,-3.1 -1.55,-8.55 -1.15,-4.05 -1.8,-5.55 l 4.65,2.95 4.95,3.6 q 1.35,0.95 10.15,3.95 8.7,3 20.15,18.4 l 0.2,0.25 q 0.55,0.75 2.05,2.05 2.3,1.95 3.5,1.95 1.35,0 2.2,-0.6 1,-0.7 1,-2.1 0,-2.45 -2.2,-5.75 -1.95,-2.9 -3.3,-3.55 9.25,2.35 14.75,13.85 1.7,3.5 4.15,10.85 l 3,8.4 q -2.85,-2.2 -6,-2 -20.2,-0.7 -36.1,11.25 -6.3,4.75 -10.1,10.25 -3.45,5 -3.55,8.6 L -23,48.9 M -24.4,2.4 q -1.5,-1.5 -2.6,-1.5 -1.25,0 -1.25,1.85 0,3.1 1.75,7.65 2.2,5.6 5,5.6 0.95,0 1.25,-0.6 0.25,-0.55 0.25,-2.1 0,-1.75 -1.35,-5.15 -1.35,-3.4 -2.9,-5.5 L -24.4,2.4 m 8.85,-12.65 -1.15,-0.1 q -1.2,0 -2.2,1.35 -1,1.35 -1,2.95 0,7.1 6.25,12.55 5.45,4.75 10.4,4.75 3.15,0 4.6,-0.85 2,-1.2 2,-4.45 0,-4 -4.5,-10.3 -4.7,-6.65 -8.4,-6.65 -1.1,0 -1.1,0.9 l 0.3,1.55 0.55,0.9 -2.2,-1.3 q -2.3,-1.3 -3.55,-1.3"
         id="path16-6"
         inkscape:connector-curvature="0"
         style="fill:url(#gradient0-3-7);fill-rule:evenodd" /><path
         d="m -23,48.9 -0.6,-1.3 q -2.65,-4.1 -6.25,-7.55 -2,-1.95 -5.5,-5 -5.5,-5.15 -5.5,-12.95 0,-2.25 0.8,-4.45 0.75,-2.2 1.95,-3.3 0.15,1.3 1,2.75 1,1.75 2.4,1.75 3.1,0 3.1,-9.1 0,-5.85 -1.3,-8.7 -1.3,-2.85 -3.05,-5.25 -1.7,-2.4 -2.45,-4.8 1.7,1.85 3.55,1.85 4,0 5.7,-5.25 1.15,-3.5 1.15,-8.9 0,-3.1 -1.55,-8.55 -1.15,-4.05 -1.8,-5.55 l 4.65,2.95 4.95,3.6 q 1.35,0.95 10.15,3.95 8.7,3 20.15,18.4 l 0.2,0.25 q 0.55,0.75 2.05,2.05 2.3,1.95 3.5,1.95 1.35,0 2.2,-0.6 1,-0.7 1,-2.1 0,-2.45 -2.2,-5.75 -1.95,-2.9 -3.3,-3.55 9.25,2.35 14.75,13.85 1.7,3.5 4.15,10.85 l 3,8.4 m -49.45,-29.1 q 1.25,0 3.55,1.3 l 2.2,1.3 -0.55,-0.9 -0.3,-1.55 q 0,-0.9 1.1,-0.9 3.7,0 8.4,6.65 4.5,6.3 4.5,10.3 0,3.25 -2,4.45 -1.45,0.85 -4.6,0.85 -4.95,0 -10.4,-4.75 -6.25,-5.45 -6.25,-12.55 0,-1.6 1,-2.95 1,-1.35 2.2,-1.35 l 1.15,0.1 m -8.7,12.9 q 1.55,2.1 2.9,5.5 1.35,3.4 1.35,5.15 0,1.55 -0.25,2.1 -0.3,0.6 -1.25,0.6 -2.8,0 -5,-5.6 -1.75,-4.55 -1.75,-7.65 0,-1.85 1.25,-1.85 1.1,0 2.6,1.5"
         id="path18-1"
         inkscape:connector-curvature="0"
         style="fill:none;stroke:#ff9900;stroke-linecap:round;stroke-linejoin:round" /></g><g
       id="shape0-87-5"
       transform="translate(22.35,15.15)"><path
         d="m 25.95,-9.9 -2.45,3.1 q 0.4,1.85 0.4,3.55 0,4.2 -1.15,6.95 -1.35,3.2 -4.9,6.65 l 1.2,0.5 -0.4,0.35 -1.1,0.15 q -0.8,0 -3.15,-1.45 L 11.65,7.85 11.2,7.5 H 11.15 L 10.65,7.45 10.55,7.35 10.4,7.25 10.3,6.8 q 0,-1.5 7.05,-9.1 6.55,-7.05 8.2,-8.1 l 0.3,0.1 0.1,0.4 M 4.35,7.6 4.1,7.85 4.3,8.4 q 0,1.1 -6.85,3.95 -7.25,3 -11.65,3 l -2.8,-0.9 6.85,-0.75 q -7.05,-0.7 -10.2,-7 -2,-4 -2,-8.3 0,-3.55 1.4,-6.3 1.4,-2.9 4.75,-5.95 l -1.25,-1.3 1.55,1.05 0.15,-0.15 0.25,0.35 -0.05,0.1 q 6.35,4.5 12,10.5 5.7,6.05 9.85,12.65 L 6.15,9.6 4.35,7.6"
         id="path21-9"
         inkscape:connector-curvature="0"
         style="fill:#ffffff;fill-rule:evenodd" /></g><g
       id="shape0-76-4"
       transform="translate(11.05,17.3)"><path
         d="M -7.2,-12.5 -4.95,-14 -4,-14.55 h 0.05 l 0.25,-0.15 0.05,-0.05 0.15,-0.05 q 3.3,-1.95 5.95,-2 v 0.05 q 0.3,1.2 1.35,2.45 l 1.3,1.35 3.8,-1.5 2.7,1.75 q 2.7,1.95 3.55,3.35 0,1.15 -1.35,3 l -2,2.55 2.45,2.25 1.85,2.05 0.15,0.55 q -0.2,1.65 -1.7,3.5 -1.4,1.65 -2.95,2.4 l -0.25,-0.1 v 0.2 L 11.55,7 q 0.25,0.65 1.2,1.15 l 1.15,0.9 V 9.6 q -5.25,7.3 -13.25,7.25 0.2,-1.1 -1.15,-2.1 -6.15,-2.8 -9,-4.75 L -9.75,9.8 q 0.7,-0.2 -0.6,-2.85 -1.3,-2.7 -0.1,-8.65 0.4,-1.95 0.85,-6.05 0.6,-3.4 2.4,-4.75 M 4.25,-2.95 Q 3.3,-4.05 2.8,-5.3 2.45,-6.1 2.45,-6.45 q 0,0.35 0.35,1.15 0.5,1.25 1.45,2.35 m -2,-4 q 0,-0.5 0.5,-1.8 l 0.6,-1.4 -0.6,1.4 q -0.5,1.3 -0.5,1.8 m 3.3,-5.5 -0.45,-0.45 v -0.05 0.05 l 0.45,0.45 M 4.1,13.2 4.45,12.4 4.65,11.6 4.45,12.4 4.1,13.2 M 4.45,6.9 2.8,4 3.4,2.05 3.9,0.35 3.4,2.05 2.8,4 4.45,6.9"
         id="path24-9"
         inkscape:connector-curvature="0"
         style="fill:url(#gradient0-164-9);fill-rule:evenodd" /><path
         d="M -7.2,-12.5 -4.95,-14 -4,-14.55 h 0.05 l 0.25,-0.15 0.05,-0.05 0.15,-0.05 q 3.3,-1.95 5.95,-2 v 0.05 q 0.3,1.2 1.35,2.45 l 1.3,1.35 3.8,-1.5 2.7,1.75 q 2.7,1.95 3.55,3.35 0,1.15 -1.35,3 l -2,2.55 2.45,2.25 1.85,2.05 0.15,0.55 q -0.2,1.65 -1.7,3.5 -1.4,1.65 -2.95,2.4 L 11.55,7 q 0.25,0.65 1.2,1.15 l 1.15,0.9 V 9.6 q -5.25,7.3 -13.25,7.25 0.2,-1.1 -1.15,-2.1 -6.15,-2.8 -9,-4.75 L -9.75,9.8 M 5.1,-12.95 v 0.05 l 0.45,0.45 m -2.2,2.3 -0.6,1.4 q -0.5,1.3 -0.5,1.8 m 0.2,0.5 q 0,0.35 0.35,1.15 0.5,1.25 1.45,2.35 m 7.3,9.95 -0.2,0.05 v -0.2 l 0.25,0.1 M 3.9,0.35 3.4,2.05 2.8,4 4.45,6.9 m 0.2,4.7 -0.2,0.8 -0.35,0.8"
         id="path26-0"
         inkscape:connector-curvature="0"
         style="fill:none;stroke:#ff9900;stroke-linecap:round;stroke-linejoin:round" /></g><radialGradient
       id="gradient0-164-9"
       cx="0"
       cy="0"
       r="819.20001"
       gradientTransform="matrix(0.0456,0,0,0.0456,-29.6,1.95)"
       gradientUnits="userSpaceOnUse"><stop
         stop-color="#facd1b"
         offset="0"
         id="stop29-1" /><stop
         stop-color="#cf4104"
         offset=".3058824"
         id="stop31-7" /><stop
         offset=".8509804"
         id="stop33-7" /></radialGradient><g
       id="shape1-56-1"
       transform="translate(26.05,12.2)"><path
         d="M -7.65,-11.65 H -7.7 l 0.05,-0.05 v 0.05"
         id="path36-1"
         inkscape:connector-curvature="0"
         style="fill-rule:evenodd" /><path
         d="m -7.7,-11.65 h 0.05 l -1.2,22.2 -8.05,-2.7 q -6.05,-2.4 -8.65,-4.4 8.5,1.2 12.05,-3.3 3.5,-4.5 1.95,-7.1 -1.55,-2.65 -4.45,-4.65 5.15,1.2 8.1,-0.1 l 0.2,0.05"
         id="path38-5"
         inkscape:connector-curvature="0"
         style="fill:url(#gradient0-164-9);fill-rule:evenodd" /><path
         d="m -7.7,-11.65 -0.2,-0.05 q -2.95,1.3 -8.1,0.1 2.9,2 4.45,4.65 1.55,2.6 -1.95,7.1 -3.55,4.5 -12.05,3.3 2.6,2 8.65,4.4 l 8.05,2.7"
         id="path40-9"
         inkscape:connector-curvature="0"
         style="fill:none;stroke:#ff9900;stroke-linecap:round;stroke-linejoin:round" /></g><g
       id="shape0-73-7"
       transform="translate(26.1,15.45)"><path
         d="m 10.9,-7.5 0.2,0.1 -0.25,-0.05 -0.1,-0.05 q -0.6,-0.35 0.15,0"
         id="path43-7"
         inkscape:connector-curvature="0"
         style="fill:url(#gradient0-08-3);fill-rule:evenodd" /><path
         d="m 12.2,-3.4 q -0.55,1.35 -1.15,1.15 l 1.4,2.75 Q 11.6,-0.2 8.15,-1.65 l -0.5,-0.2 0.5,0.2 q 3.45,1.45 4.3,2.15 l -1.4,-2.75 q 0.6,0.2 1.15,-1.15 m -1.1,-4 3.15,1.55 2.05,0.75 q 2.15,1.05 3.55,2.55 1.45,1.5 2.1,3.25 L 23,2.95 q 0.65,1.6 2.15,3.1 1.45,1.45 -1.9,0.55 l -6.5,-0.3 q 0.45,2.15 2.25,4 1.85,1.85 -3.2,1.05 L 9.35,10.8 Q 7.9,11.05 5,9.7 5.55,12.2 6.9,14 8.25,15.75 2.35,14.4 l -8.3,-1.75 q -2.4,-0.45 -3.7,-1.6 l -2,-2 0.2,-0.95 -0.15,-0.05 -0.45,-0.25 -0.7,-0.25 -0.2,-0.35 q -2.45,0.5 -7.65,-1.75 -5,-2.15 -5,-3 0,-3.7 3.35,-7.9 L -18.9,-9 q 6.35,-5.95 10.25,-5.95 4.6,0 13.15,4.3 l 6.25,3.15 0.1,0.05 0.25,0.05 M -5.25,0.95 -6.15,1.8 q -1.1,1.45 -1.7,3 0.6,-1.55 1.7,-3 l 0.9,-0.85 M 4.6,8.05 Q 4.35,7.85 5,9.7 4.35,7.85 4.6,8.05 M 4,6 Q 3.7,4.95 3.2,4.45 L 0.3,1.55 3.2,4.45 Q 3.15,3.8 3.45,2.9 4.2,0.5 4.6,0.45 4.2,0.5 3.45,2.9 3.15,3.8 3.2,4.45 3.7,4.95 4,6 M 16.75,6.3 16.7,6.1 16.2,5.2 15.65,4.25 14.55,2.7 l -2.1,-2.2 2.1,2.2 1.1,1.55 0.55,0.95 0.5,0.9 0.05,0.2 M 14,-5.3 l 0.25,-0.05 1.8,0.25 H 16.3 16.05 L 14.25,-5.35 14,-5.3"
         id="path45-6"
         inkscape:connector-curvature="0"
         style="fill:url(#gradient1-28-3);fill-rule:evenodd" /><path
         d="m 7.65,-1.85 0.5,0.2 q 3.45,1.45 4.3,2.15 l -1.4,-2.75 q 0.6,0.2 1.15,-1.15 m -1.3,-4.1 0.2,0.1 3.15,1.55 2.05,0.75 q 2.15,1.05 3.55,2.55 1.45,1.5 2.1,3.25 L 23,2.95 q 0.65,1.6 2.15,3.1 1.45,1.45 -1.9,0.55 l -6.5,-0.3 q 0.45,2.15 2.25,4 1.85,1.85 -3.2,1.05 L 9.35,10.8 Q 7.9,11.05 5,9.7 5.55,12.2 6.9,14 8.25,15.75 2.35,14.4 l -8.3,-1.75 q -2.4,-0.45 -3.7,-1.6 l -2,-2 L -12,8.6 -12.75,7.55 -12.95,7.2 q -2.45,0.5 -7.65,-1.75 -5,-2.15 -5,-3 0,-3.7 3.35,-7.9 L -18.9,-9 q 6.35,-5.95 10.25,-5.95 4.6,0 13.15,4.3 l 6.25,3.15 m 0.35,0.1 -0.25,-0.05 -0.1,-0.05 m 5.55,2.4 H 16.05 L 14.25,-5.35 14,-5.3 m -1.55,5.8 2.1,2.2 1.1,1.55 0.55,0.95 0.5,0.9 0.05,0.2 M 0.3,1.55 3.2,4.45 Q 3.15,3.8 3.45,2.9 4.2,0.5 4.6,0.45 m -1.4,4 Q 3.7,4.95 4,6 M 5,9.7 Q 4.35,7.85 4.6,8.05 M -7.85,4.8 q 0.6,-1.55 1.7,-3 l 0.9,-0.85"
         id="path47-7"
         inkscape:connector-curvature="0"
         style="fill:none;stroke:#ff9900;stroke-linecap:round;stroke-linejoin:round" /></g><radialGradient
       id="gradient0-08-3"
       cx="0"
       cy="0"
       r="819.20001"
       gradientTransform="matrix(0.0377,0,0,0.0377,-15.45,-15.55)"
       gradientUnits="userSpaceOnUse"><stop
         stop-color="#facd1b"
         offset="0"
         id="stop50-6" /><stop
         stop-color="#cf4104"
         offset=".5764706"
         id="stop52-5" /><stop
         offset="1"
         id="stop54-6" /></radialGradient><radialGradient
       id="gradient1-28-3"
       cx="0"
       cy="0"
       r="819.20001"
       gradientTransform="matrix(0.0456,0,0,0.0456,-16.55,-26.35)"
       gradientUnits="userSpaceOnUse"><stop
         stop-color="#facd1b"
         offset="0"
         id="stop57-9" /><stop
         stop-color="#cf4104"
         offset=".3058824"
         id="stop59-4" /><stop
         offset=".8509804"
         id="stop61-8" /></radialGradient><g
       id="shape1-90-1"
       transform="translate(30.8,27)"><path
         d="m -26.6,-17.55 q 0.35,1.2 -0.1,1.8 l -0.2,0.15 -0.05,0.1 q -0.15,-1.3 -1.3,-2.4 l -2.05,-1.95 0.15,-0.2 q 1.65,0.25 2.6,0.95 0.65,0.5 0.95,1.55"
         id="path64-2"
         inkscape:connector-curvature="0"
         style="fill:url(#gradient0-08-3);fill-rule:evenodd" /><path
         d="m -16.95,-26.4 0.1,-0.1 4,0.8 q 2.6,1 4.2,2.45 2.05,1.8 2.8,4.8 0.75,3.1 2.65,4.8 l 0.85,0.65 0.85,0.35 0.05,0.75 -23.15,11.75 q 0.7,-2.55 -1.85,-4.9 -0.8,-0.9 -0.75,-2.55 l 0.25,-3.1 q 0.6,1.4 4.05,1.15 3.4,-0.25 7.75,-3 4.3,-2.75 2.5,-7.2 -1.85,-4.5 -4.3,-6.65"
         id="path66-9"
         inkscape:connector-curvature="0"
         style="fill:url(#gradient1-28-3);fill-rule:evenodd" /><path
         d="m -16.95,-26.4 q 2.45,2.15 4.3,6.65 1.8,4.45 -2.5,7.2 -4.35,2.75 -7.75,3 -3.45,0.25 -4.05,-1.15 l -0.25,3.1 q -0.05,1.65 0.75,2.55 2.55,2.35 1.85,4.9 M -1.5,-12.65 -2.35,-13 -3.2,-13.65 q -1.9,-1.7 -2.65,-4.8 -0.75,-3 -2.8,-4.8 -1.6,-1.45 -4.2,-2.45 l -4,-0.8 h -0.35 l 0.25,0.1 m -9.65,8.85 q 0.35,1.2 -0.1,1.8 l -0.2,0.15 -0.05,0.1 q -0.15,-1.3 -1.3,-2.4 l -2.05,-1.95 0.15,-0.2 q 1.65,0.25 2.6,0.95 0.65,0.5 0.95,1.55"
         id="path68-3"
         inkscape:connector-curvature="0"
         style="fill:none;stroke:#ff9900;stroke-linecap:round;stroke-linejoin:round" /></g><filter
       inkscape:collect="always"
       style="color-interpolation-filters:sRGB"
       id="filter7671-9"
       x="-0.34856417"
       width="1.6982816"
       y="-0.22422692"
       height="1.4487395"><feGaussianBlur
         inkscape:collect="always"
         stdDeviation="2.4423068"
         id="feGaussianBlur7673-0" /></filter><filter
       inkscape:collect="always"
       style="color-interpolation-filters:sRGB"
       id="filter7675-8"
       x="-0.17084157"
       width="1.3422178"
       y="-0.16949903"
       height="1.3396883"><feGaussianBlur
         inkscape:collect="always"
         stdDeviation="2.4423068"
         id="feGaussianBlur7677-8" /></filter><filter
       inkscape:collect="always"
       style="color-interpolation-filters:sRGB"
       id="filter7687-5"
       x="-0.0602039"
       width="1.1202235"
       y="-0.045589875"
       height="1.0913426"><feGaussianBlur
         inkscape:collect="always"
         stdDeviation="2.4423068"
         id="feGaussianBlur7689-0" /></filter></defs><g
     inkscape:label="Layer 1"
     inkscape:groupmode="layer"
     id="layer1"><g
       aria-label="Ven覺 V覺d覺 Cod覺"
       transform="matrix(1.0970941,0,0,1.097094,-199.29782,49.034423)"
       id="text764-4"
       style="font-weight:300;font-size:72px;line-height:1.5;font-family:Sans;-inkscape-font-specification:'Sans, Light';font-variant-caps:small-caps;letter-spacing:0px;word-spacing:0px;white-space:pre;shape-inside:url(#rect766-0);display:inline;fill:#0366d6"><path
         d="m 534.83955,159.70653 -18.864,51.408 h -4.176 l -18.864,-51.408 h 4.392 l 13.608,37.08 q 0.936,2.592 1.656,4.968 0.792,2.376 1.296,4.464 0.504,-2.088 1.224,-4.392 0.72,-2.304 1.728,-5.112 l 13.536,-37.008 z"
         id="path1050" /><path
         d="m 540.52746,170.36253 h 22.824 v 3.456 h -18.72 v 14.256 h 17.712 v 3.456 h -17.712 v 16.128 h 18.72 v 3.456 h -22.824 z"
         id="path1052" /><path
         d="m 604.24734,170.36253 v 40.752 h -4.752 l -23.328,-34.992 h -0.216 q 0.072,1.944 0.144,4.176 0.144,2.16 0.144,4.032 v 26.784 h -3.816 v -40.752 h 4.752 l 23.256,34.992 h 0.216 q -0.144,-1.872 -0.216,-4.104 0,-2.232 0,-4.536 v -26.352 z"
         id="path1054" /><path
         d="m 619.79927,211.11453 h -4.032 v -38.304 h 4.032 z"
         id="path1056" /><path
         d="m 686.75904,159.70653 -18.864,51.408 h -4.176 l -18.864,-51.408 h 4.392 l 13.608,37.08 q 0.936,2.592 1.656,4.968 0.792,2.376 1.296,4.464 0.504,-2.088 1.224,-4.392 0.72,-2.304 1.728,-5.112 l 13.536,-37.008 z"
         id="path1058" /><path
         d="m 697.12696,211.11453 h -4.032 v -38.304 h 4.032 z"
         id="path1060" /><path
         d="m 741.47884,190.30653 q 0,10.296 -5.544,15.552 -5.544,5.256 -16.344,5.256 h -10.368 v -40.752 h 11.664 q 10.224,0 15.408,5.184 5.184,5.112 5.184,14.76 z m -4.176,0.144 q 0,-16.488 -16.848,-16.488 h -7.2 v 33.624 h 6.408 q 17.64,0 17.64,-17.136 z"
         id="path1062" /><path
         d="m 755.37482,211.11453 h -4.032 v -38.304 h 4.032 z"
         id="path1064" /><path
         d="m 809.5186,162.73053 q -6.336,0 -10.872,2.88 -4.536,2.808 -6.984,7.92 -2.376,5.04 -2.376,11.808 0,6.912 2.16,12.024 2.232,5.112 6.552,7.92 4.32,2.808 10.8,2.808 3.744,0 6.84,-0.576 3.168,-0.576 5.976,-1.44 v 3.6 q -2.664,1.008 -5.904,1.584 -3.168,0.576 -7.344,0.576 -7.776,0 -13.032,-3.312 -5.184,-3.312 -7.848,-9.288 -2.592,-5.976 -2.592,-13.968 0,-7.632 2.88,-13.536 2.952,-5.976 8.424,-9.36 5.544,-3.384 13.32,-3.384 7.56,0 13.536,2.88 l -1.656,3.6 q -5.616,-2.736 -11.88,-2.736 z"
         id="path1066" /><path
         d="m 864.7425,190.66653 q 0,6.192 -2.088,10.944 -2.016,4.752 -6.192,7.416 -4.104,2.664 -10.296,2.664 -6.192,0 -10.368,-2.664 -4.176,-2.664 -6.264,-7.416 -2.088,-4.752 -2.088,-11.016 0,-6.12 2.088,-10.8 2.088,-4.752 6.264,-7.344 4.176,-2.664 10.368,-2.664 9.288,0 13.896,5.688 4.68,5.688 4.68,15.192 z m -33.12,0 q 0,7.776 3.6,12.6 3.6,4.824 10.944,4.824 7.272,0 10.8,-4.752 3.6,-4.752 3.6,-12.672 0,-8.208 -3.672,-12.744 -3.672,-4.536 -10.728,-4.536 -7.344,0 -10.944,4.752 -3.6,4.68 -3.6,12.528 z"
         id="path1068" /><path
         d="m 906.35835,190.30653 q 0,10.296 -5.544,15.552 -5.544,5.256 -16.344,5.256 h -10.368 v -40.752 h 11.664 q 10.224,0 15.408,5.184 5.184,5.112 5.184,14.76 z m -4.176,0.144 q 0,-16.488 -16.848,-16.488 h -7.2 v 33.624 h 6.408 q 17.64,0 17.64,-17.136 z"
         id="path1070" /><path
         d="m 920.25435,211.11453 h -4.032 v -38.304 h 4.032 z"
         id="path1072" /></g><g
       aria-label="Ahmet Sait's Software Blog"
       transform="matrix(1.069011,0,0,1.0690107,-162.11802,-18.325936)"
       id="text776"
       style="font-weight:300;font-size:64px;line-height:1.5;font-family:'Segoe UI';-inkscape-font-specification:'Segoe UI, Light';letter-spacing:0px;word-spacing:0px;white-space:pre;shape-inside:url(#rect778);shape-padding:0.9409;display:inline;fill:#808080"><path
         d="m 504.19922,381.58969 -5.125,-13.9375 h -19.4375 l -5.125,13.9375 h -3.40625 l 16.90625,-44.8125 h 2.9375 l 16.71875,44.8125 z m -13.75,-37.5 q -0.34375,-0.9375 -0.5625,-1.84375 -0.21875,-0.78125 -0.46875,-1.5625 h -0.125 q -0.53125,2.0625 -1.03125,3.34375 l -7.53125,20.78125 h 17.28125 z"
         id="path1075" /><path
         d="m 536.38672,381.58969 v -19.1875 q 0,-5.6875 -2.0625,-8.3125 -2.0625,-2.65625 -6.4375,-2.65625 -4.125,0 -7.25,3.21875 -3.125,3.21875 -3.125,9.21875 v 17.71875 h -2.875 v -47.375 h 2.875 v 21.125 h 0.125 q 3.78125,-6.53125 11,-6.53125 5.1875,0 7.90625,3.34375 2.71875,3.34375 2.71875,9.59375 v 19.84375 z"
         id="path1077" /><path
         d="m 589.01172,381.58969 v -19.25 q 0,-6.03125 -1.90625,-8.46875 -1.875,-2.4375 -5.96875,-2.4375 -3.78125,0 -6.53125,3.25 -2.75,3.25 -2.75,8.15625 v 18.75 h -2.875 v -19.46875 q 0,-10.6875 -8.125,-10.6875 -3.90625,0 -6.5,3.28125 -2.59375,3.25 -2.59375,8.4375 v 18.4375 h -2.875 v -32 h 2.875 v 5.3125 h 0.125 q 3.34375,-6.09375 9.78125,-6.09375 3.5,0 5.96875,2.03125 2.5,2 3.375,5.28125 1.5,-3.46875 4.28125,-5.375 2.8125,-1.9375 6.09375,-1.9375 10.5,0 10.5,13 v 19.78125 z"
         id="path1079" /><path
         d="m 602.16797,365.71469 q 0,6.59375 3.03125,10.3125 3.0625,3.71875 8.375,3.71875 5.375,0 10.5,-3.96875 v 3.0625 q -4.96875,3.53125 -11.09375,3.53125 -6.1875,0 -10,-4.4375 -3.8125,-4.4375 -3.8125,-12.53125 0,-7 3.96875,-11.78125 4,-4.8125 10.375,-4.8125 5.96875,0 9.15625,4.1875 3.1875,4.1875 3.1875,11.4375 v 1.28125 z m 20.6875,-2.625 q -0.1875,-5.53125 -2.65625,-8.59375 -2.46875,-3.0625 -6.8125,-3.0625 -4.5,0 -7.46875,3.03125 -2.9375,3 -3.625,8.625 z"
         id="path1081" /><path
         d="m 646.44922,381.15219 q -2.25,1.0625 -4.21875,1.0625 -7.09375,0 -7.09375,-8.5 v -21.5 h -5.75 v -2.625 h 5.75 v -8.3125 q 0.6875,-0.25 1.4375,-0.5 0.75,-0.21875 1.4375,-0.46875 v 9.28125 h 8.4375 v 2.625 h -8.4375 v 21.125 q 0,3.3125 1.03125,4.8125 1.0625,1.46875 3.5625,1.46875 1.78125,0 3.84375,-1.15625 z"
         id="path1083" /><path
         d="m 669.54297,379.99594 v -3.53125 q 4.8125,3.0625 9.75,3.0625 5.25,0 7.96875,-2.15625 2.71875,-2.1875 2.71875,-6.09375 0,-3.4375 -1.84375,-5.46875 -1.8125,-2.0625 -7.90625,-5.59375 -6.8125,-3.96875 -8.625,-6.625 -1.8125,-2.6875 -1.8125,-6.1875 0,-4.75 3.6875,-8.0625 3.6875,-3.3125 9.84375,-3.3125 4,0 8,1.34375 v 3.25 q -3.9375,-1.78125 -8.40625,-1.78125 -4.5625,0 -7.25,2.3125 -2.65625,2.3125 -2.65625,5.875 0,3.4375 1.8125,5.46875 1.84375,2.03125 7.90625,5.53125 6.28125,3.5625 8.34375,6.34375 2.09375,2.75 2.09375,6.34375 0,5.15625 -3.59375,8.40625 -3.5625,3.25 -10.09375,3.25 -2.3125,0 -5.34375,-0.71875 -3,-0.71875 -4.59375,-1.65625 z"
         id="path1085" /><path
         d="m 721.26172,381.58969 v -6.40625 h -0.125 q -1.53125,3.28125 -4.46875,5.25 -2.90625,1.9375 -6.46875,1.9375 -4.5625,0 -7.21875,-2.5625 -2.65625,-2.5625 -2.65625,-6.46875 0,-8.375 11.09375,-10.125 l 9.84375,-1.46875 q 0,-10.3125 -7.75,-10.3125 -5.28125,0 -10.28125,4.25 v -3.46875 q 1.78125,-1.40625 4.8125,-2.40625 3.0625,-1 5.75,-1 4.9375,0 7.625,3.0625 2.71875,3.0625 2.71875,8.90625 v 20.8125 z m -8.8125,-15.9375 q -5.03125,0.71875 -7.0625,2.34375 -2.03125,1.59375 -2.03125,5.21875 0,2.84375 1.875,4.6875 1.90625,1.84375 5.28125,1.84375 4.625,0 7.6875,-3.40625 3.0625,-3.4375 3.0625,-8.84375 v -3.125 z"
         id="path1087" /><path
         d="m 735.16797,341.52719 q -0.9375,0 -1.65625,-0.6875 -0.71875,-0.6875 -0.71875,-1.75 0,-1.03125 0.71875,-1.65625 0.75,-0.65625 1.65625,-0.65625 0.96875,0 1.6875,0.625 0.75,0.625 0.75,1.6875 0,1 -0.71875,1.71875 -0.71875,0.71875 -1.71875,0.71875 z m -1.40625,40.0625 v -32 h 2.875 v 32 z"
         id="path1089" /><path
         d="m 759.54297,381.15219 q -2.25,1.0625 -4.21875,1.0625 -7.09375,0 -7.09375,-8.5 v -21.5 h -5.75 v -2.625 h 5.75 v -8.3125 q 0.6875,-0.25 1.4375,-0.5 0.75,-0.21875 1.4375,-0.46875 v 9.28125 h 8.4375 v 2.625 h -8.4375 v 21.125 q 0,3.3125 1.03125,4.8125 1.0625,1.46875 3.5625,1.46875 1.78125,0 3.84375,-1.15625 z"
         id="path1091" /><path
         d="m 768.98047,350.80844 h -2.6875 v -14.03125 h 2.6875 z"
         id="path1093" /><path
         d="m 774.79297,380.18344 v -3.46875 q 1.625,1.40625 3.9375,2.21875 2.3125,0.8125 4,0.8125 7.53125,0 7.53125,-6.15625 0,-2.125 -1.65625,-3.625 -1.65625,-1.5 -5.375,-3.09375 -4.59375,-2 -6.46875,-4.125 -1.84375,-2.15625 -1.84375,-5.21875 0,-3.90625 2.96875,-6.3125 3,-2.40625 7.375,-2.40625 4.125,0 7.0625,1.6875 v 3.25 q -3.5625,-2.3125 -7.375,-2.3125 -3.15625,0 -5.09375,1.65625 -1.9375,1.625 -1.9375,4.25 0,2.28125 1.21875,3.71875 1.21875,1.40625 5.375,3.25 5,2.25 6.875,4.1875 1.875,1.90625 1.875,5.09375 0,3.8125 -2.875,6.3125 -2.84375,2.46875 -7.875,2.46875 -4.625,0 -7.71875,-2.1875 z"
         id="path1095" /><path
         d="m 818.04297,379.99594 v -3.53125 q 4.8125,3.0625 9.75,3.0625 5.25,0 7.96875,-2.15625 2.71875,-2.1875 2.71875,-6.09375 0,-3.4375 -1.84375,-5.46875 -1.8125,-2.0625 -7.90625,-5.59375 -6.8125,-3.96875 -8.625,-6.625 -1.8125,-2.6875 -1.8125,-6.1875 0,-4.75 3.6875,-8.0625 3.6875,-3.3125 9.84375,-3.3125 4,0 8,1.34375 v 3.25 q -3.9375,-1.78125 -8.40625,-1.78125 -4.5625,0 -7.25,2.3125 -2.65625,2.3125 -2.65625,5.875 0,3.4375 1.8125,5.46875 1.84375,2.03125 7.90625,5.53125 6.28125,3.5625 8.34375,6.34375 2.09375,2.75 2.09375,6.34375 0,5.15625 -3.59375,8.40625 -3.5625,3.25 -10.09375,3.25 -2.3125,0 -5.34375,-0.71875 -3,-0.71875 -4.59375,-1.65625 z"
         id="path1097" /><path
         d="m 863.48047,382.37094 q -7,0 -11.09375,-4.59375 -4.0625,-4.625 -4.0625,-12 0,-7.96875 4.25,-12.46875 4.28125,-4.5 11.25,-4.5 6.84375,0 10.8125,4.46875 3.96875,4.46875 3.96875,12.375 0,7.46875 -4.0625,12.09375 -4.03125,4.625 -11.0625,4.625 z m 0.21875,-30.9375 q -5.65625,0 -9.03125,3.8125 -3.34375,3.8125 -3.34375,10.59375 0,6.28125 3.28125,10.09375 3.28125,3.8125 8.96875,3.8125 5.78125,0 8.90625,-3.75 3.125,-3.75 3.125,-10.40625 0,-6.84375 -3.125,-10.5 -3.09375,-3.65625 -8.78125,-3.65625 z"
         id="path1099" /><path
         d="m 898.82422,337.24594 q -1.15625,-0.90625 -3.5,-0.90625 -5.90625,0 -5.90625,7.9375 v 5.3125 h 8.46875 v 2.625 h -8.46875 v 29.375 h -2.875 v -29.375 h -5.75 v -2.625 h 5.75 v -5.5625 q 0,-5.0625 2.53125,-7.6875 2.5625,-2.625 6.375,-2.625 2.03125,0 3.375,0.59375 z"
         id="path1101" /><path
         d="m 916.85547,381.15219 q -2.25,1.0625 -4.21875,1.0625 -7.09375,0 -7.09375,-8.5 v -21.5 h -5.75 v -2.625 h 5.75 v -8.3125 q 0.6875,-0.25 1.4375,-0.5 0.75,-0.21875 1.4375,-0.46875 v 9.28125 h 8.4375 v 2.625 h -8.4375 v 21.125 q 0,3.3125 1.03125,4.8125 1.0625,1.46875 3.5625,1.46875 1.78125,0 3.84375,-1.15625 z"
         id="path1103" /><path
         d="m 950.32422,381.58969 h -2.6875 l -6.96875,-24.125 q -0.28125,-1 -0.5,-2.6875 h -0.15625 q -0.0625,0.71875 -0.625,2.625 l -7.8125,24.1875 h -2.6875 l -9.65625,-32 h 3.1875 l 7.4375,25.53125 q 0.28125,1 0.4375,2.6875 h 0.25 q 0.0625,-0.90625 0.59375,-2.6875 l 8.125,-25.53125 h 1.96875 l 7.25,25.53125 q 0.25,0.90625 0.4375,2.6875 h 0.25 q 0,-0.90625 0.53125,-2.6875 l 7.59375,-25.53125 h 2.96875 z"
         id="path1105" /><path
         d="m 985.63672,381.58969 v -6.40625 h -0.125 q -1.53125,3.28125 -4.46875,5.25 -2.90625,1.9375 -6.46875,1.9375 -4.5625,0 -7.21875,-2.5625 -2.65625,-2.5625 -2.65625,-6.46875 0,-8.375 11.09375,-10.125 l 9.84375,-1.46875 q 0,-10.3125 -7.75,-10.3125 -5.28125,0 -10.28125,4.25 v -3.46875 q 1.78125,-1.40625 4.8125,-2.40625 3.0625,-1 5.75,-1 4.9375,0 7.625,3.0625 2.71875,3.0625 2.71875,8.90625 v 20.8125 z m -8.8125,-15.9375 q -5.03125,0.71875 -7.0625,2.34375 -2.03125,1.59375 -2.03125,5.21875 0,2.84375 1.875,4.6875 1.90625,1.84375 5.28125,1.84375 4.625,0 7.6875,-3.40625 3.0625,-3.4375 3.0625,-8.84375 v -3.125 z"
         id="path1107" /><path
         d="m 1013.2305,352.58969 q -1.4375,-1.03125 -3.375,-1.03125 -3.7813,0 -6.3438,3.90625 -2.5625,3.90625 -2.5625,11.09375 v 15.03125 h -2.81248 v -32 h 2.81248 v 7.09375 h 0.125 q 1.0938,-3.65625 3.4688,-5.6875 2.375,-2.03125 5.5,-2.03125 1.7812,0 3.1875,0.5625 z"
         id="path1109" /><path
         d="m 1018.668,365.71469 q 0,6.59375 3.0312,10.3125 3.0625,3.71875 8.375,3.71875 5.375,0 10.5,-3.96875 v 3.0625 q -4.9687,3.53125 -11.0937,3.53125 -6.1875,0 -10,-4.4375 -3.8125,-4.4375 -3.8125,-12.53125 0,-7 3.9687,-11.78125 4,-4.8125 10.375,-4.8125 5.9688,0 9.1563,4.1875 3.1875,4.1875 3.1875,11.4375 v 1.28125 z m 20.6875,-2.625 q -0.1875,-5.53125 -2.6563,-8.59375 -2.4687,-3.0625 -6.8125,-3.0625 -4.5,0 -7.4687,3.03125 -2.9375,3 -3.625,8.625 z"
         id="path1111" /><path
         d="m 1068.4492,381.58969 v -44.8125 h 11.7813 q 5.2812,0 8.4062,2.84375 3.125,2.84375 3.125,7.53125 0,3.90625 -2.0937,6.78125 -2.0625,2.84375 -5.7813,4.03125 v 0.125 q 4.6563,0.4375 7.3438,3.34375 2.6875,2.875 2.6875,7.34375 0,5.65625 -3.6563,9.25 -3.6562,3.5625 -9.7812,3.5625 z m 3.0938,-41.96875 v 17.34375 h 6.25 q 4.875,0 7.8125,-2.5 2.9375,-2.5 2.9375,-6.78125 0,-8.0625 -9.5313,-8.0625 z m 0,20.15625 v 19 h 8.3125 q 5.2812,0 8.0625,-2.53125 2.8125,-2.53125 2.8125,-7.1875 0,-9.28125 -12.5938,-9.28125 z"
         id="path1113" /><path
         d="m 1102.6367,381.58969 v -47.375 h 2.875 v 47.375 z"
         id="path1115" /><path
         d="m 1128.6055,382.37094 q -7,0 -11.0938,-4.59375 -4.0625,-4.625 -4.0625,-12 0,-7.96875 4.25,-12.46875 4.2813,-4.5 11.25,-4.5 6.8438,0 10.8125,4.46875 3.9688,4.46875 3.9688,12.375 0,7.46875 -4.0625,12.09375 -4.0313,4.625 -11.0625,4.625 z m 0.2187,-30.9375 q -5.6562,0 -9.0312,3.8125 -3.3438,3.8125 -3.3438,10.59375 0,6.28125 3.2813,10.09375 3.2812,3.8125 8.9687,3.8125 5.7813,0 8.9063,-3.75 3.125,-3.75 3.125,-10.40625 0,-6.84375 -3.125,-10.5 -3.0938,-3.65625 -8.7813,-3.65625 z"
         id="path1117" /><path
         d="m 1177.2617,379.21469 q 0,9.03125 -3.9375,13.21875 -3.9375,4.1875 -12.25,4.1875 -4.625,0 -9.5312,-2.4375 v -3 q 5.0625,2.8125 9.5937,2.8125 13.25,0 13.25,-14 v -4.15625 h -0.125 q -3.7812,6.53125 -11.5312,6.53125 -5.9063,0 -9.6563,-4.28125 -3.7187,-4.28125 -3.7187,-11.9375 0,-7.65625 4.0312,-12.5 4.0313,-4.84375 10.625,-4.84375 7.0625,0 10.25,5.84375 h 0.125 v -5.0625 h 2.875 z m -2.875,-17.34375 q 0,-4.25 -2.875,-7.34375 -2.8437,-3.09375 -7.4375,-3.09375 -5.2812,0 -8.5,3.96875 -3.2187,3.96875 -3.2187,10.5 0,6.5625 2.9375,10.21875 2.9687,3.625 7.8125,3.625 5.1562,0 8.2187,-3.34375 3.0625,-3.34375 3.0625,-8.1875 z"
         id="path1119" /></g><g
       id="head_eyes-group-9"
       transform="matrix(1.169887,0,0,1.1698871,60.18175,189.80389)"><g
         id="head-group-6"><path
           style="opacity:1;fill:#800000;fill-opacity:1;fill-rule:evenodd;stroke:#ff2000;stroke-width:5;stroke-miterlimit:4;stroke-dasharray:none;stroke-dashoffset:0;stroke-opacity:1;filter:url(#filter7687-5)"
           d="m 124.59587,198.38997 c -12.65702,-1.58176 -22.38607,-5.34669 -29.712565,-11.49813 -2.27103,-1.90679 -9.42993,-9.90979 -13.25316,-14.81582 -1.38087,-1.77197 -3.17701,-4.5567 -3.99141,-6.1883 -0.81441,-1.63159 -1.83139,-3.43309 -2.25997,-4.00333 -0.42858,-0.57023 -0.77924,-1.33068 -0.77924,-1.68987 0,-1.74173 -8.18225,-10.70348 -17.85532,-19.55634 -2.02806,-1.8561 -4.42224,-4.34372 -5.32042,-5.52805 -5.5046,-7.25835 -7.39232,-17.81238 -4.70063,-26.28065 0.45998,-1.44713 1.40642,-3.51319 2.10322,-4.59126 1.75478,-2.715 2.66477,-2.96093 3.07898,-0.83213 0.32604,1.67569 1.88988,4.61085 2.91724,5.47531 0.99067,0.8336 2.44804,1.02084 3.51229,0.45127 0.85207,-0.45601 1.82544,-2.45081 2.49441,-5.11193 0.81321,-3.23496 0.81046,-15.726504 -0.004,-19.630348 -0.72765,-3.486346 -3.03371,-8.342685 -6.33664,-13.344362 -1.36377,-2.06518 -2.96612,-4.807865 -3.56078,-6.094852 -1.77775,-3.847461 -1.37751,-4.775432 1.18578,-2.749273 2.06901,1.635468 3.55483,2.129239 5.65772,1.880183 6.46232,-0.765369 10.26121,-9.839666 9.90556,-23.661162 -0.11152,-4.334172 -0.30897,-6.114047 -1.02039,-9.198354 -0.92887,-4.027039 -3.03799,-11.302152 -4.10022,-14.143067 -0.51378,-1.374124 -0.55082,-1.747305 -0.20215,-2.036681 0.50549,-0.419521 6.47185,3.219921 12.7342,7.76778 2.14962,1.561102 4.37126,3.157866 4.93699,3.548364 1.28934,0.889986 6.4925,2.98405 13.46504,5.419148 5.94118,2.074904 9.400315,3.674651 12.658215,5.854048 7.37233,4.931786 15.51049,13.171373 24.70399,25.011907 3.94667,5.083017 5.58802,6.737976 8.69338,8.76544 2.35641,1.538489 4.31733,1.703224 6.08963,0.511587 2.19951,-1.478879 2.21245,-4.634906 0.0375,-9.144669 -1.58929,-3.295417 -4.86548,-7.742925 -6.5744,-8.924902 -1.34899,-0.933042 -1.64105,-1.60003 -0.83591,-1.908992 0.72348,-0.277626 5.2333,1.341779 8.0615,2.894758 8.24907,4.52962 15.17743,13.096699 20.21254,24.993302 1.55414,3.672005 1.98781,4.849442 7.1997,19.54729 1.87492,5.287395 4.06817,11.223275 4.8739,13.190835 4.21228,10.28634 6.23196,20.97673 6.21382,32.89038 -0.008,5.45973 -0.1256,7.04891 -0.72471,9.81912 -2.40412,11.11624 -8.74797,22.27732 -17.37438,30.56765 -6.76285,6.49938 -13.96188,10.21359 -23.40273,12.07422 -3.88031,0.76474 -13.64089,0.90541 -18.72629,0.26988 z M 81.427755,104.15378 c 0.56371,-1.0533 0.38399,-4.861178 -0.35358,-7.491721 -1.64511,-5.867308 -5.57459,-13.448634 -7.94829,-15.335009 -2.65107,-2.106805 -3.85413,-1.708898 -3.99896,1.32264 -0.32794,6.864259 4.87225,19.65733 8.77119,21.57814 1.52443,0.75101 3.10584,0.71784 3.52964,-0.074 z m 35.994975,-8.201366 c 3.04513,-0.809074 4.49519,-2.550515 5.07132,-6.090399 0.78477,-4.821819 -1.74431,-11.164297 -7.91096,-19.839258 -2.62375,-3.690966 -7.40382,-8.481143 -9.64675,-9.667149 -1.1976,-0.633258 -2.26986,-0.935739 -3.41985,-0.964723 l -1.675235,-0.04222 0.10222,1.275127 c 0.0562,0.70132 0.397875,1.854635 0.759215,2.562925 1.00381,1.96763 0.38768,2.26743 -1.928175,0.938217 -4.64458,-2.665813 -6.66011,-3.460478 -9.09378,-3.585417 -2.87268,-0.14748 -3.86098,0.421358 -5.11934,2.946567 -1.46985,2.949595 -1.06546,8.47983 0.97772,13.370808 3.59999,8.61769 14.750595,17.908851 23.334625,19.443415 1.97143,0.352433 6.62607,0.163019 8.54899,-0.34789 z"
           id="head-blur-3"
           inkscape:connector-curvature="0" /><g
           transform="translate(0,56)"
           id="head-8"
           sodipodi:insensitive="true"><use
             y="0"
             x="0"
             id="face-5"
             xlink:href="#shape0-9-1"
             height="55.75"
             width="63.349998"
             transform="matrix(1.747602,0,0,1.747602,74.336531,45.695357)" /><use
             y="0"
             x="0"
             id="hair-6"
             xlink:href="#shape1-8-0"
             height="85.300003"
             width="75.75"
             transform="matrix(1.747602,0,0,1.747602,45.238957,-41.073082)" /></g></g><g
         id="eyes-group-1"><g
           transform="translate(-136.99801,7.7872731)"
           id="eyes-blur-1"
           style="fill-opacity:1"><path
             inkscape:connector-curvature="0"
             id="right_eye-blur-5"
             d="m 255.02912,169.78179 c -0.74886,-0.21655 -1.44198,-0.47616 -1.54026,-0.57691 -0.0983,-0.10074 1.9068,-0.52768 4.45572,-0.94876 5.09491,-0.84166 6.65523,-1.25574 4.86155,-1.29016 -2.00871,-0.0386 -5.75577,-1.05309 -8.09756,-2.19245 -10.28678,-5.00486 -15.95549,-21.14974 -11.47378,-32.67807 1.18589,-3.05048 2.50783,-5.17847 5.37353,-8.65004 2.09696,-2.5403 2.84947,-3.13916 3.11401,-2.47818 0.0597,0.14921 0.98795,0.82664 2.06276,1.50542 11.56676,7.30481 25.8788,20.67162 34.9929,32.68183 1.12808,1.48653 1.98794,2.7659 1.9108,2.84304 -0.0771,0.0771 -0.78453,-0.51622 -1.57198,-1.31857 -1.6644,-1.6959 -2.0781,-1.81783 -1.79504,-0.52905 0.17176,0.78202 0.023,1.08887 -0.9362,1.93105 -1.43494,1.2599 -4.45024,3.01767 -9.55817,5.57193 -9.83132,4.91624 -18.02505,7.22003 -21.79828,6.12892 z"
             style="opacity:1;fill:#800000;fill-opacity:1;fill-rule:evenodd;stroke:#ff2000;stroke-width:5;stroke-miterlimit:4;stroke-dasharray:none;stroke-opacity:1;filter:url(#filter7675-8)" /><path
             inkscape:connector-curvature="0"
             id="left_eye-blur-9"
             d="m 307.61136,159.33689 c -1.02761,-0.43092 -3.38972,-1.75332 -5.24913,-2.93868 -1.8594,-1.18535 -3.61028,-2.15519 -3.89083,-2.15519 -0.90825,0 -0.96291,-1.22627 -0.13441,-3.01521 1.42241,-3.07132 7.24661,-10.75435 15.61455,-20.59802 5.34526,-6.28793 7.28653,-8.23964 7.74225,-7.78392 0.22114,0.22114 -0.29873,1.2482 -1.58865,3.13853 l -1.91736,2.80981 0.50938,2.05774 c 0.64227,2.59457 0.69915,10.37385 0.096,13.13153 -0.84994,3.88608 -3.12425,8.23165 -6.41016,12.24801 -0.96982,1.18541 -1.76331,2.23726 -1.76331,2.33743 0,0.10018 0.45418,0.2819 1.00929,0.40382 1.25675,0.27603 0.87051,0.71442 -0.84644,0.96074 -0.95905,0.13758 -1.79579,-0.0198 -3.17119,-0.59659 z"
             style="opacity:1;fill:#800000;fill-opacity:1;fill-rule:evenodd;stroke:#ff2000;stroke-width:5;stroke-miterlimit:4;stroke-dasharray:none;stroke-opacity:1;filter:url(#filter7671-9)" /></g><use
           transform="matrix(1.685794,-0.1057484,0.1064093,1.69633,103.042,128.00849)"
           width="48.299999"
           height="30.5"
           xlink:href="#shape0-87-5"
           id="eyes-8"
           x="0"
           y="0" /></g></g></g></svg>
