<?xml version="1.0" encoding="UTF-8" standalone="no"?>
<!-- Created with Inkscape (http://www.inkscape.org/) -->

<svg
   width="1200"
   height="630"
   viewBox="0 0 1200 630"
   version="1.1"
   id="svg5"
   xml:space="preserve"
   inkscape:version="1.2 (1:1.2.1+202207142221+cd75a1ee6d)"
   sodipodi:docname="opengraph-en.svg"
   inkscape:export-filename="opengraph-en.png"
   inkscape:export-xdpi="96"
   inkscape:export-ydpi="96"
   xmlns:inkscape="http://www.inkscape.org/namespaces/inkscape"
   xmlns:sodipodi="http://sodipodi.sourceforge.net/DTD/sodipodi-0.dtd"
   xmlns:xlink="http://www.w3.org/1999/xlink"
   xmlns="http://www.w3.org/2000/svg"
   xmlns:svg="http://www.w3.org/2000/svg"><sodipodi:namedview
     id="namedview7"
     pagecolor="#000000"
     bordercolor="#666666"
     borderopacity="1.0"
     inkscape:showpageshadow="2"
     inkscape:pageopacity="0"
     inkscape:pagecheckerboard="true"
     inkscape:deskcolor="#d1d1d1"
     inkscape:document-units="px"
     showgrid="false"
     showguides="false"
     inkscape:zoom="0.67528698"
     inkscape:cx="220.64693"
     inkscape:cy="326.52784"
     inkscape:window-width="1920"
     inkscape:window-height="999"
     inkscape:window-x="0"
     inkscape:window-y="0"
     inkscape:window-maximized="1"
     inkscape:current-layer="layer1"
     shape-rendering="auto" /><defs
     id="defs2"><rect
       x="468.32037"
       y="315"
       width="871.37665"
       height="192.52325"
       id="rect778" /><rect
       x="512.88647"
       y="355.49515"
       width="587.15466"
       height="129.19341"
       id="rect772" /><rect
       x="492.93478"
       y="136.60303"
       width="593.39471"
       height="164.44576"
       id="rect766" /><g
       id="shape0-9"
       transform="translate(24.7,-13.75)"><path
         d="m 33.8,18.65 q 4,8.45 4.35,19.65 0.35,11.15 -8.35,21.4 -8.75,10.2 -23.15,9.2 -14.4,-1 -21.3,-8.6 -6.9,-7.65 -7.65,-9.6 -0.8,-2 -1.9,-3.3 l 1.1,0.9 -0.05,-0.35 V 46 q 0,-6.4 3.2,-11.05 Q -17,30.6 -8,23.35 q 4.5,-3.6 6.85,-5 4.45,-2.65 9.3,-3.35 17.5,-2.65 23.4,0.25 l 1.35,1.8 0.05,0.05 0.5,0.85 q 0.25,0.6 0,0.85 l 0.35,-0.15"
         id="path2"
         inkscape:connector-curvature="0"
         style="fill:url(#gradient0-3);fill-rule:evenodd" /><path
         d="m 33.45,17.95 0.35,0.7 q 4,8.45 4.35,19.65 0.35,11.15 -8.35,21.4 -8.75,10.2 -23.15,9.2 -14.4,-1 -21.3,-8.6 -6.9,-7.65 -7.65,-9.6 -0.8,-2 -1.9,-3.3 m 57.15,-30.3 0.5,0.85 z"
         id="path4"
         inkscape:connector-curvature="0"
         style="fill:none;stroke:#ff9900;stroke-linecap:round;stroke-linejoin:round" /></g><radialGradient
       id="gradient0-3"
       cx="0"
       cy="0"
       r="819.20001"
       fx="6.4000001"
       gradientTransform="matrix(0.0477,0.0824,-0.0842,0.0487,15.55,45.45)"
       gradientUnits="userSpaceOnUse"><stop
         stop-color="#0a0101"
         offset=".3019608"
         id="stop7" /><stop
         stop-color="#4d0101"
         offset=".5490196"
         id="stop9" /><stop
         stop-color="#c10000"
         offset=".7490196"
         id="stop11" /><stop
         stop-color="#fca921"
         offset="1"
         id="stop13" /></radialGradient><g
       id="shape1-8"
       transform="translate(41.35,35.9)"><path
         d="m -23,48.9 -0.6,-1.3 q -2.65,-4.1 -6.25,-7.55 -2,-1.95 -5.5,-5 -5.5,-5.15 -5.5,-12.95 0,-2.25 0.8,-4.45 0.75,-2.2 1.95,-3.3 0.15,1.3 1,2.75 1,1.75 2.4,1.75 3.1,0 3.1,-9.1 0,-5.85 -1.3,-8.7 -1.3,-2.85 -3.05,-5.25 -1.7,-2.4 -2.45,-4.8 1.7,1.85 3.55,1.85 4,0 5.7,-5.25 1.15,-3.5 1.15,-8.9 0,-3.1 -1.55,-8.55 -1.15,-4.05 -1.8,-5.55 l 4.65,2.95 4.95,3.6 q 1.35,0.95 10.15,3.95 8.7,3 20.15,18.4 l 0.2,0.25 q 0.55,0.75 2.05,2.05 2.3,1.95 3.5,1.95 1.35,0 2.2,-0.6 1,-0.7 1,-2.1 0,-2.45 -2.2,-5.75 -1.95,-2.9 -3.3,-3.55 9.25,2.35 14.75,13.85 1.7,3.5 4.15,10.85 l 3,8.4 q -2.85,-2.2 -6,-2 -20.2,-0.7 -36.1,11.25 -6.3,4.75 -10.1,10.25 -3.45,5 -3.55,8.6 L -23,48.9 M -24.4,2.4 q -1.5,-1.5 -2.6,-1.5 -1.25,0 -1.25,1.85 0,3.1 1.75,7.65 2.2,5.6 5,5.6 0.95,0 1.25,-0.6 0.25,-0.55 0.25,-2.1 0,-1.75 -1.35,-5.15 -1.35,-3.4 -2.9,-5.5 L -24.4,2.4 m 8.85,-12.65 -1.15,-0.1 q -1.2,0 -2.2,1.35 -1,1.35 -1,2.95 0,7.1 6.25,12.55 5.45,4.75 10.4,4.75 3.15,0 4.6,-0.85 2,-1.2 2,-4.45 0,-4 -4.5,-10.3 -4.7,-6.65 -8.4,-6.65 -1.1,0 -1.1,0.9 l 0.3,1.55 0.55,0.9 -2.2,-1.3 q -2.3,-1.3 -3.55,-1.3"
         id="path16"
         inkscape:connector-curvature="0"
         style="fill:url(#gradient0-3);fill-rule:evenodd" /><path
         d="m -23,48.9 -0.6,-1.3 q -2.65,-4.1 -6.25,-7.55 -2,-1.95 -5.5,-5 -5.5,-5.15 -5.5,-12.95 0,-2.25 0.8,-4.45 0.75,-2.2 1.95,-3.3 0.15,1.3 1,2.75 1,1.75 2.4,1.75 3.1,0 3.1,-9.1 0,-5.85 -1.3,-8.7 -1.3,-2.85 -3.05,-5.25 -1.7,-2.4 -2.45,-4.8 1.7,1.85 3.55,1.85 4,0 5.7,-5.25 1.15,-3.5 1.15,-8.9 0,-3.1 -1.55,-8.55 -1.15,-4.05 -1.8,-5.55 l 4.65,2.95 4.95,3.6 q 1.35,0.95 10.15,3.95 8.7,3 20.15,18.4 l 0.2,0.25 q 0.55,0.75 2.05,2.05 2.3,1.95 3.5,1.95 1.35,0 2.2,-0.6 1,-0.7 1,-2.1 0,-2.45 -2.2,-5.75 -1.95,-2.9 -3.3,-3.55 9.25,2.35 14.75,13.85 1.7,3.5 4.15,10.85 l 3,8.4 m -49.45,-29.1 q 1.25,0 3.55,1.3 l 2.2,1.3 -0.55,-0.9 -0.3,-1.55 q 0,-0.9 1.1,-0.9 3.7,0 8.4,6.65 4.5,6.3 4.5,10.3 0,3.25 -2,4.45 -1.45,0.85 -4.6,0.85 -4.95,0 -10.4,-4.75 -6.25,-5.45 -6.25,-12.55 0,-1.6 1,-2.95 1,-1.35 2.2,-1.35 l 1.15,0.1 m -8.7,12.9 q 1.55,2.1 2.9,5.5 1.35,3.4 1.35,5.15 0,1.55 -0.25,2.1 -0.3,0.6 -1.25,0.6 -2.8,0 -5,-5.6 -1.75,-4.55 -1.75,-7.65 0,-1.85 1.25,-1.85 1.1,0 2.6,1.5"
         id="path18"
         inkscape:connector-curvature="0"
         style="fill:none;stroke:#ff9900;stroke-linecap:round;stroke-linejoin:round" /></g><g
       id="shape0-87"
       transform="translate(22.35,15.15)"><path
         d="m 25.95,-9.9 -2.45,3.1 q 0.4,1.85 0.4,3.55 0,4.2 -1.15,6.95 -1.35,3.2 -4.9,6.65 l 1.2,0.5 -0.4,0.35 -1.1,0.15 q -0.8,0 -3.15,-1.45 L 11.65,7.85 11.2,7.5 H 11.15 L 10.65,7.45 10.55,7.35 10.4,7.25 10.3,6.8 q 0,-1.5 7.05,-9.1 6.55,-7.05 8.2,-8.1 l 0.3,0.1 0.1,0.4 M 4.35,7.6 4.1,7.85 4.3,8.4 q 0,1.1 -6.85,3.95 -7.25,3 -11.65,3 l -2.8,-0.9 6.85,-0.75 q -7.05,-0.7 -10.2,-7 -2,-4 -2,-8.3 0,-3.55 1.4,-6.3 1.4,-2.9 4.75,-5.95 l -1.25,-1.3 1.55,1.05 0.15,-0.15 0.25,0.35 -0.05,0.1 q 6.35,4.5 12,10.5 5.7,6.05 9.85,12.65 L 6.15,9.6 4.35,7.6"
         id="path21"
         inkscape:connector-curvature="0"
         style="fill:#ffffff;fill-rule:evenodd" /></g><g
       id="shape0-76"
       transform="translate(11.05,17.3)"><path
         d="M -7.2,-12.5 -4.95,-14 -4,-14.55 h 0.05 l 0.25,-0.15 0.05,-0.05 0.15,-0.05 q 3.3,-1.95 5.95,-2 v 0.05 q 0.3,1.2 1.35,2.45 l 1.3,1.35 3.8,-1.5 2.7,1.75 q 2.7,1.95 3.55,3.35 0,1.15 -1.35,3 l -2,2.55 2.45,2.25 1.85,2.05 0.15,0.55 q -0.2,1.65 -1.7,3.5 -1.4,1.65 -2.95,2.4 l -0.25,-0.1 v 0.2 L 11.55,7 q 0.25,0.65 1.2,1.15 l 1.15,0.9 V 9.6 q -5.25,7.3 -13.25,7.25 0.2,-1.1 -1.15,-2.1 -6.15,-2.8 -9,-4.75 L -9.75,9.8 q 0.7,-0.2 -0.6,-2.85 -1.3,-2.7 -0.1,-8.65 0.4,-1.95 0.85,-6.05 0.6,-3.4 2.4,-4.75 M 4.25,-2.95 Q 3.3,-4.05 2.8,-5.3 2.45,-6.1 2.45,-6.45 q 0,0.35 0.35,1.15 0.5,1.25 1.45,2.35 m -2,-4 q 0,-0.5 0.5,-1.8 l 0.6,-1.4 -0.6,1.4 q -0.5,1.3 -0.5,1.8 m 3.3,-5.5 -0.45,-0.45 v -0.05 0.05 l 0.45,0.45 M 4.1,13.2 4.45,12.4 4.65,11.6 4.45,12.4 4.1,13.2 M 4.45,6.9 2.8,4 3.4,2.05 3.9,0.35 3.4,2.05 2.8,4 4.45,6.9"
         id="path24"
         inkscape:connector-curvature="0"
         style="fill:url(#gradient0-164);fill-rule:evenodd" /><path
         d="M -7.2,-12.5 -4.95,-14 -4,-14.55 h 0.05 l 0.25,-0.15 0.05,-0.05 0.15,-0.05 q 3.3,-1.95 5.95,-2 v 0.05 q 0.3,1.2 1.35,2.45 l 1.3,1.35 3.8,-1.5 2.7,1.75 q 2.7,1.95 3.55,3.35 0,1.15 -1.35,3 l -2,2.55 2.45,2.25 1.85,2.05 0.15,0.55 q -0.2,1.65 -1.7,3.5 -1.4,1.65 -2.95,2.4 L 11.55,7 q 0.25,0.65 1.2,1.15 l 1.15,0.9 V 9.6 q -5.25,7.3 -13.25,7.25 0.2,-1.1 -1.15,-2.1 -6.15,-2.8 -9,-4.75 L -9.75,9.8 M 5.1,-12.95 v 0.05 l 0.45,0.45 m -2.2,2.3 -0.6,1.4 q -0.5,1.3 -0.5,1.8 m 0.2,0.5 q 0,0.35 0.35,1.15 0.5,1.25 1.45,2.35 m 7.3,9.95 -0.2,0.05 v -0.2 l 0.25,0.1 M 3.9,0.35 3.4,2.05 2.8,4 4.45,6.9 m 0.2,4.7 -0.2,0.8 -0.35,0.8"
         id="path26"
         inkscape:connector-curvature="0"
         style="fill:none;stroke:#ff9900;stroke-linecap:round;stroke-linejoin:round" /></g><radialGradient
       id="gradient0-164"
       cx="0"
       cy="0"
       r="819.20001"
       gradientTransform="matrix(0.0456,0,0,0.0456,-29.6,1.95)"
       gradientUnits="userSpaceOnUse"><stop
         stop-color="#facd1b"
         offset="0"
         id="stop29" /><stop
         stop-color="#cf4104"
         offset=".3058824"
         id="stop31" /><stop
         offset=".8509804"
         id="stop33" /></radialGradient><g
       id="shape1-56"
       transform="translate(26.05,12.2)"><path
         d="M -7.65,-11.65 H -7.7 l 0.05,-0.05 v 0.05"
         id="path36"
         inkscape:connector-curvature="0"
         style="fill-rule:evenodd" /><path
         d="m -7.7,-11.65 h 0.05 l -1.2,22.2 -8.05,-2.7 q -6.05,-2.4 -8.65,-4.4 8.5,1.2 12.05,-3.3 3.5,-4.5 1.95,-7.1 -1.55,-2.65 -4.45,-4.65 5.15,1.2 8.1,-0.1 l 0.2,0.05"
         id="path38"
         inkscape:connector-curvature="0"
         style="fill:url(#gradient0-164);fill-rule:evenodd" /><path
         d="m -7.7,-11.65 -0.2,-0.05 q -2.95,1.3 -8.1,0.1 2.9,2 4.45,4.65 1.55,2.6 -1.95,7.1 -3.55,4.5 -12.05,3.3 2.6,2 8.65,4.4 l 8.05,2.7"
         id="path40"
         inkscape:connector-curvature="0"
         style="fill:none;stroke:#ff9900;stroke-linecap:round;stroke-linejoin:round" /></g><g
       id="shape0-73"
       transform="translate(26.1,15.45)"><path
         d="m 10.9,-7.5 0.2,0.1 -0.25,-0.05 -0.1,-0.05 q -0.6,-0.35 0.15,0"
         id="path43"
         inkscape:connector-curvature="0"
         style="fill:url(#gradient0-08);fill-rule:evenodd" /><path
         d="m 12.2,-3.4 q -0.55,1.35 -1.15,1.15 l 1.4,2.75 Q 11.6,-0.2 8.15,-1.65 l -0.5,-0.2 0.5,0.2 q 3.45,1.45 4.3,2.15 l -1.4,-2.75 q 0.6,0.2 1.15,-1.15 m -1.1,-4 3.15,1.55 2.05,0.75 q 2.15,1.05 3.55,2.55 1.45,1.5 2.1,3.25 L 23,2.95 q 0.65,1.6 2.15,3.1 1.45,1.45 -1.9,0.55 l -6.5,-0.3 q 0.45,2.15 2.25,4 1.85,1.85 -3.2,1.05 L 9.35,10.8 Q 7.9,11.05 5,9.7 5.55,12.2 6.9,14 8.25,15.75 2.35,14.4 l -8.3,-1.75 q -2.4,-0.45 -3.7,-1.6 l -2,-2 0.2,-0.95 -0.15,-0.05 -0.45,-0.25 -0.7,-0.25 -0.2,-0.35 q -2.45,0.5 -7.65,-1.75 -5,-2.15 -5,-3 0,-3.7 3.35,-7.9 L -18.9,-9 q 6.35,-5.95 10.25,-5.95 4.6,0 13.15,4.3 l 6.25,3.15 0.1,0.05 0.25,0.05 M -5.25,0.95 -6.15,1.8 q -1.1,1.45 -1.7,3 0.6,-1.55 1.7,-3 l 0.9,-0.85 M 4.6,8.05 Q 4.35,7.85 5,9.7 4.35,7.85 4.6,8.05 M 4,6 Q 3.7,4.95 3.2,4.45 L 0.3,1.55 3.2,4.45 Q 3.15,3.8 3.45,2.9 4.2,0.5 4.6,0.45 4.2,0.5 3.45,2.9 3.15,3.8 3.2,4.45 3.7,4.95 4,6 M 16.75,6.3 16.7,6.1 16.2,5.2 15.65,4.25 14.55,2.7 l -2.1,-2.2 2.1,2.2 1.1,1.55 0.55,0.95 0.5,0.9 0.05,0.2 M 14,-5.3 l 0.25,-0.05 1.8,0.25 H 16.3 16.05 L 14.25,-5.35 14,-5.3"
         id="path45"
         inkscape:connector-curvature="0"
         style="fill:url(#gradient1-28);fill-rule:evenodd" /><path
         d="m 7.65,-1.85 0.5,0.2 q 3.45,1.45 4.3,2.15 l -1.4,-2.75 q 0.6,0.2 1.15,-1.15 m -1.3,-4.1 0.2,0.1 3.15,1.55 2.05,0.75 q 2.15,1.05 3.55,2.55 1.45,1.5 2.1,3.25 L 23,2.95 q 0.65,1.6 2.15,3.1 1.45,1.45 -1.9,0.55 l -6.5,-0.3 q 0.45,2.15 2.25,4 1.85,1.85 -3.2,1.05 L 9.35,10.8 Q 7.9,11.05 5,9.7 5.55,12.2 6.9,14 8.25,15.75 2.35,14.4 l -8.3,-1.75 q -2.4,-0.45 -3.7,-1.6 l -2,-2 L -12,8.6 -12.75,7.55 -12.95,7.2 q -2.45,0.5 -7.65,-1.75 -5,-2.15 -5,-3 0,-3.7 3.35,-7.9 L -18.9,-9 q 6.35,-5.95 10.25,-5.95 4.6,0 13.15,4.3 l 6.25,3.15 m 0.35,0.1 -0.25,-0.05 -0.1,-0.05 m 5.55,2.4 H 16.05 L 14.25,-5.35 14,-5.3 m -1.55,5.8 2.1,2.2 1.1,1.55 0.55,0.95 0.5,0.9 0.05,0.2 M 0.3,1.55 3.2,4.45 Q 3.15,3.8 3.45,2.9 4.2,0.5 4.6,0.45 m -1.4,4 Q 3.7,4.95 4,6 M 5,9.7 Q 4.35,7.85 4.6,8.05 M -7.85,4.8 q 0.6,-1.55 1.7,-3 l 0.9,-0.85"
         id="path47"
         inkscape:connector-curvature="0"
         style="fill:none;stroke:#ff9900;stroke-linecap:round;stroke-linejoin:round" /></g><radialGradient
       id="gradient0-08"
       cx="0"
       cy="0"
       r="819.20001"
       gradientTransform="matrix(0.0377,0,0,0.0377,-15.45,-15.55)"
       gradientUnits="userSpaceOnUse"><stop
         stop-color="#facd1b"
         offset="0"
         id="stop50" /><stop
         stop-color="#cf4104"
         offset=".5764706"
         id="stop52" /><stop
         offset="1"
         id="stop54" /></radialGradient><radialGradient
       id="gradient1-28"
       cx="0"
       cy="0"
       r="819.20001"
       gradientTransform="matrix(0.0456,0,0,0.0456,-16.55,-26.35)"
       gradientUnits="userSpaceOnUse"><stop
         stop-color="#facd1b"
         offset="0"
         id="stop57" /><stop
         stop-color="#cf4104"
         offset=".3058824"
         id="stop59" /><stop
         offset=".8509804"
         id="stop61" /></radialGradient><g
       id="shape1-90"
       transform="translate(30.8,27)"><path
         d="m -26.6,-17.55 q 0.35,1.2 -0.1,1.8 l -0.2,0.15 -0.05,0.1 q -0.15,-1.3 -1.3,-2.4 l -2.05,-1.95 0.15,-0.2 q 1.65,0.25 2.6,0.95 0.65,0.5 0.95,1.55"
         id="path64"
         inkscape:connector-curvature="0"
         style="fill:url(#gradient0-08);fill-rule:evenodd" /><path
         d="m -16.95,-26.4 0.1,-0.1 4,0.8 q 2.6,1 4.2,2.45 2.05,1.8 2.8,4.8 0.75,3.1 2.65,4.8 l 0.85,0.65 0.85,0.35 0.05,0.75 -23.15,11.75 q 0.7,-2.55 -1.85,-4.9 -0.8,-0.9 -0.75,-2.55 l 0.25,-3.1 q 0.6,1.4 4.05,1.15 3.4,-0.25 7.75,-3 4.3,-2.75 2.5,-7.2 -1.85,-4.5 -4.3,-6.65"
         id="path66"
         inkscape:connector-curvature="0"
         style="fill:url(#gradient1-28);fill-rule:evenodd" /><path
         d="m -16.95,-26.4 q 2.45,2.15 4.3,6.65 1.8,4.45 -2.5,7.2 -4.35,2.75 -7.75,3 -3.45,0.25 -4.05,-1.15 l -0.25,3.1 q -0.05,1.65 0.75,2.55 2.55,2.35 1.85,4.9 M -1.5,-12.65 -2.35,-13 -3.2,-13.65 q -1.9,-1.7 -2.65,-4.8 -0.75,-3 -2.8,-4.8 -1.6,-1.45 -4.2,-2.45 l -4,-0.8 h -0.35 l 0.25,0.1 m -9.65,8.85 q 0.35,1.2 -0.1,1.8 l -0.2,0.15 -0.05,0.1 q -0.15,-1.3 -1.3,-2.4 l -2.05,-1.95 0.15,-0.2 q 1.65,0.25 2.6,0.95 0.65,0.5 0.95,1.55"
         id="path68"
         inkscape:connector-curvature="0"
         style="fill:none;stroke:#ff9900;stroke-linecap:round;stroke-linejoin:round" /></g><rect
       x="492.93478"
       y="136.60303"
       width="593.39471"
       height="164.44576"
       id="rect766-0" /><g
       id="shape0-9-1"
       transform="translate(24.7,-13.75)"><path
         d="m 33.8,18.65 q 4,8.45 4.35,19.65 0.35,11.15 -8.35,21.4 -8.75,10.2 -23.15,9.2 -14.4,-1 -21.3,-8.6 -6.9,-7.65 -7.65,-9.6 -0.8,-2 -1.9,-3.3 l 1.1,0.9 -0.05,-0.35 V 46 q 0,-6.4 3.2,-11.05 Q -17,30.6 -8,23.35 q 4.5,-3.6 6.85,-5 4.45,-2.65 9.3,-3.35 17.5,-2.65 23.4,0.25 l 1.35,1.8 0.05,0.05 0.5,0.85 q 0.25,0.6 0,0.85 l 0.35,-0.15"
         id="path2-7"
         inkscape:connector-curvature="0"
         style="fill:url(#gradient0-3-7);fill-rule:evenodd" /><path
         d="m 33.45,17.95 0.35,0.7 q 4,8.45 4.35,19.65 0.35,11.15 -8.35,21.4 -8.75,10.2 -23.15,9.2 -14.4,-1 -21.3,-8.6 -6.9,-7.65 -7.65,-9.6 -0.8,-2 -1.9,-3.3 m 57.15,-30.3 0.5,0.85 z"
         id="path4-2"
         inkscape:connector-curvature="0"
         style="fill:none;stroke:#ff9900;stroke-linecap:round;stroke-linejoin:round" /></g><radialGradient
       id="gradient0-3-7"
       cx="0"
       cy="0"
       r="819.20001"
       fx="6.4000001"
       gradientTransform="matrix(0.0477,0.0824,-0.0842,0.0487,15.55,45.45)"
       gradientUnits="userSpaceOnUse"><stop
         stop-color="#0a0101"
         offset=".3019608"
         id="stop7-2" /><stop
         stop-color="#4d0101"
         offset=".5490196"
         id="stop9-2" /><stop
         stop-color="#c10000"
         offset=".7490196"
         id="stop11-6" /><stop
         stop-color="#fca921"
         offset="1"
         id="stop13-1" /></radialGradient><g
       id="shape1-8-0"
       transform="translate(41.35,35.9)"><path
         d="m -23,48.9 -0.6,-1.3 q -2.65,-4.1 -6.25,-7.55 -2,-1.95 -5.5,-5 -5.5,-5.15 -5.5,-12.95 0,-2.25 0.8,-4.45 0.75,-2.2 1.95,-3.3 0.15,1.3 1,2.75 1,1.75 2.4,1.75 3.1,0 3.1,-9.1 0,-5.85 -1.3,-8.7 -1.3,-2.85 -3.05,-5.25 -1.7,-2.4 -2.45,-4.8 1.7,1.85 3.55,1.85 4,0 5.7,-5.25 1.15,-3.5 1.15,-8.9 0,-3.1 -1.55,-8.55 -1.15,-4.05 -1.8,-5.55 l 4.65,2.95 4.95,3.6 q 1.35,0.95 10.15,3.95 8.7,3 20.15,18.4 l 0.2,0.25 q 0.55,0.75 2.05,2.05 2.3,1.95 3.5,1.95 1.35,0 2.2,-0.6 1,-0.7 1,-2.1 0,-2.45 -2.2,-5.75 -1.95,-2.9 -3.3,-3.55 9.25,2.35 14.75,13.85 1.7,3.5 4.15,10.85 l 3,8.4 q -2.85,-2.2 -6,-2 -20.2,-0.7 -36.1,11.25 -6.3,4.75 -10.1,10.25 -3.45,5 -3.55,8.6 L -23,48.9 M -24.4,2.4 q -1.5,-1.5 -2.6,-1.5 -1.25,0 -1.25,1.85 0,3.1 1.75,7.65 2.2,5.6 5,5.6 0.95,0 1.25,-0.6 0.25,-0.55 0.25,-2.1 0,-1.75 -1.35,-5.15 -1.35,-3.4 -2.9,-5.5 L -24.4,2.4 m 8.85,-12.65 -1.15,-0.1 q -1.2,0 -2.2,1.35 -1,1.35 -1,2.95 0,7.1 6.25,12.55 5.45,4.75 10.4,4.75 3.15,0 4.6,-0.85 2,-1.2 2,-4.45 0,-4 -4.5,-10.3 -4.7,-6.65 -8.4,-6.65 -1.1,0 -1.1,0.9 l 0.3,1.55 0.55,0.9 -2.2,-1.3 q -2.3,-1.3 -3.55,-1.3"
         id="path16-6"
         inkscape:connector-curvature="0"
         style="fill:url(#gradient0-3-7);fill-rule:evenodd" /><path
         d="m -23,48.9 -0.6,-1.3 q -2.65,-4.1 -6.25,-7.55 -2,-1.95 -5.5,-5 -5.5,-5.15 -5.5,-12.95 0,-2.25 0.8,-4.45 0.75,-2.2 1.95,-3.3 0.15,1.3 1,2.75 1,1.75 2.4,1.75 3.1,0 3.1,-9.1 0,-5.85 -1.3,-8.7 -1.3,-2.85 -3.05,-5.25 -1.7,-2.4 -2.45,-4.8 1.7,1.85 3.55,1.85 4,0 5.7,-5.25 1.15,-3.5 1.15,-8.9 0,-3.1 -1.55,-8.55 -1.15,-4.05 -1.8,-5.55 l 4.65,2.95 4.95,3.6 q 1.35,0.95 10.15,3.95 8.7,3 20.15,18.4 l 0.2,0.25 q 0.55,0.75 2.05,2.05 2.3,1.95 3.5,1.95 1.35,0 2.2,-0.6 1,-0.7 1,-2.1 0,-2.45 -2.2,-5.75 -1.95,-2.9 -3.3,-3.55 9.25,2.35 14.75,13.85 1.7,3.5 4.15,10.85 l 3,8.4 m -49.45,-29.1 q 1.25,0 3.55,1.3 l 2.2,1.3 -0.55,-0.9 -0.3,-1.55 q 0,-0.9 1.1,-0.9 3.7,0 8.4,6.65 4.5,6.3 4.5,10.3 0,3.25 -2,4.45 -1.45,0.85 -4.6,0.85 -4.95,0 -10.4,-4.75 -6.25,-5.45 -6.25,-12.55 0,-1.6 1,-2.95 1,-1.35 2.2,-1.35 l 1.15,0.1 m -8.7,12.9 q 1.55,2.1 2.9,5.5 1.35,3.4 1.35,5.15 0,1.55 -0.25,2.1 -0.3,0.6 -1.25,0.6 -2.8,0 -5,-5.6 -1.75,-4.55 -1.75,-7.65 0,-1.85 1.25,-1.85 1.1,0 2.6,1.5"
         id="path18-1"
         inkscape:connector-curvature="0"
         style="fill:none;stroke:#ff9900;stroke-linecap:round;stroke-linejoin:round" /></g><g
       id="shape0-87-5"
       transform="translate(22.35,15.15)"><path
         d="m 25.95,-9.9 -2.45,3.1 q 0.4,1.85 0.4,3.55 0,4.2 -1.15,6.95 -1.35,3.2 -4.9,6.65 l 1.2,0.5 -0.4,0.35 -1.1,0.15 q -0.8,0 -3.15,-1.45 L 11.65,7.85 11.2,7.5 H 11.15 L 10.65,7.45 10.55,7.35 10.4,7.25 10.3,6.8 q 0,-1.5 7.05,-9.1 6.55,-7.05 8.2,-8.1 l 0.3,0.1 0.1,0.4 M 4.35,7.6 4.1,7.85 4.3,8.4 q 0,1.1 -6.85,3.95 -7.25,3 -11.65,3 l -2.8,-0.9 6.85,-0.75 q -7.05,-0.7 -10.2,-7 -2,-4 -2,-8.3 0,-3.55 1.4,-6.3 1.4,-2.9 4.75,-5.95 l -1.25,-1.3 1.55,1.05 0.15,-0.15 0.25,0.35 -0.05,0.1 q 6.35,4.5 12,10.5 5.7,6.05 9.85,12.65 L 6.15,9.6 4.35,7.6"
         id="path21-9"
         inkscape:connector-curvature="0"
         style="fill:#ffffff;fill-rule:evenodd" /></g><g
       id="shape0-76-4"
       transform="translate(11.05,17.3)"><path
         d="M -7.2,-12.5 -4.95,-14 -4,-14.55 h 0.05 l 0.25,-0.15 0.05,-0.05 0.15,-0.05 q 3.3,-1.95 5.95,-2 v 0.05 q 0.3,1.2 1.35,2.45 l 1.3,1.35 3.8,-1.5 2.7,1.75 q 2.7,1.95 3.55,3.35 0,1.15 -1.35,3 l -2,2.55 2.45,2.25 1.85,2.05 0.15,0.55 q -0.2,1.65 -1.7,3.5 -1.4,1.65 -2.95,2.4 l -0.25,-0.1 v 0.2 L 11.55,7 q 0.25,0.65 1.2,1.15 l 1.15,0.9 V 9.6 q -5.25,7.3 -13.25,7.25 0.2,-1.1 -1.15,-2.1 -6.15,-2.8 -9,-4.75 L -9.75,9.8 q 0.7,-0.2 -0.6,-2.85 -1.3,-2.7 -0.1,-8.65 0.4,-1.95 0.85,-6.05 0.6,-3.4 2.4,-4.75 M 4.25,-2.95 Q 3.3,-4.05 2.8,-5.3 2.45,-6.1 2.45,-6.45 q 0,0.35 0.35,1.15 0.5,1.25 1.45,2.35 m -2,-4 q 0,-0.5 0.5,-1.8 l 0.6,-1.4 -0.6,1.4 q -0.5,1.3 -0.5,1.8 m 3.3,-5.5 -0.45,-0.45 v -0.05 0.05 l 0.45,0.45 M 4.1,13.2 4.45,12.4 4.65,11.6 4.45,12.4 4.1,13.2 M 4.45,6.9 2.8,4 3.4,2.05 3.9,0.35 3.4,2.05 2.8,4 4.45,6.9"
         id="path24-9"
         inkscape:connector-curvature="0"
         style="fill:url(#gradient0-164-9);fill-rule:evenodd" /><path
         d="M -7.2,-12.5 -4.95,-14 -4,-14.55 h 0.05 l 0.25,-0.15 0.05,-0.05 0.15,-0.05 q 3.3,-1.95 5.95,-2 v 0.05 q 0.3,1.2 1.35,2.45 l 1.3,1.35 3.8,-1.5 2.7,1.75 q 2.7,1.95 3.55,3.35 0,1.15 -1.35,3 l -2,2.55 2.45,2.25 1.85,2.05 0.15,0.55 q -0.2,1.65 -1.7,3.5 -1.4,1.65 -2.95,2.4 L 11.55,7 q 0.25,0.65 1.2,1.15 l 1.15,0.9 V 9.6 q -5.25,7.3 -13.25,7.25 0.2,-1.1 -1.15,-2.1 -6.15,-2.8 -9,-4.75 L -9.75,9.8 M 5.1,-12.95 v 0.05 l 0.45,0.45 m -2.2,2.3 -0.6,1.4 q -0.5,1.3 -0.5,1.8 m 0.2,0.5 q 0,0.35 0.35,1.15 0.5,1.25 1.45,2.35 m 7.3,9.95 -0.2,0.05 v -0.2 l 0.25,0.1 M 3.9,0.35 3.4,2.05 2.8,4 4.45,6.9 m 0.2,4.7 -0.2,0.8 -0.35,0.8"
         id="path26-0"
         inkscape:connector-curvature="0"
         style="fill:none;stroke:#ff9900;stroke-linecap:round;stroke-linejoin:round" /></g><radialGradient
       id="gradient0-164-9"
       cx="0"
       cy="0"
       r="819.20001"
       gradientTransform="matrix(0.0456,0,0,0.0456,-29.6,1.95)"
       gradientUnits="userSpaceOnUse"><stop
         stop-color="#facd1b"
         offset="0"
         id="stop29-1" /><stop
         stop-color="#cf4104"
         offset=".3058824"
         id="stop31-7" /><stop
         offset=".8509804"
         id="stop33-7" /></radialGradient><g
       id="shape1-56-1"
       transform="translate(26.05,12.2)"><path
         d="M -7.65,-11.65 H -7.7 l 0.05,-0.05 v 0.05"
         id="path36-1"
         inkscape:connector-curvature="0"
         style="fill-rule:evenodd" /><path
         d="m -7.7,-11.65 h 0.05 l -1.2,22.2 -8.05,-2.7 q -6.05,-2.4 -8.65,-4.4 8.5,1.2 12.05,-3.3 3.5,-4.5 1.95,-7.1 -1.55,-2.65 -4.45,-4.65 5.15,1.2 8.1,-0.1 l 0.2,0.05"
         id="path38-5"
         inkscape:connector-curvature="0"
         style="fill:url(#gradient0-164-9);fill-rule:evenodd" /><path
         d="m -7.7,-11.65 -0.2,-0.05 q -2.95,1.3 -8.1,0.1 2.9,2 4.45,4.65 1.55,2.6 -1.95,7.1 -3.55,4.5 -12.05,3.3 2.6,2 8.65,4.4 l 8.05,2.7"
         id="path40-9"
         inkscape:connector-curvature="0"
         style="fill:none;stroke:#ff9900;stroke-linecap:round;stroke-linejoin:round" /></g><g
       id="shape0-73-7"
       transform="translate(26.1,15.45)"><path
         d="m 10.9,-7.5 0.2,0.1 -0.25,-0.05 -0.1,-0.05 q -0.6,-0.35 0.15,0"
         id="path43-7"
         inkscape:connector-curvature="0"
         style="fill:url(#gradient0-08-3);fill-rule:evenodd" /><path
         d="m 12.2,-3.4 q -0.55,1.35 -1.15,1.15 l 1.4,2.75 Q 11.6,-0.2 8.15,-1.65 l -0.5,-0.2 0.5,0.2 q 3.45,1.45 4.3,2.15 l -1.4,-2.75 q 0.6,0.2 1.15,-1.15 m -1.1,-4 3.15,1.55 2.05,0.75 q 2.15,1.05 3.55,2.55 1.45,1.5 2.1,3.25 L 23,2.95 q 0.65,1.6 2.15,3.1 1.45,1.45 -1.9,0.55 l -6.5,-0.3 q 0.45,2.15 2.25,4 1.85,1.85 -3.2,1.05 L 9.35,10.8 Q 7.9,11.05 5,9.7 5.55,12.2 6.9,14 8.25,15.75 2.35,14.4 l -8.3,-1.75 q -2.4,-0.45 -3.7,-1.6 l -2,-2 0.2,-0.95 -0.15,-0.05 -0.45,-0.25 -0.7,-0.25 -0.2,-0.35 q -2.45,0.5 -7.65,-1.75 -5,-2.15 -5,-3 0,-3.7 3.35,-7.9 L -18.9,-9 q 6.35,-5.95 10.25,-5.95 4.6,0 13.15,4.3 l 6.25,3.15 0.1,0.05 0.25,0.05 M -5.25,0.95 -6.15,1.8 q -1.1,1.45 -1.7,3 0.6,-1.55 1.7,-3 l 0.9,-0.85 M 4.6,8.05 Q 4.35,7.85 5,9.7 4.35,7.85 4.6,8.05 M 4,6 Q 3.7,4.95 3.2,4.45 L 0.3,1.55 3.2,4.45 Q 3.15,3.8 3.45,2.9 4.2,0.5 4.6,0.45 4.2,0.5 3.45,2.9 3.15,3.8 3.2,4.45 3.7,4.95 4,6 M 16.75,6.3 16.7,6.1 16.2,5.2 15.65,4.25 14.55,2.7 l -2.1,-2.2 2.1,2.2 1.1,1.55 0.55,0.95 0.5,0.9 0.05,0.2 M 14,-5.3 l 0.25,-0.05 1.8,0.25 H 16.3 16.05 L 14.25,-5.35 14,-5.3"
         id="path45-6"
         inkscape:connector-curvature="0"
         style="fill:url(#gradient1-28-3);fill-rule:evenodd" /><path
         d="m 7.65,-1.85 0.5,0.2 q 3.45,1.45 4.3,2.15 l -1.4,-2.75 q 0.6,0.2 1.15,-1.15 m -1.3,-4.1 0.2,0.1 3.15,1.55 2.05,0.75 q 2.15,1.05 3.55,2.55 1.45,1.5 2.1,3.25 L 23,2.95 q 0.65,1.6 2.15,3.1 1.45,1.45 -1.9,0.55 l -6.5,-0.3 q 0.45,2.15 2.25,4 1.85,1.85 -3.2,1.05 L 9.35,10.8 Q 7.9,11.05 5,9.7 5.55,12.2 6.9,14 8.25,15.75 2.35,14.4 l -8.3,-1.75 q -2.4,-0.45 -3.7,-1.6 l -2,-2 L -12,8.6 -12.75,7.55 -12.95,7.2 q -2.45,0.5 -7.65,-1.75 -5,-2.15 -5,-3 0,-3.7 3.35,-7.9 L -18.9,-9 q 6.35,-5.95 10.25,-5.95 4.6,0 13.15,4.3 l 6.25,3.15 m 0.35,0.1 -0.25,-0.05 -0.1,-0.05 m 5.55,2.4 H 16.05 L 14.25,-5.35 14,-5.3 m -1.55,5.8 2.1,2.2 1.1,1.55 0.55,0.95 0.5,0.9 0.05,0.2 M 0.3,1.55 3.2,4.45 Q 3.15,3.8 3.45,2.9 4.2,0.5 4.6,0.45 m -1.4,4 Q 3.7,4.95 4,6 M 5,9.7 Q 4.35,7.85 4.6,8.05 M -7.85,4.8 q 0.6,-1.55 1.7,-3 l 0.9,-0.85"
         id="path47-7"
         inkscape:connector-curvature="0"
         style="fill:none;stroke:#ff9900;stroke-linecap:round;stroke-linejoin:round" /></g><radialGradient
       id="gradient0-08-3"
       cx="0"
       cy="0"
       r="819.20001"
       gradientTransform="matrix(0.0377,0,0,0.0377,-15.45,-15.55)"
       gradientUnits="userSpaceOnUse"><stop
         stop-color="#facd1b"
         offset="0"
         id="stop50-6" /><stop
         stop-color="#cf4104"
         offset=".5764706"
         id="stop52-5" /><stop
         offset="1"
         id="stop54-6" /></radialGradient><radialGradient
       id="gradient1-28-3"
       cx="0"
       cy="0"
       r="819.20001"
       gradientTransform="matrix(0.0456,0,0,0.0456,-16.55,-26.35)"
       gradientUnits="userSpaceOnUse"><stop
         stop-color="#facd1b"
         offset="0"
         id="stop57-9" /><stop
         stop-color="#cf4104"
         offset=".3058824"
         id="stop59-4" /><stop
         offset=".8509804"
         id="stop61-8" /></radialGradient><g
       id="shape1-90-1"
       transform="translate(30.8,27)"><path
         d="m -26.6,-17.55 q 0.35,1.2 -0.1,1.8 l -0.2,0.15 -0.05,0.1 q -0.15,-1.3 -1.3,-2.4 l -2.05,-1.95 0.15,-0.2 q 1.65,0.25 2.6,0.95 0.65,0.5 0.95,1.55"
         id="path64-2"
         inkscape:connector-curvature="0"
         style="fill:url(#gradient0-08-3);fill-rule:evenodd" /><path
         d="m -16.95,-26.4 0.1,-0.1 4,0.8 q 2.6,1 4.2,2.45 2.05,1.8 2.8,4.8 0.75,3.1 2.65,4.8 l 0.85,0.65 0.85,0.35 0.05,0.75 -23.15,11.75 q 0.7,-2.55 -1.85,-4.9 -0.8,-0.9 -0.75,-2.55 l 0.25,-3.1 q 0.6,1.4 4.05,1.15 3.4,-0.25 7.75,-3 4.3,-2.75 2.5,-7.2 -1.85,-4.5 -4.3,-6.65"
         id="path66-9"
         inkscape:connector-curvature="0"
         style="fill:url(#gradient1-28-3);fill-rule:evenodd" /><path
         d="m -16.95,-26.4 q 2.45,2.15 4.3,6.65 1.8,4.45 -2.5,7.2 -4.35,2.75 -7.75,3 -3.45,0.25 -4.05,-1.15 l -0.25,3.1 q -0.05,1.65 0.75,2.55 2.55,2.35 1.85,4.9 M -1.5,-12.65 -2.35,-13 -3.2,-13.65 q -1.9,-1.7 -2.65,-4.8 -0.75,-3 -2.8,-4.8 -1.6,-1.45 -4.2,-2.45 l -4,-0.8 h -0.35 l 0.25,0.1 m -9.65,8.85 q 0.35,1.2 -0.1,1.8 l -0.2,0.15 -0.05,0.1 q -0.15,-1.3 -1.3,-2.4 l -2.05,-1.95 0.15,-0.2 q 1.65,0.25 2.6,0.95 0.65,0.5 0.95,1.55"
         id="path68-3"
         inkscape:connector-curvature="0"
         style="fill:none;stroke:#ff9900;stroke-linecap:round;stroke-linejoin:round" /></g><filter
       inkscape:collect="always"
       style="color-interpolation-filters:sRGB"
       id="filter7671-9"
       x="-0.34856417"
       width="1.6982816"
       y="-0.22422692"
       height="1.4487395"><feGaussianBlur
         inkscape:collect="always"
         stdDeviation="2.4423068"
         id="feGaussianBlur7673-0" /></filter><filter
       inkscape:collect="always"
       style="color-interpolation-filters:sRGB"
       id="filter7675-8"
       x="-0.17084157"
       width="1.3422178"
       y="-0.16949903"
       height="1.3396883"><feGaussianBlur
         inkscape:collect="always"
         stdDeviation="2.4423068"
         id="feGaussianBlur7677-8" /></filter><filter
       inkscape:collect="always"
       style="color-interpolation-filters:sRGB"
       id="filter7687-5"
       x="-0.0602039"
       width="1.1202235"
       y="-0.045589875"
       height="1.0913426"><feGaussianBlur
         inkscape:collect="always"
         stdDeviation="2.4423068"
         id="feGaussianBlur7689-0" /></filter></defs><g
     inkscape:label="Layer 1"
     inkscape:groupmode="layer"
     id="layer1"><text
       xml:space="preserve"
       id="text764-4"
       style="font-style:normal;font-variant:normal;font-weight:300;font-stretch:normal;font-size:72px;line-height:1.5;font-family:Sans;-inkscape-font-specification:'Sans, Light';font-variant-ligatures:normal;font-variant-caps:small-caps;font-variant-numeric:normal;font-variant-east-asian:normal;letter-spacing:0px;word-spacing:0px;white-space:pre;shape-inside:url(#rect766-0);display:inline;fill:#0366d6;fill-opacity:1"
       transform="matrix(1.0970941,0,0,1.097094,-199.29782,49.034423)"><tspan
         x="492.93555"
         y="211.11453"
         id="tspan619">Ven覺 V覺d覺 Cod覺</tspan></text><text
       xml:space="preserve"
       id="text776"
       style="font-style:normal;font-variant:normal;font-weight:300;font-stretch:normal;font-size:64px;line-height:1.5;font-family:'Segoe UI';-inkscape-font-specification:'Segoe UI, Light';font-variant-ligatures:normal;font-variant-caps:normal;font-variant-numeric:normal;font-variant-east-asian:normal;letter-spacing:0px;word-spacing:0px;white-space:pre;shape-inside:url(#rect778);shape-padding:0.9409;display:inline;fill:#808080;fill-opacity:1"
       transform="matrix(1.069011,0,0,1.0690107,-162.11802,-18.325936)"><tspan
         x="469.26172"
         y="381.58969"
         id="tspan621">Ahmet Sait's Software Blog</tspan></text><g
       id="head_eyes-group-9"
       transform="matrix(1.169887,0,0,1.1698871,60.18175,189.80389)"><g
         id="head-group-6"><path
           style="opacity:1;fill:#800000;fill-opacity:1;fill-rule:evenodd;stroke:#ff2000;stroke-width:5;stroke-miterlimit:4;stroke-dasharray:none;stroke-dashoffset:0;stroke-opacity:1;filter:url(#filter7687-5)"
           d="m 124.59587,198.38997 c -12.65702,-1.58176 -22.38607,-5.34669 -29.712565,-11.49813 -2.27103,-1.90679 -9.42993,-9.90979 -13.25316,-14.81582 -1.38087,-1.77197 -3.17701,-4.5567 -3.99141,-6.1883 -0.81441,-1.63159 -1.83139,-3.43309 -2.25997,-4.00333 -0.42858,-0.57023 -0.77924,-1.33068 -0.77924,-1.68987 0,-1.74173 -8.18225,-10.70348 -17.85532,-19.55634 -2.02806,-1.8561 -4.42224,-4.34372 -5.32042,-5.52805 -5.5046,-7.25835 -7.39232,-17.81238 -4.70063,-26.28065 0.45998,-1.44713 1.40642,-3.51319 2.10322,-4.59126 1.75478,-2.715 2.66477,-2.96093 3.07898,-0.83213 0.32604,1.67569 1.88988,4.61085 2.91724,5.47531 0.99067,0.8336 2.44804,1.02084 3.51229,0.45127 0.85207,-0.45601 1.82544,-2.45081 2.49441,-5.11193 0.81321,-3.23496 0.81046,-15.726504 -0.004,-19.630348 -0.72765,-3.486346 -3.03371,-8.342685 -6.33664,-13.344362 -1.36377,-2.06518 -2.96612,-4.807865 -3.56078,-6.094852 -1.77775,-3.847461 -1.37751,-4.775432 1.18578,-2.749273 2.06901,1.635468 3.55483,2.129239 5.65772,1.880183 6.46232,-0.765369 10.26121,-9.839666 9.90556,-23.661162 -0.11152,-4.334172 -0.30897,-6.114047 -1.02039,-9.198354 -0.92887,-4.027039 -3.03799,-11.302152 -4.10022,-14.143067 -0.51378,-1.374124 -0.55082,-1.747305 -0.20215,-2.036681 0.50549,-0.419521 6.47185,3.219921 12.7342,7.76778 2.14962,1.561102 4.37126,3.157866 4.93699,3.548364 1.28934,0.889986 6.4925,2.98405 13.46504,5.419148 5.94118,2.074904 9.400315,3.674651 12.658215,5.854048 7.37233,4.931786 15.51049,13.171373 24.70399,25.011907 3.94667,5.083017 5.58802,6.737976 8.69338,8.76544 2.35641,1.538489 4.31733,1.703224 6.08963,0.511587 2.19951,-1.478879 2.21245,-4.634906 0.0375,-9.144669 -1.58929,-3.295417 -4.86548,-7.742925 -6.5744,-8.924902 -1.34899,-0.933042 -1.64105,-1.60003 -0.83591,-1.908992 0.72348,-0.277626 5.2333,1.341779 8.0615,2.894758 8.24907,4.52962 15.17743,13.096699 20.21254,24.993302 1.55414,3.672005 1.98781,4.849442 7.1997,19.54729 1.87492,5.287395 4.06817,11.223275 4.8739,13.190835 4.21228,10.28634 6.23196,20.97673 6.21382,32.89038 -0.008,5.45973 -0.1256,7.04891 -0.72471,9.81912 -2.40412,11.11624 -8.74797,22.27732 -17.37438,30.56765 -6.76285,6.49938 -13.96188,10.21359 -23.40273,12.07422 -3.88031,0.76474 -13.64089,0.90541 -18.72629,0.26988 z M 81.427755,104.15378 c 0.56371,-1.0533 0.38399,-4.861178 -0.35358,-7.491721 -1.64511,-5.867308 -5.57459,-13.448634 -7.94829,-15.335009 -2.65107,-2.106805 -3.85413,-1.708898 -3.99896,1.32264 -0.32794,6.864259 4.87225,19.65733 8.77119,21.57814 1.52443,0.75101 3.10584,0.71784 3.52964,-0.074 z m 35.994975,-8.201366 c 3.04513,-0.809074 4.49519,-2.550515 5.07132,-6.090399 0.78477,-4.821819 -1.74431,-11.164297 -7.91096,-19.839258 -2.62375,-3.690966 -7.40382,-8.481143 -9.64675,-9.667149 -1.1976,-0.633258 -2.26986,-0.935739 -3.41985,-0.964723 l -1.675235,-0.04222 0.10222,1.275127 c 0.0562,0.70132 0.397875,1.854635 0.759215,2.562925 1.00381,1.96763 0.38768,2.26743 -1.928175,0.938217 -4.64458,-2.665813 -6.66011,-3.460478 -9.09378,-3.585417 -2.87268,-0.14748 -3.86098,0.421358 -5.11934,2.946567 -1.46985,2.949595 -1.06546,8.47983 0.97772,13.370808 3.59999,8.61769 14.750595,17.908851 23.334625,19.443415 1.97143,0.352433 6.62607,0.163019 8.54899,-0.34789 z"
           id="head-blur-3"
           inkscape:connector-curvature="0" /><g
           transform="translate(0,56)"
           id="head-8"
           sodipodi:insensitive="true"><use
             y="0"
             x="0"
             id="face-5"
             xlink:href="#shape0-9-1"
             height="55.75"
             width="63.349998"
             transform="matrix(1.747602,0,0,1.747602,74.336531,45.695357)" /><use
             y="0"
             x="0"
             id="hair-6"
             xlink:href="#shape1-8-0"
             height="85.300003"
             width="75.75"
             transform="matrix(1.747602,0,0,1.747602,45.238957,-41.073082)" /></g></g><g
         id="eyes-group-1"><g
           transform="translate(-136.99801,7.7872731)"
           id="eyes-blur-1"
           style="fill-opacity:1"><path
             inkscape:connector-curvature="0"
             id="right_eye-blur-5"
             d="m 255.02912,169.78179 c -0.74886,-0.21655 -1.44198,-0.47616 -1.54026,-0.57691 -0.0983,-0.10074 1.9068,-0.52768 4.45572,-0.94876 5.09491,-0.84166 6.65523,-1.25574 4.86155,-1.29016 -2.00871,-0.0386 -5.75577,-1.05309 -8.09756,-2.19245 -10.28678,-5.00486 -15.95549,-21.14974 -11.47378,-32.67807 1.18589,-3.05048 2.50783,-5.17847 5.37353,-8.65004 2.09696,-2.5403 2.84947,-3.13916 3.11401,-2.47818 0.0597,0.14921 0.98795,0.82664 2.06276,1.50542 11.56676,7.30481 25.8788,20.67162 34.9929,32.68183 1.12808,1.48653 1.98794,2.7659 1.9108,2.84304 -0.0771,0.0771 -0.78453,-0.51622 -1.57198,-1.31857 -1.6644,-1.6959 -2.0781,-1.81783 -1.79504,-0.52905 0.17176,0.78202 0.023,1.08887 -0.9362,1.93105 -1.43494,1.2599 -4.45024,3.01767 -9.55817,5.57193 -9.83132,4.91624 -18.02505,7.22003 -21.79828,6.12892 z"
             style="opacity:1;fill:#800000;fill-opacity:1;fill-rule:evenodd;stroke:#ff2000;stroke-width:5;stroke-miterlimit:4;stroke-dasharray:none;stroke-opacity:1;filter:url(#filter7675-8)" /><path
             inkscape:connector-curvature="0"
             id="left_eye-blur-9"
             d="m 307.61136,159.33689 c -1.02761,-0.43092 -3.38972,-1.75332 -5.24913,-2.93868 -1.8594,-1.18535 -3.61028,-2.15519 -3.89083,-2.15519 -0.90825,0 -0.96291,-1.22627 -0.13441,-3.01521 1.42241,-3.07132 7.24661,-10.75435 15.61455,-20.59802 5.34526,-6.28793 7.28653,-8.23964 7.74225,-7.78392 0.22114,0.22114 -0.29873,1.2482 -1.58865,3.13853 l -1.91736,2.80981 0.50938,2.05774 c 0.64227,2.59457 0.69915,10.37385 0.096,13.13153 -0.84994,3.88608 -3.12425,8.23165 -6.41016,12.24801 -0.96982,1.18541 -1.76331,2.23726 -1.76331,2.33743 0,0.10018 0.45418,0.2819 1.00929,0.40382 1.25675,0.27603 0.87051,0.71442 -0.84644,0.96074 -0.95905,0.13758 -1.79579,-0.0198 -3.17119,-0.59659 z"
             style="opacity:1;fill:#800000;fill-opacity:1;fill-rule:evenodd;stroke:#ff2000;stroke-width:5;stroke-miterlimit:4;stroke-dasharray:none;stroke-opacity:1;filter:url(#filter7671-9)" /></g><use
           transform="matrix(1.685794,-0.1057484,0.1064093,1.69633,103.042,128.00849)"
           width="48.299999"
           height="30.5"
           xlink:href="#shape0-87-5"
           id="eyes-8"
           x="0"
           y="0" /></g></g></g></svg>
