<?xml version="1.0" encoding="UTF-8" standalone="no"?>
<!-- Created with Inkscape (http://www.inkscape.org/) -->

<svg
   width="1200"
   height="630"
   viewBox="0 0 1200 630"
   style="background-color: white"
   version="1.1"
   id="svg5"
   xml:space="preserve"
   inkscape:version="1.3 (1:1.3+202307231459+0e150ed6c4)"
   sodipodi:docname="opengraph-tr.svg"
   inkscape:export-filename="opengraph-tr.png"
   inkscape:export-xdpi="96"
   inkscape:export-ydpi="96"
   xmlns:inkscape="http://www.inkscape.org/namespaces/inkscape"
   xmlns:sodipodi="http://sodipodi.sourceforge.net/DTD/sodipodi-0.dtd"
   xmlns:xlink="http://www.w3.org/1999/xlink"
   xmlns="http://www.w3.org/2000/svg"
   xmlns:svg="http://www.w3.org/2000/svg"><sodipodi:namedview
     id="namedview7"
     pagecolor="#ffffff"
     bordercolor="#666666"
     borderopacity="1.0"
     inkscape:showpageshadow="2"
     inkscape:pageopacity="1"
     inkscape:pagecheckerboard="true"
     inkscape:deskcolor="#d1d1d1"
     inkscape:document-units="px"
     showgrid="false"
     showguides="false"
     inkscape:zoom="1.0133333"
     inkscape:cx="600"
     inkscape:cy="315.29605"
     inkscape:window-width="1920"
     inkscape:window-height="999"
     inkscape:window-x="0"
     inkscape:window-y="0"
     inkscape:window-maximized="1"
     inkscape:current-layer="svg5"
     inkscape:export-bgcolor="#ffffffff" /><defs
     id="defs2"><radialGradient
       id="a"
       cx="6.3930101"
       cy="-0.0039582099"
       r="819.20001"
       gradientTransform="matrix(0.104897,0.181206,-0.185164,0.107096,169.225,196.291)"
       gradientUnits="userSpaceOnUse"><stop
         stop-color="#0a0101"
         offset=".30196"
         id="stop7145" /><stop
         stop-color="#4d0101"
         offset=".54902"
         id="stop7147" /><stop
         stop-color="#c10000"
         offset=".74902"
         id="stop7149" /><stop
         stop-color="#fca921"
         offset="1"
         id="stop7151" /></radialGradient><filter
       inkscape:collect="always"
       style="color-interpolation-filters:sRGB"
       id="filter2351"
       x="-0.056717254"
       y="-0.065415036"
       width="1.1134326"
       height="1.1083225"><feGaussianBlur
         inkscape:collect="always"
         stdDeviation="2.1144635"
         id="feGaussianBlur2353" /></filter><radialGradient
       inkscape:collect="always"
       xlink:href="#gradient0-3"
       id="radialGradient715"
       gradientUnits="userSpaceOnUse"
       gradientTransform="matrix(0.0806243,0.13927551,-0.14231794,0.08231453,144.10328,156.07448)"
       cx="0"
       cy="0"
       fx="6.4000001"
       r="819.20001" /><radialGradient
       id="gradient0-3"
       cx="0"
       cy="0"
       r="819.20001"
       fx="6.4000001"
       gradientTransform="matrix(0.0477,0.0824,-0.0842,0.0487,15.55,45.45)"
       gradientUnits="userSpaceOnUse"><stop
         stop-color="#0a0101"
         offset=".3019608"
         id="stop7-3" /><stop
         stop-color="#4d0101"
         offset=".5490196"
         id="stop9-6" /><stop
         stop-color="#c10000"
         offset=".7490196"
         id="stop11-7" /><stop
         stop-color="#fca921"
         offset="1"
         id="stop13-5" /></radialGradient><filter
       inkscape:collect="always"
       style="color-interpolation-filters:sRGB"
       id="filter2359"
       x="-0.0971635"
       y="-0.15236259"
       width="1.1943333"
       height="1.3047487"><feGaussianBlur
         inkscape:collect="always"
         stdDeviation="2.1144635"
         id="feGaussianBlur2361" /></filter></defs><g
     aria-label="Venı Vıdı Codı"
     transform="matrix(1.0970941,0,0,1.097094,-242.91013,49.034426)"
     id="text764-4"
     style="font-weight:300;font-size:72px;line-height:1.5;font-family:Sans;-inkscape-font-specification:'Sans, Light';font-variant-caps:small-caps;letter-spacing:0px;word-spacing:0px;white-space:pre;shape-inside:url(#rect766-0);display:inline;fill:#0366d6"><path
       d="m 534.83955,159.70653 -18.864,51.408 h -4.176 l -18.864,-51.408 h 4.392 l 13.608,37.08 q 0.936,2.592 1.656,4.968 0.792,2.376 1.296,4.464 0.504,-2.088 1.224,-4.392 0.72,-2.304 1.728,-5.112 l 13.536,-37.008 z"
       id="path1539" /><path
       d="m 540.52746,170.36253 h 22.824 v 3.456 h -18.72 v 14.256 h 17.712 v 3.456 h -17.712 v 16.128 h 18.72 v 3.456 h -22.824 z"
       id="path1541" /><path
       d="m 604.24734,170.36253 v 40.752 h -4.752 l -23.328,-34.992 h -0.216 q 0.072,1.944 0.144,4.176 0.144,2.16 0.144,4.032 v 26.784 h -3.816 v -40.752 h 4.752 l 23.256,34.992 h 0.216 q -0.144,-1.872 -0.216,-4.104 0,-2.232 0,-4.536 v -26.352 z"
       id="path1543" /><path
       d="m 619.79927,211.11453 h -4.032 v -38.304 h 4.032 z"
       id="path1545" /><path
       d="m 686.75904,159.70653 -18.864,51.408 h -4.176 l -18.864,-51.408 h 4.392 l 13.608,37.08 q 0.936,2.592 1.656,4.968 0.792,2.376 1.296,4.464 0.504,-2.088 1.224,-4.392 0.72,-2.304 1.728,-5.112 l 13.536,-37.008 z"
       id="path1547" /><path
       d="m 697.12696,211.11453 h -4.032 v -38.304 h 4.032 z"
       id="path1549" /><path
       d="m 741.47884,190.30653 q 0,10.296 -5.544,15.552 -5.544,5.256 -16.344,5.256 h -10.368 v -40.752 h 11.664 q 10.224,0 15.408,5.184 5.184,5.112 5.184,14.76 z m -4.176,0.144 q 0,-16.488 -16.848,-16.488 h -7.2 v 33.624 h 6.408 q 17.64,0 17.64,-17.136 z"
       id="path1551" /><path
       d="m 755.37482,211.11453 h -4.032 v -38.304 h 4.032 z"
       id="path1553" /><path
       d="m 809.5186,162.73053 q -6.336,0 -10.872,2.88 -4.536,2.808 -6.984,7.92 -2.376,5.04 -2.376,11.808 0,6.912 2.16,12.024 2.232,5.112 6.552,7.92 4.32,2.808 10.8,2.808 3.744,0 6.84,-0.576 3.168,-0.576 5.976,-1.44 v 3.6 q -2.664,1.008 -5.904,1.584 -3.168,0.576 -7.344,0.576 -7.776,0 -13.032,-3.312 -5.184,-3.312 -7.848,-9.288 -2.592,-5.976 -2.592,-13.968 0,-7.632 2.88,-13.536 2.952,-5.976 8.424,-9.36 5.544,-3.384 13.32,-3.384 7.56,0 13.536,2.88 l -1.656,3.6 q -5.616,-2.736 -11.88,-2.736 z"
       id="path1555" /><path
       d="m 864.7425,190.66653 q 0,6.192 -2.088,10.944 -2.016,4.752 -6.192,7.416 -4.104,2.664 -10.296,2.664 -6.192,0 -10.368,-2.664 -4.176,-2.664 -6.264,-7.416 -2.088,-4.752 -2.088,-11.016 0,-6.12 2.088,-10.8 2.088,-4.752 6.264,-7.344 4.176,-2.664 10.368,-2.664 9.288,0 13.896,5.688 4.68,5.688 4.68,15.192 z m -33.12,0 q 0,7.776 3.6,12.6 3.6,4.824 10.944,4.824 7.272,0 10.8,-4.752 3.6,-4.752 3.6,-12.672 0,-8.208 -3.672,-12.744 -3.672,-4.536 -10.728,-4.536 -7.344,0 -10.944,4.752 -3.6,4.68 -3.6,12.528 z"
       id="path1557" /><path
       d="m 906.35835,190.30653 q 0,10.296 -5.544,15.552 -5.544,5.256 -16.344,5.256 h -10.368 v -40.752 h 11.664 q 10.224,0 15.408,5.184 5.184,5.112 5.184,14.76 z m -4.176,0.144 q 0,-16.488 -16.848,-16.488 h -7.2 v 33.624 h 6.408 q 17.64,0 17.64,-17.136 z"
       id="path1559" /><path
       d="m 920.25435,211.11453 h -4.032 v -38.304 h 4.032 z"
       id="path1561" /></g><g
     aria-label="Ahmet Sait'in Yazılım Günlüğü"
     transform="matrix(1.069011,0,0,1.0690107,-205.73033,-18.325933)"
     id="text776"
     style="font-weight:300;font-size:64px;line-height:1.5;font-family:'Segoe UI';-inkscape-font-specification:'Segoe UI, Light';letter-spacing:0px;word-spacing:0px;white-space:pre;shape-inside:url(#rect778);shape-padding:0.9409;display:inline;fill:#808080"><path
       d="m 504.19922,381.58969 -5.125,-13.9375 h -19.4375 l -5.125,13.9375 h -3.40625 l 16.90625,-44.8125 h 2.9375 l 16.71875,44.8125 z m -13.75,-37.5 q -0.34375,-0.9375 -0.5625,-1.84375 -0.21875,-0.78125 -0.46875,-1.5625 h -0.125 q -0.53125,2.0625 -1.03125,3.34375 l -7.53125,20.78125 h 17.28125 z"
       id="path1564" /><path
       d="m 536.38672,381.58969 v -19.1875 q 0,-5.6875 -2.0625,-8.3125 -2.0625,-2.65625 -6.4375,-2.65625 -4.125,0 -7.25,3.21875 -3.125,3.21875 -3.125,9.21875 v 17.71875 h -2.875 v -47.375 h 2.875 v 21.125 h 0.125 q 3.78125,-6.53125 11,-6.53125 5.1875,0 7.90625,3.34375 2.71875,3.34375 2.71875,9.59375 v 19.84375 z"
       id="path1566" /><path
       d="m 589.01172,381.58969 v -19.25 q 0,-6.03125 -1.90625,-8.46875 -1.875,-2.4375 -5.96875,-2.4375 -3.78125,0 -6.53125,3.25 -2.75,3.25 -2.75,8.15625 v 18.75 h -2.875 v -19.46875 q 0,-10.6875 -8.125,-10.6875 -3.90625,0 -6.5,3.28125 -2.59375,3.25 -2.59375,8.4375 v 18.4375 h -2.875 v -32 h 2.875 v 5.3125 h 0.125 q 3.34375,-6.09375 9.78125,-6.09375 3.5,0 5.96875,2.03125 2.5,2 3.375,5.28125 1.5,-3.46875 4.28125,-5.375 2.8125,-1.9375 6.09375,-1.9375 10.5,0 10.5,13 v 19.78125 z"
       id="path1568" /><path
       d="m 602.16797,365.71469 q 0,6.59375 3.03125,10.3125 3.0625,3.71875 8.375,3.71875 5.375,0 10.5,-3.96875 v 3.0625 q -4.96875,3.53125 -11.09375,3.53125 -6.1875,0 -10,-4.4375 -3.8125,-4.4375 -3.8125,-12.53125 0,-7 3.96875,-11.78125 4,-4.8125 10.375,-4.8125 5.96875,0 9.15625,4.1875 3.1875,4.1875 3.1875,11.4375 v 1.28125 z m 20.6875,-2.625 q -0.1875,-5.53125 -2.65625,-8.59375 -2.46875,-3.0625 -6.8125,-3.0625 -4.5,0 -7.46875,3.03125 -2.9375,3 -3.625,8.625 z"
       id="path1570" /><path
       d="m 646.44922,381.15219 q -2.25,1.0625 -4.21875,1.0625 -7.09375,0 -7.09375,-8.5 v -21.5 h -5.75 v -2.625 h 5.75 v -8.3125 q 0.6875,-0.25 1.4375,-0.5 0.75,-0.21875 1.4375,-0.46875 v 9.28125 h 8.4375 v 2.625 h -8.4375 v 21.125 q 0,3.3125 1.03125,4.8125 1.0625,1.46875 3.5625,1.46875 1.78125,0 3.84375,-1.15625 z"
       id="path1572" /><path
       d="m 669.54297,379.99594 v -3.53125 q 4.8125,3.0625 9.75,3.0625 5.25,0 7.96875,-2.15625 2.71875,-2.1875 2.71875,-6.09375 0,-3.4375 -1.84375,-5.46875 -1.8125,-2.0625 -7.90625,-5.59375 -6.8125,-3.96875 -8.625,-6.625 -1.8125,-2.6875 -1.8125,-6.1875 0,-4.75 3.6875,-8.0625 3.6875,-3.3125 9.84375,-3.3125 4,0 8,1.34375 v 3.25 q -3.9375,-1.78125 -8.40625,-1.78125 -4.5625,0 -7.25,2.3125 -2.65625,2.3125 -2.65625,5.875 0,3.4375 1.8125,5.46875 1.84375,2.03125 7.90625,5.53125 6.28125,3.5625 8.34375,6.34375 2.09375,2.75 2.09375,6.34375 0,5.15625 -3.59375,8.40625 -3.5625,3.25 -10.09375,3.25 -2.3125,0 -5.34375,-0.71875 -3,-0.71875 -4.59375,-1.65625 z"
       id="path1574" /><path
       d="m 721.26172,381.58969 v -6.40625 h -0.125 q -1.53125,3.28125 -4.46875,5.25 -2.90625,1.9375 -6.46875,1.9375 -4.5625,0 -7.21875,-2.5625 -2.65625,-2.5625 -2.65625,-6.46875 0,-8.375 11.09375,-10.125 l 9.84375,-1.46875 q 0,-10.3125 -7.75,-10.3125 -5.28125,0 -10.28125,4.25 v -3.46875 q 1.78125,-1.40625 4.8125,-2.40625 3.0625,-1 5.75,-1 4.9375,0 7.625,3.0625 2.71875,3.0625 2.71875,8.90625 v 20.8125 z m -8.8125,-15.9375 q -5.03125,0.71875 -7.0625,2.34375 -2.03125,1.59375 -2.03125,5.21875 0,2.84375 1.875,4.6875 1.90625,1.84375 5.28125,1.84375 4.625,0 7.6875,-3.40625 3.0625,-3.4375 3.0625,-8.84375 v -3.125 z"
       id="path1576" /><path
       d="m 735.16797,341.52719 q -0.9375,0 -1.65625,-0.6875 -0.71875,-0.6875 -0.71875,-1.75 0,-1.03125 0.71875,-1.65625 0.75,-0.65625 1.65625,-0.65625 0.96875,0 1.6875,0.625 0.75,0.625 0.75,1.6875 0,1 -0.71875,1.71875 -0.71875,0.71875 -1.71875,0.71875 z m -1.40625,40.0625 v -32 h 2.875 v 32 z"
       id="path1578" /><path
       d="m 759.54297,381.15219 q -2.25,1.0625 -4.21875,1.0625 -7.09375,0 -7.09375,-8.5 v -21.5 h -5.75 v -2.625 h 5.75 v -8.3125 q 0.6875,-0.25 1.4375,-0.5 0.75,-0.21875 1.4375,-0.46875 v 9.28125 h 8.4375 v 2.625 h -8.4375 v 21.125 q 0,3.3125 1.03125,4.8125 1.0625,1.46875 3.5625,1.46875 1.78125,0 3.84375,-1.15625 z"
       id="path1580" /><path
       d="m 768.98047,350.80844 h -2.6875 v -14.03125 h 2.6875 z"
       id="path1582" /><path
       d="m 780.98047,341.52719 q -0.9375,0 -1.65625,-0.6875 -0.71875,-0.6875 -0.71875,-1.75 0,-1.03125 0.71875,-1.65625 0.75,-0.65625 1.65625,-0.65625 0.96875,0 1.6875,0.625 0.75,0.625 0.75,1.6875 0,1 -0.71875,1.71875 -0.71875,0.71875 -1.71875,0.71875 z m -1.40625,40.0625 v -32 h 2.875 v 32 z"
       id="path1584" /><path
       d="m 814.44922,381.58969 v -18.625 q 0,-11.53125 -8.3125,-11.53125 -4.625,0 -7.59375,3.40625 -2.96875,3.375 -2.96875,8.375 v 18.375 h -2.875 v -32 h 2.875 v 5.8125 h 0.125 q 3.5,-6.59375 10.9375,-6.59375 5.1875,0 7.9375,3.46875 2.75,3.4375 2.75,9.84375 v 19.46875 z"
       id="path1586" /><path
       d="m 858.04297,364.55844 v 17.03125 h -3.0625 v -16.96875 l -13.71875,-27.84375 h 3.46875 l 10.4375,21.59375 q 0.5625,1.125 1.40625,3.3125 h 0.125 q 0.4375,-1.15625 1.53125,-3.25 l 10.9375,-21.65625 h 3.34375 z"
       id="path1588" /><path
       d="m 888.69922,381.58969 v -6.40625 h -0.125 q -1.53125,3.28125 -4.46875,5.25 -2.90625,1.9375 -6.46875,1.9375 -4.5625,0 -7.21875,-2.5625 -2.65625,-2.5625 -2.65625,-6.46875 0,-8.375 11.09375,-10.125 l 9.84375,-1.46875 q 0,-10.3125 -7.75,-10.3125 -5.28125,0 -10.28125,4.25 v -3.46875 q 1.78125,-1.40625 4.8125,-2.40625 3.0625,-1 5.75,-1 4.9375,0 7.625,3.0625 2.71875,3.0625 2.71875,8.90625 v 20.8125 z m -8.8125,-15.9375 q -5.03125,0.71875 -7.0625,2.34375 -2.03125,1.59375 -2.03125,5.21875 0,2.84375 1.875,4.6875 1.90625,1.84375 5.28125,1.84375 4.625,0 7.6875,-3.40625 3.0625,-3.4375 3.0625,-8.84375 v -3.125 z"
       id="path1590" /><path
       d="m 902.54297,378.96469 h 20.65625 v 2.625 h -25.34375 v -1.09375 l 21.25,-28.28125 h -19.71875 v -2.625 h 24.59375 v 0.78125 z"
       id="path1592" /><path
       d="m 930.88672,381.58969 v -32 h 2.875 v 32 z"
       id="path1594" /><path
       d="m 944.01172,381.58969 v -47.375 h 2.875 v 47.375 z"
       id="path1596" /><path
       d="m 957.13672,381.58969 v -32 h 2.875 v 32 z"
       id="path1598" /><path
       d="m 1010.3867,381.58969 v -19.25 q 0,-6.03125 -1.9062,-8.46875 -1.875,-2.4375 -5.9688,-2.4375 -3.78123,0 -6.53123,3.25 -2.75,3.25 -2.75,8.15625 v 18.75 h -2.875 v -19.46875 q 0,-10.6875 -8.125,-10.6875 -3.90625,0 -6.5,3.28125 -2.59375,3.25 -2.59375,8.4375 v 18.4375 h -2.875 v -32 h 2.875 v 5.3125 h 0.125 q 3.34375,-6.09375 9.78125,-6.09375 3.5,0 5.96875,2.03125 2.5,2 3.375,5.28125 1.5,-3.46875 4.28125,-5.375 2.8125,-1.9375 6.09373,-1.9375 10.5,0 10.5,13 v 19.78125 z"
       id="path1600" /><path
       d="m 1073.418,378.46469 q -6.9375,3.90625 -14.2813,3.90625 -9.1562,0 -14.8125,-6.21875 -5.6562,-6.21875 -5.6562,-16.3125 0,-10.1875 6.0937,-17 6.0938,-6.8125 16.2813,-6.8125 5.9062,0 11.4687,2.375 v 3.375 q -6.0937,-2.9375 -11.9062,-2.9375 -8.4688,0 -13.625,5.78125 -5.125,5.78125 -5.125,14.75 0,9.4375 4.8125,14.8125 4.8437,5.34375 13.0312,5.34375 6.0625,0 10.625,-2.625 v -14.78125 h -10.5625 v -2.8125 h 13.6563 z"
       id="path1602" /><path
       d="m 1104.2617,381.58969 v -5.8125 h -0.125 q -3.3437,6.59375 -10.3125,6.59375 -11.3437,0 -11.3437,-14.28125 v -18.5 h 2.9062 v 17.78125 q 0,6.5 2.125,9.4375 2.1563,2.9375 6.75,2.9375 4.4688,0 7.2188,-3.28125 2.7812,-3.28125 2.7812,-8.75 v -18.125 h 2.875 v 32 z m -3.2812,-37.125 q -0.8438,0 -1.5313,-0.59375 -0.6875,-0.625 -0.6875,-1.65625 0,-0.96875 0.6563,-1.5625 0.6875,-0.59375 1.5,-0.59375 0.9062,0 1.625,0.625 0.75,0.59375 0.75,1.53125 0,0.96875 -0.6875,1.625 -0.6563,0.625 -1.625,0.625 z m -10.4063,0 q -0.875,0 -1.5625,-0.59375 -0.6875,-0.625 -0.6875,-1.65625 0,-0.96875 0.6875,-1.5625 0.6875,-0.59375 1.5,-0.59375 0.9063,0 1.625,0.625 0.7188,0.59375 0.7188,1.53125 0,0.96875 -0.6563,1.625 -0.6562,0.625 -1.625,0.625 z"
       id="path1604" /><path
       d="m 1139.1367,381.58969 v -18.625 q 0,-11.53125 -8.3125,-11.53125 -4.625,0 -7.5937,3.40625 -2.9688,3.375 -2.9688,8.375 v 18.375 h -2.875 v -32 h 2.875 v 5.8125 h 0.125 q 3.5,-6.59375 10.9375,-6.59375 5.1875,0 7.9375,3.46875 2.75,3.4375 2.75,9.84375 v 19.46875 z"
       id="path1606" /><path
       d="m 1151.6367,381.58969 v -47.375 h 2.875 v 47.375 z"
       id="path1608" /><path
       d="m 1185.8867,381.58969 v -5.8125 h -0.125 q -3.3437,6.59375 -10.3125,6.59375 -11.3437,0 -11.3437,-14.28125 v -18.5 h 2.9062 v 17.78125 q 0,6.5 2.125,9.4375 2.1563,2.9375 6.75,2.9375 4.4688,0 7.2188,-3.28125 2.7812,-3.28125 2.7812,-8.75 v -18.125 h 2.875 v 32 z m -3.2812,-37.125 q -0.8438,0 -1.5313,-0.59375 -0.6875,-0.625 -0.6875,-1.65625 0,-0.96875 0.6563,-1.5625 0.6875,-0.59375 1.5,-0.59375 0.9062,0 1.625,0.625 0.75,0.59375 0.75,1.53125 0,0.96875 -0.6875,1.625 -0.6563,0.625 -1.625,0.625 z m -10.4063,0 q -0.875,0 -1.5625,-0.59375 -0.6875,-0.625 -0.6875,-1.65625 0,-0.96875 0.6875,-1.5625 0.6875,-0.59375 1.5,-0.59375 0.9063,0 1.625,0.625 0.7188,0.59375 0.7188,1.53125 0,0.96875 -0.6563,1.625 -0.6562,0.625 -1.625,0.625 z"
       id="path1610" /><path
       d="m 1224.6055,379.21469 q 0,9.03125 -3.9375,13.21875 -3.9375,4.1875 -12.25,4.1875 -4.625,0 -9.5313,-2.4375 v -3 q 5.0625,2.8125 9.5938,2.8125 13.25,0 13.25,-14 v -4.15625 h -0.125 q -3.7813,6.53125 -11.5313,6.53125 -5.9062,0 -9.6562,-4.28125 -3.7188,-4.28125 -3.7188,-11.9375 0,-7.65625 4.0313,-12.5 4.0312,-4.84375 10.625,-4.84375 7.0625,0 10.25,5.84375 h 0.125 v -5.0625 h 2.875 z m -2.875,-17.34375 q 0,-4.25 -2.875,-7.34375 -2.8438,-3.09375 -7.4375,-3.09375 -5.2813,0 -8.5,3.96875 -3.2188,3.96875 -3.2188,10.5 0,6.5625 2.9375,10.21875 2.9688,3.625 7.8125,3.625 5.1563,0 8.2188,-3.34375 3.0625,-3.34375 3.0625,-8.1875 z m -1.4063,-24.75 q -0.5,3.375 -2.8125,5.375 -2.2812,1.96875 -5.6875,1.96875 -3.4375,0 -5.7187,-1.9375 -2.25,-1.9375 -2.5313,-5.40625 h 2.625 q 0.1875,2.34375 1.7188,3.65625 1.5625,1.3125 3.9687,1.3125 2.125,0 3.75,-1.34375 1.6563,-1.375 1.9375,-3.625 z"
       id="path1612" /><path
       d="m 1255.9805,381.58969 v -5.8125 h -0.125 q -3.3438,6.59375 -10.3125,6.59375 -11.3438,0 -11.3438,-14.28125 v -18.5 h 2.9063 v 17.78125 q 0,6.5 2.125,9.4375 2.1562,2.9375 6.75,2.9375 4.4687,0 7.2187,-3.28125 2.7813,-3.28125 2.7813,-8.75 v -18.125 h 2.875 v 32 z m -3.2813,-37.125 q -0.8437,0 -1.5312,-0.59375 -0.6875,-0.625 -0.6875,-1.65625 0,-0.96875 0.6562,-1.5625 0.6875,-0.59375 1.5,-0.59375 0.9063,0 1.625,0.625 0.75,0.59375 0.75,1.53125 0,0.96875 -0.6875,1.625 -0.6562,0.625 -1.625,0.625 z m -10.4062,0 q -0.875,0 -1.5625,-0.59375 -0.6875,-0.625 -0.6875,-1.65625 0,-0.96875 0.6875,-1.5625 0.6875,-0.59375 1.5,-0.59375 0.9062,0 1.625,0.625 0.7187,0.59375 0.7187,1.53125 0,0.96875 -0.6562,1.625 -0.6563,0.625 -1.625,0.625 z"
       id="path1614" /></g><g
     id="g3381"
     transform="matrix(1.2545056,0,0,1.2545056,5.2576783,178.60169)"><g
       id="g2389"
       transform="matrix(0.95790517,0,0,0.95790517,5.3263954,7.2221077)"><path
         id="path2139"
         style="display:inline;fill:#800000;fill-opacity:1;fill-rule:evenodd;stroke:#ff0000;stroke-width:5;stroke-linecap:round;stroke-linejoin:miter;stroke-miterlimit:6;stroke-dasharray:none;stroke-opacity:1;filter:url(#filter2351)"
         d="m 64.832031,19.417969 c 0.732436,1.690235 1.745169,4.817224 3.041016,9.380859 1.746576,6.141187 2.621094,10.959973 2.621094,14.453125 0,6.084847 -0.649466,11.099087 -1.945313,15.042969 -1.915599,5.915823 -5.125519,8.873047 -9.632812,8.873047 -2.084624,0 -3.787543,-1.190487 -6.001954,-3.126953 0.845118,2.704376 2.226979,5.408905 4.142579,8.113281 1.97194,2.704377 3.689426,5.6616 5.154297,8.873047 1.46487,3.211447 2.197265,8.113161 2.197265,14.705078 0,10.254088 -1.747082,15.380858 -5.240234,15.380858 -1.577553,0 -2.927864,-0.98509 -4.054688,-2.95703 -0.9578,-1.6339 -1.522383,-3.18357 -1.691406,-4.64844 -1.352188,1.23951 -2.449804,3.09911 -3.294922,5.57813 -0.901458,2.47901 -1.353515,4.98613 -1.353515,7.52148 0,8.78923 3.099346,16.08553 9.296874,21.88867 3.943883,3.43681 7.043228,6.25387 9.296876,8.45118 6.071506,5.8692 9.730232,10.5497 12.759765,18 0.845118,2.1973 5.156559,7.60636 12.931641,16.22656 7.775076,8.56386 19.775696,13.41028 36.001956,14.53711 16.22625,1.12682 29.26919,-4.05718 39.1289,-15.55078 9.80337,-11.54995 14.50768,-23.60584 14.11328,-36.16993 -0.39012,-12.48412 -2.80016,-23.44846 -7.21484,-32.90039 -1.58876,-4.57858 -3.36506,-9.4864 -5.03911,-14.173864 -2.76072,-8.282153 -5.10002,-14.395962 -7.01563,-18.339844 -6.19752,-12.958469 -14.50657,-20.760169 -24.92968,-23.408203 2.19417,1.667968 3.38082,2.732212 5.57812,6 2.47901,3.718517 3.7168,6.958033 3.7168,9.71875 0,1.577552 -0.56264,2.760051 -1.68946,3.548828 -0.95779,0.676094 -2.19753,1.013672 -3.71875,1.013672 -1.35219,0 -3.32432,-1.097616 -5.91601,-3.294922 -1.69024,-1.46487 -2.84509,-2.619726 -3.46484,-3.464844 l -0.3379,-0.421875 C 119.36936,50.914497 108.01625,40.546486 98.212891,37.166016 88.296845,33.785545 82.577852,31.560717 81.056641,30.490234 l -8.365235,-6.085937 z m 36.845699,41.242187 c 4.16925,0 8.90315,3.746859 14.19922,11.240235 5.0707,7.098987 7.60547,12.902862 7.60547,17.410156 0,3.662176 -1.12721,6.169296 -3.38086,7.521484 -1.63389,0.9578 -4.22589,1.435547 -7.77539,1.435547 -5.57777,0 -11.43693,-2.674932 -17.578123,-8.027344 -7.042646,-6.141187 -10.564453,-13.212444 -10.564453,-21.21289 0,-1.802918 0.564583,-3.465117 1.691406,-4.986328 1.126824,-1.521212 2.366562,-2.28125 3.71875,-2.28125 3.012777,0.07941 6.000799,1.090261 7.943359,2.365234 1.172437,0.769513 3.517311,2.308539 3.517311,2.308539 0,0 -0.51332,-1.078632 -0.72825,-1.632758 -0.32159,-0.829122 -0.507811,-1.818295 -0.507811,-2.61914 0,-1.014141 0.619871,-1.521485 1.859371,-1.521485 z M 72.183594,80.775391 c 1.239506,0 2.704296,0.844921 4.394531,2.535156 l 0.253906,0.421875 c 1.746577,2.366329 3.381133,5.465675 4.902344,9.296875 1.521212,3.831199 2.28125,6.731181 2.28125,8.703123 0,1.74657 -0.140169,2.93103 -0.421875,3.55078 -0.338047,0.6761 -1.042799,1.01367 -2.113281,1.01368 -3.155106,0 -5.972161,-3.15464 -8.451172,-9.464849 -1.971941,-5.127047 -2.958985,-9.438488 -2.958985,-12.93164 0,-2.084624 0.704752,-3.125 2.113282,-3.125 z"
         sodipodi:nodetypes="ccscsccssscccsccccscccccccscscccccccscscscsscscssssccsscccss" /><path
         id="path709"
         style="display:inline;fill:url(#radialGradient715);fill-rule:evenodd;stroke:#ff9900;stroke-width:1.69;stroke-linecap:butt;stroke-miterlimit:6;stroke-dasharray:none;stroke-opacity:1"
         d="m 64.832031,19.417969 c 0.732436,1.690235 1.745169,4.817224 3.041016,9.380859 1.746576,6.141187 2.621094,10.959973 2.621094,14.453125 0,6.084847 -0.649466,11.099087 -1.945313,15.042969 -1.915599,5.915823 -5.125519,8.873047 -9.632812,8.873047 -2.084624,0 -3.787543,-1.190487 -6.001954,-3.126953 0.845118,2.704376 2.226979,5.408905 4.142579,8.113281 1.97194,2.704377 3.689426,5.6616 5.154297,8.873047 1.46487,3.211447 2.197265,8.113161 2.197265,14.705078 0,10.254088 -1.747082,15.380858 -5.240234,15.380858 -1.577553,0 -2.927864,-0.98509 -4.054688,-2.95703 -0.9578,-1.6339 -1.522383,-3.18357 -1.691406,-4.64844 -1.352188,1.23951 -2.449804,3.09911 -3.294922,5.57813 -0.901458,2.47901 -1.353515,4.98613 -1.353515,7.52148 0,8.78923 3.099346,16.08553 9.296874,21.88867 3.943883,3.43681 7.043228,6.25387 9.296876,8.45118 6.071506,5.8692 9.730232,10.5497 12.759765,18 0.845118,2.1973 5.156559,7.60636 12.931641,16.22656 7.775076,8.56386 19.775696,13.41028 36.001956,14.53711 16.22625,1.12682 29.26919,-4.05718 39.1289,-15.55078 9.80337,-11.54995 14.50768,-23.60584 14.11328,-36.16993 -0.39012,-12.48412 -2.80016,-23.44846 -7.21484,-32.90039 -1.58876,-4.57858 -3.36506,-9.4864 -5.03911,-14.173864 -2.76072,-8.282153 -5.10002,-14.395962 -7.01563,-18.339844 -6.19752,-12.958469 -14.50657,-20.760169 -24.92968,-23.408203 2.19417,1.667968 3.38082,2.732212 5.57812,6 2.47901,3.718517 3.7168,6.958033 3.7168,9.71875 0,1.577552 -0.56264,2.760051 -1.68946,3.548828 -0.95779,0.676094 -2.19753,1.013672 -3.71875,1.013672 -1.35219,0 -3.32432,-1.097616 -5.91601,-3.294922 -1.69024,-1.46487 -2.84509,-2.619726 -3.46484,-3.464844 l -0.3379,-0.421875 C 119.36936,50.914497 108.01625,40.546486 98.212891,37.166016 88.296845,33.785545 82.577852,31.560717 81.056641,30.490234 l -8.365235,-6.085937 z m 36.845699,41.242187 c 4.16925,0 8.90315,3.746859 14.19922,11.240235 5.0707,7.098987 7.60547,12.902862 7.60547,17.410156 0,3.662176 -1.12721,6.169296 -3.38086,7.521484 -1.63389,0.9578 -4.22589,1.435547 -7.77539,1.435547 -5.57777,0 -11.43693,-2.674932 -17.578123,-8.027344 -7.042646,-6.141187 -10.564453,-13.212444 -10.564453,-21.21289 0,-1.802918 0.564583,-3.465117 1.691406,-4.986328 1.126824,-1.521212 2.366562,-2.28125 3.71875,-2.28125 3.012777,0.07941 6.000799,1.090261 7.943359,2.365234 1.172437,0.769513 3.517311,2.308539 3.517311,2.308539 0,0 -0.51332,-1.078632 -0.72825,-1.632758 -0.32159,-0.829122 -0.507811,-1.818295 -0.507811,-2.61914 0,-1.014141 0.619871,-1.521485 1.859371,-1.521485 z M 72.183594,80.775391 c 1.239506,0 2.704296,0.844921 4.394531,2.535156 l 0.253906,0.421875 c 1.746577,2.366329 3.381133,5.465675 4.902344,9.296875 1.521212,3.831199 2.28125,6.731181 2.28125,8.703123 0,1.74657 -0.140169,2.93103 -0.421875,3.55078 -0.338047,0.6761 -1.042799,1.01367 -2.113281,1.01368 -3.155106,0 -5.972161,-3.15464 -8.451172,-9.464849 -1.971941,-5.127047 -2.958985,-9.438488 -2.958985,-12.93164 0,-2.084624 0.704752,-3.125 2.113282,-3.125 z"
         sodipodi:nodetypes="ccscsccssscccsccccscccccccscscccccccscscscsscscssssccsscccss" /></g><g
       id="g2393"
       transform="matrix(0.95790517,0,0,0.95790517,5.3263954,7.2221077)"><path
         d="m 183.12587,131.61679 -3.67558,5.33659 q 0.84258,2.99429 1.01754,5.78339 0.43225,6.89072 -1.15976,11.52012 -1.87178,5.38815 -7.30485,11.41147 l 2.00801,0.69759 -0.61616,0.61514 -1.77807,0.3586 q -1.30436,0.0818 -5.28517,-2.05677 l -4.69473,-3.08206 -0.76973,-0.52821 -0.0815,0.005 -0.82038,-0.0309 -0.17334,-0.15383 -0.25486,-0.14873 -0.20935,-0.72806 q -0.15438,-2.46097 10.55818,-15.65095 9.95394,-12.23648 12.53613,-14.12792 l 0.49943,0.13338 0.20421,0.64603 m -33.41684,30.92053 -0.38189,0.43573 0.3827,0.8819 q 0.1132,1.80471 -10.76212,7.18116 -11.51207,5.66345 -18.68608,6.11347 l -4.65791,-1.19021 11.09145,-1.93108 q -11.56677,-0.4274 -17.35108,-10.44131 -3.67259,-6.35804 -4.11513,-13.41282 -0.36535,-5.8243 1.63427,-10.47927 1.98418,-4.90107 7.13232,-10.24767 l -2.17186,-2.005 2.63527,1.56415 0.22913,-0.26144 0.44364,0.54866 -0.0712,0.16918 q 10.81653,6.73346 20.64611,15.99948 9.91625,9.34294 17.3619,19.74676 l -0.21884,0.4255 -3.14065,-3.09719"
         id="path2137"
         inkscape:connector-curvature="0"
         style="display:inline;fill:#800000;fill-opacity:1;fill-rule:evenodd;stroke:#ff0200;stroke-width:5;stroke-linecap:round;stroke-linejoin:round;stroke-dasharray:none;stroke-opacity:1;filter:url(#filter2359)" /><path
         d="m 183.12587,131.61679 -3.67558,5.33659 q 0.84258,2.99429 1.01754,5.78339 0.43225,6.89072 -1.15976,11.52012 -1.87178,5.38815 -7.30485,11.41147 l 2.00801,0.69759 -0.61616,0.61514 -1.77807,0.3586 q -1.30436,0.0818 -5.28517,-2.05677 l -4.69473,-3.08206 -0.76973,-0.52821 -0.0815,0.005 -0.82038,-0.0309 -0.17334,-0.15383 -0.25486,-0.14873 -0.20935,-0.72806 q -0.15438,-2.46097 10.55818,-15.65095 9.95394,-12.23648 12.53613,-14.12792 l 0.49943,0.13338 0.20421,0.64603 m -33.41684,30.92053 -0.38189,0.43573 0.3827,0.8819 q 0.1132,1.80471 -10.76212,7.18116 -11.51207,5.66345 -18.68608,6.11347 l -4.65791,-1.19021 11.09145,-1.93108 q -11.56677,-0.4274 -17.35108,-10.44131 -3.67259,-6.35804 -4.11513,-13.41282 -0.36535,-5.8243 1.63427,-10.47927 1.98418,-4.90107 7.13232,-10.24767 l -2.17186,-2.005 2.63527,1.56415 0.22913,-0.26144 0.44364,0.54866 -0.0712,0.16918 q 10.81653,6.73346 20.64611,15.99948 9.91625,9.34294 17.3619,19.74676 l -0.21884,0.4255 -3.14065,-3.09719"
         id="path697"
         inkscape:connector-curvature="0"
         style="display:inline;fill:#ffffff;fill-rule:evenodd;stroke-width:1.63876" /></g></g></svg>
