<svg id="SVGRoot" version="1.1" viewBox="0 0 176.7836 237.4316" xmlns="http://www.w3.org/2000/svg" xmlns:xlink="http://www.w3.org/1999/xlink"><defs><g id="shape0-9" transform="translate(24.7,-13.75)"><path d="m33.8 18.65q4 8.45 4.35 19.65.35 11.15-8.35 21.4-8.75 10.2-23.15 9.2t-21.3-8.6q-6.9-7.65-7.65-9.6-.8-2-1.9-3.3l1.1.9-.05-.35v-1.95q0-6.4 3.2-11.05 2.95-4.35 11.95-11.6 4.5-3.6 6.85-5 4.45-2.65 9.3-3.35 17.5-2.65 23.4.25l1.35 1.8.05.05.5.85q.25.6 0 .85l.35-.15" fill="url(#gradient0-3)" fill-rule="evenodd"/><path d="m33.45 17.95.35.7q4 8.45 4.35 19.65.35 11.15-8.35 21.4-8.75 10.2-23.15 9.2t-21.3-8.6q-6.9-7.65-7.65-9.6-.8-2-1.9-3.3m57.15-30.3.5.85z" fill="none" stroke="#f90" stroke-linecap="round" stroke-linejoin="round"/></g><radialGradient id="gradient0-3" cx="0" cy="0" r="819.2" fx="6.4" gradientTransform="matrix(.0477 .0824 -.0842 .0487 15.55 45.45)" gradientUnits="userSpaceOnUse"><stop stop-color="#0a0101" offset=".3019608"/><stop stop-color="#4d0101" offset=".5490196"/><stop stop-color="#c10000" offset=".7490196"/><stop stop-color="#fca921" offset="1"/></radialGradient><g id="shape1-8" transform="translate(41.35,35.9)"><path d="m-23 48.9-.6-1.3q-2.65-4.1-6.25-7.55-2-1.95-5.5-5-5.5-5.15-5.5-12.95 0-2.25.8-4.45.75-2.2 1.95-3.3.15 1.3 1 2.75 1 1.75 2.4 1.75 3.1 0 3.1-9.1 0-5.85-1.3-8.7t-3.05-5.25q-1.7-2.4-2.45-4.8 1.7 1.85 3.55 1.85 4 0 5.7-5.25 1.15-3.5 1.15-8.9 0-3.1-1.55-8.55-1.15-4.05-1.8-5.55l4.65 2.95 4.95 3.6q1.35.95 10.15 3.95 8.7 3 20.15 18.4l.2.25q.55.75 2.05 2.05 2.3 1.95 3.5 1.95 1.35 0 2.2-.6 1-.7 1-2.1 0-2.45-2.2-5.75-1.95-2.9-3.3-3.55 9.25 2.35 14.75 13.85 1.7 3.5 4.15 10.85l3 8.4q-2.85-2.2-6-2-20.2-.7-36.1 11.25-6.3 4.75-10.1 10.25-3.45 5-3.55 8.6l-1.15 1.95m-1.4-46.5q-1.5-1.5-2.6-1.5-1.25 0-1.25 1.85 0 3.1 1.75 7.65 2.2 5.6 5 5.6.95 0 1.25-.6.25-.55.25-2.1 0-1.75-1.35-5.15t-2.9-5.5l-.15-.25m8.85-12.65-1.15-.1q-1.2 0-2.2 1.35t-1 2.95q0 7.1 6.25 12.55 5.45 4.75 10.4 4.75 3.15 0 4.6-.85 2-1.2 2-4.45 0-4-4.5-10.3-4.7-6.65-8.4-6.65-1.1 0-1.1.9l.3 1.55.55.9-2.2-1.3q-2.3-1.3-3.55-1.3" fill="url(#gradient0-3)" fill-rule="evenodd"/><path d="m-23 48.9-.6-1.3q-2.65-4.1-6.25-7.55-2-1.95-5.5-5-5.5-5.15-5.5-12.95 0-2.25.8-4.45.75-2.2 1.95-3.3.15 1.3 1 2.75 1 1.75 2.4 1.75 3.1 0 3.1-9.1 0-5.85-1.3-8.7t-3.05-5.25q-1.7-2.4-2.45-4.8 1.7 1.85 3.55 1.85 4 0 5.7-5.25 1.15-3.5 1.15-8.9 0-3.1-1.55-8.55-1.15-4.05-1.8-5.55l4.65 2.95 4.95 3.6q1.35.95 10.15 3.95 8.7 3 20.15 18.4l.2.25q.55.75 2.05 2.05 2.3 1.95 3.5 1.95 1.35 0 2.2-.6 1-.7 1-2.1 0-2.45-2.2-5.75-1.95-2.9-3.3-3.55 9.25 2.35 14.75 13.85 1.7 3.5 4.15 10.85l3 8.4m-49.45-29.1q1.25 0 3.55 1.3l2.2 1.3-.55-.9-.3-1.55q0-.9 1.1-.9 3.7 0 8.4 6.65 4.5 6.3 4.5 10.3 0 3.25-2 4.45-1.45.85-4.6.85-4.95 0-10.4-4.75-6.25-5.45-6.25-12.55 0-1.6 1-2.95t2.2-1.35l1.15.1m-8.7 12.9q1.55 2.1 2.9 5.5t1.35 5.15q0 1.55-.25 2.1-.3.6-1.25.6-2.8 0-5-5.6-1.75-4.55-1.75-7.65 0-1.85 1.25-1.85 1.1 0 2.6 1.5" fill="none" stroke="#f90" stroke-linecap="round" stroke-linejoin="round"/></g><g id="shape0-87" transform="translate(22.35,15.15)"><path d="m25.95-9.9-2.45 3.1q.4 1.85.4 3.55 0 4.2-1.15 6.95-1.35 3.2-4.9 6.65l1.2.5-.4.35-1.1.15q-.8 0-3.15-1.45l-2.75-2.05-.45-.35h-.05l-.5-.05-.1-.1-.15-.1-.1-.45q0-1.5 7.05-9.1 6.55-7.05 8.2-8.1l.3.1.1.4m-21.6 17.5-.25.25.2.55q0 1.1-6.85 3.95-7.25 3-11.65 3l-2.8-.9 6.85-.75q-7.05-.7-10.2-7-2-4-2-8.3 0-3.55 1.4-6.3 1.4-2.9 4.75-5.95l-1.25-1.3 1.55 1.05.15-.15.25.35-.05.1q6.35 4.5 12 10.5 5.7 6.05 9.85 12.65l-.15.25-1.8-2" fill="#fff" fill-rule="evenodd"/></g><g id="shape0-76" transform="translate(11.05,17.3)"><path d="m-7.2-12.5 2.25-1.5.95-.55h.05l.25-.15.05-.05.15-.05q3.3-1.95 5.95-2v.05q.3 1.2 1.35 2.45l1.3 1.35 3.8-1.5 2.7 1.75q2.7 1.95 3.55 3.35 0 1.15-1.35 3l-2 2.55 2.45 2.25 1.85 2.05.15.55q-.2 1.65-1.7 3.5-1.4 1.65-2.95 2.4l-.25-.1v.2l.2-.05q.25.65 1.2 1.15l1.15.9v.55q-5.25 7.3-13.25 7.25.2-1.1-1.15-2.1-6.15-2.8-9-4.75l-.25-.2q.7-.2-.6-2.85-1.3-2.7-.1-8.65.4-1.95.85-6.05.6-3.4 2.4-4.75m11.45 9.55q-.95-1.1-1.45-2.35-.35-.8-.35-1.15 0 .35.35 1.15.5 1.25 1.45 2.35m-2-4q0-.5.5-1.8l.6-1.4-.6 1.4q-.5 1.3-.5 1.8m3.3-5.5-.45-.45v-.05.05l.45.45m-1.45 25.65.35-.8.2-.8-.2.8-.35.8m.35-6.3-1.65-2.9.6-1.95.5-1.7-.5 1.7-.6 1.95 1.65 2.9" fill="url(#gradient0-164)" fill-rule="evenodd"/><path d="m-7.2-12.5 2.25-1.5.95-.55h.05l.25-.15.05-.05.15-.05q3.3-1.95 5.95-2v.05q.3 1.2 1.35 2.45l1.3 1.35 3.8-1.5 2.7 1.75q2.7 1.95 3.55 3.35 0 1.15-1.35 3l-2 2.55 2.45 2.25 1.85 2.05.15.55q-.2 1.65-1.7 3.5-1.4 1.65-2.95 2.4l-.05.05q.25.65 1.2 1.15l1.15.9v.55q-5.25 7.3-13.25 7.25.2-1.1-1.15-2.1-6.15-2.8-9-4.75l-.25-.2m14.85-22.75v.05l.45.45m-2.2 2.3-.6 1.4q-.5 1.3-.5 1.8m.2.5q0 .35.35 1.15.5 1.25 1.45 2.35m7.3 9.95-.2.05v-.2l.25.1m-7.7-6.6-.5 1.7-.6 1.95 1.65 2.9m.2 4.7-.2.8-.35.8" fill="none" stroke="#f90" stroke-linecap="round" stroke-linejoin="round"/></g><radialGradient id="gradient0-164" cx="0" cy="0" r="819.2" gradientTransform="matrix(.0456 0 0 .0456 -29.6 1.95)" gradientUnits="userSpaceOnUse"><stop stop-color="#facd1b" offset="0"/><stop stop-color="#cf4104" offset=".3058824"/><stop offset=".8509804"/></radialGradient><g id="shape1-56" transform="translate(26.05,12.2)"><path d="m-7.65-11.65h-.05l.05-.05v.05" fill-rule="evenodd"/><path d="m-7.7-11.65h.05l-1.2 22.2-8.05-2.7q-6.05-2.4-8.65-4.4 8.5 1.2 12.05-3.3 3.5-4.5 1.95-7.1-1.55-2.65-4.45-4.65 5.15 1.2 8.1-.1l.2.05" fill="url(#gradient0-164)" fill-rule="evenodd"/><path d="m-7.7-11.65-.2-.05q-2.95 1.3-8.1.1 2.9 2 4.45 4.65 1.55 2.6-1.95 7.1-3.55 4.5-12.05 3.3 2.6 2 8.65 4.4l8.05 2.7" fill="none" stroke="#f90" stroke-linecap="round" stroke-linejoin="round"/></g><g id="shape0-73" transform="translate(26.1,15.45)"><path d="m10.9-7.5.2.1-.25-.05-.1-.05q-.6-.35.15 0" fill="url(#gradient0-08)" fill-rule="evenodd"/><path d="m12.2-3.4q-.55 1.35-1.15 1.15l1.4 2.75q-.85-.7-4.3-2.15l-.5-.2.5.2q3.45 1.45 4.3 2.15l-1.4-2.75q.6.2 1.15-1.15m-1.1-4 3.15 1.55 2.05.75q2.15 1.05 3.55 2.55 1.45 1.5 2.1 3.25l1.05 2.25q.65 1.6 2.15 3.1 1.45 1.45-1.9.55l-6.5-.3q.45 2.15 2.25 4 1.85 1.85-3.2 1.05l-6.45-.55q-1.45.25-4.35-1.1.55 2.5 1.9 4.3 1.35 1.75-4.55.4l-8.3-1.75q-2.4-.45-3.7-1.6l-2-2 .2-.95-.15-.05-.45-.25-.7-.25-.2-.35q-2.45.5-7.65-1.75-5-2.15-5-3 0-3.7 3.35-7.9l3.35-3.55q6.35-5.95 10.25-5.95 4.6 0 13.15 4.3l6.25 3.15.1.05.25.05m-16.35 8.35-.9.85q-1.1 1.45-1.7 3 .6-1.55 1.7-3l.9-.85m9.85 7.1q-.25-.2.4 1.65-.65-1.85-.4-1.65m-.6-2.05q-.3-1.05-.8-1.55l-2.9-2.9 2.9 2.9q-.05-.65.25-1.55.75-2.4 1.15-2.45-.4.05-1.15 2.45-.3.9-.25 1.55.5.5.8 1.55m12.75.3-.05-.2-.5-.9-.55-.95-1.1-1.55-2.1-2.2 2.1 2.2 1.1 1.55.55.95.5.9.05.2m-2.75-11.6.25-.05 1.8.25h.25-.25l-1.8-.25-.25.05" fill="url(#gradient1-28)" fill-rule="evenodd"/><path d="m7.65-1.85.5.2q3.45 1.45 4.3 2.15l-1.4-2.75q.6.2 1.15-1.15m-1.3-4.1.2.1 3.15 1.55 2.05.75q2.15 1.05 3.55 2.55 1.45 1.5 2.1 3.25l1.05 2.25q.65 1.6 2.15 3.1 1.45 1.45-1.9.55l-6.5-.3q.45 2.15 2.25 4 1.85 1.85-3.2 1.05l-6.45-.55q-1.45.25-4.35-1.1.55 2.5 1.9 4.3 1.35 1.75-4.55.4l-8.3-1.75q-2.4-.45-3.7-1.6l-2-2-.35-.45-.75-1.05-.2-.35q-2.45.5-7.65-1.75-5-2.15-5-3 0-3.7 3.35-7.9l3.35-3.55q6.35-5.95 10.25-5.95 4.6 0 13.15 4.3l6.25 3.15m.35.1-.25-.05-.1-.05m5.55 2.4h-.25l-1.8-.25-.25.05m-1.55 5.8 2.1 2.2 1.1 1.55.55.95.5.9.05.2m-16.45-4.75 2.9 2.9q-.05-.65.25-1.55.75-2.4 1.15-2.45m-1.4 4q.5.5.8 1.55m1 3.7q-.65-1.85-.4-1.65m-12.45-3.25q.6-1.55 1.7-3l.9-.85" fill="none" stroke="#f90" stroke-linecap="round" stroke-linejoin="round"/></g><radialGradient id="gradient0-08" cx="0" cy="0" r="819.2" gradientTransform="matrix(.0377 0 0 .0377 -15.45 -15.55)" gradientUnits="userSpaceOnUse"><stop stop-color="#facd1b" offset="0"/><stop stop-color="#cf4104" offset=".5764706"/><stop offset="1"/></radialGradient><radialGradient id="gradient1-28" cx="0" cy="0" r="819.2" gradientTransform="matrix(.0456 0 0 .0456 -16.55 -26.35)" gradientUnits="userSpaceOnUse"><stop stop-color="#facd1b" offset="0"/><stop stop-color="#cf4104" offset=".3058824"/><stop offset=".8509804"/></radialGradient><g id="shape1-90" transform="translate(30.8,27)"><path d="m-26.6-17.55q.35 1.2-.1 1.8l-.2.15-.05.1q-.15-1.3-1.3-2.4l-2.05-1.95.15-.2q1.65.25 2.6.95.65.5.95 1.55" fill="url(#gradient0-08)" fill-rule="evenodd"/><path d="m-16.95-26.4.1-.1 4 .8q2.6 1 4.2 2.45 2.05 1.8 2.8 4.8.75 3.1 2.65 4.8l.85.65.85.35.05.75-23.15 11.75q.7-2.55-1.85-4.9-.8-.9-.75-2.55l.25-3.1q.6 1.4 4.05 1.15 3.4-.25 7.75-3 4.3-2.75 2.5-7.2-1.85-4.5-4.3-6.65" fill="url(#gradient1-28)" fill-rule="evenodd"/><path d="m-16.95-26.4q2.45 2.15 4.3 6.65 1.8 4.45-2.5 7.2-4.35 2.75-7.75 3-3.45.25-4.05-1.15l-.25 3.1q-.05 1.65.75 2.55 2.55 2.35 1.85 4.9m23.1-12.5-.85-.35-.85-.65q-1.9-1.7-2.65-4.8-.75-3-2.8-4.8-1.6-1.45-4.2-2.45l-4-.8h-.35l.25.1m-9.65 8.85q.35 1.2-.1 1.8l-.2.15-.05.1q-.15-1.3-1.3-2.4l-2.05-1.95.15-.2q1.65.25 2.6.95.65.5.95 1.55" fill="none" stroke="#f90" stroke-linecap="round" stroke-linejoin="round"/></g><filter id="filter7667" x="-.1167596" y="-.09417367" width="1.233519" height="1.188347" color-interpolation-filters="sRGB"><feGaussianBlur stdDeviation="2.4423068"/></filter><filter id="filter7671" x="-.24431" y="-.1575791" width="1.48862" height="1.315158" color-interpolation-filters="sRGB"><feGaussianBlur stdDeviation="2.4423068"/></filter><filter id="filter7675" x="-.1196023" y="-.1188233" width="1.239205" height="1.237647" color-interpolation-filters="sRGB"><feGaussianBlur stdDeviation="2.4423068"/></filter><filter id="filter7679" x="-.9748079" y="-.9326171" width="2.949616" height="2.865234" color-interpolation-filters="sRGB"><feGaussianBlur stdDeviation="2.4423068"/></filter><filter id="filter7683" x="-.0820121" y="-.1156659" width="1.164024" height="1.231332" color-interpolation-filters="sRGB"><feGaussianBlur stdDeviation="2.4423068"/></filter><filter id="filter7687" x="-.04207444" y="-.0319288" width="1.084149" height="1.063858" color-interpolation-filters="sRGB"><feGaussianBlur stdDeviation="2.4423068"/></filter><filter id="filter7691" x="-.9620552" y="-.9787818" width="2.92411" height="2.957564" color-interpolation-filters="sRGB"><feGaussianBlur stdDeviation="2.4423068"/></filter><filter id="filter7695" x="-.08182607" y="-.1209657" width="1.163652" height="1.241931" color-interpolation-filters="sRGB"><feGaussianBlur stdDeviation="2.4423068"/></filter></defs><g transform="translate(-199.6065 -52.53399)" fill="#800000" fill-rule="evenodd" stroke="#ff2000" stroke-width="5"><path d="m333.4095 280.4567c-8.45703-1.23749-9.26994-1.53038-12.5513-4.52234l-2.25889-2.05968-2.76989-.17172c-2.11752-.13128-3.86595-.53646-7.42375-1.72035-5.71771-1.90264-6.70555-2.5048-6.84442-4.17209-.0559-.67141.12729-2.00833.40713-2.97095.27984-.96261.5088-1.91212.5088-2.11002 0-.19791-.80611-1.23667-1.79135-2.30837l-1.79135-1.94854v-2.9149c0-1.61053.14715-3.00586.32884-3.11815.18087-.11178.71361.0994 1.18388.46933 3.11627 2.45127 15.55979-2.42931 17.37657-6.81541 1.02098-2.46487-.93395-6.84134-4.77957-10.69994-1.13236-1.13618-2.05883-2.14712-2.05883-2.24653 0-.38222 5.5632.27038 7.55853.88667 2.51212.77592 5.71687 2.77659 6.8706 4.28921.46007.60318 1.44145 2.41442 2.18084 4.02496 1.33709 2.91246 2.66868 4.71961 3.4776 4.71961.85785 0 6.97461 2.09872 13.94805 4.78571 3.94097 1.51852 8.68278 3.26912 10.53736 3.89021 5.56839 1.86482 7.53483 3.42368 10.36293 8.21502.98972 1.67678 2.46323 3.68467 3.27446 4.46196 2.30614 2.20967 1.94801 2.4806-2.93397 2.21961-4.07187-.21768-7.07284.007-7.07284.53066 0 .15795.80611 1.15787 1.79135 2.22205s1.79135 2.16488 1.79135 2.446c0 .30141-.43435.62742-1.05853.79452-1.15132.30823-15.45882-.0586-16.96745-.43504l-.92675-.23124.5679 1.10243c.31234.60634.92466 1.57181 1.36072 2.14549.43606.57369.74246 1.30651.68089 1.6285-.1866.97581-4.55759.84559-12.97891-.38667zm-12.65272-6.44299c-.32167-.31927-.35908-.28186-.18233.18233.12231.32121.30443.50198.40471.4017s.00021-.36309-.22238-.58403z" filter="url(#filter7695)"/><path d="m298.3984 246.609c-.28966-.61041-1.40288-1.79824-2.47383-2.63962-1.07095-.84139-1.88794-1.69769-1.81554-1.90289.21495-.60923 3.03212-.34054 4.23698.40411 1.24622.7702 1.85128 1.88374 1.85128 3.40707 0 .99454-.47223 1.84116-1.02696 1.84116-.1349 0-.48227-.49942-.77193-1.10983z" filter="url(#filter7691)"/></g><g transform="matrix(1.322853 -.06597302 .05936013 1.190255 136.2056 211.2175)"><use transform="translate(-26.1,-15.45)" width="52.200001" height="30.950001" xlink:href="#shape0-73"/><use transform="translate(-30.8,-27)" width="29.799999" height="27.35" xlink:href="#shape1-90"/></g><path d="m84.94648 189.0416c-12.65702-1.58176-22.38607-5.34669-29.71256-11.49813-2.27103-1.90679-9.42993-9.90979-13.25316-14.81582-1.38087-1.77197-3.17701-4.5567-3.99141-6.1883-.81441-1.63159-1.83139-3.43309-2.25997-4.00333-.42858-.57023-.77924-1.33068-.77924-1.68987 0-1.74173-8.18225-10.70348-17.85532-19.55634-2.02806-1.8561-4.42224-4.34372-5.32042-5.52805-5.5046-7.25835-7.39232-17.81238-4.70063-26.28065.45998-1.44713 1.40642-3.51319 2.10322-4.59126 1.75478-2.715 2.66477-2.96093 3.07898-.83213.32604 1.67569 1.88988 4.61085 2.91724 5.47531.99067.833599 2.44804 1.020839 3.51229.45127.85207-.45601 1.82544-2.45081 2.49441-5.11193.81321-3.23496.81046-15.7265-.004-19.63035-.72765-3.486346-3.03371-8.342685-6.33664-13.34436-1.36377-2.06518-2.96612-4.807865-3.56078-6.094852-1.77775-3.847461-1.37751-4.775432 1.18578-2.749273 2.06901 1.635468 3.55483 2.129239 5.65772 1.880183 6.46232-.765369 10.26121-9.839666 9.90556-23.66116-.11152-4.334172-.30897-6.114047-1.02039-9.198354-.92887-4.027039-3.03799-11.30215-4.10022-14.14307-.51378-1.374124-.55082-1.747305-.20215-2.036681.50549-.419521 6.47185 3.219921 12.7342 7.76778 2.14962 1.561102 4.37126 3.157866 4.93699 3.548364 1.28934.889986 6.4925 2.98405 13.46504 5.419148 5.94118 2.074904 9.400315 3.674651 12.65822 5.854048 7.37233 4.931786 15.51049 13.17137 24.70399 25.01191 3.94667 5.083017 5.58802 6.737976 8.69338 8.76544 2.356405 1.538489 4.317325 1.703224 6.089625.511587 2.19951-1.478879 2.21245-4.634906.0375-9.144669-1.58929-3.295417-4.86548-7.742925-6.574395-8.924902-1.34899-.933042-1.64105-1.60003-.83591-1.908992.72348-.277626 5.233295 1.341779 8.061495 2.894758 8.24907 4.52962 15.17743 13.0967 20.21254 24.9933 1.55414 3.672005 1.98781 4.849442 7.1997 19.54729 1.87492 5.287395 4.06817 11.22327 4.8739 13.19083 4.21228 10.28634 6.23196 20.97673 6.21382 32.89038-.008 5.45973-.1256 7.04891-.72471 9.81912-2.40412 11.11624-8.74797 22.27732-17.37438 30.56765-6.76285 6.49938-13.96188 10.21359-23.40273 12.07422-3.880305.76474-13.64088.90541-18.72628.26988zm-43.16812-94.23619c.56371-1.0533.38399-4.861178-.35358-7.491721-1.64511-5.867308-5.57459-13.44863-7.94829-15.33501-2.65107-2.106805-3.85413-1.708898-3.99896 1.32264-.32794 6.864259 4.87225 19.65733 8.77119 21.57814 1.52443.75101 3.10584.71784 3.52964-.074zm35.99498-8.201366c3.04513-.809074 4.49519-2.550515 5.07132-6.090399.78477-4.821819-1.74431-11.1643-7.91096-19.83926-2.62375-3.690966-7.40382-8.481143-9.64675-9.667149-1.1976-.633258-2.26986-.935739-3.41985-.964723l-1.675235-.04222.10222 1.275127c.0562.70132.397875 1.854635.759215 2.562925 1.00381 1.96763.38768 2.26743-1.928175.938217-4.64458-2.665813-6.66011-3.460478-9.09378-3.585417-2.87268-.14748-3.86098.421358-5.11934 2.946567-1.46985 2.949595-1.06546 8.47983.97772 13.37081 3.59999 8.61769 14.7506 17.90885 23.33462 19.44342 1.97143.352433 6.62607.163019 8.54899-.34789z" fill="#800000" fill-rule="evenodd" filter="url(#filter7687)" stroke="#ff2000" stroke-width="5"/><g transform="translate(-101.9022 -55.18888)" fill="#800000" fill-rule="evenodd" stroke="#ff2000" stroke-width="5"><path d="m159.0065 285.188c-4.82308-.92402-8.77153-1.85612-9.68552-2.28642-.84867-.39956-2.55902-1.71855-3.80078-2.93109l-2.25774-2.20464-2.67369-.39094c-3.90536-.57104-12.0617-3.61592-13.72981-5.12553-.77063-.69742-.74653-2.25051.0727-4.68226.7416-2.20142.66755-2.48953-1.15976-4.51214-.6047-.66933-1.25638-1.62972-1.44818-2.13421-.39589-1.04126-.0932-5.61734.39135-5.91682.16723-.10336.66938.15528 1.11588.57474 1.71998 1.61584 7.68937.74905 12.89487-1.8724 4.12243-2.07602 5.77057-4.24878 5.327-7.02267-.40735-2.54745-3.21141-7.12619-5.68304-9.27984-.9755-.84999-1.09008-1.06998-.64781-1.24368 1.02447-.40237 6.54415.83414 8.96073 2.00738 3.882 1.88469 5.60298 3.96544 7.41284 8.96252 1.1244 3.10448 1.63682 3.55042 5.76217 5.01468 2.06692.73364 6.38508 2.51565 9.59592 3.96003 6.02668 2.71108 10.87891 4.76917 13.57485 5.75782 2.11165.77439 5.18401 3.09658 6.35541 4.80366.53175.77491 1.49767 2.46501 2.1465 3.75579.64883 1.29077 1.84067 3.09108 2.64853 4.00069 1.50246 1.69169 1.69903 2.10278 1.16369 2.43363-.16783.10373-2.67597.0312-5.57366-.16114-2.89768-.19236-5.34906-.26919-5.44751-.17075-.30345.30345.44796 1.62011 1.84722 3.23684 1.43893 1.66254 1.65018 2.38192.79576 2.70979-1.21158.46493-15.95342-.68092-17.78049-1.38204-.88899-.34113-.69969.49093.56236 2.47194 2.46323 3.86645 1.61774 3.99455-10.73976 1.62706zm-13.35369-7.17904c-.11071-.17914-.34786-.3257-.52699-.3257-.17914 0-.23512.14656-.12441.3257.11071.17913.34786.3257.527.3257.17913 0 .23511-.14657.1244-.3257z" filter="url(#filter7683)"/><path d="m124.0228 248.937c-.37254-.75954-1.40357-1.96724-2.29117-2.68378s-1.62111-1.57858-1.63003-1.91566c-.0139-.525.16393-.58869 1.24044-.44431.69115.0927 1.81017.43122 2.4867.75226 2.14891 1.01973 3.09149 4.48431 1.45787 5.3586-.49165.26312-.69596.0906-1.26381-1.06711z" filter="url(#filter7679)"/></g><g transform="matrix(1.335294 0 0 1.201449 59.10006 213.1151)"><use transform="translate(-26.1,-15.45)" width="52.200001" height="30.950001" xlink:href="#shape0-73"/><use transform="translate(-30.8,-27)" width="29.799999" height="27.35" xlink:href="#shape1-90"/></g><g transform="translate(-39.64938 46.65168)"><use transform="matrix(1.747602 0 0 1.747602 74.33653 45.69536)" width="63.349998" height="55.75" xlink:href="#shape0-9"/><use transform="matrix(1.747602 0 0 1.747602 45.23896 -41.07308)" width="75.75" height="85.300003" xlink:href="#shape1-8"/></g><g transform="translate(-176.6474 -1.561046)" fill="#800000" fill-rule="evenodd" stroke="#ff2000" stroke-width="5"><path d="m255.0291 169.7818c-.74886-.21655-1.44198-.47616-1.54026-.57691-.0983-.10074 1.9068-.52768 4.45572-.94876 5.09491-.84166 6.65523-1.25574 4.86155-1.29016-2.00871-.0386-5.75577-1.05309-8.09756-2.19245-10.28678-5.00486-15.95549-21.14974-11.47378-32.67807 1.18589-3.05048 2.50783-5.17847 5.37353-8.65004 2.09696-2.5403 2.84947-3.13916 3.11401-2.47818.0597.14921.98795.82664 2.06276 1.50542 11.56676 7.30481 25.8788 20.67162 34.9929 32.68183 1.12808 1.48653 1.98794 2.7659 1.9108 2.84304-.0771.0771-.78453-.51622-1.57198-1.31857-1.6644-1.6959-2.0781-1.81783-1.79504-.52905.17176.78202.023 1.08887-.9362 1.93105-1.43494 1.2599-4.45024 3.01767-9.55817 5.57193-9.83132 4.91624-18.02505 7.22003-21.79828 6.12892z" filter="url(#filter7675)"/><path d="m307.6114 159.3369c-1.02761-.43092-3.38972-1.75332-5.24913-2.93868-1.8594-1.18535-3.61028-2.15519-3.89083-2.15519-.90825 0-.96291-1.22627-.13441-3.01521 1.42241-3.07132 7.24661-10.75435 15.61455-20.59802 5.34526-6.28793 7.28653-8.23964 7.74225-7.78392.22114.22114-.29873 1.2482-1.58865 3.13853l-1.91736 2.80981.50938 2.05774c.64227 2.59457.69915 10.37385.096 13.13153-.84994 3.88608-3.12425 8.23165-6.41016 12.24801-.96982 1.18541-1.76331 2.23726-1.76331 2.33743 0 .10018.45418.2819 1.00929.40382 1.25675.27603.87051.71442-.84644.96074-.95905.13758-1.79579-.0198-3.17119-.59659z" filter="url(#filter7671)"/></g><g transform="translate(-39.64938 46.65168)"><use transform="matrix(1.685794 -.1057484 .1064093 1.69633 103.042 72.00849)" width="48.299999" height="30.5" xlink:href="#shape0-87"/></g><path d="m49.05512 210.7925c-1.67805-.96247-4.49605-3.80058-5.11213-5.1486-.1842-.40306-.42821-.73283-.54223-.73283-.11403 0-.77979.58626-1.47947 1.3028-.70786.72491-1.5841 1.3028-1.97542 1.3028-.91532 0-5.4567-4.75266-6.94132-7.26426-1.60697-2.71858-2.59452-5.7118-3.01597-9.14129-.45439-3.69739-.19007-4.81281 1.17494-4.95835 1.2508-.13336 1.74288-.69943 3.93715-4.52923 1.02635-1.79135 2.55138-4.28295 3.38896-5.5369.84855-1.27037 2.77464-5.23636 4.34985-8.95674 3.16327-7.4711 5.59889-12.10957 8.12811-15.47944 2.47667-3.29986 2.51727-3.23313 2.02051 3.32064-.51285 6.76587 1.23307 10.79645 6.1655 14.23348 2.506638 1.74669 3.482218 2.15942 5.104268 2.15942 1.90928 0 4.23097-1.3325 7.10366-4.07706 3.0612-2.92465 3.4927-2.82499 2.58869.59789-1.0719 4.05855-.88307 9.75771.33385 10.07594.69235.18105 4.32111 7.36192 5.08917 10.07083.28822 1.01655.55349 2.68955.58948 3.71778.0653 1.86581.0633 1.87008-1.02909 2.1602-1.2677.33668-3.20857 1.51019-4.04437 2.44536-.55687.62307-.54688.74994.26016 3.30465.46158 1.46119.73132 2.83747.59942 3.05842-1.71735 2.8766-7.53236 8.70706-8.68399 8.70706-1.12383 0-3.11443-1.19207-5.47842-3.28073l-2.156728-1.90555-1.91451 1.70851c-4.75804 4.2461-5.55206 4.51313-8.46007 2.8452z" fill="#800000" fill-rule="evenodd" filter="url(#filter7667)" stroke="#ff2000" stroke-width="5"/><g transform="translate(-39.64938 46.65168)"><use transform="matrix(-.1113376 1.460463 -1.460463 -.1113376 121.295 126.7987)" width="27.799999" height="34.650002" xlink:href="#shape0-76"/><use transform="matrix(-.1113376 1.460463 -1.460463 -.1113376 115.5167 104.324)" width="18.85" height="23.25" xlink:href="#shape1-56"/></g></svg>