<?xml version="1.0" encoding="UTF-8" standalone="no"?>
<svg
   id="nx"
   version="1.1"
   viewBox="0 0 166.41826 226.46709"
   sodipodi:docname="profile.svg"
   inkscape:version="1.2.2 (1:1.2.2+202305151914+b0a8486541)"
   width="166.41826"
   height="226.46709"
   inkscape:export-filename="hypergon.png"
   inkscape:export-xdpi="192"
   inkscape:export-ydpi="192"
   xmlns:inkscape="http://www.inkscape.org/namespaces/inkscape"
   xmlns:sodipodi="http://sodipodi.sourceforge.net/DTD/sodipodi-0.dtd"
   xmlns:xlink="http://www.w3.org/1999/xlink"
   xmlns="http://www.w3.org/2000/svg"
   xmlns:svg="http://www.w3.org/2000/svg"
   xmlns:rdf="http://www.w3.org/1999/02/22-rdf-syntax-ns#"
   xmlns:cc="http://creativecommons.org/ns#"
   xmlns:dc="http://purl.org/dc/elements/1.1/">
  <metadata
     id="metadata112">
    <rdf:RDF>
      <cc:Work
         rdf:about="">
        <dc:format>image/svg+xml</dc:format>
        <dc:type
           rdf:resource="http://purl.org/dc/dcmitype/StillImage" />
      </cc:Work>
    </rdf:RDF>
  </metadata>
  <sodipodi:namedview
     pagecolor="#ffffff"
     bordercolor="#666666"
     borderopacity="1"
     objecttolerance="10"
     gridtolerance="10"
     guidetolerance="10"
     inkscape:pageopacity="0"
     inkscape:pageshadow="2"
     inkscape:window-width="1920"
     inkscape:window-height="999"
     id="namedview110"
     showgrid="false"
     inkscape:zoom="3.109375"
     inkscape:cx="34.41206"
     inkscape:cy="113.20603"
     inkscape:window-x="0"
     inkscape:window-y="0"
     inkscape:window-maximized="1"
     inkscape:current-layer="nx"
     inkscape:snap-page="false"
     inkscape:snap-grids="true"
     inkscape:snap-text-baseline="false"
     inkscape:snap-center="false"
     inkscape:snap-object-midpoints="false"
     inkscape:showpageshadow="false"
     inkscape:pagecheckerboard="true"
     inkscape:deskcolor="#ffffff" />
  <defs
     id="defs71">
    <radialGradient
       id="gradient0-3"
       cx="0"
       cy="0"
       r="819.20001"
       fx="6.4000001"
       gradientTransform="matrix(0.0477,0.0824,-0.0842,0.0487,15.55,45.45)"
       gradientUnits="userSpaceOnUse">
      <stop
         stop-color="#0a0101"
         offset=".3019608"
         id="stop7" />
      <stop
         stop-color="#4d0101"
         offset=".5490196"
         id="stop9" />
      <stop
         stop-color="#c10000"
         offset=".7490196"
         id="stop11" />
      <stop
         stop-color="#fca921"
         offset="1"
         id="stop13" />
    </radialGradient>
    <radialGradient
       id="gradient0-164"
       cx="0"
       cy="0"
       r="819.20001"
       gradientTransform="matrix(0.0456,0,0,0.0456,-29.6,1.95)"
       gradientUnits="userSpaceOnUse">
      <stop
         stop-color="#facd1b"
         offset="0"
         id="stop29" />
      <stop
         stop-color="#cf4104"
         offset=".3058824"
         id="stop31" />
      <stop
         offset=".8509804"
         id="stop33" />
    </radialGradient>
    <radialGradient
       id="gradient0-08"
       cx="0"
       cy="0"
       r="819.20001"
       gradientTransform="matrix(0.0377,0,0,0.0377,-15.45,-15.55)"
       gradientUnits="userSpaceOnUse">
      <stop
         stop-color="#facd1b"
         offset="0"
         id="stop50" />
      <stop
         stop-color="#cf4104"
         offset=".5764706"
         id="stop52" />
      <stop
         offset="1"
         id="stop54" />
    </radialGradient>
    <radialGradient
       id="gradient1-28"
       cx="0"
       cy="0"
       r="819.20001"
       gradientTransform="matrix(0.0456,0,0,0.0456,-16.55,-26.35)"
       gradientUnits="userSpaceOnUse">
      <stop
         stop-color="#facd1b"
         offset="0"
         id="stop57" />
      <stop
         stop-color="#cf4104"
         offset=".3058824"
         id="stop59" />
      <stop
         offset=".8509804"
         id="stop61" />
    </radialGradient>
    <radialGradient
       inkscape:collect="always"
       xlink:href="#gradient0-164"
       id="radialGradient695"
       gradientUnits="userSpaceOnUse"
       gradientTransform="matrix(-0.00491034,0.06441106,-0.06441106,-0.00491034,96.294766,152.65991)"
       cx="0"
       cy="0"
       r="819.20001" />
    <radialGradient
       inkscape:collect="always"
       xlink:href="#gradient0-3"
       id="radialGradient715"
       gradientUnits="userSpaceOnUse"
       gradientTransform="matrix(0.0806243,0.13927551,-0.14231794,0.08231453,144.10328,156.07448)"
       cx="0"
       cy="0"
       fx="6.4000001"
       r="819.20001" />
    <radialGradient
       inkscape:collect="always"
       xlink:href="#gradient0-08"
       id="radialGradient725"
       gradientUnits="userSpaceOnUse"
       gradientTransform="matrix(0.04868815,0,0,0.04380783,79.729706,201.22852)"
       cx="0"
       cy="0"
       r="819.20001" />
    <radialGradient
       inkscape:collect="always"
       xlink:href="#gradient1-28"
       id="radialGradient739"
       gradientUnits="userSpaceOnUse"
       gradientTransform="matrix(0.05889071,0,0,0.05298772,78.309097,188.6788)"
       cx="0"
       cy="0"
       r="819.20001" />
    <radialGradient
       inkscape:collect="always"
       xlink:href="#gradient0-08"
       id="radialGradient749"
       gradientUnits="userSpaceOnUse"
       gradientTransform="matrix(0.04823452,-0.00240554,0.00216442,0.04339967,153.59742,200.54738)"
       cx="0"
       cy="0"
       r="819.20001" />
    <radialGradient
       inkscape:collect="always"
       xlink:href="#gradient1-28"
       id="radialGradient763"
       gradientUnits="userSpaceOnUse"
       gradientTransform="matrix(0.05834202,-0.00290962,0.00261797,0.05249403,151.57,188.18477)"
       cx="0"
       cy="0"
       r="819.20001" />
    <filter
       inkscape:collect="always"
       style="color-interpolation-filters:sRGB"
       id="filter2351"
       x="-0.056717254"
       y="-0.065415036"
       width="1.1134326"
       height="1.1083225">
      <feGaussianBlur
         inkscape:collect="always"
         stdDeviation="2.1144635"
         id="feGaussianBlur2353" />
    </filter>
    <filter
       inkscape:collect="always"
       style="color-interpolation-filters:sRGB"
       id="filter2355"
       x="-0.10371835"
       y="-0.16358569"
       width="1.2070797"
       height="1.3274566">
      <feGaussianBlur
         inkscape:collect="always"
         stdDeviation="2.1144635"
         id="feGaussianBlur2357" />
    </filter>
    <filter
       inkscape:collect="always"
       style="color-interpolation-filters:sRGB"
       id="filter2359"
       x="-0.0971635"
       y="-0.15236259"
       width="1.1943333"
       height="1.3047487">
      <feGaussianBlur
         inkscape:collect="always"
         stdDeviation="2.1144635"
         id="feGaussianBlur2361" />
    </filter>
    <filter
       inkscape:collect="always"
       style="color-interpolation-filters:sRGB"
       id="filter2363"
       x="-0.10494354"
       y="-0.1571172"
       width="1.2095529"
       height="1.3143571">
      <feGaussianBlur
         inkscape:collect="always"
         stdDeviation="2.1144635"
         id="feGaussianBlur2365" />
    </filter>
    <filter
       inkscape:collect="always"
       style="color-interpolation-filters:sRGB"
       id="filter2371"
       x="-0.15959648"
       y="-0.12772766"
       width="1.3192857"
       height="1.2554571">
      <feGaussianBlur
         inkscape:collect="always"
         stdDeviation="2.1144635"
         id="feGaussianBlur2373" />
    </filter>
  </defs>
  <g
     id="g2417"
     transform="matrix(0.95790517,0,0,0.95790517,-39.464472,-7.5443521)">
    <g
       id="g2187"
       style="display:inline;filter:url(#filter2355)">
      <path
         id="path2166"
         style="fill:#800000;fill-opacity:1;fill-rule:evenodd;stroke:#ff0000;stroke-width:5;stroke-linecap:round;stroke-linejoin:round;stroke-dasharray:none;stroke-opacity:1"
         d="m 151.17773,188.03125 -0.12304,0.12109 c 2.17202,1.54582 4.13456,4.00601 5.88476,7.38086 1.70563,3.33861 0.77728,6.1558 -2.78515,8.44922 -3.60509,2.29555 -6.85367,3.61077 -9.74414,3.94727 -2.93312,0.33862 -4.68269,-0.0155 -5.24805,-1.06446 l -0.14063,3.58399 c 0.0205,1.26842 0.38867,2.23004 1.10547,2.88672 1.47356,1.10277 2.35863,2.26788 2.66211,3.49414 -0.8318,1.7788 -0.93171,3.47624 -0.85143,5.08594 0.0325,0.65233 1.93016,1.69742 6.27721,3.13476 4.52147,1.50558 7.81612,2.01529 9.88672,1.52734 l 0.27735,0.38868 1.49218,1.6582 2.67383,2.17383 c 1.15285,0.82728 2.76186,1.36221 4.82617,1.60547 l 10.71875,1.48437 c 5.08409,0.78509 7.0173,0.53562 5.79883,-0.75 -1.22038,-1.324 -2.11292,-2.93289 -2.67773,-4.82812 2.52523,0.9127 4.40169,1.24182 5.6289,0.98828 l 8.28321,0.2207 c 4.33803,0.39915 5.68392,-0.071 4.03515,-1.41211 -1.60612,-1.34322 -2.64325,-2.83005 -3.10937,-4.46094 l 8.33398,-0.0703 c 2.89184,0.54821 3.69267,0.29723 2.40039,-0.7539 -1.33684,-1.08738 -2.31402,-2.23137 -2.92968,-3.43165 l -1.47266,-2.52343 c -0.6214,-1.3154 -1.57886,-2.51792 -2.87305,-3.60742 -1.25154,-1.09164 -2.81541,-1.99462 -4.68945,-2.70899 l -2.66406,-0.73242 -4.11914,-1.58203 -0.32422,-0.043 -0.13086,-0.0508 -8.17578,-3.22656 c -4.03933,-1.59051 -7.54238,-2.70537 -10.54492,-3.37696 -1.41788,-1.2004 -2.4689,-2.84616 -3.14649,-4.94336 -0.75454,-2.27045 -2.03998,-4.05148 -3.85742,-5.3457 -1.42023,-1.04475 -3.25772,-1.89588 -5.51367,-2.55273 z"
         sodipodi:nodetypes="cccccccccsccccccccccccccscccccccccccccc" />
      <path
         d="m 139.21695,198.95646 q 0.5167,1.35909 -0.0246,2.07852 l -0.24727,0.18544 -0.0582,0.11831 q -0.26655,-1.48697 -1.80105,-2.6799 l -2.73479,-2.114 0.18044,-0.23981 q 2.12541,0.18251 3.38106,0.92773 0.86033,0.53411 1.30444,1.72371"
         id="path2168"
         inkscape:connector-curvature="0"
         style="fill:#800000;fill-opacity:1;fill-rule:evenodd;stroke:#ff0000;stroke-width:5;stroke-linecap:round;stroke-linejoin:round;stroke-dasharray:none;stroke-opacity:1" />
    </g>
    <g
       id="g1966"
       style="display:inline">
      <path
         id="path755"
         style="fill:url(#radialGradient763);fill-rule:evenodd;stroke:#ff9900;stroke-width:1.215;stroke-linecap:round;stroke-linejoin:round;stroke-dasharray:none;stroke-opacity:1"
         d="m 151.17773,188.03125 -0.12304,0.12109 c 2.17202,1.54582 4.13456,4.00601 5.88476,7.38086 1.70563,3.33861 0.77728,6.1558 -2.78515,8.44922 -3.60509,2.29555 -6.85367,3.61077 -9.74414,3.94727 -2.93312,0.33862 -4.68269,-0.0155 -5.24805,-1.06446 l -0.14063,3.58399 c 0.0205,1.26842 0.38867,2.23004 1.10547,2.88672 1.47356,1.10277 2.35863,2.26788 2.66211,3.49414 -0.8318,1.7788 -0.93171,3.47624 -0.85143,5.08594 0.0325,0.65233 1.93016,1.69742 6.27721,3.13476 4.52147,1.50558 7.81612,2.01529 9.88672,1.52734 l 0.27735,0.38868 1.49218,1.6582 2.67383,2.17383 c 1.15285,0.82728 2.76186,1.36221 4.82617,1.60547 l 10.71875,1.48437 c 5.08409,0.78509 7.0173,0.53562 5.79883,-0.75 -1.22038,-1.324 -2.11292,-2.93289 -2.67773,-4.82812 2.52523,0.9127 4.40169,1.24182 5.6289,0.98828 l 8.28321,0.2207 c 4.33803,0.39915 5.68392,-0.071 4.03515,-1.41211 -1.60612,-1.34322 -2.64325,-2.83005 -3.10937,-4.46094 l 8.33398,-0.0703 c 2.89184,0.54821 3.69267,0.29723 2.40039,-0.7539 -1.33684,-1.08738 -2.31402,-2.23137 -2.92968,-3.43165 l -1.47266,-2.52343 c -0.6214,-1.3154 -1.57886,-2.51792 -2.87305,-3.60742 -1.25154,-1.09164 -2.81541,-1.99462 -4.68945,-2.70899 l -2.66406,-0.73242 -4.11914,-1.58203 -0.32422,-0.043 -0.13086,-0.0508 -8.17578,-3.22656 c -4.03933,-1.59051 -7.54238,-2.70537 -10.54492,-3.37696 -1.41788,-1.2004 -2.4689,-2.84616 -3.14649,-4.94336 -0.75454,-2.27045 -2.03998,-4.05148 -3.85742,-5.3457 -1.42023,-1.04475 -3.25772,-1.89588 -5.51367,-2.55273 z"
         sodipodi:nodetypes="cccccccccsccccccccccccccscccccccccccccc" />
      <path
         d="m 139.21695,198.95646 q 0.5167,1.35909 -0.0246,2.07852 l -0.24727,0.18544 -0.0582,0.11831 q -0.26655,-1.48697 -1.80105,-2.6799 l -2.73479,-2.114 0.18044,-0.23981 q 2.12541,0.18251 3.38106,0.92773 0.86033,0.53411 1.30444,1.72371"
         id="path741"
         inkscape:connector-curvature="0"
         style="fill:url(#radialGradient749);fill-rule:evenodd;stroke:#ff9900;stroke-width:1.215;stroke-linecap:round;stroke-linejoin:round;stroke-dasharray:none;stroke-opacity:1" />
      <path
         id="path1611"
         style="display:inline;fill:none;stroke:#ff9900;stroke-width:1.21512;stroke-linecap:round;stroke-linejoin:round"
         d="m 183.9388,214.84466 0.6512,0.19833 c 2.99819,0.96606 4.87318,1.69962 5.62498,2.20068 l -1.94908,-3.07643 c 0.51943,0.12797 0.98787,-0.33778 1.40532,-1.39724 m 5.14806,-2.21861 -0.31985,0.016 -2.31733,-0.17294 -0.31699,0.0735 m -1.65013,6.77577 2.81311,2.39861 1.49636,1.71415 0.75823,1.05853 0.69139,1.00416 0.0754,0.22705 m -21.31933,-4.4185 3.87684,3.1534 c -0.0675,-0.49672 0.009,-1.09682 0.23087,-1.80029 0.54785,-1.8738 0.99141,-2.83839 1.33068,-2.89378 m -1.56155,4.69407 c 0.44561,0.36246 0.81646,0.94022 1.11253,1.73329 m 1.49185,4.19558 c -0.62523,-1.39215 -0.82739,-2.01679 -0.6065,-1.87394 m -16.11549,-2.94694 c 0.45245,-1.21509 1.12005,-2.40243 2.0028,-3.56203 l 1.10268,-1.03594" />
    </g>
  </g>
  <g
     id="g2389"
     transform="matrix(0.95790517,0,0,0.95790517,-39.464472,-7.5443521)">
    <path
       id="path2139"
       style="display:inline;fill:#800000;fill-opacity:1;fill-rule:evenodd;stroke:#ff0000;stroke-width:5;stroke-linecap:round;stroke-linejoin:miter;stroke-miterlimit:6;stroke-dasharray:none;stroke-opacity:1;filter:url(#filter2351)"
       d="m 64.832031,19.417969 c 0.732436,1.690235 1.745169,4.817224 3.041016,9.380859 1.746576,6.141187 2.621094,10.959973 2.621094,14.453125 0,6.084847 -0.649466,11.099087 -1.945313,15.042969 -1.915599,5.915823 -5.125519,8.873047 -9.632812,8.873047 -2.084624,0 -3.787543,-1.190487 -6.001954,-3.126953 0.845118,2.704376 2.226979,5.408905 4.142579,8.113281 1.97194,2.704377 3.689426,5.6616 5.154297,8.873047 1.46487,3.211447 2.197265,8.113161 2.197265,14.705078 0,10.254088 -1.747082,15.380858 -5.240234,15.380858 -1.577553,0 -2.927864,-0.98509 -4.054688,-2.95703 -0.9578,-1.6339 -1.522383,-3.18357 -1.691406,-4.64844 -1.352188,1.23951 -2.449804,3.09911 -3.294922,5.57813 -0.901458,2.47901 -1.353515,4.98613 -1.353515,7.52148 0,8.78923 3.099346,16.08553 9.296874,21.88867 3.943883,3.43681 7.043228,6.25387 9.296876,8.45118 6.071506,5.8692 9.730232,10.5497 12.759765,18 0.845118,2.1973 5.156559,7.60636 12.931641,16.22656 7.775076,8.56386 19.775696,13.41028 36.001956,14.53711 16.22625,1.12682 29.26919,-4.05718 39.1289,-15.55078 9.80337,-11.54995 14.50768,-23.60584 14.11328,-36.16993 -0.39012,-12.48412 -2.80016,-23.44846 -7.21484,-32.90039 -1.58876,-4.57858 -3.36506,-9.4864 -5.03911,-14.173864 -2.76072,-8.282153 -5.10002,-14.395962 -7.01563,-18.339844 -6.19752,-12.958469 -14.50657,-20.760169 -24.92968,-23.408203 2.19417,1.667968 3.38082,2.732212 5.57812,6 2.47901,3.718517 3.7168,6.958033 3.7168,9.71875 0,1.577552 -0.56264,2.760051 -1.68946,3.548828 -0.95779,0.676094 -2.19753,1.013672 -3.71875,1.013672 -1.35219,0 -3.32432,-1.097616 -5.91601,-3.294922 -1.69024,-1.46487 -2.84509,-2.619726 -3.46484,-3.464844 l -0.3379,-0.421875 C 119.36936,50.914497 108.01625,40.546486 98.212891,37.166016 88.296845,33.785545 82.577852,31.560717 81.056641,30.490234 l -8.365235,-6.085937 z m 36.845699,41.242187 c 4.16925,0 8.90315,3.746859 14.19922,11.240235 5.0707,7.098987 7.60547,12.902862 7.60547,17.410156 0,3.662176 -1.12721,6.169296 -3.38086,7.521484 -1.63389,0.9578 -4.22589,1.435547 -7.77539,1.435547 -5.57777,0 -11.43693,-2.674932 -17.578123,-8.027344 -7.042646,-6.141187 -10.564453,-13.212444 -10.564453,-21.21289 0,-1.802918 0.564583,-3.465117 1.691406,-4.986328 1.126824,-1.521212 2.366562,-2.28125 3.71875,-2.28125 3.012777,0.07941 6.000799,1.090261 7.943359,2.365234 1.172437,0.769513 3.517311,2.308539 3.517311,2.308539 0,0 -0.51332,-1.078632 -0.72825,-1.632758 -0.32159,-0.829122 -0.507811,-1.818295 -0.507811,-2.61914 0,-1.014141 0.619871,-1.521485 1.859371,-1.521485 z M 72.183594,80.775391 c 1.239506,0 2.704296,0.844921 4.394531,2.535156 l 0.253906,0.421875 c 1.746577,2.366329 3.381133,5.465675 4.902344,9.296875 1.521212,3.831199 2.28125,6.731181 2.28125,8.703123 0,1.74657 -0.140169,2.93103 -0.421875,3.55078 -0.338047,0.6761 -1.042799,1.01367 -2.113281,1.01368 -3.155106,0 -5.972161,-3.15464 -8.451172,-9.464849 -1.971941,-5.127047 -2.958985,-9.438488 -2.958985,-12.93164 0,-2.084624 0.704752,-3.125 2.113282,-3.125 z"
       sodipodi:nodetypes="ccscsccssscccsccccscccccccscscccccccscscscsscscssssccsscccss" />
    <path
       id="path709"
       style="display:inline;fill:url(#radialGradient715);fill-rule:evenodd;stroke:#ff9900;stroke-width:1.69;stroke-linecap:butt;stroke-miterlimit:6;stroke-dasharray:none;stroke-opacity:1"
       d="m 64.832031,19.417969 c 0.732436,1.690235 1.745169,4.817224 3.041016,9.380859 1.746576,6.141187 2.621094,10.959973 2.621094,14.453125 0,6.084847 -0.649466,11.099087 -1.945313,15.042969 -1.915599,5.915823 -5.125519,8.873047 -9.632812,8.873047 -2.084624,0 -3.787543,-1.190487 -6.001954,-3.126953 0.845118,2.704376 2.226979,5.408905 4.142579,8.113281 1.97194,2.704377 3.689426,5.6616 5.154297,8.873047 1.46487,3.211447 2.197265,8.113161 2.197265,14.705078 0,10.254088 -1.747082,15.380858 -5.240234,15.380858 -1.577553,0 -2.927864,-0.98509 -4.054688,-2.95703 -0.9578,-1.6339 -1.522383,-3.18357 -1.691406,-4.64844 -1.352188,1.23951 -2.449804,3.09911 -3.294922,5.57813 -0.901458,2.47901 -1.353515,4.98613 -1.353515,7.52148 0,8.78923 3.099346,16.08553 9.296874,21.88867 3.943883,3.43681 7.043228,6.25387 9.296876,8.45118 6.071506,5.8692 9.730232,10.5497 12.759765,18 0.845118,2.1973 5.156559,7.60636 12.931641,16.22656 7.775076,8.56386 19.775696,13.41028 36.001956,14.53711 16.22625,1.12682 29.26919,-4.05718 39.1289,-15.55078 9.80337,-11.54995 14.50768,-23.60584 14.11328,-36.16993 -0.39012,-12.48412 -2.80016,-23.44846 -7.21484,-32.90039 -1.58876,-4.57858 -3.36506,-9.4864 -5.03911,-14.173864 -2.76072,-8.282153 -5.10002,-14.395962 -7.01563,-18.339844 -6.19752,-12.958469 -14.50657,-20.760169 -24.92968,-23.408203 2.19417,1.667968 3.38082,2.732212 5.57812,6 2.47901,3.718517 3.7168,6.958033 3.7168,9.71875 0,1.577552 -0.56264,2.760051 -1.68946,3.548828 -0.95779,0.676094 -2.19753,1.013672 -3.71875,1.013672 -1.35219,0 -3.32432,-1.097616 -5.91601,-3.294922 -1.69024,-1.46487 -2.84509,-2.619726 -3.46484,-3.464844 l -0.3379,-0.421875 C 119.36936,50.914497 108.01625,40.546486 98.212891,37.166016 88.296845,33.785545 82.577852,31.560717 81.056641,30.490234 l -8.365235,-6.085937 z m 36.845699,41.242187 c 4.16925,0 8.90315,3.746859 14.19922,11.240235 5.0707,7.098987 7.60547,12.902862 7.60547,17.410156 0,3.662176 -1.12721,6.169296 -3.38086,7.521484 -1.63389,0.9578 -4.22589,1.435547 -7.77539,1.435547 -5.57777,0 -11.43693,-2.674932 -17.578123,-8.027344 -7.042646,-6.141187 -10.564453,-13.212444 -10.564453,-21.21289 0,-1.802918 0.564583,-3.465117 1.691406,-4.986328 1.126824,-1.521212 2.366562,-2.28125 3.71875,-2.28125 3.012777,0.07941 6.000799,1.090261 7.943359,2.365234 1.172437,0.769513 3.517311,2.308539 3.517311,2.308539 0,0 -0.51332,-1.078632 -0.72825,-1.632758 -0.32159,-0.829122 -0.507811,-1.818295 -0.507811,-2.61914 0,-1.014141 0.619871,-1.521485 1.859371,-1.521485 z M 72.183594,80.775391 c 1.239506,0 2.704296,0.844921 4.394531,2.535156 l 0.253906,0.421875 c 1.746577,2.366329 3.381133,5.465675 4.902344,9.296875 1.521212,3.831199 2.28125,6.731181 2.28125,8.703123 0,1.74657 -0.140169,2.93103 -0.421875,3.55078 -0.338047,0.6761 -1.042799,1.01367 -2.113281,1.01368 -3.155106,0 -5.972161,-3.15464 -8.451172,-9.464849 -1.971941,-5.127047 -2.958985,-9.438488 -2.958985,-12.93164 0,-2.084624 0.704752,-3.125 2.113282,-3.125 z"
       sodipodi:nodetypes="ccscsccssscccsccccscccccccscscccccccscscscsscscssssccsscccss" />
  </g>
  <g
     id="g2393"
     transform="matrix(0.95790517,0,0,0.95790517,-39.464472,-7.5443521)">
    <path
       d="m 183.12587,131.61679 -3.67558,5.33659 q 0.84258,2.99429 1.01754,5.78339 0.43225,6.89072 -1.15976,11.52012 -1.87178,5.38815 -7.30485,11.41147 l 2.00801,0.69759 -0.61616,0.61514 -1.77807,0.3586 q -1.30436,0.0818 -5.28517,-2.05677 l -4.69473,-3.08206 -0.76973,-0.52821 -0.0815,0.005 -0.82038,-0.0309 -0.17334,-0.15383 -0.25486,-0.14873 -0.20935,-0.72806 q -0.15438,-2.46097 10.55818,-15.65095 9.95394,-12.23648 12.53613,-14.12792 l 0.49943,0.13338 0.20421,0.64603 m -33.41684,30.92053 -0.38189,0.43573 0.3827,0.8819 q 0.1132,1.80471 -10.76212,7.18116 -11.51207,5.66345 -18.68608,6.11347 l -4.65791,-1.19021 11.09145,-1.93108 q -11.56677,-0.4274 -17.35108,-10.44131 -3.67259,-6.35804 -4.11513,-13.41282 -0.36535,-5.8243 1.63427,-10.47927 1.98418,-4.90107 7.13232,-10.24767 l -2.17186,-2.005 2.63527,1.56415 0.22913,-0.26144 0.44364,0.54866 -0.0712,0.16918 q 10.81653,6.73346 20.64611,15.99948 9.91625,9.34294 17.3619,19.74676 l -0.21884,0.4255 -3.14065,-3.09719"
       id="path2137"
       inkscape:connector-curvature="0"
       style="display:inline;fill:#800000;fill-opacity:1;fill-rule:evenodd;stroke:#ff0200;stroke-width:5;stroke-linecap:round;stroke-linejoin:round;stroke-dasharray:none;stroke-opacity:1;filter:url(#filter2359)" />
    <path
       d="m 183.12587,131.61679 -3.67558,5.33659 q 0.84258,2.99429 1.01754,5.78339 0.43225,6.89072 -1.15976,11.52012 -1.87178,5.38815 -7.30485,11.41147 l 2.00801,0.69759 -0.61616,0.61514 -1.77807,0.3586 q -1.30436,0.0818 -5.28517,-2.05677 l -4.69473,-3.08206 -0.76973,-0.52821 -0.0815,0.005 -0.82038,-0.0309 -0.17334,-0.15383 -0.25486,-0.14873 -0.20935,-0.72806 q -0.15438,-2.46097 10.55818,-15.65095 9.95394,-12.23648 12.53613,-14.12792 l 0.49943,0.13338 0.20421,0.64603 m -33.41684,30.92053 -0.38189,0.43573 0.3827,0.8819 q 0.1132,1.80471 -10.76212,7.18116 -11.51207,5.66345 -18.68608,6.11347 l -4.65791,-1.19021 11.09145,-1.93108 q -11.56677,-0.4274 -17.35108,-10.44131 -3.67259,-6.35804 -4.11513,-13.41282 -0.36535,-5.8243 1.63427,-10.47927 1.98418,-4.90107 7.13232,-10.24767 l -2.17186,-2.005 2.63527,1.56415 0.22913,-0.26144 0.44364,0.54866 -0.0712,0.16918 q 10.81653,6.73346 20.64611,15.99948 9.91625,9.34294 17.3619,19.74676 l -0.21884,0.4255 -3.14065,-3.09719"
       id="path697"
       inkscape:connector-curvature="0"
       style="display:inline;fill:#ffffff;fill-rule:evenodd;stroke-width:1.63876" />
  </g>
  <g
     id="g2402"
     transform="matrix(0.95790517,0,0,0.95790517,-39.464472,-7.5443521)">
    <g
       id="g2183"
       style="display:inline;filter:url(#filter2363)">
      <path
         id="path2151"
         style="fill:#800000;fill-opacity:1;fill-rule:evenodd;stroke:#ff0000;stroke-width:5;stroke-linecap:round;stroke-linejoin:round;stroke-dasharray:none;stroke-opacity:1"
         d="m 77.921875,188.50391 -0.128906,0.11718 c 2.109387,1.66556 3.959932,4.24054 5.552734,7.72657 1.549755,3.44729 0.473675,6.23683 -3.228515,8.36718 -3.745239,2.13035 -7.082454,3.29267 -10.009766,3.48633 -2.970362,0.19367 -4.713884,-0.2514 -5.230469,-1.33594 l -0.322265,3.60157 c -0.04305,1.27821 0.27997,2.26568 0.96875,2.96289 1.427781,1.18391 2.259537,2.40095 2.503906,3.65039 -0.926893,1.74934 -1.198996,3.43959 -1.198996,5.06445 0,0.65847 1.944905,1.82078 6.249777,3.48633 4.477067,1.74302 7.771472,2.42054 9.880859,2.0332 l 0.257813,0.40625 1.419922,1.74414 2.583984,2.32422 c 1.119267,0.89088 2.711005,1.51078 4.777344,1.85938 l 10.718753,2.0332 c 5.07975,1.04581 7.03927,0.89083 5.87695,-0.46484 -1.16231,-1.39442 -1.97959,-3.06137 -2.45313,-4.99805 2.49683,1.0458 4.36877,1.47296 5.61719,1.2793 l 8.33008,0.63867 c 4.34792,0.61974 5.72562,0.21244 4.13281,-1.22071 -1.54975,-1.43314 -2.51881,-2.98093 -2.90625,-4.64648 l 8.39453,0.34766 c 2.88427,0.6972 3.70349,0.4846 2.45508,-0.63868 -1.29146,-1.16201 -2.2177,-2.36208 -2.77734,-3.60156 l -1.35547,-2.61523 c -0.55963,-1.35568 -1.46448,-2.61533 -2.71289,-3.77735 -1.20537,-1.16201 -2.73289,-2.14948 -4.58398,-2.96289 l -2.64844,-0.87109 -4.06836,-1.80078 -0.32227,-0.0586 -0.1289,-0.0586 -8.07227,-3.66015 c -3.98835,-1.80479 -7.459166,-3.10274 -10.449218,-3.92969 -1.366337,-1.27969 -2.341297,-2.98816 -2.917969,-5.13281 -0.645731,-2.32402 -1.850237,-4.18372 -3.615234,-5.57813 -1.37756,-1.12328 -3.185295,-2.07298 -5.423828,-2.84766 z"
         sodipodi:nodetypes="cccccccccsccccccccccccccscccccccccccccc" />
      <path
         d="m 65.329895,198.9045 q 0.452012,1.39442 -0.129146,2.09162 l -0.258293,0.1743 -0.06457,0.1162 q -0.19372,-1.51061 -1.678902,-2.78882 l -2.647499,-2.26592 0.19372,-0.23241 q 2.130913,0.29051 3.357803,1.10391 0.839451,0.58101 1.22689,1.80112"
         id="path2153"
         inkscape:connector-curvature="0"
         style="fill:#800000;fill-opacity:1;fill-rule:evenodd;stroke:#ff0000;stroke-width:5;stroke-linecap:round;stroke-linejoin:round;stroke-dasharray:none;stroke-opacity:1" />
    </g>
    <g
       id="g1961"
       style="display:inline">
      <path
         id="path731"
         style="fill:url(#radialGradient739);fill-rule:evenodd;stroke:#ff9900;stroke-width:1.225;stroke-linecap:round;stroke-linejoin:round;stroke-dasharray:none;stroke-opacity:1"
         d="m 77.921875,188.50391 -0.128906,0.11718 c 2.109387,1.66556 3.959932,4.24054 5.552734,7.72657 1.549755,3.44729 0.473675,6.23683 -3.228515,8.36718 -3.745239,2.13035 -7.082454,3.29267 -10.009766,3.48633 -2.970362,0.19367 -4.713884,-0.2514 -5.230469,-1.33594 l -0.322265,3.60157 c -0.04305,1.27821 0.27997,2.26568 0.96875,2.96289 1.427781,1.18391 2.259537,2.40095 2.503906,3.65039 -0.926893,1.74934 -1.198996,3.43959 -1.198996,5.06445 0,0.65847 1.944905,1.82078 6.249777,3.48633 4.477067,1.74302 7.771472,2.42054 9.880859,2.0332 l 0.257813,0.40625 1.419922,1.74414 2.583984,2.32422 c 1.119267,0.89088 2.711005,1.51078 4.777344,1.85938 l 10.718753,2.0332 c 5.07975,1.04581 7.03927,0.89083 5.87695,-0.46484 -1.16231,-1.39442 -1.97959,-3.06137 -2.45313,-4.99805 2.49683,1.0458 4.36877,1.47296 5.61719,1.2793 l 8.33008,0.63867 c 4.34792,0.61974 5.72562,0.21244 4.13281,-1.22071 -1.54975,-1.43314 -2.51881,-2.98093 -2.90625,-4.64648 l 8.39453,0.34766 c 2.88427,0.6972 3.70349,0.4846 2.45508,-0.63868 -1.29146,-1.16201 -2.2177,-2.36208 -2.77734,-3.60156 l -1.35547,-2.61523 c -0.55963,-1.35568 -1.46448,-2.61533 -2.71289,-3.77735 -1.20537,-1.16201 -2.73289,-2.14948 -4.58398,-2.96289 l -2.64844,-0.87109 -4.06836,-1.80078 -0.32227,-0.0586 -0.1289,-0.0586 -8.07227,-3.66015 c -3.98835,-1.80479 -7.459166,-3.10274 -10.449218,-3.92969 -1.366337,-1.27969 -2.341297,-2.98816 -2.917969,-5.13281 -0.645731,-2.32402 -1.850237,-4.18372 -3.615234,-5.57813 -1.37756,-1.12328 -3.185295,-2.07298 -5.423828,-2.84766 z"
         sodipodi:nodetypes="cccccccccsccccccccccccccscccccccccccccc" />
      <path
         d="m 65.329895,198.9045 q 0.452012,1.39442 -0.129146,2.09162 l -0.258293,0.1743 -0.06457,0.1162 q -0.19372,-1.51061 -1.678902,-2.78882 l -2.647499,-2.26592 0.19372,-0.23241 q 2.130913,0.29051 3.357803,1.10391 0.839451,0.58101 1.22689,1.80112"
         id="path717"
         inkscape:connector-curvature="0"
         style="fill:url(#radialGradient725);fill-rule:evenodd;stroke:#ff9900;stroke-width:1.225;stroke-linecap:round;stroke-linejoin:round;stroke-dasharray:none;stroke-opacity:1" />
      <path
         id="path1587"
         style="display:inline;fill:none;stroke:#ff9900;stroke-width:1.22503;stroke-linecap:round;stroke-linejoin:round"
         d="m 109.5625,217.14808 0.64573,0.2324 c 2.97037,1.12328 4.82146,1.95606 5.55329,2.49833 l -1.80805,-3.19554 c 0.51659,0.15494 1.01165,-0.2905 1.48519,-1.33631 m 5.29499,-1.97542 h -0.32286 l -2.32464,-0.2905 -0.32286,0.0581 m -2.00177,6.73967 2.71207,2.55642 1.42061,1.80112 0.71031,1.10391 0.64573,1.04581 0.0646,0.2324 m -21.24456,-5.51955 3.74524,3.36983 c -0.0431,-0.50354 0.0646,-1.10391 0.32287,-1.80112 0.64573,-1.85921 1.14079,-2.80819 1.48518,-2.84692 m -1.80805,4.64804 c 0.43049,0.38734 0.77488,0.98771 1.03317,1.80112 m 1.29146,4.29944 c -0.55963,-1.43315 -0.73183,-2.07225 -0.51658,-1.91732 m -16.078716,-3.77654 c 0.516585,-1.20074 1.248414,-2.36275 2.195487,-3.48603 l 1.162317,-0.98771" />
    </g>
  </g>
  <g
     id="g2408"
     transform="matrix(0.95790517,0,0,0.95790517,-39.464472,-7.5443521)">
    <path
       id="path2141"
       style="display:inline;fill:#800000;fill-opacity:1;fill-rule:evenodd;stroke:#ff0000;stroke-width:5;stroke-linecap:round;stroke-linejoin:round;stroke-dasharray:none;stroke-opacity:1;filter:url(#filter2371)"
       d="m 81.912109,181.04297 v 0 c -1.921344,2.56269 -4.081932,6.35286 -6.830078,11.34377 -1.038595,1.19948 -2.070305,1.66574 -3.091797,1.39844 -0.621392,7.52986 2.317071,14.0282 8.814454,19.49609 l 0.777343,0.0586 1.394531,-1.52734 c 0.53904,-0.8587 1.123867,-1.38155 1.753907,-1.57031 l -0.04883,-0.28907 0.283203,0.0215 -0.167969,0.34375 c 0.594989,1.51345 1.618996,2.98898 3.072266,4.42578 1.634427,1.54533 3.220349,2.47056 4.759765,2.77734 l 0.792969,-0.15234 3.095703,-2.39258 3.441406,-3.21875 3.386718,3.09961 c 1.6452,1.40408 3.00887,2.14792 4.0918,2.23047 1.37937,-0.69993 3.08513,-2.25175 5.11523,-4.6543 l 2.76172,-3.625 -1.70898,-5.52929 2.04687,-1.69141 c 1.25248,-0.89903 2.45392,-1.44622 3.60547,-1.64258 l 0.0703,0.006 c 0.14316,-2.49905 -0.58422,-5.37356 -2.18359,-8.62109 -0.0716,-0.25021 -0.20162,-0.50154 -0.30065,-0.73244 l -0.67383,-1.40235 -1.87695,-3.33789 h 0.002 c -0.30446,-0.47772 -0.68697,-0.9183 -1.13476,-1.32617 -0.9141,-2.84188 -0.64648,-6.57327 0.81054,-11.20117 -2.09154,2.5873 -4.44014,4.51579 -7.04687,5.78515 -2.55965,1.27296 -5.83401,0.0994 -9.820316,-3.51953 -3.982716,-3.66601 -5.103502,-9.45881 -3.363282,-17.37695 l -1.68e-4,-1.6e-4 c -2.070012,2.30479 -4.452128,6.21926 -7.146484,11.74414 l -4.681641,11.08008"
       sodipodi:nodetypes="ccccccccccccccccccccccccccccccccccccc" />
    <g
       id="g1972"
       style="display:inline">
      <path
         id="path689"
         style="display:inline;fill:url(#radialGradient695);fill-rule:evenodd;stroke:#ff9900;stroke-width:1.417;stroke-linecap:round;stroke-linejoin:round;stroke-dasharray:none;stroke-opacity:1"
         d="m 81.912109,181.04297 v 0 c -1.921344,2.56269 -4.081932,6.35286 -6.830078,11.34377 -1.038595,1.19948 -2.070305,1.66574 -3.091797,1.39844 -0.621392,7.52986 2.317071,14.0282 8.814454,19.49609 l 0.777343,0.0586 1.394531,-1.52734 c 0.53904,-0.8587 1.123867,-1.38155 1.753907,-1.57031 l -0.04883,-0.28907 0.283203,0.0215 -0.167969,0.34375 c 0.594989,1.51345 1.618996,2.98898 3.072266,4.42578 1.634427,1.54533 3.220349,2.47056 4.759765,2.77734 l 0.792969,-0.15234 3.095703,-2.39258 3.441406,-3.21875 3.386718,3.09961 c 1.6452,1.40408 3.00887,2.14792 4.0918,2.23047 1.37937,-0.69993 3.08513,-2.25175 5.11523,-4.6543 l 2.76172,-3.625 -1.70898,-5.52929 2.04687,-1.69141 c 1.25248,-0.89903 2.45392,-1.44622 3.60547,-1.64258 l 0.0703,0.006 c 0.14316,-2.49905 -0.58422,-5.37356 -2.18359,-8.62109 -0.0716,-0.25021 -0.20162,-0.50154 -0.30065,-0.73244 l -0.67383,-1.40235 -1.87695,-3.33789 h 0.002 c -0.30446,-0.47772 -0.68697,-0.9183 -1.13476,-1.32617 -0.9141,-2.84188 -0.64648,-6.57327 0.81054,-11.20117 -2.09154,2.5873 -4.44014,4.51579 -7.04687,5.78515 -2.55965,1.27296 -5.83401,0.0994 -9.820316,-3.51953 -3.982716,-3.66601 -5.103502,-9.45881 -3.363282,-17.37695 l -1.68e-4,-1.6e-4 c -2.070012,2.30479 -4.452128,6.21926 -7.146484,11.74414 l -4.681641,11.08008"
         sodipodi:nodetypes="ccccccccccccccccccccccccccccccccccccc" />
      <path
         id="path1571"
         style="display:inline;fill:none;stroke:#ff9900;stroke-width:1.41662;stroke-linecap:round;stroke-linejoin:round"
         d="m 113.60516,203.27932 -0.0706,-0.005 -0.68409,0.58718 m -3.01191,-3.35523 -1.91292,-0.99827 c -1.18829,-0.56416 -2.01786,-0.86419 -2.4887,-0.90009 m -0.7278,0.22867 c -0.32959,-0.0251 -0.88362,0.0984 -1.66209,0.37054 -1.21299,0.38111 -2.37151,0.97948 -3.475565,1.79511 m -4.623638,-0.84978 -2.347448,-0.88932 -2.68981,-1.0575 -4.273994,2.01839 m -6.660396,-0.22361 -1.108482,-0.36865 -1.092329,-0.58053" />
    </g>
  </g>
</svg>
