<?xml version="1.0" encoding="UTF-8" standalone="no"?>
<!-- Created with Inkscape (http://www.inkscape.org/) -->

<svg
   width="1200"
   height="600"
   viewBox="0 0 1200 600"
   version="1.1"
   id="svg5"
   xml:space="preserve"
   inkscape:version="1.2 (dc2aedaf03, 2022-05-15)"
   sodipodi:docname="twitter-en.svg"
   inkscape:export-filename="twitter-en.png"
   inkscape:export-xdpi="96"
   inkscape:export-ydpi="96"
   xmlns:inkscape="http://www.inkscape.org/namespaces/inkscape"
   xmlns:sodipodi="http://sodipodi.sourceforge.net/DTD/sodipodi-0.dtd"
   xmlns="http://www.w3.org/2000/svg"
   xmlns:svg="http://www.w3.org/2000/svg"><sodipodi:namedview
     id="namedview7"
     pagecolor="#ffffff"
     bordercolor="#666666"
     borderopacity="1.0"
     inkscape:showpageshadow="2"
     inkscape:pageopacity="1"
     inkscape:pagecheckerboard="true"
     inkscape:deskcolor="#d1d1d1"
     inkscape:document-units="px"
     showgrid="false"
     showguides="false"
     inkscape:zoom="0.85"
     inkscape:cx="414.70588"
     inkscape:cy="300.58824"
     inkscape:window-width="1920"
     inkscape:window-height="1001"
     inkscape:window-x="-9"
     inkscape:window-y="-9"
     inkscape:window-maximized="1"
     inkscape:current-layer="svg5"
     shape-rendering="auto" /><defs
     id="defs2"><filter
       inkscape:collect="always"
       style="color-interpolation-filters:sRGB"
       id="filter26850"
       x="-0.059595177"
       y="-0.045105616"
       width="1.1191886"
       height="1.0901931"><feGaussianBlur
         inkscape:collect="always"
         stdDeviation="3.0958985"
         id="feGaussianBlur26852" /></filter><radialGradient
       id="a"
       cx="6.3930101"
       cy="-0.0039582099"
       r="819.20001"
       gradientTransform="matrix(0.104897,0.181206,-0.185164,0.107096,169.225,196.291)"
       gradientUnits="userSpaceOnUse"><stop
         stop-color="#0a0101"
         offset=".30196"
         id="stop7145" /><stop
         stop-color="#4d0101"
         offset=".54902"
         id="stop7147" /><stop
         stop-color="#c10000"
         offset=".74902"
         id="stop7149" /><stop
         stop-color="#fca921"
         offset="1"
         id="stop7151" /></radialGradient><filter
       inkscape:collect="always"
       style="color-interpolation-filters:sRGB"
       id="filter26846"
       x="-0.10209523"
       y="-0.16009477"
       width="1.2041962"
       height="1.3202107"><feGaussianBlur
         inkscape:collect="always"
         stdDeviation="3.0958985"
         id="feGaussianBlur26848" /></filter></defs><g
     aria-label="Ven覺 V覺d覺 Cod覺"
     transform="matrix(1.0970941,0,0,1.097094,-199.29782,49.034426)"
     id="text764-4"
     style="font-weight:300;font-size:72px;line-height:1.5;font-family:Sans;-inkscape-font-specification:'Sans, Light';font-variant-caps:small-caps;letter-spacing:0px;word-spacing:0px;white-space:pre;shape-inside:url(#rect766-0);display:inline;fill:#0366d6"><path
       d="m 534.83955,159.70653 -18.864,51.408 h -4.176 l -18.864,-51.408 h 4.392 l 13.608,37.08 q 0.936,2.592 1.656,4.968 0.792,2.376 1.296,4.464 0.504,-2.088 1.224,-4.392 0.72,-2.304 1.728,-5.112 l 13.536,-37.008 z"
       id="path392" /><path
       d="m 540.52746,170.36253 h 22.824 v 3.456 h -18.72 v 14.256 h 17.712 v 3.456 h -17.712 v 16.128 h 18.72 v 3.456 h -22.824 z"
       id="path394" /><path
       d="m 604.24734,170.36253 v 40.752 h -4.752 l -23.328,-34.992 h -0.216 q 0.072,1.944 0.144,4.176 0.144,2.16 0.144,4.032 v 26.784 h -3.816 v -40.752 h 4.752 l 23.256,34.992 h 0.216 q -0.144,-1.872 -0.216,-4.104 0,-2.232 0,-4.536 v -26.352 z"
       id="path396" /><path
       d="m 619.79927,211.11453 h -4.032 v -38.304 h 4.032 z"
       id="path398" /><path
       d="m 686.75904,159.70653 -18.864,51.408 h -4.176 l -18.864,-51.408 h 4.392 l 13.608,37.08 q 0.936,2.592 1.656,4.968 0.792,2.376 1.296,4.464 0.504,-2.088 1.224,-4.392 0.72,-2.304 1.728,-5.112 l 13.536,-37.008 z"
       id="path400" /><path
       d="m 697.12696,211.11453 h -4.032 v -38.304 h 4.032 z"
       id="path402" /><path
       d="m 741.47884,190.30653 q 0,10.296 -5.544,15.552 -5.544,5.256 -16.344,5.256 h -10.368 v -40.752 h 11.664 q 10.224,0 15.408,5.184 5.184,5.112 5.184,14.76 z m -4.176,0.144 q 0,-16.488 -16.848,-16.488 h -7.2 v 33.624 h 6.408 q 17.64,0 17.64,-17.136 z"
       id="path404" /><path
       d="m 755.37482,211.11453 h -4.032 v -38.304 h 4.032 z"
       id="path406" /><path
       d="m 809.5186,162.73053 q -6.336,0 -10.872,2.88 -4.536,2.808 -6.984,7.92 -2.376,5.04 -2.376,11.808 0,6.912 2.16,12.024 2.232,5.112 6.552,7.92 4.32,2.808 10.8,2.808 3.744,0 6.84,-0.576 3.168,-0.576 5.976,-1.44 v 3.6 q -2.664,1.008 -5.904,1.584 -3.168,0.576 -7.344,0.576 -7.776,0 -13.032,-3.312 -5.184,-3.312 -7.848,-9.288 -2.592,-5.976 -2.592,-13.968 0,-7.632 2.88,-13.536 2.952,-5.976 8.424,-9.36 5.544,-3.384 13.32,-3.384 7.56,0 13.536,2.88 l -1.656,3.6 q -5.616,-2.736 -11.88,-2.736 z"
       id="path408" /><path
       d="m 864.7425,190.66653 q 0,6.192 -2.088,10.944 -2.016,4.752 -6.192,7.416 -4.104,2.664 -10.296,2.664 -6.192,0 -10.368,-2.664 -4.176,-2.664 -6.264,-7.416 -2.088,-4.752 -2.088,-11.016 0,-6.12 2.088,-10.8 2.088,-4.752 6.264,-7.344 4.176,-2.664 10.368,-2.664 9.288,0 13.896,5.688 4.68,5.688 4.68,15.192 z m -33.12,0 q 0,7.776 3.6,12.6 3.6,4.824 10.944,4.824 7.272,0 10.8,-4.752 3.6,-4.752 3.6,-12.672 0,-8.208 -3.672,-12.744 -3.672,-4.536 -10.728,-4.536 -7.344,0 -10.944,4.752 -3.6,4.68 -3.6,12.528 z"
       id="path410" /><path
       d="m 906.35835,190.30653 q 0,10.296 -5.544,15.552 -5.544,5.256 -16.344,5.256 h -10.368 v -40.752 h 11.664 q 10.224,0 15.408,5.184 5.184,5.112 5.184,14.76 z m -4.176,0.144 q 0,-16.488 -16.848,-16.488 h -7.2 v 33.624 h 6.408 q 17.64,0 17.64,-17.136 z"
       id="path412" /><path
       d="m 920.25435,211.11453 h -4.032 v -38.304 h 4.032 z"
       id="path414" /></g><g
     aria-label="Ahmet Sait's Software Blog"
     transform="matrix(1.069011,0,0,1.0690107,-162.11802,-18.325933)"
     id="text776"
     style="font-weight:300;font-size:64px;line-height:1.5;font-family:'Segoe UI';-inkscape-font-specification:'Segoe UI, Light';letter-spacing:0px;word-spacing:0px;white-space:pre;shape-inside:url(#rect778);shape-padding:0.9409;display:inline;fill:#808080"><path
       d="m 504.19922,381.58969 -5.125,-13.9375 h -19.4375 l -5.125,13.9375 h -3.40625 l 16.90625,-44.8125 h 2.9375 l 16.71875,44.8125 z m -13.75,-37.5 q -0.34375,-0.9375 -0.5625,-1.84375 -0.21875,-0.78125 -0.46875,-1.5625 h -0.125 q -0.53125,2.0625 -1.03125,3.34375 l -7.53125,20.78125 h 17.28125 z"
       id="path417" /><path
       d="m 536.38672,381.58969 v -19.1875 q 0,-5.6875 -2.0625,-8.3125 -2.0625,-2.65625 -6.4375,-2.65625 -4.125,0 -7.25,3.21875 -3.125,3.21875 -3.125,9.21875 v 17.71875 h -2.875 v -47.375 h 2.875 v 21.125 h 0.125 q 3.78125,-6.53125 11,-6.53125 5.1875,0 7.90625,3.34375 2.71875,3.34375 2.71875,9.59375 v 19.84375 z"
       id="path419" /><path
       d="m 589.01172,381.58969 v -19.25 q 0,-6.03125 -1.90625,-8.46875 -1.875,-2.4375 -5.96875,-2.4375 -3.78125,0 -6.53125,3.25 -2.75,3.25 -2.75,8.15625 v 18.75 h -2.875 v -19.46875 q 0,-10.6875 -8.125,-10.6875 -3.90625,0 -6.5,3.28125 -2.59375,3.25 -2.59375,8.4375 v 18.4375 h -2.875 v -32 h 2.875 v 5.3125 h 0.125 q 3.34375,-6.09375 9.78125,-6.09375 3.5,0 5.96875,2.03125 2.5,2 3.375,5.28125 1.5,-3.46875 4.28125,-5.375 2.8125,-1.9375 6.09375,-1.9375 10.5,0 10.5,13 v 19.78125 z"
       id="path421" /><path
       d="m 602.16797,365.71469 q 0,6.59375 3.03125,10.3125 3.0625,3.71875 8.375,3.71875 5.375,0 10.5,-3.96875 v 3.0625 q -4.96875,3.53125 -11.09375,3.53125 -6.1875,0 -10,-4.4375 -3.8125,-4.4375 -3.8125,-12.53125 0,-7 3.96875,-11.78125 4,-4.8125 10.375,-4.8125 5.96875,0 9.15625,4.1875 3.1875,4.1875 3.1875,11.4375 v 1.28125 z m 20.6875,-2.625 q -0.1875,-5.53125 -2.65625,-8.59375 -2.46875,-3.0625 -6.8125,-3.0625 -4.5,0 -7.46875,3.03125 -2.9375,3 -3.625,8.625 z"
       id="path423" /><path
       d="m 646.44922,381.15219 q -2.25,1.0625 -4.21875,1.0625 -7.09375,0 -7.09375,-8.5 v -21.5 h -5.75 v -2.625 h 5.75 v -8.3125 q 0.6875,-0.25 1.4375,-0.5 0.75,-0.21875 1.4375,-0.46875 v 9.28125 h 8.4375 v 2.625 h -8.4375 v 21.125 q 0,3.3125 1.03125,4.8125 1.0625,1.46875 3.5625,1.46875 1.78125,0 3.84375,-1.15625 z"
       id="path425" /><path
       d="m 669.54297,379.99594 v -3.53125 q 4.8125,3.0625 9.75,3.0625 5.25,0 7.96875,-2.15625 2.71875,-2.1875 2.71875,-6.09375 0,-3.4375 -1.84375,-5.46875 -1.8125,-2.0625 -7.90625,-5.59375 -6.8125,-3.96875 -8.625,-6.625 -1.8125,-2.6875 -1.8125,-6.1875 0,-4.75 3.6875,-8.0625 3.6875,-3.3125 9.84375,-3.3125 4,0 8,1.34375 v 3.25 q -3.9375,-1.78125 -8.40625,-1.78125 -4.5625,0 -7.25,2.3125 -2.65625,2.3125 -2.65625,5.875 0,3.4375 1.8125,5.46875 1.84375,2.03125 7.90625,5.53125 6.28125,3.5625 8.34375,6.34375 2.09375,2.75 2.09375,6.34375 0,5.15625 -3.59375,8.40625 -3.5625,3.25 -10.09375,3.25 -2.3125,0 -5.34375,-0.71875 -3,-0.71875 -4.59375,-1.65625 z"
       id="path427" /><path
       d="m 721.26172,381.58969 v -6.40625 h -0.125 q -1.53125,3.28125 -4.46875,5.25 -2.90625,1.9375 -6.46875,1.9375 -4.5625,0 -7.21875,-2.5625 -2.65625,-2.5625 -2.65625,-6.46875 0,-8.375 11.09375,-10.125 l 9.84375,-1.46875 q 0,-10.3125 -7.75,-10.3125 -5.28125,0 -10.28125,4.25 v -3.46875 q 1.78125,-1.40625 4.8125,-2.40625 3.0625,-1 5.75,-1 4.9375,0 7.625,3.0625 2.71875,3.0625 2.71875,8.90625 v 20.8125 z m -8.8125,-15.9375 q -5.03125,0.71875 -7.0625,2.34375 -2.03125,1.59375 -2.03125,5.21875 0,2.84375 1.875,4.6875 1.90625,1.84375 5.28125,1.84375 4.625,0 7.6875,-3.40625 3.0625,-3.4375 3.0625,-8.84375 v -3.125 z"
       id="path429" /><path
       d="m 735.16797,341.52719 q -0.9375,0 -1.65625,-0.6875 -0.71875,-0.6875 -0.71875,-1.75 0,-1.03125 0.71875,-1.65625 0.75,-0.65625 1.65625,-0.65625 0.96875,0 1.6875,0.625 0.75,0.625 0.75,1.6875 0,1 -0.71875,1.71875 -0.71875,0.71875 -1.71875,0.71875 z m -1.40625,40.0625 v -32 h 2.875 v 32 z"
       id="path431" /><path
       d="m 759.54297,381.15219 q -2.25,1.0625 -4.21875,1.0625 -7.09375,0 -7.09375,-8.5 v -21.5 h -5.75 v -2.625 h 5.75 v -8.3125 q 0.6875,-0.25 1.4375,-0.5 0.75,-0.21875 1.4375,-0.46875 v 9.28125 h 8.4375 v 2.625 h -8.4375 v 21.125 q 0,3.3125 1.03125,4.8125 1.0625,1.46875 3.5625,1.46875 1.78125,0 3.84375,-1.15625 z"
       id="path433" /><path
       d="m 768.98047,350.80844 h -2.6875 v -14.03125 h 2.6875 z"
       id="path435" /><path
       d="m 774.79297,380.18344 v -3.46875 q 1.625,1.40625 3.9375,2.21875 2.3125,0.8125 4,0.8125 7.53125,0 7.53125,-6.15625 0,-2.125 -1.65625,-3.625 -1.65625,-1.5 -5.375,-3.09375 -4.59375,-2 -6.46875,-4.125 -1.84375,-2.15625 -1.84375,-5.21875 0,-3.90625 2.96875,-6.3125 3,-2.40625 7.375,-2.40625 4.125,0 7.0625,1.6875 v 3.25 q -3.5625,-2.3125 -7.375,-2.3125 -3.15625,0 -5.09375,1.65625 -1.9375,1.625 -1.9375,4.25 0,2.28125 1.21875,3.71875 1.21875,1.40625 5.375,3.25 5,2.25 6.875,4.1875 1.875,1.90625 1.875,5.09375 0,3.8125 -2.875,6.3125 -2.84375,2.46875 -7.875,2.46875 -4.625,0 -7.71875,-2.1875 z"
       id="path437" /><path
       d="m 818.04297,379.99594 v -3.53125 q 4.8125,3.0625 9.75,3.0625 5.25,0 7.96875,-2.15625 2.71875,-2.1875 2.71875,-6.09375 0,-3.4375 -1.84375,-5.46875 -1.8125,-2.0625 -7.90625,-5.59375 -6.8125,-3.96875 -8.625,-6.625 -1.8125,-2.6875 -1.8125,-6.1875 0,-4.75 3.6875,-8.0625 3.6875,-3.3125 9.84375,-3.3125 4,0 8,1.34375 v 3.25 q -3.9375,-1.78125 -8.40625,-1.78125 -4.5625,0 -7.25,2.3125 -2.65625,2.3125 -2.65625,5.875 0,3.4375 1.8125,5.46875 1.84375,2.03125 7.90625,5.53125 6.28125,3.5625 8.34375,6.34375 2.09375,2.75 2.09375,6.34375 0,5.15625 -3.59375,8.40625 -3.5625,3.25 -10.09375,3.25 -2.3125,0 -5.34375,-0.71875 -3,-0.71875 -4.59375,-1.65625 z"
       id="path439" /><path
       d="m 863.48047,382.37094 q -7,0 -11.09375,-4.59375 -4.0625,-4.625 -4.0625,-12 0,-7.96875 4.25,-12.46875 4.28125,-4.5 11.25,-4.5 6.84375,0 10.8125,4.46875 3.96875,4.46875 3.96875,12.375 0,7.46875 -4.0625,12.09375 -4.03125,4.625 -11.0625,4.625 z m 0.21875,-30.9375 q -5.65625,0 -9.03125,3.8125 -3.34375,3.8125 -3.34375,10.59375 0,6.28125 3.28125,10.09375 3.28125,3.8125 8.96875,3.8125 5.78125,0 8.90625,-3.75 3.125,-3.75 3.125,-10.40625 0,-6.84375 -3.125,-10.5 -3.09375,-3.65625 -8.78125,-3.65625 z"
       id="path441" /><path
       d="m 898.82422,337.24594 q -1.15625,-0.90625 -3.5,-0.90625 -5.90625,0 -5.90625,7.9375 v 5.3125 h 8.46875 v 2.625 h -8.46875 v 29.375 h -2.875 v -29.375 h -5.75 v -2.625 h 5.75 v -5.5625 q 0,-5.0625 2.53125,-7.6875 2.5625,-2.625 6.375,-2.625 2.03125,0 3.375,0.59375 z"
       id="path443" /><path
       d="m 916.85547,381.15219 q -2.25,1.0625 -4.21875,1.0625 -7.09375,0 -7.09375,-8.5 v -21.5 h -5.75 v -2.625 h 5.75 v -8.3125 q 0.6875,-0.25 1.4375,-0.5 0.75,-0.21875 1.4375,-0.46875 v 9.28125 h 8.4375 v 2.625 h -8.4375 v 21.125 q 0,3.3125 1.03125,4.8125 1.0625,1.46875 3.5625,1.46875 1.78125,0 3.84375,-1.15625 z"
       id="path445" /><path
       d="m 950.32422,381.58969 h -2.6875 l -6.96875,-24.125 q -0.28125,-1 -0.5,-2.6875 h -0.15625 q -0.0625,0.71875 -0.625,2.625 l -7.8125,24.1875 h -2.6875 l -9.65625,-32 h 3.1875 l 7.4375,25.53125 q 0.28125,1 0.4375,2.6875 h 0.25 q 0.0625,-0.90625 0.59375,-2.6875 l 8.125,-25.53125 h 1.96875 l 7.25,25.53125 q 0.25,0.90625 0.4375,2.6875 h 0.25 q 0,-0.90625 0.53125,-2.6875 l 7.59375,-25.53125 h 2.96875 z"
       id="path447" /><path
       d="m 985.63672,381.58969 v -6.40625 h -0.125 q -1.53125,3.28125 -4.46875,5.25 -2.90625,1.9375 -6.46875,1.9375 -4.5625,0 -7.21875,-2.5625 -2.65625,-2.5625 -2.65625,-6.46875 0,-8.375 11.09375,-10.125 l 9.84375,-1.46875 q 0,-10.3125 -7.75,-10.3125 -5.28125,0 -10.28125,4.25 v -3.46875 q 1.78125,-1.40625 4.8125,-2.40625 3.0625,-1 5.75,-1 4.9375,0 7.625,3.0625 2.71875,3.0625 2.71875,8.90625 v 20.8125 z m -8.8125,-15.9375 q -5.03125,0.71875 -7.0625,2.34375 -2.03125,1.59375 -2.03125,5.21875 0,2.84375 1.875,4.6875 1.90625,1.84375 5.28125,1.84375 4.625,0 7.6875,-3.40625 3.0625,-3.4375 3.0625,-8.84375 v -3.125 z"
       id="path449" /><path
       d="m 1013.2305,352.58969 q -1.4375,-1.03125 -3.375,-1.03125 -3.7813,0 -6.3438,3.90625 -2.5625,3.90625 -2.5625,11.09375 v 15.03125 h -2.81248 v -32 h 2.81248 v 7.09375 h 0.125 q 1.0938,-3.65625 3.4688,-5.6875 2.375,-2.03125 5.5,-2.03125 1.7812,0 3.1875,0.5625 z"
       id="path451" /><path
       d="m 1018.668,365.71469 q 0,6.59375 3.0312,10.3125 3.0625,3.71875 8.375,3.71875 5.375,0 10.5,-3.96875 v 3.0625 q -4.9687,3.53125 -11.0937,3.53125 -6.1875,0 -10,-4.4375 -3.8125,-4.4375 -3.8125,-12.53125 0,-7 3.9687,-11.78125 4,-4.8125 10.375,-4.8125 5.9688,0 9.1563,4.1875 3.1875,4.1875 3.1875,11.4375 v 1.28125 z m 20.6875,-2.625 q -0.1875,-5.53125 -2.6563,-8.59375 -2.4687,-3.0625 -6.8125,-3.0625 -4.5,0 -7.4687,3.03125 -2.9375,3 -3.625,8.625 z"
       id="path453" /><path
       d="m 1068.4492,381.58969 v -44.8125 h 11.7813 q 5.2812,0 8.4062,2.84375 3.125,2.84375 3.125,7.53125 0,3.90625 -2.0937,6.78125 -2.0625,2.84375 -5.7813,4.03125 v 0.125 q 4.6563,0.4375 7.3438,3.34375 2.6875,2.875 2.6875,7.34375 0,5.65625 -3.6563,9.25 -3.6562,3.5625 -9.7812,3.5625 z m 3.0938,-41.96875 v 17.34375 h 6.25 q 4.875,0 7.8125,-2.5 2.9375,-2.5 2.9375,-6.78125 0,-8.0625 -9.5313,-8.0625 z m 0,20.15625 v 19 h 8.3125 q 5.2812,0 8.0625,-2.53125 2.8125,-2.53125 2.8125,-7.1875 0,-9.28125 -12.5938,-9.28125 z"
       id="path455" /><path
       d="m 1102.6367,381.58969 v -47.375 h 2.875 v 47.375 z"
       id="path457" /><path
       d="m 1128.6055,382.37094 q -7,0 -11.0938,-4.59375 -4.0625,-4.625 -4.0625,-12 0,-7.96875 4.25,-12.46875 4.2813,-4.5 11.25,-4.5 6.8438,0 10.8125,4.46875 3.9688,4.46875 3.9688,12.375 0,7.46875 -4.0625,12.09375 -4.0313,4.625 -11.0625,4.625 z m 0.2187,-30.9375 q -5.6562,0 -9.0312,3.8125 -3.3438,3.8125 -3.3438,10.59375 0,6.28125 3.2813,10.09375 3.2812,3.8125 8.9687,3.8125 5.7813,0 8.9063,-3.75 3.125,-3.75 3.125,-10.40625 0,-6.84375 -3.125,-10.5 -3.0938,-3.65625 -8.7813,-3.65625 z"
       id="path459" /><path
       d="m 1177.2617,379.21469 q 0,9.03125 -3.9375,13.21875 -3.9375,4.1875 -12.25,4.1875 -4.625,0 -9.5312,-2.4375 v -3 q 5.0625,2.8125 9.5937,2.8125 13.25,0 13.25,-14 v -4.15625 h -0.125 q -3.7812,6.53125 -11.5312,6.53125 -5.9063,0 -9.6563,-4.28125 -3.7187,-4.28125 -3.7187,-11.9375 0,-7.65625 4.0312,-12.5 4.0313,-4.84375 10.625,-4.84375 7.0625,0 10.25,5.84375 h 0.125 v -5.0625 h 2.875 z m -2.875,-17.34375 q 0,-4.25 -2.875,-7.34375 -2.8437,-3.09375 -7.4375,-3.09375 -5.2812,0 -8.5,3.96875 -3.2187,3.96875 -3.2187,10.5 0,6.5625 2.9375,10.21875 2.9687,3.625 7.8125,3.625 5.1562,0 8.2187,-3.34375 3.0625,-3.34375 3.0625,-8.1875 z"
       id="path461" /></g><g
     id="g3051"
     transform="matrix(0.93373674,0,0,0.93355142,71.080506,190.20922)"><g
       id="g3043"><path
         d="m 66.0879,18.4922 c 0.952942,2.1991 2.27106,6.26751 3.95703,12.2051 2.2724,7.99006 3.4082,14.2579 3.4082,18.8027 0,7.91675 -0.841368,14.441 -2.52734,19.5723 -2.49231,7.69684 -6.6709,11.5449 -12.5352,11.5449 -2.71222,-10e-7 -5.31433,-1.35614 -7.80664,-4.06836 1.09955,3.51856 2.89441,7.03613 5.38672,10.5547 2.56562,3.51856 4.80115,7.36859 6.70703,11.5469 1.90588,4.17829 2.85938,10.5544 2.85938,19.1309 0,13.3412 -2.2716,20.0117 -6.81641,20.0117 -2.05249,0 -3.81323,-1.28205 -5.2793,-3.84766 -1.24616,-2.1258 -1.97931,-4.14099 -2.19922,-6.04687 -1.75928,1.61267 -3.18756,4.03051 -4.28711,7.25586 -1.17285,3.22534 -1.75977,6.48846 -1.75977,9.78711 0,11.4353 4.03234,20.9283 12.0957,28.4785 5.13123,4.4715 9.16162,8.13532 12.0938,10.9941 5.27783,5.05793 9.85223,10.565 13.7461,16.6035 1.38307,2.14483 2.93585,5.92842 3.35742,6.88086 1.23973,2.80088 6.20837,9.83343 16.3242,21.0488 10.1158,11.1421 25.7285,17.448 46.8398,18.9141 21.1113,1.46607 38.0821,-5.27856 50.9102,-20.2324 12.7548,-15.0272 18.8744,-30.7139 18.3613,-47.0606 -0.5074,-16.2364 -3.64129,-30.4947 -9.38086,-42.7891 0.007,0.006 0.0143,0.0101 0.0215,0.0156 l -6.59765,-18.4726 c -3.59187,-10.7756 -6.61902,-18.7301 -9.11133,-23.8613 -8.06336,-16.8598 -18.8764,-27.0118 -32.4375,-30.457 1.97919,0.952942 4.39898,3.55505 7.25781,7.80664 3.22535,4.83802 4.83789,9.05267 4.83789,12.6445 0,2.05249 -0.73315,3.5929 -2.19922,4.61914 -1.24616,0.879639 -2.8587,1.31836 -4.83789,1.31836 -1.75928,0 -4.32532,-1.43024 -7.69726,-4.28906 -2.1991,-1.90588 -3.70148,-3.40826 -4.50782,-4.50781 l -0.43945,-0.548828 c -16.7865,-22.5774 -31.5578,-36.0647 -44.3125,-40.4629 -12.9014,-4.3982 -20.3411,-7.29474 -22.3203,-8.6875 l -10.8867,-7.91602 z m 47.9394,53.6582 c 5.42445,0 11.5822,4.87567 18.4727,14.625 6.59729,9.23621 9.89648,16.7861 9.89648,22.6504 0,4.76472 -1.46631,8.02588 -4.39843,9.78516 -2.12579,1.24615 -5.49909,1.86914 -10.1172,1.86914 -7.25702,0 -14.8791,-3.48151 -22.8691,-10.4453 -9.16291,-7.99006 -13.7441,-17.1886 -13.7441,-27.5977 0,-2.3457 0.7312,-4.50909 2.19727,-6.48828 1.46606,-1.97919 3.08056,-2.96875 4.83984,-2.96875 l 2.52734,0.220703 c 1.83258,0 4.4347,0.951537 7.80664,2.85742 l 4.83985,2.85938 -1.21094,-1.97852 -0.66016,-3.41016 c 0,-1.31946 0.80726,-1.97852 2.41992,-1.97852 z m -38.375,26.1699 c 1.61267,0 3.51965,1.09973 5.71875,3.29883 l 0.330078,0.54883 c 2.2724,3.07874 4.39776,7.11108 6.37695,12.0957 1.97919,4.98463 2.96875,8.75861 2.96875,11.3242 0,2.2724 -0.184265,3.8128 -0.550781,4.61914 -0.43982,0.87964 -1.35529,1.31836 -2.74805,1.31836 -4.10498,0 -7.77075,-4.10449 -10.9961,-12.3144 -2.56561,-6.67061 -3.84766,-12.2775 -3.84766,-16.8223 0,-2.71222 0.915466,-4.06836 2.74805,-4.06836 z"
         fill="url(#a)"
         stroke="#f90"
         stroke-linejoin="round"
         stroke-width="2.199"
         id="path1482"
         style="fill:#ff0000;fill-opacity:1;stroke:#ff0000;stroke-width:5.85;stroke-linecap:round;stroke-linejoin:round;stroke-dasharray:none;stroke-opacity:1;filter:url(#filter26850)" /><path
         d="m 66.0879,18.4922 c 0.952942,2.1991 2.27106,6.26751 3.95703,12.2051 2.2724,7.99006 3.4082,14.2579 3.4082,18.8027 0,7.91675 -0.841368,14.441 -2.52734,19.5723 -2.49231,7.69684 -6.6709,11.5449 -12.5352,11.5449 -2.71222,-10e-7 -5.31433,-1.35614 -7.80664,-4.06836 1.09955,3.51856 2.89441,7.03613 5.38672,10.5547 2.56562,3.51856 4.80115,7.36859 6.70703,11.5469 1.90588,4.17829 2.85938,10.5544 2.85938,19.1309 0,13.3412 -2.2716,20.0117 -6.81641,20.0117 -2.05249,0 -3.81323,-1.28205 -5.2793,-3.84766 -1.24616,-2.1258 -1.97931,-4.14099 -2.19922,-6.04687 -1.75928,1.61267 -3.18756,4.03051 -4.28711,7.25586 -1.17285,3.22534 -1.75977,6.48846 -1.75977,9.78711 0,11.4353 4.03234,20.9283 12.0957,28.4785 5.13123,4.4715 9.16162,8.13532 12.0938,10.9941 5.27783,5.05793 9.85223,10.565 13.7461,16.6035 1.38307,2.14483 2.93585,5.92842 3.35742,6.88086 1.23973,2.80088 6.20837,9.83343 16.3242,21.0488 10.1158,11.1421 25.7285,17.448 46.8398,18.9141 21.1113,1.46607 38.0821,-5.27856 50.9102,-20.2324 12.7548,-15.0272 18.8744,-30.7139 18.3613,-47.0606 -0.5074,-16.2364 -3.64129,-30.4947 -9.38086,-42.7891 0.007,0.006 0.0143,0.0101 0.0215,0.0156 l -6.59765,-18.4726 c -3.59187,-10.7756 -6.61902,-18.7301 -9.11133,-23.8613 -8.06336,-16.8598 -18.8764,-27.0118 -32.4375,-30.457 1.97919,0.952942 4.39898,3.55505 7.25781,7.80664 3.22535,4.83802 4.83789,9.05267 4.83789,12.6445 0,2.05249 -0.73315,3.5929 -2.19922,4.61914 -1.24616,0.879639 -2.8587,1.31836 -4.83789,1.31836 -1.75928,0 -4.32532,-1.43024 -7.69726,-4.28906 -2.1991,-1.90588 -3.70148,-3.40826 -4.50782,-4.50781 l -0.43945,-0.548828 c -16.7865,-22.5774 -31.5578,-36.0647 -44.3125,-40.4629 -12.9014,-4.3982 -20.3411,-7.29474 -22.3203,-8.6875 l -10.8867,-7.91602 z m 47.9394,53.6582 c 5.42445,0 11.5822,4.87567 18.4727,14.625 6.59729,9.23621 9.89648,16.7861 9.89648,22.6504 0,4.76472 -1.46631,8.02588 -4.39843,9.78516 -2.12579,1.24615 -5.49909,1.86914 -10.1172,1.86914 -7.25702,0 -14.8791,-3.48151 -22.8691,-10.4453 -9.16291,-7.99006 -13.7441,-17.1886 -13.7441,-27.5977 0,-2.3457 0.7312,-4.50909 2.19727,-6.48828 1.46606,-1.97919 3.08056,-2.96875 4.83984,-2.96875 l 2.52734,0.220703 c 1.83258,0 4.4347,0.951537 7.80664,2.85742 l 4.83985,2.85938 -1.21094,-1.97852 -0.66016,-3.41016 c 0,-1.31946 0.80726,-1.97852 2.41992,-1.97852 z m -38.375,26.1699 c 1.61267,0 3.51965,1.09973 5.71875,3.29883 l 0.330078,0.54883 c 2.2724,3.07874 4.39776,7.11108 6.37695,12.0957 1.97919,4.98463 2.96875,8.75861 2.96875,11.3242 0,2.2724 -0.184265,3.8128 -0.550781,4.61914 -0.43982,0.87964 -1.35529,1.31836 -2.74805,1.31836 -4.10498,0 -7.77075,-4.10449 -10.9961,-12.3144 -2.56561,-6.67061 -3.84766,-12.2775 -3.84766,-16.8223 0,-2.71222 0.915466,-4.06836 2.74805,-4.06836 z"
         fill="url(#a)"
         stroke="#ff9900"
         stroke-linejoin="round"
         stroke-width="2.199"
         id="head"
         style="fill:url(#a)" /></g><g
       id="g3039"><path
         d="m 219.992,164.469 -4.7821,6.94328 q 1.09623,3.89579 1.32386,7.52461 0.56238,8.96532 -1.50888,14.9885 -2.43528,7.01036 -9.50394,14.8471 l 2.61251,0.90762 -0.80166,0.80033 -2.31334,0.46657 q -1.69704,0.10646 -6.87625,-2.676 l -6.10807,-4.00999 -1.00145,-0.68722 -0.10607,0.007 -1.06734,-0.0402 -0.22552,-0.20015 -0.33158,-0.1935 -0.27239,-0.94726 q -0.20085,-3.2019 13.7367,-20.363 12.9505,-15.9205 16.3101,-18.3814 l 0.64977,0.17354 0.2657,0.84053 m -43.4768,40.2298 -0.49684,0.56691 0.4979,1.14742 q 0.14729,2.34806 -14.002,9.3432 -14.9777,7.36856 -24.3114,7.95406 l -6.06015,-1.54854 14.4305,-2.51248 q -15.0489,-0.55608 -22.5746,-13.5849 -4.77819,-8.27226 -5.35396,-17.451 -0.47535,-7.57783 2.12625,-13.6343 2.5815,-6.37664 9.27947,-13.333 l -2.8257,-2.60864 3.42861,2.03507 0.29811,-0.34015 0.57719,0.71385 -0.0927,0.22011 q 14.0728,8.7607 26.8616,20.8165 12.9015,12.1558 22.5886,25.692 l -0.28472,0.55361 -4.08614,-4.02967"
         fill="#fff"
         fill-rule="evenodd"
         id="path3302"
         style="fill:#ff0000;fill-opacity:1;stroke:#ff0000;stroke-width:5.85;stroke-linecap:round;stroke-linejoin:round;stroke-dasharray:none;stroke-opacity:1;filter:url(#filter26846)" /><path
         d="m 219.992,164.469 -4.7821,6.94328 q 1.09623,3.89579 1.32386,7.52461 0.56238,8.96532 -1.50888,14.9885 -2.43528,7.01036 -9.50394,14.8471 l 2.61251,0.90762 -0.80166,0.80033 -2.31334,0.46657 q -1.69704,0.10646 -6.87625,-2.676 l -6.10807,-4.00999 -1.00145,-0.68722 -0.10607,0.007 -1.06734,-0.0402 -0.22552,-0.20015 -0.33158,-0.1935 -0.27239,-0.94726 q -0.20085,-3.2019 13.7367,-20.363 12.9505,-15.9205 16.3101,-18.3814 l 0.64977,0.17354 0.2657,0.84053 m -43.4768,40.2298 -0.49684,0.56691 0.4979,1.14742 q 0.14729,2.34806 -14.002,9.3432 -14.9777,7.36856 -24.3114,7.95406 l -6.06015,-1.54854 14.4305,-2.51248 q -15.0489,-0.55608 -22.5746,-13.5849 -4.77819,-8.27226 -5.35396,-17.451 -0.47535,-7.57783 2.12625,-13.6343 2.5815,-6.37664 9.27947,-13.333 l -2.8257,-2.60864 3.42861,2.03507 0.29811,-0.34015 0.57719,0.71385 -0.0927,0.22011 q 14.0728,8.7607 26.8616,20.8165 12.9015,12.1558 22.5886,25.692 l -0.28472,0.55361 -4.08614,-4.02967"
         fill="#ffffff"
         fill-rule="evenodd"
         id="eyes" /></g></g></svg>
